<svg xmlns="http://www.w3.org/2000/svg" width="41.7" height="20.315" viewBox="0 0 41.7 20.315">
  <path id="arrow-icon" d="M261.4,154.851q-1.316-4.535-2.632-9.068a.544.544,0,0,0-1.049.289q1.023,3.525,2.047,7.051c-4.385-5.334-10.225-10.085-17.021-11.7-6.77-1.61-13.8,1.493-18.221,6.67a19.128,19.128,0,0,0-3.356,5.648,30.1,30.1,0,0,0-1.446,7.052c-.085.695,1,.687,1.088,0a33.336,33.336,0,0,1,1.171-6.078,17.193,17.193,0,0,1,2.9-5.347,19.93,19.93,0,0,1,8.79-6.338,15.393,15.393,0,0,1,9.758-.306,27.663,27.663,0,0,1,9.627,5.25,41.052,41.052,0,0,1,6.225,6.273l-6.485-.831c-.694-.088-.685,1,0,1.088l8.079,1.035A.546.546,0,0,0,261.4,154.851Z" transform="translate(-219.717 -140.995)" fill="#7e8485"/>
</svg>
