<svg xmlns="http://www.w3.org/2000/svg" width="106.784" height="83.598" viewBox="0 0 106.784 83.598">
  <path id="cricle-shape" d="M85.4,5.818a5.873,5.873,0,0,1-1.358-.729,33.143,33.143,0,0,0-5.052-1.913A39.7,39.7,0,0,0,65.9,1.993c-17.33.911-36.888,5.738-52.371,21.95C8.31,29.408.487,39.427,2.28,52.361c.761,5.374,3.912,9.381,6.3,11.932C14.395,70.486,21.131,73.4,27.7,75.313a65.372,65.372,0,0,0,60.466-12.66,43.259,43.259,0,0,0,6.845-7.2,38.717,38.717,0,0,0,4.672-8.288c8.964-22.315-10.213-36.706-18.906-40.713A40.069,40.069,0,0,0,73.883,4" transform="matrix(0.999, 0.035, -0.035, 0.999, 2.778, 0.065)" fill="none" stroke="#c3d9ff" stroke-linecap="round" stroke-linejoin="round" stroke-miterlimit="10" stroke-width="4"/>
</svg>
