<svg id="Layer_1" data-name="Layer 1" xmlns="http://www.w3.org/2000/svg" viewBox="0 0 409.6 409.6"><defs><style>.cls-1{fill:#fefefe;}.cls-2{fill:#010101;}</style></defs><path class="cls-1" d="M653.07,456.4q0-55.27-.07-110.54c0-2.38.48-2.86,2.86-2.86q201.95.11,403.88,0c2.38,0,2.86.48,2.86,2.86q-.11,201.93,0,403.86c0,2.38-.48,2.86-2.86,2.86q-201.94-.11-403.88,0c-2.93,0-2.83-1.13-2.83-3.28q.06-142.07,0-284.14a39.35,39.35,0,0,0,8,11.52q90.57,85.66,181,171.44c10.09,9.56,20.43,9.53,30.55-.06q90.51-85.74,181-171.48a34.15,34.15,0,0,0,3.56-3.76c4.92-6.33,5.89-13.26,2.46-20.54-6-12.77-21.32-14.82-32.33-4.39q-83.55,79.14-167.05,158.36c-2.34,2.23-3.48,2.32-5.88,0q-83.29-79.14-166.77-158.09a39.47,39.47,0,0,0-3.94-3.36,19.22,19.22,0,0,0-28.5,7.05C654.52,453.4,653.8,454.9,653.07,456.4Z" transform="translate(-653 -343)"/><path class="cls-2" d="M653.07,456.4c.73-1.5,1.45-3,2.2-4.49a19.22,19.22,0,0,1,28.5-7.05,39.47,39.47,0,0,1,3.94,3.36q83.41,79,166.77,158.09c2.4,2.28,3.54,2.19,5.88,0Q943.81,527,1027.41,447.91c11-10.43,26.32-8.38,32.33,4.39,3.43,7.28,2.46,14.21-2.46,20.54a34.15,34.15,0,0,1-3.56,3.76q-90.5,85.76-181,171.48c-10.12,9.59-20.46,9.62-30.55.06q-90.52-85.74-181-171.44a39.35,39.35,0,0,1-8-11.52Z" transform="translate(-653 -343)"/></svg>