<svg xmlns="http://www.w3.org/2000/svg" width="1920" height="843" viewBox="0 0 1920 843">
  <path id="Union_1" data-name="Union 1" d="M0,838.04V823H1920v14.037s-218.013-2.007-358.293-3.075c-75.622-.576-134.306,1.907-193.229,4.391-57.3,2.416-114.827,4.83-188.374,4.432-120.865-.655-188.141-9.175-309.012-8.824-109.706.319-218.866,5.748-280.579,5.748s-155.784-1.67-197.726-1.67c0,0-136.678,3.319-199.057,4.746-6.457.148-13.66.214-21.373.214C105.559,843,0,838.04,0,838.04ZM0,823V0H1920V823Z" fill="#fce8d1"/>
</svg>
