<svg xmlns="http://www.w3.org/2000/svg" width="581.494" height="447.511" viewBox="0 0 581.494 447.511">
  <path id="round-shape" d="M472.692,406.043c0-.513-7.391,3.59-7.7,4.1-9.239,4.616-18.787,7.694-28.642,10.771-24.33,7.181-49.277,7.694-74.223,6.668-98.246-5.129-209.118-32.313-296.892-123.612C35.669,273.2-8.68,216.778,1.483,143.945c4.312-30.262,22.175-52.83,35.726-67.191,32.954-34.878,71.143-51.291,108.409-62.062C255.566-16.6,385.225-.184,488.4,85.985a244.313,244.313,0,0,1,38.805,40.52,217.646,217.646,0,0,1,26.486,46.675c50.816,125.664-57.9,206.7-107.177,229.272-16.939,7.694-21.866,8.72-39.113,13.849" transform="matrix(-0.999, 0.035, -0.035, -0.999, 581.494, 427.726)" fill="#cdeb8b"/>
</svg>
