<svg xmlns="http://www.w3.org/2000/svg" width="189.104" height="209.548" viewBox="0 0 189.104 209.548">
  <g id="airplane-icon" transform="translate(441.824 -26.267)">
    <path id="Path_77530" data-name="Path 77530" d="M-254.716,26.267h-2.047c-.771.407-1.521.862-2.316,1.215q-62.84,27.944-125.685,55.877c-.18.064-.362.134-.549.214-.125.054-.248.112-.373.167C-397.509,89-426.838,102.045-438.66,107.3a11.275,11.275,0,0,0-1.647.809,2.993,2.993,0,0,0,.042,5.231,14.457,14.457,0,0,0,1.841.882q28.1,12.492,56.173,25.023a3.329,3.329,0,0,1,1.8,2.034c2.152,15.526,4.2,31.066,6.259,46.6.2,1.526.466,3.056,2.149,3.648,1.739.612,2.943-.337,4.128-1.511q11.922-11.808,23.909-23.551c.515-.507,1.064-.978,1.61-1.477.4.3.672.5.932.715q15.164,12.484,30.326,24.97c4.106,3.382,8.187,6.8,12.326,10.136,2.435,1.965,4.733,1.173,5.583-1.83.13-.458.233-.924.344-1.388q19.954-83.244,39.941-166.48C-252.414,28.948-252.771,27.391-254.716,26.267ZM-380.238,133.412q-24.421-10.95-48.9-21.772c-.563-.25-1.1-.563-1.886-.97.9-.409,1.51-.692,2.125-.965,9.52-4.234,36.548-16.256,46.065-20.5.046-.02.086-.041.131-.062Q-329.2,65.368-275.7,41.587c.721-.321,1.462-.6,2.194-.9a3.188,3.188,0,0,1-1.028,1.3q-51.078,45.408-102.13,90.846A2.827,2.827,0,0,1-380.238,133.412Zm12.133,41.581c-.3.667-.643,1.317-1.217,2.485-.584-4.22-1.1-7.9-1.6-11.592-1.071-7.969-2.084-15.945-3.226-23.9a4.66,4.66,0,0,1,1.64-4.771Q-328,97.82-283.625,58.289c.2-.177.424-.325.636-.486l.289.192q-9.607,11.928-19.214,23.856-26.757,33.213-53.5,66.439a15.879,15.879,0,0,0-2.023,3.281C-361.021,159.364-364.551,167.184-368.1,174.993Zm7.593-1.032-.284-.17,7.928-17.469,5.116,4.209Zm62.305,19.407-51.5-42.409,87.236-108.293.387.223Z" fill="#356aa0"/>
    <path id="Path_77531" data-name="Path 77531" d="M-386.868,345.311a13.668,13.668,0,0,0-1.19,1.121q-19.245,19.248-38.481,38.5a9.024,9.024,0,0,0-1.454,1.7c-1.2,2.031.225,4.554,3.139,4.581a14.232,14.232,0,0,0,2.331-1.651q19.645-19.57,39.233-39.2a8.736,8.736,0,0,0,.7-.746,3.011,3.011,0,0,0-.018-4.253A3.1,3.1,0,0,0-386.868,345.311Z" transform="translate(-6.547 -155.405)" fill="#356aa0"/>
    <path id="Path_77532" data-name="Path 77532" d="M-293.671,344.944a8.658,8.658,0,0,0-1.54,1.328q-12.585,12.574-25.151,25.167c-.526.527-1.259,1.07-1.395,1.712a4.912,4.912,0,0,0,.152,3.034c.392.768,1.516,1.161,2.507,1.851a28.041,28.041,0,0,0,3.049-2.283q12.622-12.537,25.176-25.142a9.052,9.052,0,0,0,1.331-1.539,2.785,2.785,0,0,0-.4-3.726A2.825,2.825,0,0,0-293.671,344.944Z" transform="translate(-58.554 -155.369)" fill="#356aa0"/>
    <path id="Path_77533" data-name="Path 77533" d="M-395.728,310.246q13.035-13,26.034-26.03a5.136,5.136,0,0,0,1.068-1.475c.869-1.946-.62-4.189-3.284-4.206a12.2,12.2,0,0,0-2.249,1.52q-12.842,12.756-25.6,25.593c-.519.521-1.231,1.17-1.259,1.787-.048,1.055.046,2.461.692,3.1s2.043.68,3.118.707C-396.722,311.258-396.153,310.67-395.728,310.246Z" transform="translate(-19.92 -123.194)" fill="#356aa0"/>
  </g>
</svg>
