<svg xmlns="http://www.w3.org/2000/svg" width="77.811" height="24.836" viewBox="0 0 77.811 24.836">
  <path id="amazon-pay" d="M276.7,256.495a3.018,3.018,0,0,1-2.493-1.556,3.56,3.56,0,0,1-.418-1.356l-2.212-14.44a2.33,2.33,0,0,0,1.424.6.825.825,0,0,0,.207-.022l21.777-3.494a4.908,4.908,0,0,1,.926-.094,2.76,2.76,0,0,1,2.419,1.212,3.284,3.284,0,0,1,.5,1.211l2.1,13.858a3.871,3.871,0,0,1-.548,3.087,2.762,2.762,0,0,1-1.781.989Zm14.1-3.664a6.179,6.179,0,0,0,.969.088,2.388,2.388,0,0,0,1.332-.319,2.093,2.093,0,0,0,.732-.852,13.469,13.469,0,0,0,.614-1.722l2.145-7.113h-1.465l-1.267,4.412-1.317-4.412H290.41l2.491,7.414a1.626,1.626,0,0,1-.305.684,1.031,1.031,0,0,1-.8.243,5.338,5.338,0,0,1-.992-.1Zm-14.34,0h1.958V249.5a1.716,1.716,0,0,0,1.653.977,2.2,2.2,0,0,0,1.859-1,5.074,5.074,0,0,0,.715-2.955,4.73,4.73,0,0,0-.708-2.808,2.173,2.173,0,0,0-1.816-.965,1.829,1.829,0,0,0-1.8,1.241v-1.087h-1.856Zm7.223-5.3a2.536,2.536,0,0,0,.41,2.038,2.62,2.62,0,0,0,1.685.873,1.2,1.2,0,0,0,.285.033,3.086,3.086,0,0,0,1.811-.965c-.074.5.114.582.117.583l1.281.117c.205-.022.463-.462.469-.469,0-.046.13-4.631,0-5.24a2.767,2.767,0,0,0-.7-1.165c-.248-.487-.9-.734-1.933-.734a10.31,10.31,0,0,0-2.144.268,1.412,1.412,0,0,0-.816.82,1.455,1.455,0,0,0,.117,1.042.387.387,0,0,0,.22.073.531.531,0,0,0,.362-.19,5.52,5.52,0,0,1,1.615-.293c1.047,0,1.295.519,1.3.524.152.632.086.924,0,1.057a.223.223,0,0,1-.117.107,4.219,4.219,0,0,0-1.243-.2,3.046,3.046,0,0,0-2.72,1.721Zm-45.735,7.4a16.447,16.447,0,0,1-5.09-3.222.25.25,0,0,1-.087-.272.188.188,0,0,1,.18-.117.312.312,0,0,1,.161.05,22.213,22.213,0,0,0,11.224,3.046,21.968,21.968,0,0,0,8.565-1.793.469.469,0,0,1,.187-.04.352.352,0,0,1,.34.227.371.371,0,0,1-.168.41,15.944,15.944,0,0,1-9.184,2.874,16.474,16.474,0,0,1-6.129-1.164Zm15.689.17a.2.2,0,0,1,0-.19c.293-.742.974-2.479.654-2.9-.124-.162-.487-.244-1.081-.244a16.038,16.038,0,0,0-1.8.142h-.062a.149.149,0,0,1-.158-.089c-.025-.078.029-.179.138-.258a4.458,4.458,0,0,1,2.519-.7,2.523,2.523,0,0,1,1.5.321c.274.349-.062,2.732-1.406,3.877a.331.331,0,0,1-.2.09.123.123,0,0,1-.107-.049Zm48.911-2.8h0L300.105,236a2.746,2.746,0,0,0-2.844-2.1c-.113,0-.182.006-.185.006l-21.893,3.959c-.429-.011-.689-.117-.773-.31-.148-.343.3-.848.307-.854l23.873-5.007a4.7,4.7,0,0,1,.527-.03,3,3,0,0,1,2.513,1.18,3.307,3.307,0,0,1,.568,1.18l2.329,15.022a3.085,3.085,0,0,1-1.979,3.261Zm-44.722-2.737a4.745,4.745,0,0,1-.765-2.745,4.61,4.61,0,0,1,.77-2.735,2.778,2.778,0,0,1,4.155-.33,4.378,4.378,0,0,1,1.076,3.139,4.448,4.448,0,0,1-.82,2.695,2.7,2.7,0,0,1-2.207,1.106,2.622,2.622,0,0,1-2.209-1.13Zm1.184-2.965v.027a7.608,7.608,0,0,0,.128,1.64c.153.661.456,1,.9,1a.814.814,0,0,0,.6-.24,3.191,3.191,0,0,0,.474-2.114,6.594,6.594,0,0,0-.2-1.844.835.835,0,0,0-.865-.672c-.919,0-1.036,1.179-1.036,2.207Zm-32.27,1.937a2.315,2.315,0,0,1,1.411-2.212,7.207,7.207,0,0,1,2.088-.428c.14-.015.272-.029.4-.044v-.28a1.56,1.56,0,0,0-.16-.879.863.863,0,0,0-.741-.351,1.01,1.01,0,0,0-1.064.813c-.023.117-.108.243-.229.248l-1.289-.141a.239.239,0,0,1-.2-.284,2.74,2.74,0,0,1,2.958-2.073,3.03,3.03,0,0,1,1.992.674,2.647,2.647,0,0,1,.582,2.115v2.327a1.726,1.726,0,0,0,.419,1.146l.078.11a.259.259,0,0,1,0,.36c-.245.209-.685.6-1.014.9h0a.265.265,0,0,1-.176.066.285.285,0,0,1-.137-.035,2.864,2.864,0,0,1-.656-.75c-.031-.048-.065-.1-.1-.155a2.586,2.586,0,0,1-2.181.985,1.9,1.9,0,0,1-1.975-2.111Zm2.558-1.347a1.164,1.164,0,0,0-.624,1.113c0,.605.308.981.8.981a1.063,1.063,0,0,0,.915-.615,2.562,2.562,0,0,0,.247-1.358v-.371a2.893,2.893,0,0,0-1.34.247Zm14.787,1.347a2.291,2.291,0,0,1,1.41-2.214,7.191,7.191,0,0,1,2.09-.427h.005l.393-.043v-.274a1.541,1.541,0,0,0-.163-.879.879.879,0,0,0-.74-.351,1.009,1.009,0,0,0-1.063.813.281.281,0,0,1-.231.248l-1.282-.141a.234.234,0,0,1-.2-.284,2.738,2.738,0,0,1,2.958-2.073,3.024,3.024,0,0,1,1.992.674,2.667,2.667,0,0,1,.586,2.121v2.321a1.728,1.728,0,0,0,.418,1.146l.078.11a.257.257,0,0,1-.006.359c-.267.228-.749.661-1.013.9a.277.277,0,0,1-.176.064.293.293,0,0,1-.139-.035,2.846,2.846,0,0,1-.66-.755l-.1-.15a2.586,2.586,0,0,1-2.181.985,1.9,1.9,0,0,1-1.979-2.115Zm2.555-1.347a1.164,1.164,0,0,0-.624,1.113c0,.605.309.981.807.981a1.074,1.074,0,0,0,.913-.615,2.553,2.553,0,0,0,.248-1.358v-.371a2.9,2.9,0,0,0-1.343.247Zm21.265,3.366a.254.254,0,0,1-.234-.22v-3.965a2.246,2.246,0,0,0-.3-1.493.7.7,0,0,0-.523-.2.868.868,0,0,0-.766.556,3.105,3.105,0,0,0-.212,1.317V250.3a.256.256,0,0,1-.259.253h-1.316a.254.254,0,0,1-.239-.253v-6.955a.253.253,0,0,1,.255-.227h1.226a.255.255,0,0,1,.234.2v1.063h.021a1.8,1.8,0,0,1,1.8-1.406,1.741,1.741,0,0,1,1.547.82,4.511,4.511,0,0,1,.346,2.168v4.377a.26.26,0,0,1-.257.22Zm-33.638,0a.249.249,0,0,1-.234-.23v-6.958a.253.253,0,0,1,.255-.25h1.234a.249.249,0,0,1,.24.234v.909h.022a1.805,1.805,0,0,1,3.46,0,1.887,1.887,0,0,1,1.829-1.289,1.86,1.86,0,0,1,1.53.762,3.086,3.086,0,0,1,.337,1.854c0,.108,0,.219,0,.326V250.3a.254.254,0,0,1-.255.251h-1.321a.257.257,0,0,1-.238-.251v-3.9a6.691,6.691,0,0,0-.039-1.091.687.687,0,0,0-.777-.6.879.879,0,0,0-.791.569,3.971,3.971,0,0,0-.123,1.242V250.3a.254.254,0,0,1-.255.251h-1.321a.254.254,0,0,1-.239-.251v-3.93a2.183,2.183,0,0,0-.289-1.476.716.716,0,0,0-.531-.2.776.776,0,0,0-.571.213,2.432,2.432,0,0,0-.34,1.613V250.3a.253.253,0,0,1-.254.251Zm16.938-.428v-1.009a1.23,1.23,0,0,1,.161-.683l2.611-3.834H251.7a.242.242,0,0,1-.251-.25v-1a.241.241,0,0,1,.245-.252h4.347a.243.243,0,0,1,.251.252v.851a1.414,1.414,0,0,1-.326.626l-2.257,3.293h.175a4.569,4.569,0,0,1,2.305.547.461.461,0,0,1,.234.386v1.062a.255.255,0,0,1-.228.252.2.2,0,0,1-.092-.023,4.876,4.876,0,0,0-2.3-.568,4.811,4.811,0,0,0-2.291.574.171.171,0,0,1-.084.023.257.257,0,0,1-.23-.256Zm34.226-2.013s-.028-.829.582-.931a3.975,3.975,0,0,1,1.748.117,1.384,1.384,0,0,1-1.281,1.863s-1.093-.053-1.049-1.054Zm-6.552.6a1.117,1.117,0,0,1-.372-.54,4.482,4.482,0,0,1-.088-1.087v-1.1a2.064,2.064,0,0,1,.332-1.322.966.966,0,0,1,.739-.389c.71,0,1.07.739,1.07,2.2a4.047,4.047,0,0,1-.325,2.022.917.917,0,0,1-.738.459.944.944,0,0,1-.618-.244Z" transform="translate(-226.741 -231.659)" fill="#fff"/>
</svg>
