<svg xmlns="http://www.w3.org/2000/svg" width="210" height="65" viewBox="0 0 210 65">
  <g id="app-store-btn" transform="translate(-1660 -4841)">
    <rect id="Rectangle_17482" data-name="Rectangle 17482" width="210" height="65" rx="5" transform="translate(1660 4841)" fill="#fff"/>
    <g id="app-store-btn-2" data-name="app-store-btn" transform="translate(13431.098 12385)">
      <g id="Group_39459" data-name="Group 39459">
        <g id="Group_39458" data-name="Group 39458" transform="translate(0 -1)">
          <g id="Group_39457" data-name="Group 39457">
            <path id="Path_64400" data-name="Path 64400" d="M32.143,65.959a7.348,7.348,0,0,1,3.5-6.166,7.525,7.525,0,0,0-5.926-3.2c-2.494-.261-4.911,1.493-6.183,1.493-1.3,0-3.251-1.467-5.358-1.423a7.891,7.891,0,0,0-6.641,4.051c-2.872,4.972-.731,12.28,2.021,16.3,1.376,1.967,2.985,4.166,5.09,4.087,2.06-.085,2.829-1.312,5.315-1.312,2.464,0,3.185,1.312,5.333,1.264,2.21-.037,3.6-1.978,4.93-3.964a16.248,16.248,0,0,0,2.255-4.592A7.1,7.1,0,0,1,32.143,65.959Z" transform="translate(-11755.271 -7575.861)"/>
            <path id="Path_64401" data-name="Path 64401" d="M25.015,55.78A7.23,7.23,0,0,0,26.671,50.6a7.36,7.36,0,0,0-4.763,2.464,6.883,6.883,0,0,0-1.7,4.992A6.085,6.085,0,0,0,25.015,55.78Z" transform="translate(-11752.199 -7577.693)"/>
          </g>
          <text id="Download_on_the" data-name="Download on the" transform="translate(-11707 -7517)" fill="#888" font-size="15" font-family="LibreFranklin-Medium, Libre Franklin" font-weight="500"><tspan x="0" y="0">Download on the</tspan></text>
          <text id="App_Store" data-name="App Store" transform="translate(-11707 -7495)" fill="#202020" font-size="19" font-family="LibreFranklin-Bold, Libre Franklin" font-weight="700"><tspan x="0" y="0">App Store</tspan></text>
        </g>
      </g>
    </g>
  </g>
</svg>
