<svg id="avatar2" xmlns="http://www.w3.org/2000/svg" width="480" height="480" viewBox="0 0 480 480">
  <g id="Group_49581" data-name="Group 49581">
    <circle id="Ellipse_17643" data-name="Ellipse 17643" cx="240" cy="240" r="240" fill="#fff"/>
  </g>
  <g id="Group_49583" data-name="Group 49583">
    <g id="Group_49582" data-name="Group 49582">
      <path id="Path_78912" data-name="Path 78912" d="M240,360.07c-27.944,0-53.3-11.991-72-31.372-.014,11.615-.436,28.379-3.516,40.611a7.971,7.971,0,0,1,3.894,5.784c3.992,32.484,34.781,56.977,71.625,56.977s67.625-24.5,71.625-56.977a7.878,7.878,0,0,1,3.895-5.78c-3.08-12.233-3.5-29-3.517-40.615C293.3,348.079,267.944,360.07,240,360.07Z" fill="#f0f6ff"/>
    </g>
  </g>
  <g id="Group_49585" data-name="Group 49585">
    <g id="Group_49584" data-name="Group 49584">
      <path id="Path_78913" data-name="Path 78913" d="M310.44,330.174c-18.549,18.477-43.242,29.9-70.44,29.9-27.944,0-53.3-11.991-72-31.372-.014,11.615-.436,28.379-3.516,40.611a7.971,7.971,0,0,1,3.894,5.784A60.857,60.857,0,0,0,187.6,412.047C235.766,405.265,290.437,357.7,310.44,330.174Z" fill="#d7dbe0"/>
    </g>
  </g>
  <g id="Group_49587" data-name="Group 49587">
    <g id="Group_49586" data-name="Group 49586">
      <path id="Path_78914" data-name="Path 78914" d="M312,160.07H176a40.047,40.047,0,0,0-40,40v48c0,61.758,46.656,112,104,112s104-50.242,104-112v-56A32.035,32.035,0,0,0,312,160.07Z" fill="#f0f6ff"/>
    </g>
  </g>
  <g id="Group_49589" data-name="Group 49589">
    <g id="Group_49588" data-name="Group 49588">
      <path id="Path_78915" data-name="Path 78915" d="M296,72.07H192a32.063,32.063,0,0,0-31.1,24.449A56.084,56.084,0,0,0,112,152.07v40a71.582,71.582,0,0,0,24,53.52V200.07a40.047,40.047,0,0,1,40-40H312a32.034,32.034,0,0,1,32,32v53.511a71.557,71.557,0,0,0,24-53.511v-48A72.081,72.081,0,0,0,296,72.07Z" fill="#5c546a"/>
    </g>
  </g>
  <g id="Group_49590" data-name="Group 49590">
    <path id="Path_78916" data-name="Path 78916" d="M61.632,400.544a239.934,239.934,0,0,0,356.736,0,60.246,60.246,0,0,0-32.352-22.659,7.494,7.494,0,0,0-.969-.207L321.188,368.1a14.9,14.9,0,0,0-1.625-.09,8,8,0,0,0-7.938,7.023c-4,32.48-34.789,56.977-71.625,56.977s-67.633-24.492-71.625-56.977a8.007,8.007,0,0,0-8.141-7.02,6.82,6.82,0,0,0-1.422.086l-63.859,9.582a7.529,7.529,0,0,0-.969.207A60.257,60.257,0,0,0,61.632,400.544Z" fill="#cdeb8b"/>
  </g>
</svg>
