<svg xmlns="http://www.w3.org/2000/svg" width="94.668" height="25.251" viewBox="0 0 94.668 25.251">
  <path id="bajaj-finserv" d="M618.2,150.389a12.625,12.625,0,1,1,8.927,3.7,12.625,12.625,0,0,1-8.927-3.7Zm7.7-1.883h2.452c2.788,0,6.495-.384,6.495-3.709,0-1.551-1-2.65-2.96-3.265a.026.026,0,0,1-.006-.021h-.046l.026-.006.025-.006a.028.028,0,0,0,0,.013h.008V141.5c1.8-.476,2.959-1.705,2.959-3.132a3.1,3.1,0,0,0-2.312-3.023,12.127,12.127,0,0,0-4.183-.578H620v13.74h3.124V137.632s0-.045.038-.045h7.646a.041.041,0,0,1,.041.045v2.18a.04.04,0,0,1-.041.041H625.9v3.226H630.5a.041.041,0,0,1,.041.04v2.18a.04.04,0,0,1-.041.041H625.9Zm47.374,4.784c-1.794-.037-3.581-1.969-3.581-1.969l1.611-1.611a6,6,0,0,0,2.149,1.074c1.9.356,1.97-.537,1.97-.537.1-.9-1.97-1.074-1.97-1.074-3.8-.755-3.222-3.582-3.222-3.582.426-2.831,3.76-2.865,3.76-2.865,3.077.176,3.76,1.432,3.76,1.432l-1.253,1.969a4.877,4.877,0,0,0-2.686-1.074c-1.757.249-.537,1.432-.537,1.432,1.358.32,3.4.9,3.4.9,2.252,1,1.432,3.761,1.432,3.761-.527,1.972-3.374,2.159-4.436,2.159-.25,0-.4-.009-.4-.009Zm-19.177-.545V142.716h2.723v10.029Zm48.242,0-3.784-10.029h3.029l2.25,6.227,2.258-6.227h3.052l-3.815,10.029Zm-6.766,0-2-3.547h-1.479v3.547h-2.733V142.716h4.462a5.452,5.452,0,0,1,3.154.791,2.566,2.566,0,0,1,1.136,2.236,2.966,2.966,0,0,1-.479,1.734,3.327,3.327,0,0,1-1.5,1.113l2.367,4.049v.1Zm-3.48-5.407h1.728a1.675,1.675,0,0,0,1.172-.362,1.308,1.308,0,0,0,.393-1.012,1.323,1.323,0,0,0-.4-1.019,1.657,1.657,0,0,0-1.168-.37h-1.728ZM679.9,152.745V142.716h7.825v1.866H682.63V146.7h4.3v1.791h-4.3v2.4h5.076v1.86Zm-14.427,0-4.018-6.238v6.241H658.72V142.718h2.733l4.01,6.24v-6.242h2.725v10.029Zm-20.282,0V142.716h7.583v1.866h-4.851v2.308h4.406v1.859h-4.406v4Zm55.628-13.069a1.219,1.219,0,0,1-1.008-.566l-.9-1.552h5.858c.706,0,1.279-.361,1.279-1.095V129.6h3.124v7.175c0,2.174-1.369,2.9-3.163,2.9Zm-5.371,0-1-1.8h-5.434l.927-1.559a1.211,1.211,0,0,1,1-.571H693.3l-2.057-3.726-4.2,7.652h-3.662l5.858-10.079h4.009l5.858,10.079Zm-20.094,0a1.223,1.223,0,0,1-1.008-.566l-.9-1.552H679.3c.707,0,1.279-.361,1.279-1.095V129.6h3.115v7.175c0,2.174-1.369,2.9-3.163,2.9Zm-5.378,0-.982-1.8h-5.439l.912-1.559a1.219,1.219,0,0,1,1.01-.571h2.352l-2.057-3.726-4.2,7.652H657.9l5.864-10.079h4.009l5.858,10.079ZM645.189,129.6h8.487c1.75,0,4.565.25,4.565,2.644a2.553,2.553,0,0,1-2.128,2.308c1.417.452,2.128,1.281,2.128,2.411,0,2.469-2.677,2.706-4.565,2.712l-8.487,0Zm3.116,10.076.9-1.549a1.23,1.23,0,0,1,1.011-.566h3.423a1.066,1.066,0,0,0,.165-2.126,1.078,1.078,0,0,0-.165,0h-5.331Zm0-4.242.9-1.547a1.223,1.223,0,0,1,1.011-.566h3.461c.62,0,1.122-.293,1.122-.8s-.5-.8-1.122-.8H648.3Z" transform="translate(-614.499 -128.836)" fill="#fff"/>
</svg>
