<svg xmlns="http://www.w3.org/2000/svg" width="1160" height="150" viewBox="0 0 1160 150">
  <g id="banner-form" transform="translate(-140 -681)">
    <g id="Group_44660" data-name="Group 44660" transform="translate(0 52)">
      <rect id="Rectangle_7684" data-name="Rectangle 7684" width="1160" height="150" rx="15" transform="translate(140 629)" fill="#fff"/>
      <g id="Group_44659" data-name="Group 44659" transform="translate(-25 -506)">
        <rect id="Rectangle_7685" data-name="Rectangle 7685" width="70" height="70" rx="10" transform="translate(1205 1175)" fill="#4096ee"/>
        <path id="primary" d="M23.222,13.111A10.111,10.111,0,1,1,13.111,3,10.111,10.111,0,0,1,23.222,13.111ZM29,29l-8.667-8.667" transform="translate(1224.5 1194.5)" fill="none" stroke="#fff" stroke-linecap="round" stroke-linejoin="round" stroke-width="2"/>
      </g>
    </g>
    <text id="Keywords" transform="translate(190 783)" fill="#6daff2" font-size="16" font-family="AktivGroteskW06-Regular"><tspan x="0" y="0">Keywords</tspan></text>
    <text id="Search_for_Trial" data-name="Search for Trial" transform="translate(190 748)" fill="#356aa0" font-size="24" font-family="AktivGroteskW06-Bold" font-weight="700"><tspan x="0" y="0">Search for Trial</tspan></text>
    <text id="Select" transform="translate(520 783)" fill="#6daff2" font-size="16" font-family="AktivGroteskW06-Regular"><tspan x="0" y="0">Select</tspan></text>
    <text id="Condition" transform="translate(520 748)" fill="#356aa0" font-size="24" font-family="AktivGroteskW06-Bold" font-weight="700"><tspan x="0" y="0">Condition</tspan></text>
    <text id="Enter_Code" data-name="Enter Code" transform="translate(850 783)" fill="#6daff2" font-size="16" font-family="AktivGroteskW06-Regular"><tspan x="0" y="0">Enter Code</tspan></text>
    <text id="Zip_Code" data-name="Zip Code" transform="translate(850 748)" fill="#356aa0" font-size="24" font-family="AktivGroteskW06-Bold" font-weight="700"><tspan x="0" y="0">Zip Code</tspan></text>
    <g id="Group_43993" data-name="Group 43993" transform="translate(406 588)">
      <rect id="Rectangle_6674" data-name="Rectangle 6674" width="24" height="24" transform="translate(320 178)" fill="none"/>
      <g id="arrow_10_" data-name="arrow (10)" transform="translate(326.001 187)">
        <path id="Path_74422" data-name="Path 74422" d="M6,6.84a.838.838,0,0,1-.594-.246L.246,1.435A.84.84,0,0,1,1.435.246L6,4.812,10.565.246a.84.84,0,1,1,1.188,1.188l-5.16,5.16A.838.838,0,0,1,6,6.84Z" transform="translate(0 0)" fill="#6daff2"/>
      </g>
    </g>
  </g>
</svg>
