<svg xmlns="http://www.w3.org/2000/svg" width="683" height="683" viewBox="0 0 683 683">
  <g id="Group_49056" data-name="Group 49056" transform="translate(-1097 -185)">
    <path id="O6RAK90" d="M341.5,0H683a0,0,0,0,1,0,0V341.5A341.5,341.5,0,0,1,341.5,683h0A341.5,341.5,0,0,1,0,341.5v0A341.5,341.5,0,0,1,341.5,0Z" transform="translate(1097 185)" fill="#cdeb8b"/>
    <g id="Group_49055" data-name="Group 49055" transform="translate(1035 355.856)">
      <g id="Group_44644" data-name="Group 44644" transform="translate(183 129)">
        <path id="Path_77601" data-name="Path 77601" d="M745.29,684.671a9.686,9.686,0,1,0,9.686,9.685A9.687,9.687,0,0,0,745.29,684.671Z" transform="translate(-718.15 -684.671)" fill="#fff"/>
        <path id="Path_77602" data-name="Path 77602" d="M746.232,703.05a7.749,7.749,0,1,1,7.75-7.751A7.75,7.75,0,0,1,746.232,703.05Z" transform="translate(-719.092 -685.613)" fill="#4096ee"/>
        <path id="Path_77603" data-name="Path 77603" d="M754.279,710.586a9.693,9.693,0,0,0-9.693,9.7v7.757H729.076v-7.757a9.693,9.693,0,1,0-9.693,9.7h7.755v7.758a9.693,9.693,0,1,0,19.385,0v-7.758h7.756a9.7,9.7,0,0,0,0-19.391Z" transform="translate(-709.69 -693.15)" fill="#fff"/>
        <path id="Path_77604" data-name="Path 77604" d="M720.318,728.962a7.749,7.749,0,1,1,7.75-7.749v7.749Z" transform="translate(-710.632 -694.073)" fill="#4096ee"/>
        <path id="Path_77605" data-name="Path 77605" d="M753.982,747.127a7.749,7.749,0,0,1-15.5,0v-7.75h15.5Z" transform="translate(-719.092 -702.532)" fill="#4096ee"/>
        <path id="Path_77606" data-name="Path 77606" d="M772.146,728.962H764.4v-7.749a7.75,7.75,0,1,1,7.75,7.749Z" transform="translate(-727.551 -694.073)" fill="#4096ee"/>
      </g>
      <g id="Group_44646" data-name="Group 44646" transform="translate(263.129 143.216)">
        <path id="Path_77607" data-name="Path 77607" d="M620.564,787.076l-2.958,2.268a16.162,16.162,0,0,0-5.877-4.83,17.182,17.182,0,0,0-7.532-1.645,16.655,16.655,0,0,0-8.312,2.154,15.459,15.459,0,0,0-5.926,5.786,16.012,16.012,0,0,0-2.1,8.171,15.334,15.334,0,0,0,4.7,11.446,16.3,16.3,0,0,0,11.866,4.589,16.69,16.69,0,0,0,13.18-6.169l2.958,2.244a18.916,18.916,0,0,1-7,5.519,21.967,21.967,0,0,1-9.368,1.95q-9.842,0-15.525-6.551a19.763,19.763,0,0,1-4.768-13.359,18.576,18.576,0,0,1,5.775-13.855,19.905,19.905,0,0,1,14.468-5.621,21.239,21.239,0,0,1,9.483,2.077A18.41,18.41,0,0,1,620.564,787.076Z" transform="translate(-583.904 -778.459)" fill="#fff"/>
        <path id="Path_77608" data-name="Path 77608" d="M623.431,779.173H627v38.443h-3.569Z" transform="translate(-580.372 -778.459)" fill="#fff"/>
        <path id="Path_77609" data-name="Path 77609" d="M634.891,778.518a2.821,2.821,0,0,1,2.081.866,2.945,2.945,0,0,1-2.081,5.023,2.954,2.954,0,0,1-2.918-2.932,2.852,2.852,0,0,1,.863-2.09A2.793,2.793,0,0,1,634.891,778.518Zm-1.772,11.421h3.57v27.736h-3.57Z" transform="translate(-579.609 -778.518)" fill="#fff"/>
        <path id="Path_77610" data-name="Path 77610" d="M643.111,789.061h3.571v4.971a14.908,14.908,0,0,1,4.741-4.27,11.649,11.649,0,0,1,5.659-1.415,9.838,9.838,0,0,1,5.52,1.581,9.423,9.423,0,0,1,3.557,4.257q1.147,2.678,1.146,8.336V816.8h-3.568V803.565a32.593,32.593,0,0,0-.4-6.4,7.023,7.023,0,0,0-2.379-4.142,7.179,7.179,0,0,0-4.589-1.39,8.808,8.808,0,0,0-5.8,2.142,10.032,10.032,0,0,0-3.378,5.3,36.913,36.913,0,0,0-.509,7.546V816.8h-3.571Z" transform="translate(-578.614 -777.64)" fill="#fff"/>
        <path id="Path_77611" data-name="Path 77611" d="M673.716,778.518a2.824,2.824,0,0,1,2.081.866,2.945,2.945,0,0,1-2.081,5.023,2.954,2.954,0,0,1-2.919-2.932,2.856,2.856,0,0,1,.863-2.09A2.794,2.794,0,0,1,673.716,778.518Zm-1.772,11.421h3.568v27.736h-3.568Z" transform="translate(-576.141 -778.518)" fill="#fff"/>
        <path id="Path_77612" data-name="Path 77612" d="M708.963,794.822l-2.829,1.758a11.853,11.853,0,0,0-10.007-4.869,11.578,11.578,0,0,0-8.415,3.258,10.642,10.642,0,0,0-3.351,7.921,11.252,11.252,0,0,0,1.541,5.7,10.792,10.792,0,0,0,4.227,4.149,12.778,12.778,0,0,0,16-3.39l2.829,1.861a13.353,13.353,0,0,1-5.341,4.645,17.05,17.05,0,0,1-7.635,1.653,15.087,15.087,0,0,1-10.91-4.181,13.6,13.6,0,0,1-4.334-10.172,14.523,14.523,0,0,1,2.026-7.483,14.271,14.271,0,0,1,5.57-5.391,16.255,16.255,0,0,1,7.929-1.938,16.894,16.894,0,0,1,5.315.842,14.778,14.778,0,0,1,4.346,2.192A11.869,11.869,0,0,1,708.963,794.822Z" transform="translate(-575.252 -777.64)" fill="#fff"/>
        <path id="Path_77613" data-name="Path 77613" d="M740.679,789.061V816.8h-3.516v-4.767a15.313,15.313,0,0,1-5.035,4.1,14.064,14.064,0,0,1-16.163-2.893,14.322,14.322,0,0,1-4.168-10.389A14.055,14.055,0,0,1,716,792.6a13.712,13.712,0,0,1,10.12-4.257A13.084,13.084,0,0,1,732.3,789.8a14.057,14.057,0,0,1,4.857,4.36v-5.1Zm-14.262,2.728a10.766,10.766,0,0,0-9.511,5.576,11.229,11.229,0,0,0,.013,11.2,10.916,10.916,0,0,0,4.035,4.162,10.529,10.529,0,0,0,5.437,1.492,11.13,11.13,0,0,0,5.552-1.479,10.328,10.328,0,0,0,4.036-4,11.408,11.408,0,0,0,1.413-5.677,11.042,11.042,0,0,0-3.17-8.048A10.509,10.509,0,0,0,726.417,791.788Z" transform="translate(-572.478 -777.64)" fill="#fff"/>
        <path id="Path_77614" data-name="Path 77614" d="M745.191,779.173h3.57v38.443h-3.57Z" transform="translate(-569.494 -778.459)" fill="#fff"/>
        <g id="Group_44645" data-name="Group 44645" transform="translate(183.498)">
          <path id="Path_77615" data-name="Path 77615" d="M755.922,779.617h6.96v10.224h4.13v5.99h-4.13v21.746h-6.96V795.831h-3.57v-5.99h3.57Z" transform="translate(-752.352 -778.42)" fill="#4096ee"/>
          <path id="Path_77616" data-name="Path 77616" d="M767.727,789.061h5.966v3.492a7.444,7.444,0,0,1,2.574-3.136,6.22,6.22,0,0,1,3.519-1.071,6.5,6.5,0,0,1,2.829.715l-2.167,5.99a4.787,4.787,0,0,0-2.013-.611,3.187,3.187,0,0,0-2.716,1.988q-1.108,1.989-1.108,7.8l.025,1.351V816.8h-6.91Z" transform="translate(-750.978 -777.64)" fill="#4096ee"/>
          <path id="Path_77617" data-name="Path 77617" d="M787.41,778.518a4.256,4.256,0,0,1,3.141,1.325,4.407,4.407,0,0,1,1.307,3.214,4.353,4.353,0,0,1-1.3,3.173,4.365,4.365,0,0,1-6.266-.026,4.471,4.471,0,0,1-1.31-3.249,4.435,4.435,0,0,1,4.424-4.436Zm-3.48,11.421h6.959v27.736h-6.959Z" transform="translate(-749.615 -778.518)" fill="#4096ee"/>
          <path id="Path_77618" data-name="Path 77618" d="M816.619,789.061h6.961V816.8h-6.961v-2.931a13.646,13.646,0,0,1-4.086,2.791,11.454,11.454,0,0,1-4.443.855,12.344,12.344,0,0,1-9.293-4.168,14.545,14.545,0,0,1-3.922-10.364,14.9,14.9,0,0,1,3.793-10.529,12.092,12.092,0,0,1,9.217-4.1,11.7,11.7,0,0,1,4.686.944,12.727,12.727,0,0,1,4.048,2.829Zm-7.315,5.71a7.031,7.031,0,0,0-5.362,2.281,8.221,8.221,0,0,0-2.134,5.851,8.312,8.312,0,0,0,2.172,5.915,7.041,7.041,0,0,0,5.349,2.319,7.173,7.173,0,0,0,5.437-2.281,8.345,8.345,0,0,0,2.159-5.979,8.1,8.1,0,0,0-2.159-5.863A7.255,7.255,0,0,0,809.3,794.771Z" transform="translate(-748.553 -777.64)" fill="#4096ee"/>
          <path id="Path_77619" data-name="Path 77619" d="M826.982,779.173h6.96v38.443h-6.96Z" transform="translate(-745.684 -778.459)" fill="#4096ee"/>
          <path id="Path_77620" data-name="Path 77620" d="M838.473,779.173h6.959v38.443h-6.959Z" transform="translate(-744.658 -778.459)" fill="#4096ee"/>
          <path id="Path_77621" data-name="Path 77621" d="M853.521,778.518a4.256,4.256,0,0,1,3.141,1.325,4.4,4.4,0,0,1,1.307,3.214,4.353,4.353,0,0,1-1.294,3.173,4.365,4.365,0,0,1-6.266-.026,4.466,4.466,0,0,1-1.31-3.249,4.433,4.433,0,0,1,4.423-4.436Zm-3.481,11.421H857v27.736h-6.96Z" transform="translate(-743.708 -778.518)" fill="#4096ee"/>
          <path id="Path_77622" data-name="Path 77622" d="M862.156,789.061h6.96V791.9a16.679,16.679,0,0,1,4.29-2.776,10.352,10.352,0,0,1,3.934-.781,9.529,9.529,0,0,1,7,2.88q2.418,2.448,2.417,7.241V816.8h-6.884V804.65a30.727,30.727,0,0,0-.444-6.6,4.536,4.536,0,0,0-1.551-2.483,4.346,4.346,0,0,0-2.734-.852,5.121,5.121,0,0,0-3.623,1.413,7.529,7.529,0,0,0-2.1,3.908,31.5,31.5,0,0,0-.306,5.628V816.8h-6.96Z" transform="translate(-742.542 -777.64)" fill="#4096ee"/>
          <path id="Path_77623" data-name="Path 77623" d="M890.964,779.173h6.96v22.141l10.249-11.434h8.741l-11.949,13.291,13.377,14.445H909.7l-11.777-12.785v12.785h-6.96Z" transform="translate(-739.968 -778.459)" fill="#4096ee"/>
        </g>
      </g>
    </g>
  </g>
</svg>
