<svg xmlns="http://www.w3.org/2000/svg" width="181.835" height="181.81" viewBox="0 0 181.835 181.81">
  <g id="calender" transform="translate(-793.377 -356.4)">
    <g id="Group_6" data-name="Group 6" transform="translate(793 356)">
      <path id="Path_14" data-name="Path 14" d="M975.683,441.763c-1.084,2.111-2.3,4.08-4.726,4.916a7.091,7.091,0,0,1-9.458-6.789c-.078-5.62-.02-11.241-.021-16.862q0-11.271,0-22.542c-.014-9.176-6.035-15.167-15.241-15.186-2.307,0-4.617.044-6.922-.022-.966-.028-1.346.19-1.3,1.24.087,1.89.054,3.786.017,5.679a7.1,7.1,0,1,1-14.19-.014c-.036-1.892-.039-3.787.007-5.679.021-.843-.1-1.235-1.123-1.23q-15.087.065-30.174.005c-.905,0-1.069.32-1.049,1.123q.074,2.927.007,5.857a7.093,7.093,0,1,1-14.184.039c-.046-1.951-.035-3.906,0-5.857.014-.749-.039-1.168-1.006-1.164q-15,.055-30,.005c-.792,0-1.008.239-.986,1.005.051,1.773.023,3.549.015,5.324-.021,4.663-2.881,7.855-7.055,7.882-4.239.027-7.131-3.195-7.147-7.968-.006-1.716.006-3.431-.006-5.147,0-.488.2-1.116-.7-1.084-3.893.142-7.849-.495-11.67.5-6.626,1.73-10.677,7.221-10.7,14.294-.034,8.7-.008,17.395-.008,26.092q0,41.623,0,83.246c0,7.3,3.894,12.627,10.608,14.556a17.039,17.039,0,0,0,4.743.522q26.27-.009,52.54,0c3.561,0,6.2,1.69,7.285,4.593a7.087,7.087,0,0,1-4.512,9.244c-.262.082-.607-.021-.711.364h-59.66c-.13-.477-.552-.343-.87-.4a26.381,26.381,0,0,1-6.913-2.142c-10.97-5.48-16.677-14.362-16.7-26.638q-.094-54.583-.02-109.165c0-.769.013-1.539.045-2.307a28.5,28.5,0,0,1,24.385-26.646c3.9-.521,7.8-.234,11.7-.289.921-.013,1.214-.241,1.18-1.179-.071-1.95-.057-3.905-.01-5.857a7.093,7.093,0,1,1,14.184.064c.042,1.951.045,3.906-.008,5.857-.022.822.178,1.112,1.063,1.11q14.91-.047,29.821.008c1.049,0,1.123-.429,1.107-1.246-.037-1.952-.052-3.906,0-5.857a7.089,7.089,0,1,1,14.179.016c.051,1.892.065,3.789-.008,5.679-.039,1.014.129,1.419,1.309,1.412q14.91-.083,29.821-.006c1.063,0,1.261-.359,1.227-1.309-.067-1.891-.053-3.787-.01-5.68a7.093,7.093,0,1,1,14.184-.032c.046,1.951.065,3.907-.012,5.857-.039.969.3,1.171,1.2,1.158,3.017-.042,6.037-.072,9.052.021a28.51,28.51,0,0,1,25.685,18.631c.747,2.028.939,4.186,1.731,6.187Z" transform="translate(-793.471 -356.499)" fill="#010101"/>
      <path id="Path_15" data-name="Path 15" d="M1047.845,658.315a10.042,10.042,0,0,0-3.527-.776c-17-2.92-31.7-18.046-34.168-35.035-2.3-15.8,2.4-29.151,14.358-39.638a40.522,40.522,0,0,1,34.432-9.89c15.233,2.443,26.071,10.953,32.7,24.844a40.634,40.634,0,0,1,3.424,12.039c.043.315-.119.739.372.871v9.233c-.443.166-.33.572-.376.9a41.755,41.755,0,0,1-2.735,10.4q-8.12,19.29-28.142,25.4c-2.453.75-5.035.823-7.455,1.661Zm4.585-71.729a28.76,28.76,0,1,0,28.792,28.773A28.851,28.851,0,0,0,1052.431,586.586Z" transform="translate(-913.22 -476.105)" fill="#010101"/>
      <path id="Path_18" data-name="Path 18" d="M884.854,508.539a7.1,7.1,0,1,1-7.156,7.034A7.131,7.131,0,0,1,884.854,508.539Z" transform="translate(-840.013 -440.669)" fill="#050505"/>
      <path id="Path_19" data-name="Path 19" d="M961.327,515.713a7.1,7.1,0,1,1-7.017-7.174A7.132,7.132,0,0,1,961.327,515.713Z" transform="translate(-878.556 -440.669)" fill="#050505"/>
      <path id="Path_20" data-name="Path 20" d="M1023.594,522.729a7.1,7.1,0,1,1,7.171-7.02A7.132,7.132,0,0,1,1023.594,522.729Z" transform="translate(-917.099 -440.669)" fill="#050505"/>
      <path id="Path_21" data-name="Path 21" d="M1100.2,515.572a7.1,7.1,0,1,1-7.158-7.033A7.132,7.132,0,0,1,1100.2,515.572Z" transform="translate(-955.642 -440.669)" fill="#050505"/>
      <path id="Path_22" data-name="Path 22" d="M891.889,585.089a7.1,7.1,0,1,1-7.078-7.112A7.133,7.133,0,0,1,891.889,585.089Z" transform="translate(-840.013 -479.212)" fill="#050505"/>
      <path id="Path_23" data-name="Path 23" d="M961.327,585.081a7.1,7.1,0,1,1-7.086-7.1A7.132,7.132,0,0,1,961.327,585.081Z" transform="translate(-878.556 -479.212)" fill="#050505"/>
      <path id="Path_24" data-name="Path 24" d="M891.889,654.512a7.1,7.1,0,1,1-7.093-7.1A7.132,7.132,0,0,1,891.889,654.512Z" transform="translate(-840.013 -517.754)" fill="#050505"/>
      <path id="Path_25" data-name="Path 25" d="M961.327,654.47a7.1,7.1,0,1,1-7.134-7.057A7.13,7.13,0,0,1,961.327,654.47Z" transform="translate(-878.556 -517.754)" fill="#050505"/>
      <path id="Path_27" data-name="Path 27" d="M1089.973,634.652c0-2.367-.037-4.735.008-7.1a7.1,7.1,0,1,1,14.188.078c.036,2.07.037,4.143-.009,6.213-.017.759.179,1.065.982,1.008a19.043,19.043,0,0,1,2.661.017,7.106,7.106,0,0,1,6.661,7.005,7.01,7.01,0,0,1-6.71,7.117c-3.664.133-7.339.124-11,.005a6.946,6.946,0,0,1-6.751-6.886c-.084-2.482-.016-4.97-.016-7.455Z" transform="translate(-957.83 -502.695)" fill="#010101"/>
    </g>
  </g>
</svg>
