<svg xmlns="http://www.w3.org/2000/svg" viewBox="0 0 44.51 32.74"><defs><style>.cls-1{fill:#010101;}</style></defs><g id="Layer_2" data-name="Layer 2"><g id="Layer_1-2" data-name="Layer 1"><path class="cls-1" d="M2.44,14.2a2.62,2.62,0,0,1,1.8.81L15,24.73a2.75,2.75,0,0,0,1.6.84,2.48,2.48,0,0,0,2.18-.91L32.12,9.92c2.72-3,5.43-6,8.16-9A2.35,2.35,0,0,1,43.07.21a2.38,2.38,0,0,1,1.44,2.37,2.55,2.55,0,0,1-.72,1.55q-7.63,8.48-15.28,17L19,31.63c-1.28,1.43-2.61,1.48-4,.16Q8,25.15.87,18.49A2.38,2.38,0,0,1,.09,16,2.3,2.3,0,0,1,1.78,14.3,5,5,0,0,1,2.44,14.2Z"/></g></g></svg>