<svg xmlns="http://www.w3.org/2000/svg" width="1920" height="293" viewBox="0 0 1920 293">
  <path id="children-bg" d="M-3980,288.04V273h1920v14.037s-218.014-2.007-358.293-3.074c-75.618-.576-134.3,1.907-193.221,4.391-57.3,2.415-114.833,4.83-188.382,4.432-120.865-.654-188.141-9.174-309.012-8.823-109.706.319-218.866,5.748-280.579,5.748s-155.784-1.671-197.726-1.671c0,0-136.677,3.32-199.057,4.746-6.461.148-13.664.214-21.382.214C-3874.451,293-3980,288.04-3980,288.04Zm0-15.04V.226s218.017,11.888,358.294,12.944c75.62.568,134.3-1.885,193.222-4.339,57.3-2.386,114.83-4.772,188.38-4.378,120.865.646,188.142,9.064,309.013,8.717,109.7-.315,218.66-8.717,280.375-8.717h194.464s134.08-2.818,196.467-4.227S-2060,4.453-2060,4.453V273Z" transform="translate(3980 0)" fill="#f1f6e9"/>
</svg>
