<svg xmlns="http://www.w3.org/2000/svg" width="74" height="74" viewBox="0 0 74 74">
  <g id="clinical-icon" transform="translate(0 0)">
    <path id="Path_77601" data-name="Path 77601" d="M748.809,684.671a13.205,13.205,0,1,0,13.2,13.2A13.205,13.205,0,0,0,748.809,684.671Z" transform="translate(-711.809 -684.671)" fill="#4096ee"/>
    <path id="Path_77602" data-name="Path 77602" d="M749.047,708.68a10.564,10.564,0,1,1,10.565-10.567A10.566,10.566,0,0,1,749.047,708.68Z" transform="translate(-712.047 -684.909)" fill="#cdeb8b"/>
    <path id="Path_77603" data-name="Path 77603" d="M770.477,710.586A13.215,13.215,0,0,0,757.262,723.8v10.575H736.119V723.8A13.214,13.214,0,1,0,722.9,737.021h10.572V747.6a13.214,13.214,0,1,0,26.428,0V737.021h10.573a13.218,13.218,0,0,0,0-26.435Z" transform="translate(-709.69 -686.815)" fill="#4096ee"/>
    <path id="Path_77604" data-name="Path 77604" d="M723.133,734.592A10.564,10.564,0,1,1,733.7,724.028v10.564Z" transform="translate(-709.928 -687.028)" fill="#cdeb8b"/>
    <path id="Path_77605" data-name="Path 77605" d="M759.612,749.943a10.565,10.565,0,0,1-21.129,0V739.377h21.129Z" transform="translate(-712.047 -689.147)" fill="#cdeb8b"/>
    <path id="Path_77606" data-name="Path 77606" d="M774.962,734.592H764.4V724.028a10.565,10.565,0,1,1,10.566,10.564Z" transform="translate(-714.166 -687.028)" fill="#cdeb8b"/>
  </g>
</svg>
