<svg xmlns="http://www.w3.org/2000/svg" viewBox="0 0 146.18 146.7"><defs><style>.cls-1{fill:#030303;}.cls-2{fill:#010101;}</style></defs><g id="Layer_2" data-name="Layer 2"><g id="Layer_1-2" data-name="Layer 1"><path class="cls-1" d="M59.68,100c.36,4.18.7,8,1,11.89.75,8.78,1.58,17.56,2.19,26.36a8,8,0,0,1-5.65,8,8.4,8.4,0,0,1-9.44-3,10.43,10.43,0,0,1-1.69-5Q43.66,120.12,41.18,102c-.24-1.8-.46-3.61-.71-5.42a5.31,5.31,0,0,0-.57-2.17A16.14,16.14,0,0,0,39,99c-1.88,13.55-3.69,27.11-5.6,40.66a8.31,8.31,0,0,1-16.53-1.46c.27-5.31.83-10.6,1.28-15.9.75-8.69,1.43-17.38,2.28-26.05,1-10.43.34-20.88.55-31.32,0-.13,0-.27-.1-.72L16.63,74.43c-.53,1.27-1,2.56-1.59,3.81a7.82,7.82,0,0,1-10.15,4,7.72,7.72,0,0,1-4.35-10C4.7,61.65,8.79,51,13.25,40.54c2.68-6.31,7.9-9.44,14.75-9.75.93,0,1.87,0,2.8,0l.32-.13c-4.56-3.12-7.27-7.33-7.68-12.77A15.87,15.87,0,0,1,29.1,4.07,16.44,16.44,0,0,1,52.66,6c5.74,7,5.25,18.25-4,24.63,1.89.28,3.69,0,5.47.32,5.92,1.06,10.25,4.29,12.54,9.81C71,51.14,75,61.58,79.18,72a7.66,7.66,0,0,1,.4,4.77A7.84,7.84,0,0,1,64.72,78.1c-1.82-4.19-3.53-8.42-5.29-12.63a2,2,0,0,0-.64-1c0,4.86,0,9.72,0,14.59,0,1.06-.19,1.41-1.34,1.38-3.41-.07-3.41,0-3.41-3.41q0-12.27,0-24.54c0-2,1.29-3.19,2.9-2.79a2.8,2.8,0,0,1,1.86,1.93q4.85,11.7,9.72,23.39c1.1,2.64,2.57,3.55,4.5,2.77s2.4-2.51,1.37-5.09q-5.88-14.7-11.76-29.4a11.66,11.66,0,0,0-11.5-7.83q-11.28,0-22.57,0a11.67,11.67,0,0,0-11.42,7.74q-6,15-12,29.94c-.87,2.18-.26,4,1.59,4.66s3.33-.14,4.23-2.3l9.69-23.24a9.39,9.39,0,0,1,.66-1.48,2.2,2.2,0,0,1,2.39-1.09,2.27,2.27,0,0,1,1.93,2,9.09,9.09,0,0,1,0,1.48c0,10.69-.06,21.38,0,32.08,0,6.62-.82,13.17-1.34,19.74-.66,8.59-1.47,17.17-2.22,25.76-.2,2.31-.44,4.61-.58,6.92s1.15,4,3.17,4.23,3.77-1.17,4.1-3.54c1.24-8.92,2.43-17.85,3.64-26.77q1.32-9.74,2.65-19.46a2.33,2.33,0,0,1,2.47-2.23c1.47,0,3,0,4.42,0a2.35,2.35,0,0,1,2.56,2.3q2.38,17.42,4.74,34.82c.51,3.76,1,7.52,1.53,11.27.34,2.39,2,3.82,4,3.62s3.44-1.89,3.25-4.31c-.56-7.11-1.19-14.23-1.81-21.34-.65-7.41-1.32-14.82-2-22.23a2.93,2.93,0,0,0-.68-1.72c-3.36-4.24-6.72-8.48-10-12.76A1.46,1.46,0,0,0,41.88,79a8.24,8.24,0,0,1-9.58-4.49,8.34,8.34,0,0,1,12.88-10,8.25,8.25,0,0,1,2,10.29,1.45,1.45,0,0,0,.2,1.9Q61.54,94.6,75.61,112.54a2.46,2.46,0,0,0,2.21,1.06c2.76-.07,5.51,0,8.27,0,.83,0,1,.21,1.06,1,0,3.7.07,3.7-3.57,3.7-2.41,0-4.82-.07-7.23,0a3.83,3.83,0,0,1-3.5-1.67c-4-5.15-8-10.23-12-15.33C60.52,101,60.19,100.62,59.68,100Zm-8-83.32A11.8,11.8,0,1,0,39.77,28.41,11.82,11.82,0,0,0,51.7,16.72ZM39.86,74.53a3.54,3.54,0,1,0-3.49-3.62A3.57,3.57,0,0,0,39.86,74.53Z"/><path class="cls-1" d="M109.8,135c-1.23,2-2.34,3.85-3.49,5.67a11.8,11.8,0,1,1-20.12-12.33C90.1,121.89,94.07,115.45,98,109c2.52-4.13,6.15-6.32,11-6.06a11.07,11.07,0,0,1,10,6.88c.44,1,.89.53,1.46.31a18.9,18.9,0,1,1-9.9,26.44Zm31.61-8a14,14,0,0,0-6.5-11.2c-.76-.52-1.07-.48-1.37.45q-4,12.16-8.08,24.3c-.37,1.1-.12,1.31,1,1.38C134.48,142.45,141.42,135.9,141.41,127Zm-14.19-13.45a14.53,14.53,0,0,0-6.24,1.49,1.65,1.65,0,0,0-1,1.45,11.46,11.46,0,0,1-1.84,4.92c-1.39,2.26-2.72,4.56-4.17,6.78a3.11,3.11,0,0,0-.47,2.63,14.44,14.44,0,0,0,5.89,8.69c.93.66,1.33.68,1.73-.56,2.52-7.79,5.13-15.56,7.71-23.33.68-2.05.68-2.05-1.42-2.07Zm-30.85,28.5a6.6,6.6,0,0,0,5.46-3.16c1.62-2.52,3.13-5.11,4.73-7.64.36-.58.35-.86-.28-1.24-3.53-2.13-7-4.3-10.54-6.47-.53-.33-.86-.45-1.26.23-1.56,2.67-3.3,5.24-4.77,8C87.16,136.47,90.66,142.13,96.37,142.08Zm11.4-34.49a6.51,6.51,0,0,0-5.3,3.21c-1.59,2.49-3.09,5-4.65,7.53-.31.5-.36.78.22,1.13,3.62,2.18,7.21,4.39,10.8,6.62.51.32.75.23,1-.25,1.62-2.7,3.41-5.3,4.85-8.09C117.11,113.08,113.64,107.61,107.77,107.59Z"/><path class="cls-2" d="M132,24.72V5.51c0-2.33.77-3.11,3.08-3.11,2.75,0,5.5,0,8.26,0,1.94,0,2.82.86,2.82,2.76q0,19.44,0,38.87c0,1.95-.83,2.79-2.77,2.81q-4.37,0-8.71,0c-1.85,0-2.67-.89-2.67-2.76C132,37.63,132,31.18,132,24.72Zm9.45,0V10.57c0-3.48,0-3.42-3.5-3.48-1.08,0-1.25.33-1.25,1.32,0,10,0,20.07,0,30.11,0,3.67,0,3.63,3.65,3.62,1,0,1.1-.31,1.09-1.17C141.41,35.56,141.43,30.15,141.43,24.74Z"/><path class="cls-2" d="M113.09,30.77q0-6.49,0-13c0-2.13.82-2.95,2.93-2.95,2.81,0,5.61,0,8.41,0,1.93,0,2.81.86,2.81,2.78q0,13.21,0,26.45c0,1.93-.83,2.77-2.79,2.79q-4.27,0-8.55,0c-2,0-2.81-.85-2.81-2.92Q113.09,37.35,113.09,30.77Zm9.45.16V23c0-3.46,0-3.41-3.51-3.46-1.09,0-1.25.35-1.24,1.33,0,5.9,0,11.8,0,17.7,0,3.66,0,3.61,3.65,3.61,1,0,1.1-.35,1.09-1.19C122.51,37.62,122.54,34.28,122.54,30.93Z"/><path class="cls-1" d="M84,7.12c2,0,3.94,0,5.9,0a1.36,1.36,0,0,0,1.52-1,8.08,8.08,0,0,1,9.29-4.76,8.28,8.28,0,0,1-.42,16.25,8.16,8.16,0,0,1-8.8-4.73,1.57,1.57,0,0,0-1.73-1.11c-3.2.07-6.4.06-9.59,0a2.11,2.11,0,0,0-2,1c-3.16,4.51-6.41,9-9.55,13.48-.63.9-1,1-1.9.32-2.73-2-2.76-2-.78-4.76,3.14-4.41,6.31-8.8,9.41-13.23a3.28,3.28,0,0,1,3.09-1.57C80.28,7.18,82.15,7.12,84,7.12ZM99,13a3.54,3.54,0,1,0-3.6-3.52A3.57,3.57,0,0,0,99,13Z"/><path class="cls-2" d="M120,56.8c-8.17,0-16.33,0-24.49,0-1.1,0-1.39-.25-1.36-1.36.06-3.4,0-3.4,3.42-3.4,15.69,0,31.38,0,47.07,0,1.22,0,1.55.28,1.51,1.51-.09,3.25,0,3.25-3.28,3.25Z"/><path class="cls-2" d="M108.37,37c0,2.36,0,4.73,0,7.09,0,1.87-.84,2.74-2.68,2.76q-4.43,0-8.85,0a2.35,2.35,0,0,1-2.63-2.65q0-7.17,0-14.33a2.37,2.37,0,0,1,2.67-2.62c3,0,5.9,0,8.85,0a2.37,2.37,0,0,1,2.63,2.66C108.39,32.26,108.37,34.63,108.37,37Zm-9.44,0v1.47c0,3.87,0,3.86,3.86,3.67.57,0,.88-.08.87-.78,0-2.9,0-5.79,0-8.69,0-.46-.1-.65-.64-.72-3.89-.5-4.09-.34-4.09,3.58Z"/></g></g></svg>