<svg xmlns="http://www.w3.org/2000/svg" width="110.64" height="108.698" viewBox="0 0 110.64 108.698">
  <g id="clip5" transform="translate(-573.31 -110.705)">
    <path id="Path_2221" data-name="Path 2221" d="M593.019,165.688q-8.847.4-17.7.809c-.845.04-1.33-.621-2.012-.887V164.1c3.283-1.059,6.692-.8,10.057-.918,3.524-.124,7.053-.078,10.58-.107C593.889,164.036,593.218,164.777,593.019,165.688Z" fill="#ff9c3a" fill-rule="evenodd"/>
    <path id="Path_2222" data-name="Path 2222" d="M683.95,166.616l-.993.521c-1.933-.718-3.806-1.523-5.994-.868a1.863,1.863,0,0,1-2.556-1.584c3.182.122,6.4-.687,9.543.422Z" fill="#ff873d" fill-rule="evenodd"/>
    <path id="Path_2223" data-name="Path 2223" d="M599.82,178.233a3.777,3.777,0,0,1-.857-2.069c-.155-1.612,1.4-1.573,2.133-2.329-.891-.344-2.015-.642-1.947-1.965.058-1.11.877-1.255,1.78-1.1.141.008.187.169.3.248a.321.321,0,0,0-.152-.354c-.2-.478-.462-1.247-.087-1.4,1.645-.652,1.009-2.471,1.94-3.478.458-.494.367-1.59,1.443-1.347a1.829,1.829,0,0,1,1.451,1.8,8.283,8.283,0,0,0,.031,1.732,11.032,11.032,0,0,0,1.883,3.609c-.346,1.705-.046,3.007,2,3.236a1.237,1.237,0,0,1,.705.235c2.087,2.008,4.127,2.1,6.136-.106,1.276.342,2.253-.321,3.215-.985,1.679-1.158,3.143-.752,4.442.618,1.079,1.137,1.123,2.045-.669,2.4-.688,1.567.872,1.477,1.527,1.888.468.293,1.326.617,1.7-.541.252-.77,1.048-.951,1.888-.583,1.753.77,2.885.3,3.487-1.518.289-.873.514-1.633,1.676-1.183,1.045,1.758,1.551,3.46-.506,4.9a5.851,5.851,0,0,0-2.519,1.5c-1.229,1.366-5.395,1.749-6.936.847.148-.2.024-.358-.046-.256-.845,1.228-1.853,1.59-3.149.679a1.257,1.257,0,0,1-1.869.609c-.344-.191-.412-1.034-.323-2.568-2.813,2.319-4.2,2.334-6.595,0a3.351,3.351,0,0,0-1.954-1,3.305,3.305,0,0,1-2.159-1.463c-.963-1.635-1.775-1.218-2.668-.013C603.347,179.22,601.576,179.569,599.82,178.233Z" fill="#ffbe00" fill-rule="evenodd"/>
    <path id="Path_2224" data-name="Path 2224" d="M596.922,161.531c.83-10.187,5.6-18.026,14.083-23.658,1.259.487,1.475-.675,2.038-1.29l2.01-1.037c-.664,1.989,1.372,1.931,2.147,2.83.017,1.157-.295,2.039-1.684,1.456-1.02-.428-1.508.093-1.992.8-.13.255-.437.493-.294.788.112.229.389.038.6-.013a1.43,1.43,0,0,1,1.832.736c.368.874-.355,1.276-.989,1.65-1.412.768-3.058.084-4.49.727a3.719,3.719,0,0,0-2.267,1.791,18.984,18.984,0,0,0-1.248,1.843c-.543,1.051-2.743.4-2.307,2.72.218,1.158-1.8,2.213-2.183,3.711-1.966,1.85-2.2,4.1-1.5,6.555-.131,1.713-2.48,2.43-1.929,4.635.144.575-1.446,1.356-2.05-.224C596.811,164.208,596.471,162.848,596.922,161.531Z" fill="#ffb900" fill-rule="evenodd"/>
    <path id="Path_2225" data-name="Path 2225" d="M597.033,166.1c1-.061,2.366.06,1.1-1.529-.6-.753-.088-.9.341-1.3.713-.675,1.335-1.449,1.995-2.18a.857.857,0,0,1,.97-.162c.326,0,.247.769.436.459.693-1.136,1.206-2.385,2.422-3.11,1.1-.266,1.964.481,2.957.686,2.395,1.347,2.439,1.6.259,3.012-.852.551-1.433.918-1,2.164a11.421,11.421,0,0,1,.244,2.429c.084.861,0,1.727-1.263,1.562-.634-2.433-.8-2.818-1.421-3.36-.8,2.246-.973,3.655-.3,4.263-1.6-.057-2.931.134-2.3,2.115-.674.122-1.752-.35-1.867.679-.2,1.772,1.851.923,2.53,1.911-.7,1.267-2.6,1.031-3.173,2.432a20.691,20.691,0,0,1-2.069-8.908C596.7,166.84,596.595,166.435,597.033,166.1Z" fill="#ffc000" fill-rule="evenodd"/>
    <path id="Path_2226" data-name="Path 2226" d="M625.1,196.244a9.432,9.432,0,0,1-4.541-.886,5.306,5.306,0,0,1-1.152-1.879c-.275-.82-1.972-.849-1.364-2.01.458-.875,1.7-.9,2.6-1.26.6-.239,1.3-.189,1.932-.727-.919-.278-1.807-.549-2.219-1.47a23.787,23.787,0,0,1-.41-3.515c3.138-1.9,4.913-1.643,6.436.942.182.281-.082-.052.138.2,1.323,1.5,1.4,2.7-.74,3.381.041-.042.053-.062.083-.1.451-.664,1.089-.4,1.671-.384,1.056,1.03,1.2.058,1.445-.67.294-.647.207-1.661,1.089-1.774,1.113-.143.983,1.133,1.529,1.672.81.763,2.03.965,2.675,1.954a.9.9,0,0,1-.4.9c-.861.615-1.762.225-2.621.042a1.666,1.666,0,0,0-2.1,1.167c-.7.574-2.34.19-2.243.5C627.521,194.3,624.071,194.255,625.1,196.244Z" fill="#ffb300" fill-rule="evenodd"/>
    <path id="Path_2227" data-name="Path 2227" d="M587.818,129.157c.41.264.993.581,1.512.981q6.45,4.974,12.88,9.973c.88.681,1.94,1.441,1.056,2.637-.843,1.141-1.886.553-2.819-.173q-6.717-5.239-13.461-10.448c-.681-.531-1.292-1.122-.821-2.109C586.451,129.418,586.995,129.237,587.818,129.157Z" fill="#ff9b39" fill-rule="evenodd"/>
    <path id="Path_2228" data-name="Path 2228" d="M610.894,135.771a15.839,15.839,0,0,1-.953-1.27q-4.617-7.281-9.209-14.578c-.529-.837-.863-1.784.1-2.423.91-.6,1.761-.138,2.322.748,3.118,4.927,6.267,9.835,9.318,14.8A1.68,1.68,0,0,1,610.894,135.771Z" fill="#ff9b39" fill-rule="evenodd"/>
    <path id="Path_2229" data-name="Path 2229" d="M624.342,129.284c-.459.783.433,1.991-1.173,2.181-1.508.178-1.544-.705-1.767-1.735-1.193-5.55-2.435-11.089-3.675-16.629-.22-.987-.23-1.9.916-2.247a1.378,1.378,0,0,1,1.88,1.144C621.817,117.782,623.083,123.571,624.342,129.284Z" fill="#ff9c3a" fill-rule="evenodd"/>
    <path id="Path_2230" data-name="Path 2230" d="M593.877,153.154q-7.738-2.426-15.477-4.858c-1.021-.323-1.951-.855-1.47-2.141.429-1.152,1.45-.948,2.342-.659q7.841,2.541,15.664,5.127C595.532,151.863,594.922,152.6,593.877,153.154Z" fill="#ff9b39" fill-rule="evenodd"/>
    <path id="Path_2231" data-name="Path 2231" d="M634.175,131.3c-1.094-1.342-.12-2.726.022-4.041.529-4.876,1.252-9.732,1.884-14.6.138-1.059.326-2.1,1.71-1.945,1.369.154,1.4,1.2,1.245,2.267q-.719,4.937-1.452,9.871a9.571,9.571,0,0,0-.907,3.255c-.038.948.137,1.935-.524,2.764C635.461,129.657,634.926,130.568,634.175,131.3Z" fill="#ff9c3a" fill-rule="evenodd"/>
    <path id="Path_2232" data-name="Path 2232" d="M659.237,155.035l1.116,5.449a2.31,2.31,0,0,1,.166,1.442.617.617,0,0,1-.592.322,5.313,5.313,0,0,1-2.285-3.082c-.214-1.861-1.946-1.79-3.112-2.437-.469-1.249-2.539-.9-2.579-2.581.609-1.2.21-2.609.814-3.808.685-.58,1.612-1.094.573-2.143-.016-1.015.4-1.671,1.476-1.765a14.52,14.52,0,0,1,2.61,4.034,4.161,4.161,0,0,0,.061,2.6C657.166,154.525,659.119,153.966,659.237,155.035Z" fill="#ff9003" fill-rule="evenodd"/>
    <path id="Path_2233" data-name="Path 2233" d="M609.6,199.322q-3.279,6.2-6.556,12.41c-.436.827-1.036,1.416-2,.943a1.466,1.466,0,0,1-.637-2.3c1.873-3.35,3.722-6.713,5.579-10.07C607.085,199.572,608.2,198.922,609.6,199.322Z" fill="#ff9c3b" fill-rule="evenodd"/>
    <path id="Path_2234" data-name="Path 2234" d="M597.976,191.777q-4.606,4.185-9.21,8.371c-.79.718-1.652.9-2.417.07-.872-.945-.179-1.685.527-2.315,2.851-2.54,5.719-5.061,8.581-7.59A5.486,5.486,0,0,1,597.976,191.777Z" fill="#ff9c3a" fill-rule="evenodd"/>
    <path id="Path_2235" data-name="Path 2235" d="M604.993,178.182c-.278-1.662,1.386-1.481,2.121-2.649.476,1.947,1.323,3.138,2.908,3.656,1.058.409,1.863.91.759,2.1-2.146-.372-2.4,1.5-3.207,2.717-.1.2-.212.4-.32.591-.722.808,0,2.037-.813,2.816a14.969,14.969,0,0,1-3.976-4.668c-.35-.516-.257-1.042.32-1.157C604.736,181.2,604.98,179.783,604.993,178.182Z" fill="#ffb700" fill-rule="evenodd"/>
    <path id="Path_2236" data-name="Path 2236" d="M587.93,180.774l-8.711,3.674c-.946.4-1.881.449-2.309-.647-.4-1.036.152-1.721,1.17-2.1,3.1-1.172,6.2-2.372,9.3-3.56A2.307,2.307,0,0,1,587.93,180.774Z" fill="#ff9c3a" fill-rule="evenodd"/>
    <path id="Path_2237" data-name="Path 2237" d="M620.583,187.737a6.226,6.226,0,0,1,1.324,1.086c.343.485,1.244-.87,1.174.426-.046.854-.878,1.706-1.275,1.568-1.5-.519-2.222,1.16-3.673.9,2.28.417,2.079,2.2,2.425,3.645l-.979-.182c-.68-.242-.674-2.45-2.044-.714a5.628,5.628,0,0,1-2.521-1.084c-.829-1.806-.231-3.546,1.814-5.289.815-.2,1.2.4,1.643.886-.268-.486-.819-.831-.762-1.487C618.826,185.746,619.707,186.714,620.583,187.737Z" fill="#ffae00" fill-rule="evenodd"/>
    <path id="Path_2238" data-name="Path 2238" d="M613.02,192.336a15.359,15.359,0,0,1-5.575-3.971c.77-1.48-1.343-2.653-.441-4.148h0c.6-.524,1.139-.233,1.665.1.35.375.261-.058.337-.211a4.806,4.806,0,0,1,.989-1.083c.954-.771,1.7-.76,1.694.677-.007,1.409.846,2,1.948,2.466a1.185,1.185,0,0,1,.135,1.041,1.323,1.323,0,0,1-1.139.771c-.519,0-.915-.368-1.37-.444-.347-.132-.167.468-.128.139.009-.083.273-.068.435.021.495.27,1.133.328,1.408.935C613.328,189.863,614.055,191.091,613.02,192.336Z" fill="#ffae00" fill-rule="evenodd"/>
    <path id="Path_2239" data-name="Path 2239" d="M674.407,164.685a3.018,3.018,0,0,0,3.388.748,4.51,4.51,0,0,1,5.162,1.7l.008,0c-2.488.623-5.048-.118-7.542.393l-3.045.017c-1.371,0-2.221-.95-3.162-1.732a6.683,6.683,0,0,1-2.146.15c-1.228-.371-2.672.188-3.742-.86C667,164.364,670.713,164.775,674.407,164.685Z" fill="#ff7e3a" fill-rule="evenodd"/>
    <path id="Path_2240" data-name="Path 2240" d="M669.323,182.311a55.422,55.422,0,0,1-7.995-2.657,2.365,2.365,0,0,1-.009-2.41c3.445.248,6.582,1.539,9.713,2.855a1.8,1.8,0,0,0-.046,1.411C670.66,182.255,669.933,182.158,669.323,182.311Z" fill="#fa6c3b" fill-rule="evenodd"/>
    <path id="Path_2241" data-name="Path 2241" d="M618.532,134.322a12.542,12.542,0,0,1,6.089-1.465c.283.231.056,1.065.594.832,2.639-1.14,2.266,1,2.653,2.339a1.468,1.468,0,0,1-1.6,1.087c-.845-.787-1.669.349-2.5.038-.458-.744-.763-.222-1.091.157a1.368,1.368,0,0,1-1.14.38,4.379,4.379,0,0,0-2.791.14c-.759-.291-1.8.365-2.336-.687-.085-.589.9-.8.524-1.5C617.29,134.98,618.331,135.162,618.532,134.322Z" fill="#ffb800" fill-rule="evenodd"/>
    <path id="Path_2242" data-name="Path 2242" d="M646.382,138.4c2.047.2,3.188,1.72,4.467,3.043a4.715,4.715,0,0,1-.613,1.549c-.17.148-.393.221-.556.382a4.891,4.891,0,0,0,.795-.614c.618-.249,1.179-.185,1.457.467.221.518-.106.961-.469,1.314a4.2,4.2,0,0,1-2.664,1.173c-1.147-.8-1.142-.795-2.03.285-.095.114-.292.119-.462.118-.558-.327-.715-.938-1.028-1.44a2.345,2.345,0,0,1-.344-1.968.816.816,0,0,1,.42-.395c.723-.134.092-.422.054-.646a8.022,8.022,0,0,1-.645-1.8c-.213-.482-.9-.931-.371-1.486C644.985,137.759,645.721,137.954,646.382,138.4Z" fill="#ffac00" fill-rule="evenodd"/>
    <path id="Path_2243" data-name="Path 2243" d="M625.1,196.244c-1.4-.976-2.109-1.88.264-2.448.384-.092,1.09-.014,1.005-.49-.587-3.3,1.649-1.4,2.765-1.546.1.015.2.032.3.044.538.237,1.054.6,1.686.261a1.53,1.53,0,0,1,.632.007,1.553,1.553,0,0,1,.992,2.113c-.92,1-1.562,2.387-3.242,2.349a11.1,11.1,0,0,1-3.023-.185Z" fill="#ffab00" fill-rule="evenodd"/>
    <path id="Path_2244" data-name="Path 2244" d="M621.528,209.852c-.343,2.616-.662,5.236-1.04,7.848-.145,1-.7,1.741-1.834,1.552-1.035-.173-1.236-1.01-1.095-1.9.293-1.866.636-3.722.96-5.583,1.1-.2,1.4-1.113,1.752-1.981C620.73,209.06,621.146,209.16,621.528,209.852Z" fill="#ff943c" fill-rule="evenodd"/>
    <path id="Path_2245" data-name="Path 2245" d="M672.309,148.983c2.063-.836,4.132-1.66,6.189-2.512.946-.393,1.884-.465,2.323.59.5,1.208-.322,1.822-1.367,2.2q-3.028,1.095-6.054,2.2C672.965,150.667,672.682,149.806,672.309,148.983Z" fill="#ff8b3b" fill-rule="evenodd"/>
    <path id="Path_2246" data-name="Path 2246" d="M660.312,138.449l3.512-3.015a18.478,18.478,0,0,1,4.609-2.486c.676-.2,1.586-.917,1.932.461a66.74,66.74,0,0,1-7.582,6.443C661.689,139.86,660.652,139.77,660.312,138.449Z" fill="#ff8f3b" fill-rule="evenodd"/>
    <path id="Path_2247" data-name="Path 2247" d="M656.344,122.446a123.618,123.618,0,0,1-6.1,10.934.847.847,0,0,1-.688-.587,1.492,1.492,0,0,1,.064-.616,1.476,1.476,0,0,0,.114-1.113c-.092-.161-.181-.323-.282-.479a2.226,2.226,0,0,1-.365-.748l1.129-1.955a24.007,24.007,0,0,1,4.135-5.148c.566-.488,1.083-1.338,2.061-.714.038.024.041.135.029.2A1.016,1.016,0,0,1,656.344,122.446Z" fill="#ff8e3b" fill-rule="evenodd"/>
    <path id="Path_2248" data-name="Path 2248" d="M650.755,187.568a18.836,18.836,0,0,1-5.051,4.052.945.945,0,0,1-.737-.684c-.1-1.21.581-1.791,1.645-2.162,1.946-.68,1-1.378-.036-2.043-.33-.78.216-1.343.479-1.978,1.77-.819,2.214-3.4,4.571-3.454a1.67,1.67,0,0,1,.669.249,1.107,1.107,0,0,1,.224,1,3.012,3.012,0,0,0-.488,2.543A11.961,11.961,0,0,0,650.755,187.568Z" fill="#fc800d" fill-rule="evenodd"/>
    <path id="Path_2249" data-name="Path 2249" d="M597.976,191.777a2.455,2.455,0,0,1-2.519-1.464c1.459-1.361,2.914-2.728,4.382-4.08.739-.681,1.627-1.085,2.419-.239.887.95.388,1.829-.477,2.558C600.51,189.623,599.243,190.7,597.976,191.777Z" fill="#ff8a3b" fill-rule="evenodd"/>
    <path id="Path_2250" data-name="Path 2250" d="M673.386,180.8l5.661,1.877c.878.291,1.544.826,1.27,1.816-.3,1.087-1.178,1.333-2.18.982-1.95-.68-3.881-1.406-5.821-2.113C671.889,182.183,672.608,181.48,673.386,180.8Z" fill="#ff8d3c" fill-rule="evenodd"/>
    <path id="Path_2251" data-name="Path 2251" d="M621.528,209.852c-.316-.06-.639-.542-.945.014-.388.488-.993.86-1.447.442-.568-.523-.387-1.328-.087-2.023a13.635,13.635,0,0,1,.595-4.46,4.236,4.236,0,0,0,1.811-3.019c.145-.87.215-1.8,1.231-2.19.916,3.273-.725,6.333-.8,9.526A9.428,9.428,0,0,1,621.528,209.852Z" fill="#ff893b" fill-rule="evenodd"/>
    <path id="Path_2252" data-name="Path 2252" d="M662.342,192.712c2.482,1.938,4.97,3.868,7.441,5.821.73.578,1.543,1.282.791,2.272s-1.768.727-2.637.041c-.775-.615-1.495-1.3-2.24-1.955-1.287-1.346-1.931-3.165-3.3-4.456A1.1,1.1,0,0,1,662.342,192.712Z" fill="#ff8f3b" fill-rule="evenodd"/>
    <path id="Path_2253" data-name="Path 2253" d="M655.783,212.811a2.149,2.149,0,0,1-2.814-1.33c-.979-1.927-2.182-3.742-3.289-5.6.564-1.128,1.377-1.64,2.63-1.059,1.11.923,1.3,2.361,1.966,3.53C654.915,209.789,656.156,211.027,655.783,212.811Z" fill="#ff923d" fill-rule="evenodd"/>
    <path id="Path_2254" data-name="Path 2254" d="M656.344,122.446c-2.444.478-3.352,2.766-4.943,4.241-.4.374-.584,1-1.189,1.2l4.754-8.82c.527-.979,1.293-1.728,2.41-1.1,1.174.658.746,1.7.2,2.612C657.191,121.213,656.757,121.822,656.344,122.446Z" fill="#ff9c3d" fill-rule="evenodd"/>
    <path id="Path_2255" data-name="Path 2255" d="M630.141,132.522a7.411,7.411,0,0,1,3.523.432c.6.642,1.422.21,2.113.416l1.907.6c.524.64.141,1.152-.229,1.669a4.605,4.605,0,0,1-1.853,1.143c-1.35.092-2.841-.726-3.981.776-.279.369-.914.11-1.2-.4C630.6,135.6,629.77,134.1,630.141,132.522Z" fill="#ffae00" fill-rule="evenodd"/>
    <path id="Path_2256" data-name="Path 2256" d="M630.141,132.522c.585,1.426,1.364,2.831.5,4.422a1.488,1.488,0,0,1-1.006.467,2.036,2.036,0,0,1-2.011-1.471c-.631-.6-1.233-1.207-.61-2.092-1.312-.315-1.872,1.72-3.03.568-.743-.741.49-1,.636-1.559A13.48,13.48,0,0,1,630.141,132.522Z" fill="#ffb200" fill-rule="evenodd"/>
    <path id="Path_2257" data-name="Path 2257" d="M659.807,162.089h.478c.5.392.117,1.02.392,1.473q.011.787.021,1.576c-.408,1.15.178,2.4-.367,3.539a19.916,19.916,0,0,1-1.028,4.971,1.255,1.255,0,0,1-1.05.353,1.1,1.1,0,0,1-.626-.39c-.406-1.474.3-2.842.416-4.264-1.115-1.612-.174-3.577-.906-5.255a1.845,1.845,0,0,1,.509-.426C658.69,163.588,658.638,162,659.807,162.089Z" fill="#ff9003" fill-rule="evenodd"/>
    <path id="Path_2258" data-name="Path 2258" d="M637.179,135.435q.252-.732.505-1.463a13.262,13.262,0,0,1,6.149,2.4,28.427,28.427,0,0,1-1.382,2.522,1.045,1.045,0,0,1-.557.32c-.828.014-1.042-.638-1.325-1.208-.1-.173-.213-.4-.441-.32s-.14.345-.148.548c-.183,2.043-1.215,1.863-2.522.974C636.091,138.049,637.7,136.664,637.179,135.435Z" fill="#ffb700" fill-rule="evenodd"/>
    <path id="Path_2259" data-name="Path 2259" d="M604.993,178.182c-.739.862,2.869,1.035.326,2.367-.761.4-.836,2-2.359,1.5-.353-.116-.452.37-.495.7a13.086,13.086,0,0,1-2.645-4.51c1.2.373,2.619-.454,3.655.79.327-.716-.267-1.419.287-2.043C604.793,176.69,603.867,178.571,604.993,178.182Z" fill="#ffbc00" fill-rule="evenodd"/>
    <path id="Path_2260" data-name="Path 2260" d="M650.255,142.979c-.364-.73-.692-1.446.594-1.541a10.528,10.528,0,0,1,3.094,3.52c-1.728.493-1.216,1.732-.96,2.888-.171.547-1.044.371-1.08,1.057-.629,1-.227,2.388-1.227,3.243-1.047-.212-.944-1.128-1.145-1.861,0-.553.1-1.1.054-1.653.1-.361.408-.653.37-1.065-.279-.609-1.081-.565-1.4-1.126a.868.868,0,0,1,.186-.946,11.559,11.559,0,0,0,2.229-1.328C652.254,142.959,651.064,143.04,650.255,142.979Z" fill="#ffa400" fill-rule="evenodd"/>
    <path id="Path_2261" data-name="Path 2261" d="M652.267,182.705c0-.334,0-.668,0-1,1.506-.918,2.221-2.544,3.377-3.776.324-.344.563-.96,1.142-.673a1.075,1.075,0,0,1,.522,1.459,22.688,22.688,0,0,1-6.554,8.855,1.619,1.619,0,0,1,1.009-2.344C652.267,184.451,651.909,183.506,652.267,182.705Z" fill="#fb7f17" fill-rule="evenodd"/>
    <path id="Path_2262" data-name="Path 2262" d="M633.713,204.834c-.906-1.258-.882-2.794-1.3-4.2-.294-.994-.289-1.662.837-1.825.99-.143,1.846.142,2.056,1.3.321,1.747.611,3.5.915,5.25A2.233,2.233,0,0,1,633.713,204.834Z" fill="#e95136" fill-rule="evenodd"/>
    <path id="Path_2263" data-name="Path 2263" d="M612.537,187.738l1.005-.5a1.518,1.518,0,0,1,1.477-.652c.563.35.983.89,1.585,1.191a1.454,1.454,0,0,1,.461.469c-.971,1.6-2.352,3.03-2.051,5.135a3.509,3.509,0,0,1-1.994-1.042q-.242-2.048-.484-4.1c-.174-.112-.231-.223-.173-.335S612.479,187.738,612.537,187.738Z" fill="#ffa600" fill-rule="evenodd"/>
    <path id="Path_2264" data-name="Path 2264" d="M590.911,176.693c1.292-.552,2.574-1.133,3.881-1.649a1.393,1.393,0,0,1,2,.89,1.35,1.35,0,0,1-.931,1.781,12.538,12.538,0,0,1-3.95,1.406C591.272,178.44,590.318,177.886,590.911,176.693Z" fill="#ff913c" fill-rule="evenodd"/>
    <path id="Path_2265" data-name="Path 2265" d="M657.309,178.713c-.39-.184-.106-2.138-1.355-.274-.826,1.231-1.324,3.515-3.686,3.264h-.5c-.517-1.982,1.685-2.582,2.079-4.1a7.8,7.8,0,0,1,.7-.79,27.573,27.573,0,0,1,3.26-3.152l.508,0c.69.548-.014,1.381.4,1.986A7.722,7.722,0,0,1,657.309,178.713Z" fill="#ff860e" fill-rule="evenodd"/>
    <path id="Path_2266" data-name="Path 2266" d="M670.365,133.409c-1.523-.739-2.513.7-3.8.961a16.327,16.327,0,0,0-2.74,1.064c1.6-1.455,3.165-2.958,4.824-4.345.829-.691,1.858-2.02,2.943-.625C672.634,131.806,671.547,132.737,670.365,133.409Z" fill="#ff9c3d" fill-rule="evenodd"/>
    <path id="Path_2267" data-name="Path 2267" d="M609.6,199.322c-1.16.488-2.255,1.21-3.61.983a23.1,23.1,0,0,1,2.651-5.016c1.164-.312,2.118-.189,2.474,1.185C610.492,197.359,610.461,198.56,609.6,199.322Z" fill="#ff833c" fill-rule="evenodd"/>
    <path id="Path_2268" data-name="Path 2268" d="M645.763,199.3c-.542-.838-1.1-1.668-1.623-2.518a1.328,1.328,0,0,1,.461-1.952,1.344,1.344,0,0,1,1.982.419c.648.964,1.164,2.017,1.736,3.032C647.737,199.3,647.065,200.089,645.763,199.3Z" fill="#e9543a" fill-rule="evenodd"/>
    <path id="Path_2269" data-name="Path 2269" d="M654.791,190.26c-1.1-.623-2.007-1.483-.953-2.681.986-1.122,1.773-.03,2.677.54,1.03.65,1.821,1.536,2.783,2.233.543,1.034-.071,1.569-.9,1.9a1.027,1.027,0,0,1-1.385-.739C656.789,190.017,655.512,190.685,654.791,190.26Z" fill="#f2603b" fill-rule="evenodd"/>
    <path id="Path_2270" data-name="Path 2270" d="M590.911,176.693c.029.936,1.321,1.35,1,2.428a10.867,10.867,0,0,1-3.985,1.653,4.476,4.476,0,0,1-.55-2.638A9.386,9.386,0,0,1,590.911,176.693Z" fill="#ff8b3b" fill-rule="evenodd"/>
    <path id="Path_2271" data-name="Path 2271" d="M672.309,148.983c1.418.363,1.446,1.337,1.091,2.48l-4.027,1.531c-1.066-1.212-.64-2.2.468-3.076A4.565,4.565,0,0,1,672.309,148.983Z" fill="#ff863c" fill-rule="evenodd"/>
    <path id="Path_2272" data-name="Path 2272" d="M637.714,213.828c.867,1.131.615,2.586,1.087,3.847a1.214,1.214,0,0,1-.957,1.7,1.342,1.342,0,0,1-1.687-1.052c-.239-.947-.414-1.91-.616-2.866A2.279,2.279,0,0,1,637.714,213.828Z" fill="#ff8e37" fill-rule="evenodd"/>
    <path id="Path_2273" data-name="Path 2273" d="M637.714,213.828l-2.173,1.625a15.925,15.925,0,0,1-.812-4.064c1.693-.868.642-3.057,1.977-4.1A25.384,25.384,0,0,1,637.714,213.828Z" fill="#ff8441" fill-rule="evenodd"/>
    <path id="Path_2274" data-name="Path 2274" d="M622.686,198.616c-.934,1.416-.418,3.226-1.434,4.722-.6.888-1.05.446-1.608.487-.338-1.523.34-2.936.575-4.38C620.444,198.056,621.377,197.447,622.686,198.616Z" fill="#ff793e" fill-rule="evenodd"/>
    <path id="Path_2275" data-name="Path 2275" d="M662.342,192.712c1.073,1.646,2.087,3.337,3.255,4.912.382.516.883.762.1,1.267a25.531,25.531,0,0,1-5.029-4.021,2.921,2.921,0,0,1,1.148-2.588Z" fill="#ff8c3b" fill-rule="evenodd"/>
    <path id="Path_2276" data-name="Path 2276" d="M649.759,132.921l.481.459c-.686,1.6-1.8,3.9-3.444,2.869-1.869-1.174.485-2.874,1.066-4.329a.554.554,0,0,1,.615-.038A14.729,14.729,0,0,0,649.759,132.921Z" fill="#ff823f" fill-rule="evenodd"/>
    <path id="Path_2277" data-name="Path 2277" d="M663.328,165.1c1.333.241,2.785-.483,4.026.5a.435.435,0,0,1,.173.485c-.431.588.211.707.449,1.007a.413.413,0,0,1-.121.521c-1.23.033-2.461.059-3.69.1a1.489,1.489,0,0,1-1.626-.849A1.215,1.215,0,0,1,663.328,165.1Z" fill="#f76d42" fill-rule="evenodd"/>
    <path id="Path_2278" data-name="Path 2278" d="M616.56,136.944c.5.843,1.456-.119,2.013.5.016,1.114-.646,1.211-1.51,1.007-.954-.718-2.272.089-3.249-.819-.072-.948,1.422-1.055,1.239-2.089a7.737,7.737,0,0,1,3.479-1.224c.932,1.831-1.11.959-1.469,1.617C616.865,136.259,616.569,136.53,616.56,136.944Z" fill="#ffb400" fill-rule="evenodd"/>
    <path id="Path_2279" data-name="Path 2279" d="M660.312,138.449l2.471,1.4q-1.2,1.069-2.393,2.14a1.713,1.713,0,0,1-1.665.185,1.368,1.368,0,0,1-.495-1.915Q659.272,139.356,660.312,138.449Z" fill="#fc7138" fill-rule="evenodd"/>
    <path id="Path_2280" data-name="Path 2280" d="M646.382,138.4l-1.775.114,1.121,1.452c-.624.22-.708,1.07-1.406,1.208-1.493.017-2.347-.579-2.114-2.212h0c.68-.794.8-2.051,1.992-2.422C645.1,136.947,646.213,137.122,646.382,138.4Z" fill="#ffb700" fill-rule="evenodd"/>
    <path id="Path_2281" data-name="Path 2281" d="M638.768,194.832a8.747,8.747,0,0,1-4.005,1.019c-.84-.116-.848-.161-.228-1.3.53-.739.2-2.021,1.442-2.318a8.82,8.82,0,0,1,2.9-.1c1.1.765.347,1.24-.273,1.735C637.813,194.325,639.1,194.447,638.768,194.832Z" fill="#ff9009" fill-rule="evenodd"/>
    <path id="Path_2282" data-name="Path 2282" d="M664.322,152.023l2.873-1.079c1.613.268,1.069,1.523,1.143,2.5l-3.008,1.079C664.2,154.006,664.216,153.033,664.322,152.023Z" fill="#ff7f3f" fill-rule="evenodd"/>
    <path id="Path_2283" data-name="Path 2283" d="M645.763,199.3c1.119.332,1.567-1.025,2.556-1.018a6.826,6.826,0,0,1,1.547,2.5,2.307,2.307,0,0,1-2.6,1.029Z" fill="#fa703e" fill-rule="evenodd"/>
    <path id="Path_2284" data-name="Path 2284" d="M593.877,153.154c.352-.844.707-1.688,1.059-2.531,1.211.231,2.654.379,2.345,2.094-.215,1.188-1.227,1.4-2.313.93C594.6,153.49,594.24,153.319,593.877,153.154Z" fill="#ff9144" fill-rule="evenodd"/>
    <path id="Path_2285" data-name="Path 2285" d="M636.706,207.292c-.166,1.455-.144,2.926-.982,4.261-.623.991-.652-.249-.995-.164-.088-.7-.777-1.261-.487-2.053.569-1.045.1-3.078,2.38-2.5A.5.5,0,0,1,636.706,207.292Z" fill="#fd743b" fill-rule="evenodd"/>
    <path id="Path_2286" data-name="Path 2286" d="M635.166,194.778c.077.437-1.121.394-.4,1.073-1.108.654-2.333.449-3.526.482-.4.211-.776.278-1.094-.138,1.034-.6,1.013-2.3,2.51-2.422C633.775,193.4,634.49,194.039,635.166,194.778Z" fill="#ff9d07" fill-rule="evenodd"/>
    <path id="Path_2287" data-name="Path 2287" d="M636.622,206.839c-1.6.064-1.469,1.777-2.38,2.5-.194-1.5-.808-2.947-.529-4.5a4.229,4.229,0,0,1,2.512.521Q636.422,206.1,636.622,206.839Z" fill="#f05c37" fill-rule="evenodd"/>
    <path id="Path_2288" data-name="Path 2288" d="M661.817,192.282c-.252.921-.3,1.933-1.148,2.588a7.455,7.455,0,0,1-2.527-2.036,7.368,7.368,0,0,1,2.168-1.541A1.992,1.992,0,0,1,661.817,192.282Z" fill="#ff823d" fill-rule="evenodd"/>
    <path id="Path_2289" data-name="Path 2289" d="M673.386,180.8l-1.07,2.562a7.32,7.32,0,0,1-2.993-1.053q.774-.555,1.55-1.111c-.308-1,.707-.572,1-.923Z" fill="#ff803a" fill-rule="evenodd"/>
    <path id="Path_2290" data-name="Path 2290" d="M652.31,204.818l-2.63,1.059c-.57-.364-.636-1.011-.876-1.56a7.013,7.013,0,0,1,1.441-2.96Z" fill="#ff8540" fill-rule="evenodd"/>
    <path id="Path_2291" data-name="Path 2291" d="M660.31,191.293c-.2,1.246-1.241,1.315-2.168,1.541q-1.677-1.287-3.352-2.574c1-.331,2.134-1.2,2.444.775.069.431.344,1.085.988.866a1.617,1.617,0,0,0,1.076-1.549C659.96,190.316,659.769,191.2,660.31,191.293Z" fill="#ff7840" fill-rule="evenodd"/>
    <path id="Path_2292" data-name="Path 2292" d="M650.245,201.357a3.2,3.2,0,0,1-1.441,2.96q-.77-1.256-1.536-2.51l2.6-1.029Z" fill="#ff7a3b" fill-rule="evenodd"/>
    <path id="Path_2293" data-name="Path 2293" d="M662.835,155.491c-.855.24-1.654.2-1.948-.785a1.235,1.235,0,0,1,.892-1.686,1.681,1.681,0,0,1,1.192-.219c.553.028,1.256-.2,1.524.505.237.621-.131,1.1-.639,1.48A7.132,7.132,0,0,1,662.835,155.491Z" fill="#f26038" fill-rule="evenodd"/>
    <path id="Path_2294" data-name="Path 2294" d="M652.769,148.01c-.434-1.335-1.634-2.963,1.173-3.052a1.541,1.541,0,0,1,.872,1.474c-.5.614-1.257,1.1-1.041,2.078C653.2,148.829,652.758,148.871,652.769,148.01Z" fill="#ff9f02" fill-rule="evenodd"/>
    <path id="Path_2295" data-name="Path 2295" d="M667.855,167.611c0-.163,0-.326,0-.488a.535.535,0,0,1-.148-.587c.376-.663,1.387-.585,1.635-1.4.6.252,2.109-.69,1.355,1.3-.437,1.157,1.868-.468,1.679,1.105Z" fill="#fc7541" fill-rule="evenodd"/>
    <path id="Path_2296" data-name="Path 2296" d="M611.117,196.474l-2.474-1.185c.42-1.061.97-2.187,2.32-1.5C612.253,194.446,611.905,195.524,611.117,196.474Z" fill="#ff8a3c" fill-rule="evenodd"/>
    <path id="Path_2297" data-name="Path 2297" d="M668.338,153.44c-1.054-.524-.17-1.935-1.143-2.5a5.552,5.552,0,0,1,2.646-1.026c-.715.94-.491,2.023-.468,3.076Z" fill="#ff833f" fill-rule="evenodd"/>
    <path id="Path_2298" data-name="Path 2298" d="M619.049,208.285c-.028,1.048-.123,2.165,1.534,1.581.642,1.632-1.16,1.744-1.658,2.668l-.406-.768C618.589,210.589,618.41,209.375,619.049,208.285Z" fill="#ff903e" fill-rule="evenodd"/>
    <path id="Path_2299" data-name="Path 2299" d="M636.177,125.875c.165-1.147-.006-2.452,1.407-3.017a22.883,22.883,0,0,1-.852,6.168C635.939,128.083,636.883,126.833,636.177,125.875Z" fill="#ee6347" fill-rule="evenodd"/>
    <path id="Path_2300" data-name="Path 2300" d="M662.835,155.491l1.573-2.083c-1.03-.152-1.83-.269-2.629-.388a5.061,5.061,0,0,1,2.543-1c.822.636.377,1.783,1.008,2.5A5.758,5.758,0,0,1,662.835,155.491Z" fill="#f96e3e" fill-rule="evenodd"/>
    <path id="Path_2301" data-name="Path 2301" d="M634.175,131.3a2.31,2.31,0,0,1,1.494-2.408c.657.5.483,1.36.862,1.981C635.941,132.1,635.183,132.383,634.175,131.3Z" fill="#ff763c" fill-rule="evenodd"/>
    <path id="Path_2302" data-name="Path 2302" d="M657.938,144.074c-.624.834-1.391,1.227-2.277.458a1.268,1.268,0,0,1,.032-2.094,1.4,1.4,0,0,1,1.08-.193A2.063,2.063,0,0,1,657.938,144.074Z" fill="#f86e3f" fill-rule="evenodd"/>
    <path id="Path_2303" data-name="Path 2303" d="M659.237,155.035a4.727,4.727,0,0,0-1.383-.4c-.555.012-1.249.387-1.345-.462-.038-.344.507-.754.787-1.134,0-.853.437-.832,1.022-.509A4.548,4.548,0,0,1,659.237,155.035Z" fill="#ff8b13" fill-rule="evenodd"/>
    <path id="Path_2304" data-name="Path 2304" d="M638.185,193.773c.057-.54,1.526-.608.5-1.508-.018-.12-.037-.239-.056-.359.873-.877,1.537-.2,2.228.3.38.5.743,1,.388,1.669a1.09,1.09,0,0,1-1.044.409C639.364,194.771,638.773,194.274,638.185,193.773Z" fill="#fb7c0f" fill-rule="evenodd"/>
    <path id="Path_2305" data-name="Path 2305" d="M607,184.217c-.125,1.412,1.962,2.588.441,4.148l-1-.954C606.384,186.3,605.69,185.083,607,184.217Z" fill="#ffb200" fill-rule="evenodd"/>
    <path id="Path_2306" data-name="Path 2306" d="M593.019,165.688a1.893,1.893,0,0,1,.928-2.612,1.2,1.2,0,0,1,.931,1.72C594.6,165.694,593.8,165.729,593.019,165.688Z" fill="#ff8838" fill-rule="evenodd"/>
    <path id="Path_2307" data-name="Path 2307" d="M617.535,194.462c-.38-.9.021-1.533.885-1.5,1.478.052,1.057,1.319,1.159,2.217A3.786,3.786,0,0,1,617.535,194.462Z" fill="#ffb300" fill-rule="evenodd"/>
    <path id="Path_2308" data-name="Path 2308" d="M657.938,144.074c-.64-.326-.811-.977-1.081-1.56a1.579,1.579,0,0,1,1.938-.543l1.6.021A6,6,0,0,1,657.938,144.074Z" fill="#ff9e44" fill-rule="evenodd"/>
    <path id="Path_2309" data-name="Path 2309" d="M661.319,177.244c.1.8.71,1.6.009,2.41-1.128.188-1.389-.609-1.447-1.421C659.809,177.224,660.493,177.073,661.319,177.244Z" fill="#ed624a" fill-rule="evenodd"/>
    <path id="Path_2310" data-name="Path 2310" d="M658.795,141.971a3.294,3.294,0,0,1-1.938.543l-1.164-.076a7.553,7.553,0,0,1,2.537-2.176Q658.512,141.117,658.795,141.971Z" fill="#f36947" fill-rule="evenodd"/>
    <path id="Path_2311" data-name="Path 2311" d="M675.423,167.525c2.474-.891,5.031-.194,7.542-.393C680.492,168.061,677.935,167.367,675.423,167.525Z" fill="#ff873d" fill-rule="evenodd"/>
    <path id="Path_2312" data-name="Path 2312" d="M636.531,130.876a1.859,1.859,0,0,1-.862-1.981,4.983,4.983,0,0,0,.508-3.02c.93.918.291,2.114.554,3.151Q636.632,129.952,636.531,130.876Z" fill="#fa6a37" fill-rule="evenodd"/>
    <path id="Path_2313" data-name="Path 2313" d="M655.783,212.811q-.754-2.232-1.507-4.463C655.205,209.691,657.245,210.66,655.783,212.811Z" fill="#ff973d" fill-rule="evenodd"/>
    <path id="Path_2314" data-name="Path 2314" d="M658.318,152.528a1.072,1.072,0,0,0-1.022.509c-1.594-.939-.759-1.756.128-2.571A3.6,3.6,0,0,1,658.318,152.528Z" fill="#ff8818" fill-rule="evenodd"/>
    <path id="Path_2315" data-name="Path 2315" d="M641.247,193.871q-.273-.8-.547-1.606c.073-.085.148-.17.22-.257a2.257,2.257,0,0,1,1.94-.343c.361.308.7.625.378,1.155A3.557,3.557,0,0,1,641.247,193.871Z" fill="#f67212" fill-rule="evenodd"/>
    <path id="Path_2316" data-name="Path 2316" d="M613.043,136.583a1.956,1.956,0,0,1-1.224,2.123c-.678.271-.72-.375-.814-.833Z" fill="#ffb600" fill-rule="evenodd"/>
    <path id="Path_2317" data-name="Path 2317" d="M597.033,166.1q-.069.579-.139,1.159a10.408,10.408,0,0,1,.028-5.724Q596.979,163.814,597.033,166.1Z" fill="#ffc21b" fill-rule="evenodd"/>
    <path id="Path_2318" data-name="Path 2318" d="M644.2,136.534c-.891.62-.6,2.21-1.992,2.422a2.458,2.458,0,0,1,1.624-2.579A.4.4,0,0,1,644.2,136.534Z" fill="#ffac00" fill-rule="evenodd"/>
    <path id="Path_2319" data-name="Path 2319" d="M643.238,192.82c-.176-.354-.351-.709-.528-1.063-.275-1.135.231-1.706,1.333-1.848a.968.968,0,0,1,.819.585c-.046.647-.531,1.182-.491,1.856C644.12,192.811,643.647,192.74,643.238,192.82Z" fill="#f57116" fill-rule="evenodd"/>
    <path id="Path_2320" data-name="Path 2320" d="M644.371,192.35c-.936-.764-.859-1.305.353-1.6.168-.206.334-.205.5.005l.48.861Z" fill="#f36b1a" fill-rule="evenodd"/>
    <path id="Path_2321" data-name="Path 2321" d="M630.143,196.2l1.094.137a7.806,7.806,0,0,1-4.755.017Z" fill="#ffae2c" fill-rule="evenodd"/>
    <path id="Path_2322" data-name="Path 2322" d="M638.185,193.773l2.018.507a1.632,1.632,0,0,1-1.435.552C638.429,194.558,637.62,194.543,638.185,193.773Z" fill="#fa7a13" fill-rule="evenodd"/>
    <path id="Path_2323" data-name="Path 2323" d="M660.331,168.678c.116-1.18-.388-2.425.367-3.539A6.475,6.475,0,0,1,660.331,168.678Z" fill="#ff8f17" fill-rule="evenodd"/>
    <path id="Path_2324" data-name="Path 2324" d="M648.269,131.929l-.407-.009q.61-1.041,1.221-2.083l.665.572C649.525,131.177,649.37,132.014,648.269,131.929Z" fill="#ff8542" fill-rule="evenodd"/>
    <path id="Path_2325" data-name="Path 2325" d="M658.712,175.649c-.622-.563-.346-1.309-.4-1.986l.994-.013Z" fill="#f8791a" fill-rule="evenodd"/>
    <path id="Path_2326" data-name="Path 2326" d="M660.677,163.563c-.466-.4-.334-.962-.391-1.473q.035-.8.067-1.606A5.108,5.108,0,0,1,660.677,163.563Z" fill="#ff9b02" fill-rule="evenodd"/>
    <path id="Path_2327" data-name="Path 2327" d="M635.777,133.37c-.826.481-1.606.727-2.113-.416A2.806,2.806,0,0,1,635.777,133.37Z" fill="#ffa810" fill-rule="evenodd"/>
    <path id="Path_2328" data-name="Path 2328" d="M671.873,180.277l-1,.923c-.286-.032-.73-.062-.633-.39.085-.29.515-.478.791-.711Z" fill="#f66537" fill-rule="evenodd"/>
    <path id="Path_2329" data-name="Path 2329" d="M605.5,168.124a1.19,1.19,0,0,0,.527-2.015c-.788-1.034.688-2.449-.736-3.415-.295-.2.728-.259,1.083-.551.686-.563,1.464-1.015,2.388-1.637-.457-.636-1.578-.56-1.753-1.434.052-.1.1-.19.153-.287.832-.662,1.681-1.315,1.509-2.571a3.616,3.616,0,0,1,2.786-2.556,4.281,4.281,0,0,1,4.893.674c1.775,1.475,3.353,1.506,5.358.007a15.747,15.747,0,0,1,7.149-2.634,1.657,1.657,0,0,1,2.045,1.4c.164,1.165-.793.877-1.5,1.071-3.237.888-5.237,3.6-7.788,5.5-.164.122-.082.468.28.8,1.4-1.145,2.817-2.467,4.9-2.153a.511.511,0,0,0,.526-.45c.515-3.554,3.964-3.8,6.149-5.477a3.623,3.623,0,0,1,2.562-.2,3.318,3.318,0,0,1,1.828,2.248c-.117,1.569,1.941,2.36,1.461,4.061-.659.975-1.49,1.887-1.221,3.218-.763,2.037.2,3.355,1.83,4.4a1.5,1.5,0,0,1-.04,1.411,1.11,1.11,0,0,1-.631.337,3.329,3.329,0,0,1-.489-.008c-4.2-.279-4.794.233-4.964,4.253-1.613.892-3.291,1.679-2.405,4.117.272.745-.667,1.889-1.12,1.39-1.734-1.906-2.623.1-3.756.6a3.023,3.023,0,0,1-2.857-.04c-.935-.485-1.174-1.127-.568-2.024.461-.113,1.006.5,1.363-.039.262-.393-.127-.7-.441-1.01-1.327-1.314-2.567-1.8-4.314-.473-.749.571-1.768,2.61-3.146.516-2.686-.62-5.1-2.15-7.942-2.293-.593-.029-.893-.674-1.11-1.228C605.4,171.3,605.669,169.583,605.5,168.124Z" fill="#ffc300" fill-rule="evenodd"/>
    <path id="Path_2330" data-name="Path 2330" d="M610.525,181.2c.7-.886.086-1.447-.5-2.012,1.5-.148,2.241.888,2.975,1.927.705,1,1.1,1.854,2.5.346.8-.857,2.861-.423,3.516-2.313.709,1.067-.168,1.584-.255,2.239-.08.6.643,1.071.3,1.725.7.188,1.082-.212,1.416-.747.138-.222-.07-.742.459-.641,1.989.38,1.987.388,3.606-.951.633.6-.8,1.195-.037,1.717.638.434,1.257.136,1.85-.259a1.9,1.9,0,0,1,1.118-.436c1.465.212,2.653.149,3.389-1.482.384-.847,1.467-.61,2.295-.623.114.03.228.058.342.086a1.506,1.506,0,0,1,.389.305c.639.72.423,1.839-.2,1.856-2.028.055-.964,4.493-4.01,2.7-.529-.311-.747-.592-1.133.231-.44.938-1.507.86-2.427.853a1.921,1.921,0,0,1-1.089-1.5c-.065-.255-.405-.439-.619-.655-1.073,1.772-3.087.012-4.327,1.153a1.157,1.157,0,0,1-.971.325c-.642-.073-1.374-.528-1.908-.193-1.447.909-2.44-.082-3.563-.631C612.569,183.247,611.252,182.527,610.525,181.2Z" fill="#fb0" fill-rule="evenodd"/>
    <path id="Path_2331" data-name="Path 2331" d="M623.1,176.172c.191,2.242,1.627,2.509,3.106,1.513,1.116-.75,3.34-.537,2.831-2.964.388.2.529.277.676.343,1.02.462-.933,2.451.872,2.128,1.1-.2.08-1.61-.036-2.4-.411-2.769,1.707-2.272,3.167-2.659a1.365,1.365,0,0,1,1.546.433,1.026,1.026,0,0,1,.044.654c-.513.677-.72,1.615-1.645,1.948-.927.072-.765.671-.914,1.372-.221,1.031-.162,2.872-2.268,2.027-1.327-.533-.392,1.281-1.336,1.257-.5-.5.182-1.841-1.062-1.819-.84.015-1.421.433-.865,1.421-1.635.769-2.983-.111-4.2-.93C622.091,177.878,621.708,176.893,623.1,176.172Z" fill="#ffc000" fill-rule="evenodd"/>
    <path id="Path_2332" data-name="Path 2332" d="M607.508,171.645c1.528,1.551,3.792.665,5.653,1.718a31.1,31.1,0,0,0,3.4,1.8c-.2.14-.473.236-.6.428-1.858,2.824-1.857,2.832-4.446.807a4.205,4.205,0,0,0-2.4-1.088C607.027,175.16,606.446,173.7,607.508,171.645Z" fill="#ffc100" fill-rule="evenodd"/>
    <path id="Path_2333" data-name="Path 2333" d="M633.659,175.166c.552-.644.227-1.953,1.535-2.022,1.324-.675,2.577-.186,3.835.222.755,1.568-1.35,2.279-1.112,3.7a2.886,2.886,0,0,0-1.392,1.606c-.546,1.878-1.74,2.342-3.369,1.025h0C634.762,178.342,633.952,176.725,633.659,175.166Z" fill="#fb0" fill-rule="evenodd"/>
    <path id="Path_2334" data-name="Path 2334" d="M602.844,171.536c-.1.123-.2.39-.357.421-.459.093-.7-.269-.907-.6-.258-.425.218-.312.34-.366C602.372,170.788,602.653,171.025,602.844,171.536Z" fill="#ffc000" fill-rule="evenodd"/>
    <path id="Path_2335" data-name="Path 2335" d="M617.063,138.454l1.51-1.007c.233-.075.553-.079.682-.239a1.287,1.287,0,0,1,1.771-.164c.533.631,1.052.074,1.57-.1a1.554,1.554,0,0,1,.946.41c.334,1.06-.59,1.259-1.178,1.587a8.6,8.6,0,0,0-2.7,2.258c.967.664,3.514-2.917,3.2,1.144.114,1.2,1.387,3.073-1.473,2.555-.273.03-.738-.72-.792.2-.047.811-.73,1.415-1.274,1.313-2.624-.494-3.612,1.531-5,2.988-1.443,1.513-2.14,1.439-3.014-.265.725-.695.435-1.578.44-2.407a2.97,2.97,0,0,1,1.056-1.262,1.547,1.547,0,0,1,.6-.231c.6-.037,1.193-.077,1.215-.9a4.771,4.771,0,0,1-.076-.859c.095-.5,1.168-.554.671-1.273a1.18,1.18,0,0,0-1.677-.234c-.412-.422-.323-1.011-.5-1.51.673-.973,1.084-2.377,2.761-1.076C616.724,140.1,616.678,138.834,617.063,138.454Z" fill="#fb0" fill-rule="evenodd"/>
    <path id="Path_2336" data-name="Path 2336" d="M612.035,146.5c-.689.734,2.627,2.27-.5,2.515-.47.221-.457.852-.916,1.088a47.965,47.965,0,0,0-3.072,3.688c-.379.554-.755,1.11-1.1,1.687a4.43,4.43,0,0,1-.4.551,22.241,22.241,0,0,0-3.321,4.24c-.257.481-.466,1.111-1.251.816h-1.007c-1.662-2.107-.8-5.859,1.509-6.538,2.548.312,2.488-2,2.8-3.3.456-1.877,1.922-2.906,2.745-4.43,1.063-1.966,2.65-2.371,4.522-.944A.478.478,0,0,1,612.035,146.5Z" fill="#ffbe00" fill-rule="evenodd"/>
    <path id="Path_2337" data-name="Path 2337" d="M612.034,146c-.541-.607-2.219,1.574-2.128-.883-.721,1.692-4.039,1.94-2.444,4.922-.8.263-1-.539-1.739-.7.849,2.293-2.23,3.649-.979,6.222l-2.768-1.012a3.082,3.082,0,0,1,.752-2.516c1.522-1.521,1.484-1.559-.643-3.4,3.544.679,4.684-1.416,5.867-3.462a2.515,2.515,0,0,1,2.07-1.179c.334.309.849.09,1.183.4C611.6,144.858,612.276,145.193,612.034,146Z" fill="#ffbc00" fill-rule="evenodd"/>
    <path id="Path_2338" data-name="Path 2338" d="M611.028,144.488a1.038,1.038,0,0,1-1.006-.5c1.424-.926,3.05-.044,4.527-.5l.5.5c-.016,1.376-1.125,1.293-2.012,1.509h0C612.122,145.653,611.683,144.856,611.028,144.488Z" fill="#ffbe00" fill-rule="evenodd"/>
    <path id="Path_2339" data-name="Path 2339" d="M613.04,140.464c1.332.115.315,1.013.5,1.51-.244.383-.808.658-.976.364A1.453,1.453,0,0,1,613.04,140.464Z" fill="#ffbe00" fill-rule="evenodd"/>
    <path id="Path_2340" data-name="Path 2340" d="M610.525,149.517c.455.071.327-1.023,1.006-.5.534,1.6,1.317,1.206,2.132.247a14.488,14.488,0,0,1,2.939-3.04c.641-.417,1.158-2.075,2.16-.217.266.495.882-.228,1.189-.5,1.04-.933-1.165-.846-.434-1.8a2.8,2.8,0,0,1,2.073.79c1.162.785.063,2.4,1.186,3.2.657.356,1.459.4,2.029.938a1.851,1.851,0,0,1,.154.66c-.093,1.412.024,2.94-2.237,2.52-.93-.173-1.25.589-1.31,1.435-.149,2.17-1.15,1.343-1.972.485-1.061-1.109-1.718-2.638-3.524-3.134-.648,2.127-2.649,2.614-4.385,3.454-1.067.608-2.179,1.174-2.514,2.515-.386,1.065-1.365,1.657-2.012,2.514-1.022.751-1.609-.671-2.515-.5-.235-1.375,1.067-1.982,1.509-3.018h0a11.059,11.059,0,0,0,1.455-2.161c.944-.737,1.4-1.96,2.526-2.518.192.133.356.3.546.439.1-.372-.378-.514-.339-.865A1.433,1.433,0,0,1,610.525,149.517Z" fill="#ffbf00" fill-rule="evenodd"/>
    <path id="Path_2341" data-name="Path 2341" d="M606,155.551c-.056,1.23-.946,2.042-1.509,3.018-1.007,1.384-2.014,2.768-3.124,4.292-.512-.7.252-1.233.108-1.777C603.355,159.544,603.691,156.741,606,155.551Z" fill="#ffc600" fill-rule="evenodd"/>
    <path id="Path_2342" data-name="Path 2342" d="M633.156,179.692c1.9.6,3.029.238,2.965-2.09-.049-1.761.979-.477,1.562-.426,1.747,1.053.123,2.456.387,3.663-.132.971.14,1.979-.245,2.93-.967.654-2.094,1.129-2.6,2.306a4.409,4.409,0,0,1-.427.488c-.679.538-.847,1.53-1.693,1.923-.682.142-1.289-.331-1.965-.246-.708-.363-.3-1.231-.972-1.926a2.7,2.7,0,0,1-1.039,1.925c-.462.286-.854.785-1.507.506a3.367,3.367,0,0,0-2.013.5c0-1.087.618-1.385,1.652-1.171-.092-.98-1.31-1.34-1.149-2.35.214-.238.469-.708.634-.679,2.181.394,1.392-.912,1.1-1.941a1.954,1.954,0,0,1,1.719.811c.587.591,1.189.943,1.937.328,1.136-.935-.306-.841-.489-1.258-.391-.885.151-1.177.943-1.087C634.216,182.156,634.191,181.205,633.156,179.692Z" fill="#ffb800" fill-rule="evenodd"/>
    <path id="Path_2343" data-name="Path 2343" d="M633.66,190.253l.5-.5c.347-.991,1.368-1.334,2.005-2.068-.3-.558-1.525-.55-.984-1.6a10.3,10.3,0,0,0,2.839-2.194c1.095-.4,1.095-1.118.861-2.162-.338-1.5.4-2,1.825-1.355a1.9,1.9,0,0,1,.707.761c.429.2-.833,1.218.637,1.1.77-.062,1.094,1.044.921,1.944a2.373,2.373,0,0,1-1.2,1.242c-1.2.085-1.616.771-1.441,1.906a9.019,9.019,0,0,1-4.418,4.85c-1.036.495-2.091,1.119-2.882-.359C632.887,191.147,633.382,190.744,633.66,190.253Z" fill="#ffa600" fill-rule="evenodd"/>
    <path id="Path_2344" data-name="Path 2344" d="M619.075,184.72h1.005c2.352.641-.619,2.171.5,3.017-.839-.192-1.679-1.387-2.516,0-.458.3-1.118-.007-1.508.5a1.41,1.41,0,0,1-1.506-1.505c.019-.316-.233-.585-.159-.911a.823.823,0,0,1,.488-.394C616.727,185.787,617.686,184.137,619.075,184.72Z" fill="#ffab00" fill-rule="evenodd"/>
    <path id="Path_2345" data-name="Path 2345" d="M635.17,186.231c.392,1.129,1.314.561,2.208.514-.5,1.8-1.911,2.351-3.218,3l-3.017-1.509c.669-.9,1.341.182,2.011,0,1.114-.211.527-1.7,1.511-2.007h0A.287.287,0,0,1,635.17,186.231Z" fill="#ffae00" fill-rule="evenodd"/>
    <path id="Path_2346" data-name="Path 2346" d="M633.66,190.253l-.5,1.508a3.083,3.083,0,0,1-1.51.5h-.5c-.809.389-1.376-.183-2.008-.5l0,0c-.723-2.354,1.141-1.779,2.21-1.807C632.089,189.934,632.784,190.818,633.66,190.253Z" fill="#ffae00" fill-rule="evenodd"/>
    <path id="Path_2347" data-name="Path 2347" d="M627.625,188.745l1.507-.506c.027.9-.918,1.015-1.287,1.6Q627.734,189.289,627.625,188.745Z" fill="#ffac00" fill-rule="evenodd"/>
    <path id="Path_2348" data-name="Path 2348" d="M625.74,189.558c.1.576-.171.685-.518.682-.3,0-.726.045-.718-.347,0-.2.384-.445.642-.571C625.471,189.165,625.8,189.179,625.74,189.558Z" fill="#ffac00" fill-rule="evenodd"/>
    <path id="Path_2349" data-name="Path 2349" d="M624.3,192.31c-.439.163-.609.021-.626-.254-.024-.361.128-.677.52-.705.177-.012.367.172.552.266Z" fill="#fa0" fill-rule="evenodd"/>
    <path id="Path_2350" data-name="Path 2350" d="M652.27,154.042c.066.421.191.992.654.906,1.378-.259,1.439.849,1.857,1.609,1-.514,1.159-.015,1.022.843-.1.869.612,1.648.29,2.546-.463,1.044-1.022,1.983-2.313,2.123-1.053-.32-2.779.182-2.38-1.929a3.158,3.158,0,0,1,.481-.513c.8-1.234.951-2.411-.3-3.469-.409-.2-.821-.393-.975-.875a1.3,1.3,0,0,1,.41-.923C651.386,154.058,651.763,153.79,652.27,154.042Z" fill="#ffa300" fill-rule="evenodd"/>
    <path id="Path_2351" data-name="Path 2351" d="M652.27,154.042l-1.007.5c-1.061-.659-.719-1.6-.5-2.514,0-1.27-.02-2.543,1-3.519a1.578,1.578,0,0,1,1.506,2.007C652.233,151.494,653.6,153.152,652.27,154.042Z" fill="#ff9e00" fill-rule="evenodd"/>
    <path id="Path_2352" data-name="Path 2352" d="M659.807,162.089c-.754.585-.274,2.406-2.009,2.01-1.5-1.193-1.533-2.844-1.425-4.543a.994.994,0,0,1,1.125-.685l.3.2C658.25,160.223,659.785,160.652,659.807,162.089Z" fill="#ff9b02" fill-rule="evenodd"/>
    <path id="Path_2353" data-name="Path 2353" d="M655.283,157.561c.26-.548.384-1.028-.5-1,1.608-.656,2.479.977,3.79,1.308.382.1-.252.927-.772,1.207h0C656.987,158.524,655.648,158.852,655.283,157.561Z" fill="#ff9b02" fill-rule="evenodd"/>
    <path id="Path_2354" data-name="Path 2354" d="M653.269,150.519q-.751-1-1.506-2.007c-.081-1,.7-.277,1.006-.5a1.034,1.034,0,0,0,1,.5C655,149.529,654.176,150.035,653.269,150.519Z" fill="#f90" fill-rule="evenodd"/>
    <path id="Path_2355" data-name="Path 2355" d="M615.053,185.727c0,.166,0,.331,0,.5a1.09,1.09,0,0,1-1.5.012c-2.881.509-2.517-1.534-2.441-3.455l-2.1,1.94h0l-2.013-.5c-.006-1.341,2.109-2.2.744-3.848,1.215-.365,1.68,1.274,2.777.832,1.452.447,2.321,1.713,3.521,2.514A7.788,7.788,0,0,1,615.053,185.727Z" fill="#ffb100" fill-rule="evenodd"/>
    <path id="Path_2356" data-name="Path 2356" d="M616.559,188.24c.291-.805.818-.9,1.508-.5.233.678,1.094,1.05.9,2.111l-1.907-1.609Z" fill="#ffa000" fill-rule="evenodd"/>
    <path id="Path_2357" data-name="Path 2357" d="M612.537,187.738c0,.167,0,.335,0,.5l-2.615-.2C610.841,186.965,610.841,186.965,612.537,187.738Z" fill="#ffb200" fill-rule="evenodd"/>
    <path id="Path_2358" data-name="Path 2358" d="M613.554,186.236l1.5-.012c.343.168.355.339,0,.511l-1.511.5Z" fill="#ff9500" fill-rule="evenodd"/>
    <path id="Path_2359" data-name="Path 2359" d="M609.017,184.721c.418.242.9.446.784,1.065a.413.413,0,0,1-.352.192c-.611-.244-.355-.812-.432-1.257Z" fill="#ffb400" fill-rule="evenodd"/>
    <path id="Path_2360" data-name="Path 2360" d="M669.344,165.136c1.282,2.277-1.238.736-1.484,1.478a.592.592,0,0,1-.507-.505c0-.17,0-.34,0-.511Q668.35,165.367,669.344,165.136Z" fill="#f46137" fill-rule="evenodd"/>
    <path id="Path_2361" data-name="Path 2361" d="M622.092,142.476c.114-.48.227-.959.413-1.741-1.394.834-2.645,1.664-4.271,1.441.915-2.411,3.417-3.03,4.866-4.729-.172-.506.03-.639.5-.5a1.56,1.56,0,0,0,1.245-.576c1.265-1.66,1.184-.359,1.269.576.577.719-.5,1.909.882,2.547.573.263-.27.9-.73,1.216-.145.174-.585.15-.541.17,1.019.474,2.135.792,2.618,1.977-1.795,2.421-1.869,2.466-3.993.479C623.663,142.691,622.822,142.81,622.092,142.476Z" fill="#ffb200" fill-rule="evenodd"/>
    <path id="Path_2362" data-name="Path 2362" d="M626.113,140.462c.049-.361.806-.835.433-.879-3.427-.407-.659-1.716-.431-2.638l1.51-1.005c.7.282,1.138,1.078,2.012,1.006.151.221.2.557.023.67-1.071.692-.635,1.227.133,1.757a20.379,20.379,0,0,1,.56,2.925,1.33,1.33,0,0,1-.569.833,1.219,1.219,0,0,1-1.007.068.729.729,0,0,1-.334-.558C628.328,141.208,626.816,141.268,626.113,140.462Z" fill="#ffac00" fill-rule="evenodd"/>
    <path id="Path_2363" data-name="Path 2363" d="M623.6,136.945c-.167.167-.335.334-.5.5l-.5-.5c.336-.38.221-1.328,1.023-1.073C624.139,136.037,623.7,136.575,623.6,136.945Z" fill="#ffb700" fill-rule="evenodd"/>
    <path id="Path_2364" data-name="Path 2364" d="M616.56,136.944c-.763-.8-.134-.9.5-1.005C617.678,136.665,616.874,136.682,616.56,136.944Z" fill="#ffb700" fill-rule="evenodd"/>
    <path id="Path_2365" data-name="Path 2365" d="M645.729,144.488c.591.362.486.956.5,1.509a1.431,1.431,0,0,1,.777.656,4.449,4.449,0,0,1-.191,3.047,3.871,3.871,0,0,1-2.235.923c-.476.067-1.407-.008-1.324-.189.924-2.016-2.886-1.807-1.745-3.826a3.108,3.108,0,0,1,1.479-1.245C644.079,145.62,644.851,144.887,645.729,144.488Z" fill="#ffb300" fill-rule="evenodd"/>
    <path id="Path_2366" data-name="Path 2366" d="M644.221,140.967c.521-.306.726-1.087,1.507-1.006a1.335,1.335,0,0,0,0,1.509.693.693,0,0,1,0,1.007h-.5c-1.194.56-.143,2.865-2.165,2.785-1.188-.148-2.245-.8-2.292-1.92-.044-1.094,1.176-1.485,2.151-1.707A2.852,2.852,0,0,0,644.221,140.967Z" fill="#ffb300" fill-rule="evenodd"/>
    <path id="Path_2367" data-name="Path 2367" d="M643.214,144.991c.412-1.045.592-2.277,2.013-2.514a3.375,3.375,0,0,0,.5,2.011q-.345,2.784-2.514,1a.314.314,0,0,1-.113-.334C643.139,145.047,643.176,144.991,643.214,144.991Z" fill="#ffae00" fill-rule="evenodd"/>
    <path id="Path_2368" data-name="Path 2368" d="M646.734,146.5l-.5-.5c.729-.718,1.235-2.547,2.514-.5v1C648.075,148.168,647.406,146.887,646.734,146.5Z" fill="#ffa600" fill-rule="evenodd"/>
    <path id="Path_2369" data-name="Path 2369" d="M650.328,142.974c-.8,1.085-1.427,1.864-2.315.333Z" fill="#ffa400" fill-rule="evenodd"/>
    <path id="Path_2370" data-name="Path 2370" d="M645.729,142.477V141.47a9.474,9.474,0,0,1,.777,1.154c.138.282.116.713-.361.594C645.956,143.171,645.864,142.735,645.729,142.477Z" fill="#ffae00" fill-rule="evenodd"/>
    <path id="Path_2371" data-name="Path 2371" d="M648.323,140.213c.371.1.415.438.388.761-.016.182-.182.351-.279.526a4.385,4.385,0,0,1-.5-.811C647.845,140.458,647.967,140.222,648.323,140.213Z" fill="#ffa300" fill-rule="evenodd"/>
    <path id="Path_2372" data-name="Path 2372" d="M631.646,192.264c.29-.809.821-.9,1.51-.5a2.262,2.262,0,0,0,2.513,0c.383.227.768.453.5,1-1.349.167-.221,1.564-1,2.013l-2.513-1.005Z" fill="#ffa400" fill-rule="evenodd"/>
    <path id="Path_2373" data-name="Path 2373" d="M629.135,191.763a3.334,3.334,0,0,1,2.008.5C630.453,193.451,630.34,193.423,629.135,191.763Z" fill="#ffa200" fill-rule="evenodd"/>
    <path id="Path_2374" data-name="Path 2374" d="M627.324,193.081c-.046-.362.05-.62.33-.567.162.031.321.307.391.5.036.1-.125.273-.2.414Z" fill="#ffb300" fill-rule="evenodd"/>
    <path id="Path_2375" data-name="Path 2375" d="M626.4,194.6c-.264.224-.414.445-.6.477-.139.024-.32-.19-.483-.3.147-.146.271-.365.444-.412C625.909,194.328,626.11,194.486,626.4,194.6Z" fill="#ffb200" fill-rule="evenodd"/>
    <path id="Path_2376" data-name="Path 2376" d="M648.269,131.929c.594-.409.7-1.3,1.479-1.52h0c.518.666.22,1.337.012,2.007,0,.168,0,.336,0,.5C648.642,133.523,648.6,132.5,648.269,131.929Z" fill="#fd7237" fill-rule="evenodd"/>
    <path id="Path_2377" data-name="Path 2377" d="M649.763,132.417c-.5-.666-.031-1.338-.012-2.007C650.967,131.072,650.955,131.741,649.763,132.417Z" fill="#ff8542" fill-rule="evenodd"/>
    <path id="Path_2378" data-name="Path 2378" d="M654.277,177.678c-.228,1.722-1.976,2.5-2.512,4.026a2.9,2.9,0,0,0-2.481,1.962c-.224.864-2.222-.124-1.545,1.556-1.174.209-1.251-1.324-2.243-1.409a1.7,1.7,0,0,1-.619-.821,3.289,3.289,0,0,1,1.36-3.176c.865-.761,1.738-1.2,2.616-.02.163.394.291.931.723.157a1.6,1.6,0,0,0-.091-1.147C650.667,177.563,653.206,176.968,654.277,177.678Z" fill="#ff9302" fill-rule="evenodd"/>
    <path id="Path_2379" data-name="Path 2379" d="M645.73,183.716c1.567-.694,1.122,1.3,2.01,1.506-.3.524-1.088.73-1,1.512-.009,1.364-.405,2.329-2.057,2.02a2.288,2.288,0,0,1-.593-.363,2.227,2.227,0,0,1-.557-1.22c.136-.75.67-1.35.8-2.108A1.923,1.923,0,0,1,645.73,183.716Z" fill="#ff8609" fill-rule="evenodd"/>
    <path id="Path_2380" data-name="Path 2380" d="M644.725,188.242c1.476.573,1.322-1.03,2.011-1.508.783.085,2.036-.314,2.123.684a2.1,2.1,0,0,1-1.9,1.974c-1.172,0-1.361.668-1.739,1.367l-.5-.005c-.169-.168-.337-.336-.506-.5C643.575,189.376,643.865,188.737,644.725,188.242Z" fill="#f97710" fill-rule="evenodd"/>
    <path id="Path_2381" data-name="Path 2381" d="M652.267,182.705c1.047,1.083.077,1.761-.5,2.519C651.807,184.359,649.637,183.053,652.267,182.705Z" fill="#f87710" fill-rule="evenodd"/>
    <path id="Path_2382" data-name="Path 2382" d="M629.636,139.459c-2.409-.839-.181-1.676,0-2.513l1.005,0c.2.116.567.347.577.332,1.211-1.774,2.819-1.355,4.449-.832.415,1.848-1.283,2.333-2.155,3.352-1.4,1.494-2.212.43-3.02-.669.007-.221.307-.2.363-.392-.331-.083-.477.093-.541.394C630.179,139.434,630,139.647,629.636,139.459Z" fill="#ffa300" fill-rule="evenodd"/>
    <path id="Path_2383" data-name="Path 2383" d="M633.155,139.458c.725-1.1,2.232-1.546,2.513-3.014l1.511-1.009c-.175.721,2.485,1.392.038,2.154q.233.683.465,1.365a4.9,4.9,0,0,1-.683,2.264c-1.666.619-2.442-1.065-3.727-1.442C633.232,139.67,633.193,139.565,633.155,139.458Z" fill="#ffb100" fill-rule="evenodd"/>
    <path id="Path_2384" data-name="Path 2384" d="M656.794,159.572c.219.571-.936,1.467.4,1.755.316.067.73.008.723.4,0,.175-.5.3-.679.52-.67.858.84,1.089.563,1.854l-.5.005a1.339,1.339,0,0,0-.342,1.742c.258.7.424,1.442-.438,1.915-.884-.039-1.325-.809-1.994-1.2-.552-.388-1.284-.391-1.807-.839a1.109,1.109,0,0,1-.156-.656c.082-.664,1.072-1.076.294-2.025-.721-.883.365-1.108.918-1.453,1.187-.155,1.4-1.285,2.013-2.012A.674.674,0,0,1,656.794,159.572Z" fill="#ffa400" fill-rule="evenodd"/>
    <path id="Path_2385" data-name="Path 2385" d="M657.8,173.66c-.2,1.861-2.037,2.324-3.019,3.517a2.524,2.524,0,0,1-2.2-1.567.859.859,0,0,1,.245-.634c2.223-.279,3.625-1.214,3.4-3.786a2.214,2.214,0,0,1,.869-1.974c.55-.328,1.1-.588,1.7-.089Q658.3,171.394,657.8,173.66Z" fill="#ff9401" fill-rule="evenodd"/>
    <path id="Path_2386" data-name="Path 2386" d="M658.8,169.127q-.755.251-1.507.5a2,2,0,0,1-1.253-1.073.922.922,0,0,1,.249-.936c.737-.563.459-1.13.032-1.729-.887-1.246-.106-1.606.977-1.789.08.58.1,1.284.925,1.2.782-.081,1.033.378.543.75C657.281,167.175,658.274,168.115,658.8,169.127Z" fill="#ff9c00" fill-rule="evenodd"/>
    <path id="Path_2387" data-name="Path 2387" d="M636.677,140.967c.77-.453-.352-1.851,1.005-2.013,1.312.963,1.779.219,2.013-1,.338-.657.793-.966,1.508-.511-.008.731-.014,1.462,1.005,1.51.411.93.791,1.891,2.013,2.01-.075.52.122,1.465-.639,1.291a1.828,1.828,0,0,0-2.256,1.076c-.068.734,1.035,1.317,1.888,1.657,0,.167,0,.335,0,.5-.172.9-1.813.941-1.377,2.113.615,1.664,2.249.042,3.224.753-.252.936-1.481.534-1.648,1.543,1.176.632,2.212-.328,3.32-.384a.894.894,0,0,1,.227.621c-.061.4-.524.646-.43,1.1.423.388,1.129.4,1.35,1.038.646.586-.217,1.833.967,2.186a3.369,3.369,0,0,1,1.073,1.633c-.032.674-.55.984-1,1.346a5.97,5.97,0,0,1-1.592.8,5.162,5.162,0,0,1-2.514.329,2.828,2.828,0,0,1-.682-.225c-1.751-2.458-3.818-4.729-3.952-8.036-.047-1.15-2.066-1.867-.944-3.431,1.232-.975,1.022-1.827-.208-2.611a13.164,13.164,0,0,1-1.427-.894,2.726,2.726,0,0,1-.656-.8C636.584,142.084,637.043,141.458,636.677,140.967Z" fill="#ffba00" fill-rule="evenodd"/>
    <path id="Path_2388" data-name="Path 2388" d="M641.2,137.447l-1.508.511c-.385-.244-.661-.808-.366-.978A1.439,1.439,0,0,1,641.2,137.447Z" fill="#ffa600" fill-rule="evenodd"/>
    <path id="Path_2389" data-name="Path 2389" d="M646.737,150.02c0-.168,0-.335,0-.5.028-1.006-.414-2.013,0-3.019.672-.182,1.341.907,2.012,0,1.077-.038,2.169-.095,2.012,1.511-.583.42-1.4.126-1.944.648-.345.5-.171,1.275-.832,1.613a1.57,1.57,0,0,1-.669.1A1.148,1.148,0,0,1,646.737,150.02Z" fill="#ffac00" fill-rule="evenodd"/>
    <path id="Path_2390" data-name="Path 2390" d="M650.759,152.031c.8.711-.129,1.769.5,2.514l-.506.5c-.62.337-1.093.034-1.546-.353.834-1.094-.646-1.324-.774-2.061a2.293,2.293,0,0,1,0-.682A5.033,5.033,0,0,1,649.12,150a.517.517,0,0,1,.632.022C650.567,150.45,649.943,151.6,650.759,152.031Z" fill="#ffa800" fill-rule="evenodd"/>
    <path id="Path_2391" data-name="Path 2391" d="M648.244,148.009c.838-.556,1.676.16,2.514,0a1.044,1.044,0,0,1-1.007.5,1.114,1.114,0,0,1-1.03.326C648.35,148.685,648.06,148.482,648.244,148.009Z" fill="#ff9c00" fill-rule="evenodd"/>
    <path id="Path_2392" data-name="Path 2392" d="M648.749,148.514h1a1.327,1.327,0,0,1,0,1.506h-.5A1.2,1.2,0,0,1,648.749,148.514Z" fill="#ffac00" fill-rule="evenodd"/>
    <path id="Path_2393" data-name="Path 2393" d="M652.764,175.668q1.008.756,2.018,1.509l-.505.5c-.3-.125-.82-.408-.859-.352a3,3,0,0,1-3.458,1.207c-.017,0-.136.428-.208.656-.886.573-1.225.028-1.308-.725a3.325,3.325,0,0,1,.457-2.375C650.076,174.935,651.347,174.626,652.764,175.668Z" fill="#ff9e00" fill-rule="evenodd"/>
    <path id="Path_2394" data-name="Path 2394" d="M667.353,166.109l.507.505,0,.509c-.538-.109-1.365.3-1.559-.305S666.883,166.2,667.353,166.109Z" fill="#ff7836" fill-rule="evenodd"/>
    <path id="Path_2395" data-name="Path 2395" d="M644.722,185.222c.21.943-.463,1.445-1,2.013.315.724-.235,1.022-.675,1.376a3.163,3.163,0,0,1-1.3.417,5.539,5.539,0,0,0-3.061,3.237h0c-.661,1.067-1.787-.205-2.52.5l-.5-1c2.069-.948,2.79-3.244,4.524-4.528.274-1.121,1.341-.988,2.1-1.34C643.088,185.612,643.587,184.257,644.722,185.222Z" fill="#ff9202" fill-rule="evenodd"/>
    <path id="Path_2396" data-name="Path 2396" d="M638.687,192.265c-.16-.039-.407-.025-.464-.124-.443-.749.242-1.614.553-1.56,1.627.286.577-3.534,2.93-1.839.228,1.335.612,2.714-1.008,3.519l0,0C640.029,192.445,639.358,191.351,638.687,192.265Z" fill="#ff9009" fill-rule="evenodd"/>
    <path id="Path_2397" data-name="Path 2397" d="M640.7,192.261c1.212-.922-.076-2.56,1.008-3.519l1.006-.5c.5.451,1.006-.37,1.509,0h.5a3.385,3.385,0,0,0-.507,2.009c-.985.02-1.144.866-1.508,1.506A3.3,3.3,0,0,1,640.7,192.261Z" fill="#ff830b" fill-rule="evenodd"/>
    <path id="Path_2398" data-name="Path 2398" d="M611.531,154.043c.572-.441-.031-2.082,1.869-1.4.669.24,1.972-1.9,2.243-3.931a22.224,22.224,0,0,0,2.8,2.7,23.781,23.781,0,0,1,2.373,3.174c-.322-3.387.231-3.866,3.364-3.244a3.782,3.782,0,0,1,.421-2.327,1.231,1.231,0,0,1,1.363-.259c.575,1.768,1.968.982,3.1.989a6.87,6.87,0,0,0,3.013-1,1.758,1.758,0,0,1,1.05.006c.6.333,1.215.8,1.01,1.521-.281.985-1.226.324-2.016.374,1.052.632,1.775,1.222,1.528,2.4-1.354.551-2.443,1.555-3.989,1.862-1.264.251-.567,2.264-1.755,2.9,1.027,1.387-.115,1.325-.914,1.244-1.712-.174-3.157-.058-4,1.8a1.141,1.141,0,0,1-1.9.365,1.446,1.446,0,0,1,.134-2.381c1.4-1.025,3.6-1.6,4.207-2.928,1.169-2.567,3.421-1.645,5.218-2.518-.61-.953-1.1-1.582-2.509-.944a36.467,36.467,0,0,1-5.175,1.623,2.069,2.069,0,0,0-.984.683c-1.681,1.789-3.5,2.264-5.495.453A4.475,4.475,0,0,0,611.531,154.043Z" fill="#ffc100" fill-rule="evenodd"/>
    <path id="Path_2399" data-name="Path 2399" d="M633.659,153.037c-.567-.916-1.061-1.908-2.371-2.055.763-.952,1.6-.989,2.867-.234l-1-1.733a18.537,18.537,0,0,1,.93-2.643,1.969,1.969,0,0,1,1.52-.888,3.164,3.164,0,0,1,.708.014c.919.961,2.521.4,3.38,1.505-.1.229-.342.616-.286.665,2.094,1.842.892,5.12,3.162,7.011.833.694.716,2.416,1.651,3.387-.938,1.139-1.876,2.427-2.881.068-.074-.174-.078-.365-.115-.324-.165.178-.166.446-.3.645-.4.6-.864,1.008-1.584.422-.052-.1-.1-.206-.154-.308-.652-.706-.2-2.048-1.672-2.394-.8-.188.034-1.066.164-1.629.019-.108.039-.217.054-.328a4.186,4.186,0,0,1,.2-1.9c-.02.029.085-.106.085-.106a.142.142,0,0,0-.076.006.75.75,0,0,1-.193.017,2.086,2.086,0,0,1-.463-.17c-.322.147-.921-.946-.987.234-.043.082-.087.16-.131.239A4.142,4.142,0,0,0,633.659,153.037Z" fill="#ffbf00" fill-rule="evenodd"/>
    <path id="Path_2400" data-name="Path 2400" d="M613.381,169.691c-2.982-.01-5.279-1.516-5.314-3.481-.027-1.6,2.006-3.079,4.23-3.075,2.63.005,5.237,1.839,5.263,3.7C617.583,168.668,616.073,169.7,613.381,169.691Z" fill="#ff9691" fill-rule="evenodd"/>
    <path id="Path_2401" data-name="Path 2401" d="M622.511,169.544a3.654,3.654,0,0,1-1.6-1.836c-.457-1.094-.914-2.369-.24-3.319.61-.862,1.845-.232,2.791-.1,2.214.3,4.407.82,6.628.966,2.486.165,2.666,1.18,1.485,3.01C628.527,168.489,625.423,168.342,622.511,169.544Z" fill="#552b1f" fill-rule="evenodd"/>
    <path id="Path_2402" data-name="Path 2402" d="M639.188,173.7a12.665,12.665,0,0,1-3.995-.56,3.514,3.514,0,0,1-.065-.421,1.317,1.317,0,0,1,.006-1.624c1.3-1.242,2.151-3.035,4.107-3.51a2.17,2.17,0,0,1,.456.012,2.775,2.775,0,0,1,2.944,1.944,3.27,3.27,0,0,1,.146.766,3.405,3.405,0,0,1-2.477,3.623A1.346,1.346,0,0,1,639.188,173.7Z" fill="#ff8d8e" fill-rule="evenodd"/>
    <path id="Path_2403" data-name="Path 2403" d="M642.274,169.629c-.452-1.193-1.79-1.26-2.577-2.028q0-.732-.005-1.463a10.488,10.488,0,0,0,1.746-3.528c.142-.206.384-.519.537-.459,1.573.626,2.311.25,2.618-1.547.237-1.388,1.348-.7,2.165-.353a1.746,1.746,0,0,1,.652.817,1.066,1.066,0,0,1-.131.666,2.049,2.049,0,0,0-.641,2.616,1.8,1.8,0,0,1,.2,1.295,5.058,5.058,0,0,1-1.4.861,3.311,3.311,0,0,1-.59.27c-.106.019-.213.035-.318.056-1.161.045-.469.946-.655,1.438C643.589,169.023,643.657,170.174,642.274,169.629Z" fill="#ffb900" fill-rule="evenodd"/>
    <path id="Path_2404" data-name="Path 2404" d="M622.511,169.544c2.739-2.424,5.881-2.017,9.068-1.283C628.556,171.546,625.776,171.939,622.511,169.544Z" fill="#ff6766" fill-rule="evenodd"/>
    <path id="Path_2405" data-name="Path 2405" d="M639.241,167.589c-1.131,1.9-3.639,2.7-4.113,5.134l-1.414-.592c-.677-1.3-1.156-2.709.075-3.85A4.607,4.607,0,0,1,639.241,167.589Z" fill="#ff938f" fill-rule="evenodd"/>
    <path id="Path_2406" data-name="Path 2406" d="M641.806,162.571a2.9,2.9,0,0,1-2.114,3.567c-2.784-.933-3.121-1.7-2-4.531.593-1.147,1.582-1.182,2.667-.955a2.4,2.4,0,0,1,.973.579A1.441,1.441,0,0,1,641.806,162.571Z" fill="#582e1f" fill-rule="evenodd"/>
    <path id="Path_2407" data-name="Path 2407" d="M615.6,158.867c.074,2.058-.718,3-2.16,3.078a2.432,2.432,0,0,1-.206-4.86A2.094,2.094,0,0,1,615.6,158.867Z" fill="#58301f" fill-rule="evenodd"/>
    <path id="Path_2408" data-name="Path 2408" d="M640.648,161.241a3.717,3.717,0,0,0-2.959.366,2.106,2.106,0,0,1,1.5-3.038h0c.264.275.338.746.842.773C641.88,159.439,641.623,160.225,640.648,161.241Z" fill="#ffbe00" fill-rule="evenodd"/>
    <path id="Path_2409" data-name="Path 2409" d="M607.005,159.072c-.557-1.82,1.505-1.545,2.012-2.514C609.507,158.325,608.291,158.726,607.005,159.072Z" fill="#ffc000" fill-rule="evenodd"/>
    <path id="Path_2410" data-name="Path 2410" d="M637.682,154.546l-1.508-2.011h0c.42-.417.857-.78,1.509-.5h0a2.9,2.9,0,0,1,0,2.514Z" fill="#ffbf00" fill-rule="evenodd"/>
    <path id="Path_2411" data-name="Path 2411" d="M615.053,185.727c-1.347-.164-.913-1.221-1.007-2.012.94.007,1.621,2.013,2.877.346a2.3,2.3,0,0,1,2.152.659C617.786,185.262,616.666,186.48,615.053,185.727Z" fill="#ffb500" fill-rule="evenodd"/>
    <path id="Path_2412" data-name="Path 2412" d="M639.188,173.7l.927-.1c1.155-.2,1.575.471,1.732,1.455-.328.606-1.09.906-.993,1.835.241,2.294-1.532,3.017-3.171,3.8-.648-1.174,1.056-2.347,0-3.521A3.04,3.04,0,0,1,639.188,173.7Z" fill="#ffb600" fill-rule="evenodd"/>
    <path id="Path_2413" data-name="Path 2413" d="M626.116,149.016h-1.51v-.5a1.406,1.406,0,0,0-2.01-.5c-1.3.93-.958-.523-1.339-.926,1.066-.742-.105-1.772.333-2.595.371.1.834.512,1.1.018.433-.8-.424-1.339-.6-2.03.861-.556,2.154-.763,2.461.087,1.024,2.846,2.263,1.42,3.574.417.167-.2.335-.213.5,0v0c.591.353.971.8.718,1.549a1.756,1.756,0,0,1-.763.774c-1.161.49-2.65-.044-3.505,1.019a2.26,2.26,0,0,1,3.188.053,1.5,1.5,0,0,1,.17,1.354c-.454.756-1.4.669-2,1.175C626.329,148.943,626.223,148.979,626.116,149.016Z" fill="#ffb900" fill-rule="evenodd"/>
    <path id="Path_2414" data-name="Path 2414" d="M613.04,145.494l2.012-1.509C615.318,145.915,615.026,146.134,613.04,145.494Z" fill="#ffb900" fill-rule="evenodd"/>
    <path id="Path_2415" data-name="Path 2415" d="M611.028,144.488c.942-.207,1.445.465,2.012,1a.918.918,0,0,1-1.005,1.006c0-.167,0-.335,0-.5C611.727,145.475,610.947,145.269,611.028,144.488Z" fill="#ffb900" fill-rule="evenodd"/>
    <path id="Path_2416" data-name="Path 2416" d="M610.525,149.517v1.005c-.148.188-.2.472-.5.5-.847.829-1.359,1.993-2.513,2.515-.167.239-.335.239-.5,0C608.236,152.249,608.991,150.542,610.525,149.517Z" fill="#ffc500" fill-rule="evenodd"/>
    <path id="Path_2417" data-name="Path 2417" d="M607.006,153.54h.5A2.375,2.375,0,0,1,606,155.552C605.926,154.677,606.721,154.237,607.006,153.54Z" fill="#ffc600" fill-rule="evenodd"/>
    <path id="Path_2418" data-name="Path 2418" d="M622.6,148.009a1.451,1.451,0,0,1,1.944-.894c.824.318.187.916.066,1.4C623.733,149.157,623.239,148.28,622.6,148.009Z" fill="#ffb300" fill-rule="evenodd"/>
    <path id="Path_2419" data-name="Path 2419" d="M610.021,151.025l.5-.5c.21.755,1.141-.027,1.325.6.049.173-.29.579-.539.7C610.527,152.2,610.107,151.849,610.021,151.025Z" fill="#ffba00" fill-rule="evenodd"/>
    <path id="Path_2420" data-name="Path 2420" d="M620.966,148.749c-.982-.417-.91-1.036-.785-1.745C620.877,147.412,620.8,148.03,620.966,148.749Z" fill="#ffb900" fill-rule="evenodd"/>
    <path id="Path_2421" data-name="Path 2421" d="M637.683,180.7c1.059-.509,1.28-1.878,2.448-2.33.481-.186.548-.751.206-1.261-1.219-1.818.14-1.836,1.369-1.941a.579.579,0,0,1,.653-.054,2.053,2.053,0,0,1,.2,3.254,14.065,14.065,0,0,1-1.86,2.332c-.973-.177-2.175-.211-1.232,1.173,1.33,1.954.336,2.221-1.286,2.342-.176-.156-.494-.171-.5-.5A4.487,4.487,0,0,1,637.683,180.7Z" fill="#ffae00" fill-rule="evenodd"/>
    <path id="Path_2422" data-name="Path 2422" d="M637.683,183.715l.5.5c-.643,1.212-1.264,2.457-3.012,2.019h-.505C635.113,184.722,635.846,183.557,637.683,183.715Z" fill="#ffb300" fill-rule="evenodd"/>
    <path id="Path_2423" data-name="Path 2423" d="M634.665,186.23c-.154.454-.456.833-.315,1.4.433,1.759-.635.713-1.195.6C633.713,187.609,633.37,186.3,634.665,186.23Z" fill="#ffb300" fill-rule="evenodd"/>
    <path id="Path_2424" data-name="Path 2424" d="M632.163,186.312c.241.185.515.288.585.47.125.327-.182.448-.415.378-.187-.056-.344-.279-.46-.462C631.847,186.656,632.038,186.474,632.163,186.312Z" fill="#ffb300" fill-rule="evenodd"/>
    <path id="Path_2425" data-name="Path 2425" d="M640.7,180.7c-.206-.968.5-1.513,1.031-2.105a2.7,2.7,0,0,0,.479-3.426.92.92,0,0,1,.973-.2c1.067.673,1.59,2.425,3.362,1.686a2.174,2.174,0,0,1,.311-.516c.812-.706,1.621-1.314,2.393.038.179,1-1.1,2.25.5,3.017.564.336.043.666-.007,1a.671.671,0,0,1-.994,0c-.673-.976-1.345-.76-2.015,0-.441-.036.133-1.676-1.159-.594-1.184.991-2.251,2.94-4.373,1.6Z" fill="#ffa600" fill-rule="evenodd"/>
    <path id="Path_2426" data-name="Path 2426" d="M641.2,181.2c2.536.42,3.406-2.372,5.618-2.866-.029.637-.057,1.247-.086,1.857a3.186,3.186,0,0,0-1.507,3.02c-.936.093-1.54,1.022-2.52,1-.147-.681-.1-1.6-1.029-1.659C640.265,182.46,641.5,181.594,641.2,181.2Z" fill="#ff9f00" fill-rule="evenodd"/>
    <path id="Path_2427" data-name="Path 2427" d="M642.709,184.215c.629-.864,1.334-1.539,2.52-1l.5.5-1.008,1.506c-1.157-.458-1.356,1.468-2.513,1.008a1.066,1.066,0,0,1-.505-1.007A1.743,1.743,0,0,1,642.709,184.215Z" fill="#f90" fill-rule="evenodd"/>
    <path id="Path_2428" data-name="Path 2428" d="M641.7,185.223a1.038,1.038,0,0,1,.505,1.007l-2.016,1c-.215-.527-1.288-.7-.617-1.6A1.387,1.387,0,0,1,641.7,185.223Z" fill="#ff9c00" fill-rule="evenodd"/>
    <path id="Path_2429" data-name="Path 2429" d="M647.24,161.587c0-.168,0-.335,0-.5a1.216,1.216,0,0,1,.929-.2c.283.007.707,1.582.99-.158.174-1.06,1.342-1.984,2.606-.65-.287,1.78,1.338,1.011,2.011,1.51-.177.457-1.115.721-.518,1.356.976,1.037.214,1.565-.486,2.162a8.333,8.333,0,0,0-1.352-.643c-1.347-.181-2.029.855-2.87,1.574-.826.706-1.532,1.1-1.814-.427-.168-.335-.334-.669-.5-1A3.21,3.21,0,0,0,647.24,161.587Z" fill="#ffac00" fill-rule="evenodd"/>
    <path id="Path_2430" data-name="Path 2430" d="M651.763,160.077c-2.646-.989-2.058,1.413-2.749,3.008-.37-1.179-.677-2.062-1.776-2l-.5-.5c-1.528-1.29-.4-2.135.5-3.017l1.508-.5c2.476-.362,3.084.159,3.518,3.015Z" fill="#ffb300" fill-rule="evenodd"/>
    <path id="Path_2431" data-name="Path 2431" d="M652.264,160.075c-.9-1.327-1.332-3.191-3.518-3.015l1.007-1.005c.516-.784,1.479.22,2.011-.5A2.862,2.862,0,0,1,652.264,160.075Z" fill="#ffac00" fill-rule="evenodd"/>
    <path id="Path_2432" data-name="Path 2432" d="M651.764,155.552c-.329,1.538-1.4.078-2.011.5a1.516,1.516,0,0,1-1.007-1.509.324.324,0,0,1,.5,0l1.511.5A1.04,1.04,0,0,0,651.764,155.552Z" fill="#ffb000" fill-rule="evenodd"/>
    <path id="Path_2433" data-name="Path 2433" d="M656.794,159.572l-1.007,0c.316-.793-1.09-1.154-.5-2.014.589.92,2.095.313,2.517,1.512A1.032,1.032,0,0,0,656.794,159.572Z" fill="#ff9003" fill-rule="evenodd"/>
    <path id="Path_2434" data-name="Path 2434" d="M628.63,142.978l-.5,0a11.4,11.4,0,0,1-2.723-1.946c-.763-.986.505-.3.709-.572C627.7,140.559,629.525,140.4,628.63,142.978Z" fill="#ffa600" fill-rule="evenodd"/>
    <path id="Path_2435" data-name="Path 2435" d="M630.633,138.97c.815.289,1.44,1.572,2.522.488l0,0c1.611,2.448,1.54,2.584-1.439,2.831a3.39,3.39,0,0,0-.934.307.78.78,0,0,1-.645-.125c-.382-.969-1.038-1.892-.5-3.015l.508-.491A.286.286,0,0,1,630.633,138.97Z" fill="#ffb100" fill-rule="evenodd"/>
    <path id="Path_2436" data-name="Path 2436" d="M629.132,144.488q-.25-.753-.5-1.507l1.008,0c.722-.369.906.369,1.322.636a3.632,3.632,0,0,1,.9,1.009c.251,1.014.22,1.963-.856,2.485-.957.465-1.874.506-2.46-.621a.623.623,0,0,1,.121-.638C629.81,145.737,629.061,144.972,629.132,144.488Z" fill="#ffb100" fill-rule="evenodd"/>
    <path id="Path_2437" data-name="Path 2437" d="M630.64,143.983l-1-1,.5-.505.5,0C631.489,142.98,631.5,143.481,630.64,143.983Z" fill="#ffa600" fill-rule="evenodd"/>
    <path id="Path_2438" data-name="Path 2438" d="M648.751,180.189h.995c.171.119.855.239.367.371-.6.165-1.275.757-2.005.3Z" fill="#ff8908" fill-rule="evenodd"/>
    <path id="Path_2439" data-name="Path 2439" d="M644.221,188.241c-.5.373-1.006,1.295-1.509,0l1.006-1.006A1.037,1.037,0,0,1,644.221,188.241Z" fill="#fc7d0e" fill-rule="evenodd"/>
    <path id="Path_2440" data-name="Path 2440" d="M630.633,138.97l-.244,0-.245,0c.4-.942,1.15-.459,1.92-.739C631.667,139.156,631.08,138.863,630.633,138.97Z" fill="#ff9202" fill-rule="evenodd"/>
    <path id="Path_2441" data-name="Path 2441" d="M630.64,143.983a1.327,1.327,0,0,0,0-1.507c.331-.387.344-1.414,1.018-1.083,3.88,1.9,1.083-1.24,1.5-1.932,1.493-.246,2.193,1.362,3.519,1.506.591.363.485.956.5,1.509-.448.416-1.059.192-1.56.4.686.066,1.4-.426,2.061.106a12.313,12.313,0,0,1,2.514,1.42c1.6,1.314,1.158,2.024-.5,2.6L636.173,146c-.238-.6.262-.635.6-.8-.545.02-1.123-.008-1.1.8l-1.506.508c-.084-.061-.166-.122-.251-.182-.351-.479-.639-1.036-1.35-1.061a1.293,1.293,0,0,1-.918-.773A1.039,1.039,0,0,1,630.64,143.983Z" fill="#ffb700" fill-rule="evenodd"/>
    <path id="Path_2442" data-name="Path 2442" d="M651.764,164.1a.918.918,0,0,1,1.006,1c0,.168,0,.336,0,.5a1.557,1.557,0,0,1-.327,1.02c-.858.625-1.744,1.6-2.448-.159.056-.475.414-.728.734-1.007a5.018,5.018,0,0,0,.806-1.188C651.609,164.217,651.686,164.159,651.764,164.1Z" fill="#ffa400" fill-rule="evenodd"/>
    <path id="Path_2443" data-name="Path 2443" d="M656.29,167.622c0,.335,0,.669,0,1-.531.225-.79-.17-1.091-.475a4.391,4.391,0,0,1-.388-.53,1.994,1.994,0,0,1-.307-.931.948.948,0,0,1,.28-.576A3.158,3.158,0,0,1,656.29,167.622Z" fill="#ff9500" fill-rule="evenodd"/>
    <path id="Path_2444" data-name="Path 2444" d="M654.783,166.114c0,.165-.008.33-.011.495-.544.354-1.1.116-1.652.035a1.585,1.585,0,0,1-.852-.532l.5-.5C653.465,165.68,654.255,165.378,654.783,166.114Z" fill="#ffac00" fill-rule="evenodd"/>
    <path id="Path_2445" data-name="Path 2445" d="M655.284,167.623l1.005,1a1.727,1.727,0,0,1,1.005,1c-.942,1.005.1,2.3-.265,3.112-.746,1.638-1.943,3.209-4.258,2.423-1.089.229-1.424-.782-2.083-1.267a2.027,2.027,0,0,1-.321-.6,4.67,4.67,0,0,1,.233-2.382,4.037,4.037,0,0,1,.337-1,1.192,1.192,0,0,1,1.2-.6C653.791,169.884,654.666,168.991,655.284,167.623Z" fill="#ffa300" fill-rule="evenodd"/>
    <path id="Path_2446" data-name="Path 2446" d="M650.758,173.657c1.085-.048,1.128,1.292,2.013,1.509,0,.167,0,.335-.007.5-1.2,0-2.432-.283-3.515.5-1.039-.838-1.733.047-2.515.5a6.82,6.82,0,0,0-.858-.8c.293.259.581.523.858.8-.082.361,1.032.886.233.87-1.565-.03-3.507-.029-3.752-2.377-.238-.564.083-.919.466-1.25a5.589,5.589,0,0,0,2.1-1.281c.622-.812,1.188-2.022,2.5-.819.36.332.164-.1.2-.162.741-1.2,1.723-1.039,2.776-.513a4.159,4.159,0,0,0-.5,2.515c-.153.115-.254.187-.3.217A1.7,1.7,0,0,0,650.758,173.657Z" fill="#ffac00" fill-rule="evenodd"/>
    <path id="Path_2447" data-name="Path 2447" d="M647.238,157.564c-.48.953-1.135,1.877-.5,3.017-.509.372-1.209-1.056-1.675.237-1,2.763-1.039,2.749-3.253,1.753l-.627-.926c-.529-.932.149-1.314.8-1.666a9.972,9.972,0,0,0,2.749-1.913A4.14,4.14,0,0,0,647.238,157.564Z" fill="#ffbe00" fill-rule="evenodd"/>
    <path id="Path_2448" data-name="Path 2448" d="M644.724,158.066c-.208,1.424-1.349,1.991-2.455,2.464-.588.251-1.04.43-1.09,1.115l-.531-.4c-.262-.444,1.147-1.777-.806-1.376-.826.169-.56-.783-.651-1.294,2.2.653,1.127-1.375,1.682-2.066,1.09.457.979,1.541,1.2,2.568l2.149-1.006Z" fill="#ffb800" fill-rule="evenodd"/>
    <path id="Path_2449" data-name="Path 2449" d="M649.246,154.546h-.5l-1.261.75c-.7-1.05,1.031-1.788.253-2.763a.674.674,0,0,1,1.008,0C649.11,153.156,650.8,153.446,649.246,154.546Z" fill="#ffb500" fill-rule="evenodd"/>
    <path id="Path_2450" data-name="Path 2450" d="M637.681,142.979c-1.246-.094-2.461.643-4.056.192,1.235-1.129,2.478-.494,3.555-.7Z" fill="#ffb000" fill-rule="evenodd"/>
    <path id="Path_2451" data-name="Path 2451" d="M648.746,152.534h-1.008c-.429-.814-1.58-.189-2.008-1.006.537-.468,1.208-.8,1.507-1.507h.5c.926.375,1.016,1.168,1.007,2.011C648.746,152.2,648.746,152.366,648.746,152.534Z" fill="#ffb400" fill-rule="evenodd"/>
    <path id="Path_2452" data-name="Path 2452" d="M647.237,150.02c.111,1.115-.388,1.621-1.508,1.507-.743-1.223.864-.877,1.008-1.507Z" fill="#ffac00" fill-rule="evenodd"/>
    <path id="Path_2453" data-name="Path 2453" d="M645.472,153.127c.257.325.516.525.587.777.077.281-.185.393-.438.282a1.179,1.179,0,0,1-.557-.4C645.016,153.705,645.264,153.452,645.472,153.127Z" fill="#ffae00" fill-rule="evenodd"/>
    <path id="Path_2454" data-name="Path 2454" d="M648.747,152.031l-1.007-2.011c1-.462-.5-1.55.5-2.011l.505.505.5,1.5C649.178,150.713,649.483,151.5,648.747,152.031Z" fill="#ffa400" fill-rule="evenodd"/>
    <path id="Path_2455" data-name="Path 2455" d="M631.647,144.488l1.008.5c1.29-.283,1,1.006,1.507,1.509l0,.005c.529,1.186-.041,1.929-1.01,2.511H632.15c-.523.456-1.056-1.489-1.711.064-.232.55-1.177.11-1.756-.207a1.265,1.265,0,0,1-.556-.865q0-.755,0-1.509c-.132-.469.074-.6.5-.5a1.424,1.424,0,0,0,1.8.862C631.875,146.539,631.217,145.258,631.647,144.488Z" fill="#fb0" fill-rule="evenodd"/>
    <path id="Path_2456" data-name="Path 2456" d="M628.629,148.51c.561-.363,1.146,1.008,2.031-.574,1.125-2.013.512,1.272,1.49,1.079-1.663,2.147-4.088,1.223-6.2,1.419-.413.038.833-.843.164-1.418v0A1.746,1.746,0,0,1,628.629,148.51Z" fill="#ffbf00" fill-rule="evenodd"/>
    <path id="Path_2457" data-name="Path 2457" d="M635.672,146c-1.55-3.486,2.393.6,2.008-.747.052.435-1.24.069-1.507.747h-.5Z" fill="#ffae00" fill-rule="evenodd"/>
    <path id="Path_2458" data-name="Path 2458" d="M637.683,152.031l-1.509.5c-.125-.522-.757-.947-.3-1.58C636.2,151.783,637.637,150.734,637.683,152.031Z" fill="#ffba00" fill-rule="evenodd"/>
    <path id="Path_2459" data-name="Path 2459" d="M641,153.137c-.006.96-.138,1.55-1.008,1.686C639.527,153.9,639.857,153.412,641,153.137Z" fill="#ffb900" fill-rule="evenodd"/>
    <path id="Path_2460" data-name="Path 2460" d="M637.683,154.545v-2.514h.5C637.654,152.8,639.222,153.982,637.683,154.545Z" fill="#ffb900" fill-rule="evenodd"/>
    <path id="Path_2461" data-name="Path 2461" d="M638.185,152.031a2.065,2.065,0,0,1,1.188-1.184c.263,1.094-.561,1.042-1.188,1.184Z" fill="#ffb700" fill-rule="evenodd"/>
    <path id="Path_2462" data-name="Path 2462" d="M644.724,166.616q.25-.252.5-.5c2.5.739,3.079,1.879,1.778,3.469-.467.337-1.867-.684-1.423.986-.416,1.21-1.418.917-2.311.91-.727-.126-.783-.729-.9-1.283-.032-.189-.062-.377-.093-.566,1.307-.373,1.321-1.313.886-2.3a1,1,0,0,1,.418-1.46C644.132,165.612,644.269,166.455,644.724,166.616Z" fill="#ffb600" fill-rule="evenodd"/>
    <path id="Path_2463" data-name="Path 2463" d="M642.367,170.2l.848.947c2.231.7,2.262.889.5,3.018q-.252.5-.5,1.006h-1.509a3.271,3.271,0,0,0-1.59-1.558C641.393,172.817,642.5,171.917,642.367,170.2Z" fill="#ffb200" fill-rule="evenodd"/>
    <path id="Path_2464" data-name="Path 2464" d="M643.718,174.16c.484-1.115.911-2.22-.5-3.018.556-.622,1.511.341,2.012-.5a5.514,5.514,0,0,1,1.507-1.507c.736-1.206.713-1.251-1.507-3.018.36-.593.954-.486,1.507-.5,1.066,1.319,1.493-.192,1.969-.576.941-.76,1.657-1.83,3.061-.932h0a2.129,2.129,0,0,0-.5,1.509,1.042,1.042,0,0,1-1.006.5c-1.1,1.392,1.055,1.788.891,2.892a1.359,1.359,0,0,1-.194.6c-.094.115-.349.181-.353.227-.02.206.153,0,.234.065a.486.486,0,0,1,.425.244v1.005c-1.026.434-2.768-.154-2.638,1.939.026.428-.535.655-.949.385-.852-.554.589-1.091-.049-1.826C646.16,172.182,645.964,174.907,643.718,174.16Z" fill="#ffb000" fill-rule="evenodd"/>
    <path id="Path_2465" data-name="Path 2465" d="M647.24,161.587c1.067,1.474,1.379,2.7-1.008,3.018C645.609,163.279,644.754,161.875,647.24,161.587Z" fill="#ffb300" fill-rule="evenodd"/>
    <path id="Path_2466" data-name="Path 2466" d="M628.63,146l-.5.5c-1.159-.622-2.4.039-3.774-.091a5.1,5.1,0,0,1,4.278-1.416.676.676,0,0,1,0,1.006Z" fill="#ffb100" fill-rule="evenodd"/>
    <path id="Path_2467" data-name="Path 2467" d="M628.63,146v-1.006l.5-.5c.349.5,1.572.022,1.349,1.072C630.214,146.827,629.262,145.882,628.63,146Z" fill="#ffb900" fill-rule="evenodd"/>
    <path id="Path_2468" data-name="Path 2468" d="M628.629,148.51a4.166,4.166,0,0,0-2.513.5c.22-1.238.955-1.442,2.011-1Z" fill="#ffb300" fill-rule="evenodd"/>
    <path id="Path_2469" data-name="Path 2469" d="M649.12,158.264c.57-.262,1.239-.342,1.344.2.143.748-.479.413-.817.268A2.361,2.361,0,0,1,649.12,158.264Z" fill="#ffa800" fill-rule="evenodd"/>
    <path id="Path_2470" data-name="Path 2470" d="M634.162,146.5l-1.507-1.509C633.888,144.575,634.01,144.7,634.162,146.5Z" fill="#ffa800" fill-rule="evenodd"/>
    <path id="Path_2471" data-name="Path 2471" d="M650.759,169.13c-.469-.955-2.607-1.632-.5-3.016.671,1.763,1.341.359,2.012,0h1c-.253,1.736,1.3,1.059,2.011,1.509h0c-.058,2.268-1.224,3.044-3.018,2.012C651.9,169.067,651.134,169.679,650.759,169.13Z" fill="#ffa800" fill-rule="evenodd"/>
    <path id="Path_2472" data-name="Path 2472" d="M651.262,165.61c-.9-.858-.038-1.13.5-1.509C651.746,164.654,651.853,165.248,651.262,165.61Z" fill="#ffac00" fill-rule="evenodd"/>
    <path id="Path_2473" data-name="Path 2473" d="M655.283,167.622l-.493.075c-.771.111-1.377,1.475-2.154.632-.649-.706.448-1.449.636-2.216l1.5.5Z" fill="#ffa400" fill-rule="evenodd"/>
    <path id="Path_2474" data-name="Path 2474" d="M654.464,171.234a2.514,2.514,0,0,1-2.147,1.047A2.123,2.123,0,0,1,654.464,171.234Z" fill="#ffac00" fill-rule="evenodd"/>
    <path id="Path_2475" data-name="Path 2475" d="M650.759,169.13c.482.228,1.27-.457,1.507.5a1.038,1.038,0,0,0-1.007.5l-.5,0c-.174-.111-.231-.223-.173-.334s.115-.166.174-.166C650.758,169.466,650.758,169.3,650.759,169.13Z" fill="#ffac00" fill-rule="evenodd"/>
    <path id="Path_2476" data-name="Path 2476" d="M646.734,176.673a1,1,0,0,1-.24-.024c-.732-.255-1.609-.3-1.9-1.214-.025-.079.33-.388.525-.407,1.19-.116,1.457.72,1.611,1.646Z" fill="#ffa200" fill-rule="evenodd"/>
    <path id="Path_2477" data-name="Path 2477" d="M650.758,173.657c-.389.575-.429,1.518-1.678,1.4a1.648,1.648,0,0,1,1.678-1.4Z" fill="#ffa400" fill-rule="evenodd"/>
    <path id="Path_2478" data-name="Path 2478" d="M646.734,169.131c-.015.99-.865,1.145-1.507,1.507C644.64,169.046,645.657,169.059,646.734,169.131Z" fill="#ffa800" fill-rule="evenodd"/>
    <path id="Path_2479" data-name="Path 2479" d="M644.724,166.616c.422.244.974.453.554,1.087-.1.153-.524.29-.634.209C644.047,167.476,644.634,167.051,644.724,166.616Z" fill="#ffb000" fill-rule="evenodd"/>
    <path id="Path_2480" data-name="Path 2480" d="M650.758,169.635c0,.167,0,.333,0,.5-.588.248-1.174.488-1.683-.5Z" fill="#ffa400" fill-rule="evenodd"/>
  </g>
</svg>
