<svg xmlns="http://www.w3.org/2000/svg" width="22.702" height="22.718" viewBox="0 0 22.702 22.718">
  <g id="close" transform="translate(0 0)">
    <path id="Path_78925" data-name="Path 78925" d="M3139.391,823.367c.062.085.161.045.24.067a1.471,1.471,0,0,1,.75,2.36c-.07.085-.15.163-.227.242q-4.256,4.255-8.51,8.51c-.062.063-.134.115-.209.179.734.733,1.445,1.441,2.156,2.152q3.323,3.322,6.643,6.646a1.471,1.471,0,0,1-1.935,2.214c-.072-.062-.14-.131-.208-.2q-4.263-4.263-8.521-8.529c-.147-.148-.221-.175-.387-.009-2.851,2.864-5.714,5.715-8.562,8.582a1.555,1.555,0,0,1-1.76.36,1.451,1.451,0,0,1-.754-.83c-.024-.065-.011-.149-.085-.193V844.3a3.649,3.649,0,0,1,1.047-1.334q4.024-4.028,8.053-8.05c.138-.137.151-.2.006-.348q-3.995-3.979-7.975-7.972a4.016,4.016,0,0,1-1.131-1.409v-.665c.075-.03.066-.107.088-.164a1.492,1.492,0,0,1,1.023-.928c.057-.017.138.021.174-.06h.355a2.674,2.674,0,0,1,1.364.941q4.089,4.094,8.179,8.188c.137.139.2.135.336,0q4.272-4.286,8.554-8.565a1.763,1.763,0,0,1,.814-.506c.034-.008.076-.008.083-.057Z" transform="translate(-3118.022 -823.367)" fill="#010101"/>
  </g>
</svg>
