<svg xmlns="http://www.w3.org/2000/svg" viewBox="0 0 384 384"><defs><style>.cls-1{fill:#fefefe;}.cls-2{fill:#fb6eac;}.cls-3{fill:#fed72f;}.cls-4{fill:#fbbd01;}.cls-5{fill:#56c8fe;}.cls-6{fill:#c6e94c;}</style></defs><g id="Layer_2" data-name="Layer 2"><g id="Layer_1-2" data-name="Layer 1"><path class="cls-1" d="M.93,383.93c-1.55-.67-.7-2-.7-3C.16,365.2.18,349.46.18,333.72Q.18,168.49.11,3.26C.11.57.65,0,3.36,0Q185.42.12,367.47.07c-3.87,4.72-9.43,6-15,6.62-19.88,2.14-35.38,20-37.65,37.22-2,15.11-6.76,20-21.65,22.28-21.33,3.34-36.64,20.75-38.18,39-.39,4.73-1.74,9.35-5.12,13-1.4,1.52-.34,2.43.65,3.43,3.95,4,8,7.89,11.79,12,1.9,2.06,3,1.65,4.7-.22,6.46-7.3,9.38-16.06,10.68-25.49,1.43-10.39,7.71-17,17.93-18.7s20-4.67,27.88-12.25c8.62-8.25,12.29-18.5,14-29.86,1.4-9.32,8.35-16.61,17.33-17.65,11.08-1.28,20.94-5.06,29.06-12.9q0,182,.07,364c0,2.81-.63,3.44-3.44,3.44q-189.06-.12-378.13-.07v-.76c17.9-6.74,35.82-13.43,53.7-20.22q33.1-12.58,66.15-25.29a238.58,238.58,0,0,0,23.23-8.84L192,311.14a194.46,194.46,0,0,0,23.2-8.93Q232,296,248.74,289.73c8.23-3.09,16.44-6.23,24.67-9.34l.69-1.15a22.87,22.87,0,0,1-3.36-2.34q-20.6-20.67-41.1-41.42c11.8-11.83,23.29-24,35.48-35.41,10.18-9.54,22.76-14.84,36.63-16.21,20.62-2,39,3.51,54.29,17.88,1.44,1.35,2.26,1.31,3.6-.08,4-4.15,8-8.26,12.17-12.18,1.92-1.79,1.53-2.84-.18-4.41-21.69-19.92-47.22-27.6-76.15-23.42C275.08,164.6,258,174.27,243.55,189c-9.93,10.18-20.13,20.09-30.2,30.12Q189,195.42,165.3,171q15.3-15.4,30.59-30.82c21-21.11,30.44-46.39,27.24-76.14-2.15-20-10.39-37.3-24.07-52-1.52-1.63-2.37-1.58-3.82-.06-3.8,4-7.62,7.93-11.66,11.64-2.14,2-2.11,3.1-.11,5.26,22.39,24.15,23.64,62.85,2.58,88.24-10.2,12.3-22.36,22.79-33.45,34.29-1,1.06-2,2.23-2.93,3.35-1.57-.11-2.27-1.44-3.21-2.37Q127.05,133,107.68,113.57c-1-.95-1.69-2.18-3.51-2.72l-8.46,23.38c-2.75,7-5.59,14-8.22,21.08-1.72,4.62-4,9.06-4.92,13.95a211.58,211.58,0,0,0-8.95,23.2c-1.65,4.15-3.39,8.26-4.92,12.45-4.18,11.41-9,22.59-12.66,34.19a230.23,230.23,0,0,0-8.83,23.29c-.51,1.12-1.09,2.22-1.52,3.37Q23.3,324.84.93,383.93ZM247.85,22c0,3.48.11,6.36,0,9.22-.12,2.18.76,2.77,2.82,2.73,5.85-.1,11.7-.09,17.55,0,1.89,0,2.67-.57,2.63-2.56q-.12-8.79,0-17.58c0-2-.76-2.62-2.65-2.55-3,.1-6-.09-9,.06-3.68.18-8.41-1.63-10.73.8C246.33,14.31,248.09,19,247.85,22ZM134.06,45.13c0-2.87-.08-5.74,0-8.6.08-1.93-.61-2.63-2.57-2.6-5.72.1-11.44.09-17.16,0-1.84,0-2.69.43-2.66,2.49.11,6,.09,12,0,17.94,0,1.76.56,2.44,2.36,2.42,5.84-.07,11.69-.08,17.53,0,2,0,2.55-.85,2.49-2.7C134,51.11,134.06,48.12,134.06,45.13ZM145.74,102c3,0,6-.06,8.95,0,1.77.06,2.42-.62,2.4-2.39-.07-5.86-.1-11.72,0-17.57,0-2.08-.9-2.49-2.7-2.46-5.72.07-11.44.11-17.16,0-2.27,0-3,.64-3,3,.14,5.48.17,11,0,16.44-.09,2.61,1,3.19,3.28,3C140.26,101.88,143,102,145.74,102Zm215.75,11.69c0-3-.08-6,0-9,.07-1.92-.58-2.64-2.56-2.61-5.84.1-11.7.1-17.54,0-2,0-2.55.82-2.53,2.68.07,5.86.1,11.73,0,17.59,0,2.12.69,2.85,2.8,2.81,5.47-.11,11-.21,16.42,0,3,.13,3.65-1,3.44-3.67S361.49,116.3,361.49,113.68ZM304.93,215.91c-3.11,0-6.22.08-9.32,0-1.78-.06-2.39.6-2.37,2.37.07,6.1.08,12.21,0,18.31,0,2,.72,2.61,2.62,2.58,6-.08,11.93-.06,17.9,0,1.76,0,2.42-.69,2.4-2.44-.06-6.1-.08-12.21,0-18.31,0-2-.79-2.58-2.65-2.51C310.65,216,307.79,215.91,304.93,215.91Zm21.69,68.52c3.59,0,6.58-.08,9.56,0,2,.07,2.94-.43,2.9-2.68-.13-5.85-.09-11.71,0-17.56,0-1.82-.4-2.74-2.47-2.71q-9.13.15-18.27,0c-2,0-2.57.79-2.5,2.66.1,3-.06,6,.05,9,.12,3.58-1.54,8.21.62,10.47C318.85,286.09,323.57,284,326.62,284.43Z"/><path class="cls-2" d="M383.93,16.57c-8.12,7.84-18,11.62-29.06,12.9-9,1-15.93,8.33-17.33,17.65-1.71,11.36-5.38,21.61-14,29.86C315.62,84.56,306,87.5,295.66,89.23s-16.5,8.31-17.93,18.7c-1.3,9.43-4.22,18.19-10.68,25.49-1.67,1.87-2.8,2.28-4.7.22-3.8-4.13-7.84-8-11.79-12-1-1-2.05-1.91-.65-3.43,3.38-3.66,4.73-8.28,5.12-13,1.54-18.24,16.85-35.65,38.18-39,14.89-2.33,19.66-7.17,21.65-22.28,2.27-17.27,17.77-35.08,37.65-37.22,5.53-.59,11.09-1.9,15-6.62h.75c4.84,5.65,10.4,10.57,15.71,15.75Z"/><path class="cls-3" d="M.93,383.93q22.38-59.08,44.76-118.17c.43-1.15,1-2.25,1.52-3.37L85.33,300.6a9.71,9.71,0,0,0-4.62,3q-38,38.13-76,76.26c-.94.94-2.2,1.71-2.24,3.3v.76Z"/><path class="cls-1" d="M383.93,15.82c-5.31-5.18-10.87-10.1-15.71-15.75,4.74,0,9.48.07,14.21,0,1.3,0,1.57.24,1.54,1.54C383.87,6.32,383.93,11.07,383.93,15.82Z"/><path class="cls-4" d="M229.64,235.48q20.54,20.73,41.1,41.42a22.87,22.87,0,0,0,3.36,2.34l-.69,1.15c-8.23,3.11-16.44,6.25-24.67,9.34Q232,296,215.2,302.21c-.94-1-1.84-2-2.8-3q-29.84-29.91-59.66-59.81c-1.05-1.06-2-2.21-3-3.31-.11-1.55.86-2.51,1.85-3.5,6.35-6.34,12.57-12.84,19.11-19,2.09-2,2.06-2.81.1-4.76Q134.46,172.65,98.3,136.3a6.24,6.24,0,0,0-2.59-2.07l8.46-23.38c1.82.54,2.56,1.77,3.51,2.72q19.39,19.4,38.78,38.82c.94.93,1.64,2.26,3.21,2.37,4.44,6.17,10.35,10.92,15.63,16.28q23.69,24.39,48,48.11C218.52,224.84,224,230.28,229.64,235.48Z"/><path class="cls-2" d="M149.73,236.09c1,1.1,2,2.25,3,3.31q29.82,29.91,59.66,59.81c1,1,1.86,2,2.8,3a194.46,194.46,0,0,1-23.2,8.93c-1-1.1-2-2.25-3-3.31q-20.33-20.4-40.68-40.78c-5.11-5.1-10.3-10.13-15.45-15.2q-29.61-29.7-59.24-59.39a210.65,210.65,0,0,1,8.95-23.19q26.94,26.88,53.89,53.76C140.85,227.41,145.31,231.74,149.73,236.09Z"/><path class="cls-5" d="M229.64,235.48c-5.67-5.2-11.12-10.64-16.29-16.33,10.07-10,20.27-19.94,30.2-30.12,14.4-14.76,31.53-24.43,51.93-27.38,28.93-4.18,54.46,3.5,76.15,23.42,1.71,1.57,2.1,2.62.18,4.41-4.19,3.92-8.2,8-12.17,12.18-1.34,1.39-2.16,1.43-3.6.08-15.32-14.37-33.67-19.92-54.29-17.88-13.87,1.37-26.45,6.67-36.63,16.21C252.93,211.49,241.44,223.65,229.64,235.48Z"/><path class="cls-6" d="M165.3,171c-5.28-5.36-11.19-10.11-15.63-16.28,1-1.12,1.9-2.29,2.93-3.35,11.09-11.5,23.25-22,33.45-34.29,21.06-25.39,19.81-64.09-2.58-88.24-2-2.16-2-3.3.11-5.26,4-3.71,7.86-7.67,11.66-11.64,1.45-1.52,2.3-1.57,3.82.06,13.68,14.74,21.92,32,24.07,52,3.2,29.75-6.26,55-27.24,76.14Q180.59,155.61,165.3,171Z"/><path class="cls-3" d="M149.73,236.09c-4.42-4.35-8.88-8.68-13.27-13.06q-27-26.86-53.89-53.76c1-4.9,3.2-9.34,4.92-14,2.63-7.07,5.47-14.06,8.22-21.08a6.24,6.24,0,0,1,2.59,2.07q36.23,36.28,72.49,72.54c2,1.95,2,2.79-.1,4.76-6.54,6.15-12.76,12.65-19.11,19C150.59,233.58,149.62,234.54,149.73,236.09Z"/><path class="cls-4" d="M132.86,251.85c5.15,5.07,10.34,10.1,15.45,15.2q20.37,20.37,40.68,40.78c1,1.06,2,2.21,3,3.31l-46.5,17.68q-7.58-7.74-15.16-15.47-14.7-14.89-29.41-29.77c6.54-6.62,13-13.31,19.63-19.85C124.62,259.73,128.3,255.32,132.86,251.85Z"/><path class="cls-3" d="M132.86,251.85c-4.56,3.47-8.24,7.88-12.3,11.88-6.62,6.54-13.09,13.23-19.62,19.85l-18.6-18.42L56,239.09c3.69-11.59,8.48-22.77,12.66-34.18,1.53-4.19,3.27-8.3,4.92-12.45Q103.25,222.16,132.86,251.85Z"/><path class="cls-4" d="M2.42,383.17c0-1.59,1.3-2.36,2.24-3.3q38-38.14,76.05-76.26a9.71,9.71,0,0,1,4.62-3q18.83,18.18,36.94,37.06Q89.2,350.3,56.12,363C38.24,369.74,20.32,376.43,2.42,383.17Z"/><path class="cls-2" d="M122.27,337.66q-18.09-18.92-36.94-37.06L47.21,262.39A230.23,230.23,0,0,1,56,239.1l26.3,26.06,18.6,18.42,29.4,29.77q7.6,7.71,15.16,15.47A238.58,238.58,0,0,1,122.27,337.66Z"/><path class="cls-6" d="M247.85,22c.24-3-1.52-7.64.62-9.88,2.32-2.43,7.05-.62,10.73-.8,3-.15,6,0,9-.06,1.89-.07,2.68.55,2.65,2.55q-.12,8.79,0,17.58c0,2-.74,2.58-2.63,2.56-5.85-.09-11.7-.1-17.55,0-2.06,0-2.94-.55-2.82-2.73C248,28.31,247.85,25.43,247.85,22Z"/><path class="cls-5" d="M134.06,45.13c0,3-.07,6,0,9,.06,1.85-.46,2.73-2.49,2.7-5.84-.09-11.69-.08-17.53,0-1.8,0-2.38-.66-2.36-2.42.08-6,.1-12,0-17.94,0-2.06.82-2.52,2.66-2.49,5.72.08,11.44.09,17.16,0,2,0,2.65.67,2.57,2.6C134,39.39,134.06,42.26,134.06,45.13Z"/><path class="cls-5" d="M145.74,102c-2.74,0-5.48-.12-8.21,0-2.31.14-3.37-.44-3.28-3,.18-5.47.15-11,0-16.44-.06-2.32.71-3,3-3,5.72.13,11.44.09,17.16,0,1.8,0,2.73.38,2.7,2.46-.11,5.85-.08,11.71,0,17.57,0,1.77-.63,2.45-2.4,2.39C151.71,101.93,148.72,102,145.74,102Z"/><path class="cls-5" d="M361.49,113.68c0,2.62-.16,5.26.05,7.86s-.47,3.8-3.44,3.67c-5.46-.24-11-.14-16.42,0-2.11,0-2.84-.69-2.8-2.81.11-5.86.08-11.73,0-17.59,0-1.86.51-2.71,2.53-2.68,5.84.09,11.7.09,17.54,0,2,0,2.63.69,2.56,2.61C361.41,107.69,361.49,110.69,361.49,113.68Z"/><path class="cls-6" d="M304.93,215.91c2.86,0,5.72.08,8.58,0,1.86-.07,2.69.48,2.65,2.51-.09,6.1-.07,12.21,0,18.31,0,1.75-.64,2.46-2.4,2.44-6,0-11.93-.07-17.9,0-1.9,0-2.64-.61-2.62-2.58.09-6.1.08-12.21,0-18.31,0-1.77.59-2.43,2.37-2.37C298.71,216,301.82,215.91,304.93,215.91Z"/><path class="cls-6" d="M326.62,284.43c-3.05-.44-7.77,1.66-10.13-.81-2.16-2.26-.5-6.89-.62-10.47-.11-3,.05-6-.05-9-.07-1.87.48-2.7,2.5-2.66q9.14.14,18.27,0c2.07,0,2.5.89,2.47,2.71-.07,5.85-.11,11.71,0,17.56,0,2.25-.92,2.75-2.9,2.68C333.2,284.35,330.21,284.43,326.62,284.43Z"/></g></g></svg>