<svg xmlns="http://www.w3.org/2000/svg" width="130" height="120" viewBox="0 0 130 120">
  <g id="congrats" transform="translate(-174 -476.962)">
    <path id="Path_1" data-name="Path 1" d="M77.891,81.12a16.178,16.178,0,0,1-22.992,0L31.864,57.939a16.431,16.431,0,0,1,0-23.138,16.178,16.178,0,0,1,22.992,0L66.395,46.407,98.249,14.351A59.114,59.114,0,0,0,59.62.006a60,60,0,1,0,59.619,60A60.356,60.356,0,0,0,116.568,42.2Z" transform="translate(174 476.956)" fill="#4096ee"/>
    <path id="Path_2" data-name="Path 2" d="M177.569,89.922a5.364,5.364,0,0,1-3.8-1.576L150.9,65.483a5.378,5.378,0,0,1,7.606-7.606l19.059,19.059L231.6,22.91a5.379,5.379,0,1,1,7.606,7.607L181.373,88.346A5.362,5.362,0,0,1,177.569,89.922Z" transform="translate(63.221 461.006)" fill="#cdeb8b"/>
  </g>
</svg>
