<svg xmlns="http://www.w3.org/2000/svg" width="488.771" height="558.312" viewBox="0 0 488.771 558.312">
  <g id="copy-two" transform="translate(-714.698 -261.099)">
    <g id="Group_2976" data-name="Group 2976">
      <path id="Path_5881" data-name="Path 5881" d="M1054.056,819.411h-279.1c-.287-1.164-1.288-1.023-2.14-1.194-31.708-6.372-58.423-37.207-58.093-73.678.819-90.463.266-180.938.271-271.409,0-24.706-.806-49.449.26-74.11,1.272-29.428,16.349-50.4,43.146-62.731,12.624-5.807,26.227-5,39.623-5.215,3.1-.049,4.194-.568,4.443-4.064,2.536-35.741,34.471-65.722,70.328-65.8,68.12-.153,136.24-.026,204.361-.108a8.21,8.21,0,0,1,6.92,3.171q58.287,67.007,116.779,133.835a10.185,10.185,0,0,1,2.62,7.307q-.09,136.25-.065,272.5c-.014,28.72-18.149,55.189-44.743,66.472-12.454,5.284-25.382,5.541-38.47,5.2-2.786-.074-3.966.351-4.218,3.642-2.181,28.55-22.96,54.474-50.237,62.976C1061.884,817.4,1057.952,818.348,1054.056,819.411ZM837.1,505.179q0,86.121.018,172.243c.018,20.859,15.588,37.228,35.987,37.259q129.717.2,259.435,0a36.005,36.005,0,0,0,35.949-36.18q.165-119.37.12-238.742c0-3.271-.652-4.284-4.122-4.237-15.621.213-31.247.156-46.871.08a71.615,71.615,0,0,1-71.181-71.511c-.046-20.894-.181-41.791.124-62.681.069-4.728-1.349-5.473-5.693-5.461-54.866.158-109.733.1-164.6.106-23.857,0-39.162,15.264-39.164,39.06Q837.09,420.148,837.1,505.179Zm-87.22,69.505q0,85.3,0,170.6c0,23.912,15.221,39.231,38.986,39.234q70.578.011,141.157,0,57.225,0,114.451-.023c17.442-.036,32.366-11.924,35.965-28.347,1.428-6.516,1.428-6.519-5.078-6.519-66.49,0-132.99-.672-199.468.252-39.992.555-74.239-34.649-73.941-73.9.768-101.372.257-202.754.257-304.133,0-1.271-.064-2.547.012-3.814.1-1.623-.556-2.238-2.2-2.182-8.157.274-16.453-.33-24.392,1.7-15.779,4.031-25.723,17.951-25.736,35.445Q749.83,488.84,749.877,574.684ZM1081.313,296.6c0,16.424.23,31.447-.061,46.459-.328,16.858,5.236,31.631,15.065,44.959,6.234,8.453,14.084,13.423,25.38,12.869,13.933-.684,27.926-.139,41.893-.2,1.3-.006,2.887.75,4.1-.963C1139.206,365.717,1110.714,331.7,1081.313,296.6Z" fill="#010101"/>
      <path id="Path_5886" data-name="Path 5886" d="M1002.528,540.438c-26.159,0-52.319.092-78.477-.054a17.169,17.169,0,0,1-16.929-14.132,17.477,17.477,0,0,1,10.36-19.058c3.413-1.458,7.028-1.609,10.683-1.606q47.687.033,95.373.012,27.249,0,54.5-.011a25.119,25.119,0,0,1,10.135,1.618,17.472,17.472,0,0,1,10.329,19.072,17.173,17.173,0,0,1-16.951,14.108C1055.21,540.53,1028.869,540.439,1002.528,540.438Z" fill="#030303"/>
      <path id="Path_5887" data-name="Path 5887" d="M1002.781,627.64c-25.978-.005-51.957.117-77.935-.056-13.192-.088-21.632-12.49-16.558-24.083,3.165-7.231,9.146-10.6,16.9-10.7,9.809-.123,19.62-.034,29.43-.034q62.13,0,124.26-.02c8.107-.008,14.654,2.667,18.239,10.336,5.47,11.7-2.933,24.4-16.4,24.505-23.252.179-46.506.055-69.759.058Q1006.869,627.646,1002.781,627.64Z" fill="#030303"/>
    </g>
  </g>
</svg>
