<svg xmlns="http://www.w3.org/2000/svg" width="106.711" height="83.051" viewBox="0 0 106.711 83.051">
  <path id="cricle-shape" d="M85.355,5.79A5.883,5.883,0,0,1,84,5.067a33.263,33.263,0,0,0-5.05-1.9A39.933,39.933,0,0,0,65.862,1.993c-17.321.9-36.868,5.7-52.343,21.793C8.307,29.211.488,39.158,2.28,52c.76,5.335,3.909,9.314,6.3,11.846,5.81,6.149,12.543,9.043,19.113,10.942A65.673,65.673,0,0,0,88.124,62.217a43.073,43.073,0,0,0,6.841-7.144,38.372,38.372,0,0,0,4.67-8.229C108.594,24.69,89.427,10.4,80.74,6.423a40.224,40.224,0,0,0-6.9-2.442" transform="matrix(0.999, 0.035, -0.035, 0.999, 2.759, 0.065)" fill="none" stroke="#7e8485" stroke-linecap="round" stroke-linejoin="round" stroke-miterlimit="10" stroke-width="4"/>
</svg>
