<svg xmlns="http://www.w3.org/2000/svg" width="51.982" height="64.089" viewBox="0 0 51.982 64.089">
  <g id="document" transform="translate(-7.01 -0.956)">
    <path id="Path_653" data-name="Path 653" d="M50.44,9.857,42.51,9.75c-.482-.508-1-.989-1.458-1.4A7.2,7.2,0,0,1,38.62,4.777,5.085,5.085,0,0,0,28.8,4.655c-.653,2.088-.327,2.11-2.319,2.9A9.643,9.643,0,0,0,23.4,9.471l-3.221-.042c-2.635-.042-5.91-.091-8.536,1.513-2.7,1.666-4.405,4.956-4.572,8.8-.133,3.007.25,27.521-.022,33.492-.4,8.914,2.428,11.347,10.319,11.411q15.831.168,31.673.348c2.925.064,5.641.283,7.305-1.1,1.491-1.239,1.092-3.279,2.092-5.232v0c0-13.218.863-26.6.437-39.764C58.64,11.6,55.679,9.923,50.44,9.857Zm-26.5.471a8.576,8.576,0,0,1,2.916-1.845c2.324-.911,2.14-1.08,2.907-3.531a4.085,4.085,0,0,1,7.9.095,8.356,8.356,0,0,0,2.728,4.047c.307.275.639.586.969.909l-.311.311-.476-.476a.25.25,0,0,0-.354.354l.476.476-.225.225a.25.25,0,0,0,0,.354.251.251,0,0,0,.354,0l.225-.225.779.779a.251.251,0,0,0,.354,0,.25.25,0,0,0,0-.354l-.779-.779.308-.308c.076.079.156.152.23.233A7.01,7.01,0,0,1,43.283,12.5a3.611,3.611,0,0,1,.179.5,1.37,1.37,0,0,1-.054,1.121c-.019.028-.053.042-.075.067a.932.932,0,0,1-.247.22,1.548,1.548,0,0,1-.305.111c-.051.016-.093.041-.147.054a3.117,3.117,0,0,1-.358.05,6.587,6.587,0,0,1-.733.042l-.941,0c.028-.012.06-.012.083-.035a.25.25,0,0,0,0-.354l-.369-.369.952-.952.576.576-.577.577a.25.25,0,0,0,0,.354.251.251,0,0,0,.354,0l.577-.577.292.292a.251.251,0,0,0,.354,0,.25.25,0,0,0,0-.354l-.292-.292.2-.2a.25.25,0,0,0-.354-.354l-.2.2-.587-.587a.236.236,0,0,0-.332-.332l-1.065-1.065a.25.25,0,0,0-.354.354L40.914,12.6l-.952.952L38.707,12.3l.1-.1a.25.25,0,0,0-.354-.354l-.1.1-.25-.25a.25.25,0,1,0-.354.354l.25.25L36.86,13.437l-1-1,.576-.576a.25.25,0,1,0-.354-.354l-.589.589a.234.234,0,0,0-.328.328l-1.231,1.231-.727-.727,1-1a.25.25,0,0,0-.354-.354l-1,1-.376-.376a.25.25,0,1,0-.354.354l.376.376-.777.777-1.028-1.028.733-.733a.25.25,0,0,0-.354-.354l-1.888,1.888L28.5,12.8l.531-.531a.25.25,0,0,0-.354-.354l-1.661,1.662-.773-.776a.25.25,0,1,0-.354.354l.778.778-.5.5-.25-.016a.235.235,0,0,0-.049-.236l-1-1,1.458-1.458a.25.25,0,0,0-.354-.354l-1.49,1.49a.219.219,0,0,0-.29.29l-.97.97C21.554,13.541,22.753,11.481,23.935,10.328ZM35.92,14.655l-1.393,0c.011-.008.027-.005.037-.015a.25.25,0,0,0,0-.354l-.276-.276,1.218-1.218,1,1-.566.566A.241.241,0,0,0,35.92,14.655Zm.943-.509.512.512-1.022,0Zm.353-.354,1.139-1.139,1.255,1.254-.653.653a.232.232,0,0,0-.042.1h-.832Zm2.748.468.369.369c.023.023.055.022.083.034h-.853Zm-7.837-.152-.05-.05.777-.777.727.727-.2.2a.25.25,0,0,0,0,.354.251.251,0,0,0,.354,0l.2-.2.276.276c.01.01.025.007.036.015l-2.812-.005c.03-.012.064-.012.088-.037l.2-.2.05.05a.25.25,0,0,0,.354-.353Zm-.957.5c.024.024.058.024.088.036l-1.815,0c-.223-.013-.448-.029-.672-.043l.416-.416.351.351a.25.25,0,1,0,.354-.354l-.351-.351.8-.8,1.028,1.028-.2.2A.25.25,0,0,0,31.17,14.611Zm-3.734-.623-.056-.056.777-.777.677.676-.627.627a.233.233,0,0,0-.043.1l-1.328-.085.191-.191.056.056a.251.251,0,0,0,.354,0A.251.251,0,0,0,27.436,13.988Zm-2.07.4c-.526-.035-1.126-.061-1.573-.129l.722-.722ZM16.972,63.638l.137-.137.141.141C17.157,63.642,17.065,63.64,16.972,63.638Zm2.269-.006c-.009.009-.006.022-.013.032l-1.541-.015a.239.239,0,0,0-.023-.3l-.2-.2,1.078-1.078a.232.232,0,0,0,.042.1l1.06,1.06Zm.667.039L20,63.585c.143.143.049.045.111.089Q20.007,63.671,19.908,63.671Zm1.865.018-1.4-.014c.2-.131.128-.289-.028-.445l1.09-1.09.925.925A7.184,7.184,0,0,0,21.773,63.689Zm3.524.036.43-.43.407.407c.021.021.052.02.078.032Zm1.107.011c.028-.012.06-.011.082-.034a.25.25,0,0,0,0-.354l-.407-.407,1.2-1.2a.244.244,0,0,0,.041.1l1.06,1.06c-.2.2-.443.382-.236.589a.251.251,0,0,0,.354,0l.236-.236.51.51Zm3.489.035a6.187,6.187,0,0,0-.8-.87L30.3,61.688l.76.76-.689.689a.25.25,0,0,0,0,.354.251.251,0,0,0,.354,0l.689-.689c.126.126.884.942,1.045.942a.251.251,0,0,0,.177-.427l-.869-.869,1.259-1.26a.25.25,0,0,0,.065.158l1.019,1.019c-.254.254-.684.553-.442.795a.251.251,0,0,0,.354,0l.442-.442c.1.1,1.029,1.053,1.157,1.111Zm15.846.159q-4.963-.048-9.924-.1a.227.227,0,0,0,.084-.388l-1.078-1.078,1.172-1.172,1.3,1.3-.483.483a.25.25,0,0,0,.354.354l.483-.483c.12.12.6.66.764.66a.251.251,0,0,0,.177-.427L38,62.488l1.543-1.543,1.3,1.3-.813.813a.25.25,0,0,0,.354.354l.813-.813c.126.126.965,1.022,1.126,1.022a.251.251,0,0,0,.177-.427l-.949-.949,2-2,1.543,1.543L43.57,63.3a.25.25,0,0,0,.354.354l1.514-1.514.966.966-.607.607A.231.231,0,0,0,45.739,63.93Zm.051-2.143,2-2,.966.966-2,2Zm5.615,2.2-2.356-.022-2.768-.028.476-.476.1.1a.251.251,0,0,0,.354,0,.25.25,0,0,0,0-.354l-.1-.1,2-2,1.007,1.007-.359.359a.25.25,0,0,0,0,.354.251.251,0,0,0,.354,0l.359-.359.842.842a.251.251,0,0,0,.354,0,.25.25,0,0,0,0-.354l-.842-.842L52.7,60.243l1.3,1.3L52.726,62.8a.25.25,0,0,0,0,.354.251.251,0,0,0,.354,0l1.266-1.266,1.174,1.174C54.453,63.973,52.857,64.007,51.4,63.986Zm1.289-4.449L51.687,58.53l.966-.966,1.007,1.007Zm1.319-.612,1.3,1.3-.966.966-1.3-1.3Zm-1.673.966-1.873,1.873L49.46,60.757l1.873-1.873Zm3.529,2.821L54.7,61.54l.966-.966c.188.188.356.4.556.2s-.01-.363-.2-.556l.945-.945A6.21,6.21,0,0,1,55.869,62.712Zm1.853-19.67-.346-.346.362-.362C57.732,42.57,57.729,42.806,57.722,43.042Zm.11-5.662-.209-.209.213-.213C57.835,37.1,57.834,37.239,57.832,37.38Zm.01-.938a.235.235,0,0,0-.243.046l-1.248,1.248a.25.25,0,0,0,0,.354c.257.257.645-.291.919-.565l.555.555c-.01.713-.026,1.427-.04,2.14l-.45-.451c.237-.237.586-.483.358-.711a.25.25,0,0,0-.354,0l-.357.357c-.276-.276-.629.078-.354.354l-.359.359a.25.25,0,0,0,0,.354.251.251,0,0,0,.354,0l.359-.359.484.484a.22.22,0,0,0,.311.017q-.01.493-.022.987l-.731.731c-.332-.332-.685.022-.354.354l-.235.235a.25.25,0,0,0,0,.354.251.251,0,0,0,.354,0l.235-.235a6.8,6.8,0,0,0,.685.644c-.016.556-.039,1.112-.057,1.669l-.4-.4.229-.229a.25.25,0,1,0-.354-.354l-.306.306a.2.2,0,0,0-.2.2l-1.1,1.1a.25.25,0,1,0,.354.354L56.9,45.319l.728.728c-.033.955-.089,1.908-.128,2.863a.237.237,0,0,0-.049-.119l-.485-.485.161-.161a.25.25,0,0,0-.354-.354l-.161.161-.814-.813a.25.25,0,0,0-.354.354l.814.813-1.226,1.225a.25.25,0,0,0,0,.354.247.247,0,0,0,.177.073.251.251,0,0,0,.177-.073l1.226-1.225c.115.115.5.558.662.558a.249.249,0,0,0,.177-.073.238.238,0,0,0,.044-.1c-.081,1.962-.154,3.926-.263,5.884l-.638-.638.03-.03a.25.25,0,0,0-.354-.354l-.03.03c-.1-.1-1.106-1.12-1.226-1.2L56.2,51.545l.69.69a.251.251,0,0,0,.354,0,.25.25,0,0,0,0-.354l-.69-.69.237-.237a.25.25,0,0,0-.354-.354l-.237.237-.318-.318a.25.25,0,0,0-.354,0c-.223.223.091.445.318.671l-1.72,1.72a.25.25,0,0,0,.354.354l.206-.206c.082.12,1.1,1.123,1.2,1.226l-1.255,1.254-.318-.318a.25.25,0,0,0-.354.354l.318.318-.9.9a.25.25,0,0,0,0,.354.251.251,0,0,0,.354,0l.9-.9,1.861,1.86a.251.251,0,0,0,.354,0,.25.25,0,0,0,0-.354l-1.86-1.86,1.255-1.254.822.822a.242.242,0,0,0,.135.056c-.075,1.309-.137,2.485-.2,3.313a.242.242,0,0,0-.312.017l-1.022,1.022-1.3-1.3.385-.385a.25.25,0,1,0-.354-.354l-.385.385-1.761-1.761a.25.25,0,0,0-.354.354l.4.4-.966.966L50.027,56.87a.25.25,0,0,0-.354.354l1.308,1.307L49.108,60.4l-.966-.966L49.181,58.4a.25.25,0,0,0-.354-.354l-1.039,1.039-.978-.978a.25.25,0,0,0-.354.354l.978.978-2,2-1.543-1.543,1.724-1.724a.25.25,0,1,0-.354-.354L43.54,59.538l-.276-.276a.25.25,0,1,0-.354.354l.276.276-2,2-1.3-1.3,2.188-2.188a.25.25,0,1,0-.354-.354l-2.188,2.188-.482-.482a.25.25,0,0,0-.354.354l.482.482-1.543,1.543-1.3-1.3L39,58.19a.25.25,0,0,0-.354-.354l-2.655,2.655a.243.243,0,0,0-.343.343l-1.177,1.177-1.019-1.019a.24.24,0,0,0-.158-.065l1.69-1.69a.25.25,0,0,0-.354-.354l-3.211,3.211-.76-.76,1.3-1.294a.25.25,0,0,0-.354-.354l-2.862,2.861-1.06-1.06a.226.226,0,0,0-.1-.041l.914-.914a.25.25,0,1,0-.354-.354l-2.411,2.41-.524-.524a.25.25,0,0,0-.354.354l.524.524-.607.607a.25.25,0,0,0-.071.17L22.435,63.7l.277-.277.092.092a.251.251,0,0,0,.354,0,.25.25,0,0,0,0-.354l-.092-.092,2.283-2.284a.25.25,0,1,0-.354-.354l-2.283,2.284-.925-.925,1.043-1.043a.25.25,0,0,0-.354-.354L19.99,62.876l-1.06-1.06a.232.232,0,0,0-.1-.042l.981-.982a.25.25,0,1,0-.354-.354L17.1,62.792l-.565-.565a.25.25,0,1,0-.354.354l.565.565-.318.318a.247.247,0,0,0-.067.162c-.7-.019-1.392-.057-2.054-.137l.36-.36.254.255a.247.247,0,0,0,.177.073.25.25,0,0,0,.177-.427l-.254-.255,1.757-1.758a.25.25,0,0,0-.354-.354l-1.757,1.758-.524-.524a.25.25,0,0,0-.354.354l.524.525-.617.617C8.439,62.5,7.8,58.607,8.037,53.278c.275-6-.108-30.532.023-33.493.15-3.461,1.721-6.524,4.1-7.992,2.347-1.434,5.4-1.408,8-1.365l2.325.03-.008.012c-.805,1.065-1.489,2.506-.823,3.652.756,1.291,2.2,1.172,6.426,1.436a.486.486,0,0,0,.262.085l1.017,0,.318.021.05,0a.465.465,0,0,0,.11-.021l11.7.021c.126,0,.351,0,.479-.007a3.641,3.641,0,0,0,2.415-.984c0-1,.332-1.552-.146-2.593-.1-.208-.254-.412-.374-.615-.036-.06-.1-.121-.14-.181-.091-.144-.2-.289-.307-.433l-.068-.091,7.03.1c4.749.058,7.008,1.049,7.231,8.067C57.851,24.733,57.9,30.583,57.842,36.442Z" fill="#232221"/>
    <path id="Path_654" data-name="Path 654" d="M21.5,25.876c1.576-2.905-1.268-6.469-4.333-5.527h0a3.286,3.286,0,0,0-2.25,3.338C14.933,28.06,19.818,28.981,21.5,25.876Zm-4.24.5.188-.188.46.46A1.653,1.653,0,0,1,17.261,26.38Zm1.176.134a6.267,6.267,0,0,0-.635-.676l.577-.577.638.638A6.437,6.437,0,0,0,18.437,26.514Zm.549.123.385-.385.169.168A2.677,2.677,0,0,1,18.986,26.637Zm1.73-3.62a2.653,2.653,0,0,1-.744,3.129l-.247-.247a4.664,4.664,0,0,0,.75-.83c.625-.094-.184-.739-.63-1.185.044-.036.3-.29.335-.33.095.095.159.188.291.188a.251.251,0,0,0,.177-.427l-.115-.115ZM17.461,21.3h0a2.744,2.744,0,0,1,3.022,1.238l-.3.3-.754-.754a.25.25,0,0,0-.354.354l.754.754-.326.326s0,.006,0,.009l-.071-.071a.25.25,0,0,0-.354.354l1.022,1.022c-.111.085-.624.607-.723.7l-.638-.638c.233-.233.58-.476.351-.7a.25.25,0,0,0-.354,0l-.352.352-.021-.021a.25.25,0,0,0-.354.354l.021.021-.577.577-.4-.4a.25.25,0,1,0-.354.354l.4.4-.228.228a3.455,3.455,0,0,1-.949-2.384A2.3,2.3,0,0,1,17.461,21.3Z" fill="#232221"/>
    <path id="Path_655" data-name="Path 655" d="M17.168,33.137h0a3.284,3.284,0,0,0-2.25,3.337,4,4,0,0,0,2.576,3.9,3.11,3.11,0,0,0,.888.127A3.62,3.62,0,0,0,21.5,38.664a3.921,3.921,0,0,0-.507-4.327A3.7,3.7,0,0,0,17.168,33.137Zm-.383,5.609s0,.011-.007.016a3.5,3.5,0,0,1-.86-2.29,2.291,2.291,0,0,1,1.543-2.378h0a2.749,2.749,0,0,1,3.19,1.562c-.007.005-.016,0-.022.009l-.374.374-.22-.22a.25.25,0,0,0-.354,0c-.2.2.02.374.22.573-.125.125-.326.275-.319.438-.222-.222-.444-.532-.664-.31a.25.25,0,0,0,0,.354l.952.952-.455.455-.729-.729.229-.229a.25.25,0,0,0-.354-.354L17.48,38.05l-.22-.22a.25.25,0,1,0-.354.354l.22.22Zm1,.67a2.129,2.129,0,0,1-.634-.326l.332-.332.693.693a.229.229,0,0,0,.1.043A2.1,2.1,0,0,1,17.782,39.416Zm.641.078a.23.23,0,0,0,.1-.4l-.693-.693.5-.5.729.729c-.219.219-.514.431-.3.649a.251.251,0,0,0,.354,0l.3-.3.188.188A2.563,2.563,0,0,1,18.423,39.494Zm2.2-1.306a2.419,2.419,0,0,1-.616.72,1.065,1.065,0,0,0-.236-.276l.465-.464a.228.228,0,0,0,.321-.013.242.242,0,0,0,.013-.321l.062-.062a.25.25,0,0,0,0-.354c-.1-.1-.242-.112-.406.052l-.408-.407c.172.005.309-.19.438-.319l.388.388a.247.247,0,0,0,.177.073c.034,0,.062-.025.093-.038A2.6,2.6,0,0,1,20.622,38.188Zm-.013-1.8.225-.225a3.1,3.1,0,0,1,.082.532Z" fill="#232221"/>
    <path id="Path_656" data-name="Path 656" d="M17.168,46.77h0a3.284,3.284,0,0,0-2.25,3.337c.014,4.436,4.908,5.272,6.583,2.19C23.078,49.39,20.233,45.828,17.168,46.77ZM15.918,50.1a2.291,2.291,0,0,1,1.543-2.378h0a2.287,2.287,0,0,1,.665-.1,2.79,2.79,0,0,1,2.443,1.5l-.3.3-.832-.833a.25.25,0,1,0-.354.354l.832.833-.135.135a.249.249,0,0,0-.349.356l.9.9-.621.62c-.1-.1-.661-.674-.773-.747.21-.21.471-.4.259-.612a.25.25,0,0,0-.354,0L17.66,51.62c-.147-.147-.289-.268-.455-.1a.25.25,0,0,0,0,.354l.1.1-.477.477A3.49,3.49,0,0,1,15.918,50.1Zm1.3,2.667.445-.445c.111.111.737.787.893.8A1.977,1.977,0,0,1,17.217,52.771Zm1.416.34,0,.007C18.618,53.12,18.565,53.129,18.633,53.111Zm-.618-1.139.6-.6c.072.112.646.672.747.773l-.6.6C18.689,52.637,18.115,52.072,18.015,51.972Zm1.228,1,.472-.472.148.148A2.734,2.734,0,0,1,19.243,52.972Zm1-.651-.175-.175.725-.724A2.167,2.167,0,0,1,20.243,52.321Zm.645-1.275c-.079-.128-.639-.667-.75-.778l.133-.133c.34.34.708,0,.354-.353l.156-.155A3.019,3.019,0,0,1,20.888,51.046Z" fill="#232221"/>
    <path id="Path_657" data-name="Path 657" d="M45.842,25.045H25.256a.5.5,0,0,0,0,1H45.842a.5.5,0,1,0,0-1Z" fill="#232221"/>
    <path id="Path_658" data-name="Path 658" d="M25.256,23.045h14.3a.5.5,0,0,0,0-1h-14.3a.5.5,0,0,0,0,1Z" fill="#232221"/>
    <path id="Path_659" data-name="Path 659" d="M45.842,38.045H25.256a.5.5,0,1,0,0,1H45.842a.5.5,0,1,0,0-1Z" fill="#232221"/>
    <path id="Path_660" data-name="Path 660" d="M25.256,36.045h14.3a.5.5,0,0,0,0-1h-14.3a.5.5,0,1,0,0,1Z" fill="#232221"/>
    <path id="Path_661" data-name="Path 661" d="M45.842,50.045H25.256a.5.5,0,1,0,0,1H45.842a.5.5,0,1,0,0-1Z" fill="#232221"/>
    <path id="Path_662" data-name="Path 662" d="M25.256,49.045h14.3a.5.5,0,0,0,0-1h-14.3a.5.5,0,1,0,0,1Z" fill="#232221"/>
  </g>
</svg>
