<svg xmlns="http://www.w3.org/2000/svg" viewBox="0 0 304.42 280.53"><defs><style>.cls-1{fill:#ebebeb;}.cls-2{fill:#e0e0e0;}.cls-3{fill:#f0f0f0;}.cls-4{fill:#fff;}.cls-5{fill:#fafafa;}.cls-6{fill:#4096ee;}.cls-7{fill:#e8505b;}.cls-8{fill:#2679b2;}.cls-9{fill:#263238;}.cls-10{fill:#cdeb8b;}</style></defs><g id="Layer_2" data-name="Layer 2"><g id="Mail_Sent" data-name="Mail Sent"><path class="cls-1" d="M107.79,9.52,12.6,133.17l256-63.64L126,4.93A15.09,15.09,0,0,0,107.79,9.52Z"/><path class="cls-2" d="M11.25,134.05,107.37,9.19a15.55,15.55,0,0,1,18.86-4.74l144,65.23Zm108.5-130a14.49,14.49,0,0,0-11.54,5.74h0L13.94,132.3,267,69.39l-141.2-64A14.6,14.6,0,0,0,119.75,4.1Z"/><path class="cls-3" d="M27.28,99H292a0,0,0,0,1,0,0V242.44a10.71,10.71,0,0,1-10.71,10.71H38a10.71,10.71,0,0,1-10.71-10.71V99a0,0,0,0,1,0,0Z" transform="translate(-37.76 43.71) rotate(-13.96)"/><path class="cls-4" d="M253.68,76.94l-89,90.93L30.12,137.59,14.73,66.24A14.4,14.4,0,0,1,25.28,49L219.88.65a14.38,14.38,0,0,1,17.44,10.5Z"/><path class="cls-2" d="M152.46,160.72,46.78,271.16h0a11.77,11.77,0,0,0,14.27,8.59l234.3-58.27a11.78,11.78,0,0,0,8.59-14.27l-.22-.88L165.52,157.6A12.36,12.36,0,0,0,152.46,160.72Z"/><rect class="cls-2" x="42.37" y="68.92" width="78.45" height="8.01" transform="translate(-15.19 21.85) rotate(-13.97)"/><rect class="cls-2" x="45.98" y="77.07" width="174.06" height="9.05" transform="translate(-15.76 34.52) rotate(-13.97)"/><rect class="cls-2" x="51.32" y="98.53" width="174.06" height="9.05" transform="translate(-20.78 36.44) rotate(-13.97)"/><polygon class="cls-2" points="225.28 106.07 219.99 111.36 78.18 148.43 59.65 144.1 58.95 142.09 227.32 100.21 228.05 103.12 225.28 106.07"/><polygon class="cls-2" points="189 143.02 125.12 158.9 105.59 154.44 201.06 130.69 189 143.02"/><path class="cls-5" d="M148.6,164.74s-.07.11-.24.3l-.76.83L144.66,169l-10.89,11.53c-9.22,9.71-22,23.13-36.15,37.84S70.47,246.3,61,255.76c-4.74,4.73-8.6,8.55-11.28,11.16l-3.09,3-.82.77a1.49,1.49,0,0,1-.29.25,2,2,0,0,1,.25-.29l.78-.81,3-3.07,11.15-11.28C70.12,246,83.05,232.73,97.23,218s27-28,36.25-37.73l11-11.41,3-3.08.8-.79Z"/><path class="cls-5" d="M303.72,206.33c-.05.14-29.52-10.09-65.82-22.85s-65.69-23.22-65.64-23.36S201.78,170.2,238.08,183,303.77,206.18,303.72,206.33Z"/><path class="cls-5" d="M257.91,72.56a1.67,1.67,0,0,1-.19.25l-.61.69-2.37,2.63-8.82,9.59c-7.49,8.07-17.91,19.13-29.59,31.2s-22.41,22.84-30.23,30.58l-9.31,9.12-2.56,2.45-.67.63c-.16.14-.24.21-.25.2a2,2,0,0,1,.21-.24l.63-.67,2.49-2.52,9.18-9.24c7.76-7.81,18.44-18.63,30.11-30.69s22.14-23.09,29.7-31.08l9-9.47L257,73.43l.65-.66A1.38,1.38,0,0,1,257.91,72.56Z"/><path class="cls-5" d="M148.6,164.74a1.56,1.56,0,0,1-.35-.06l-1-.24-4-1c-3.42-.86-8.39-2.07-14.54-3.51-12.29-2.91-29.34-6.66-48.18-10.74s-35.88-7.89-48.15-10.9c-6.14-1.5-11.1-2.76-14.51-3.68L14,133.58l-1-.29a1.38,1.38,0,0,1-.34-.12l.35.07,1,.23,3.95,1c3.43.86,8.4,2.06,14.55,3.51,12.29,2.91,29.33,6.66,48.18,10.74s35.88,7.89,48.15,10.9c6.14,1.5,11.1,2.75,14.51,3.68l3.92,1.07,1,.29Z"/><path class="cls-2" d="M253.68,76.94s-.1-.33-.27-1l-.73-2.83c-.64-2.51-1.57-6.18-2.77-10.91L239.84,22.08q-.79-3.18-1.63-6.51c-.27-1.1-.55-2.23-.84-3.36-.14-.57-.27-1.14-.45-1.69a12.47,12.47,0,0,0-.61-1.64A14.11,14.11,0,0,0,225.06.57a13.9,13.9,0,0,0-3.81.05c-1.26.22-2.54.57-3.83.88l-7.85,2L193.19,7.54,120.25,25.7l-73,18.12L30.88,47.88l-3.95,1A22.33,22.33,0,0,0,23.13,50a13.44,13.44,0,0,0-3.31,2,13.75,13.75,0,0,0-2.61,2.78,14.62,14.62,0,0,0-1.76,3.31,14.91,14.91,0,0,0-.8,3.59c-.3,2.45.38,4.81.86,7.14q1.5,7,2.87,13.41C22,99.34,25,113.16,27,122.73c1,4.78,1.78,8.48,2.32,11,.26,1.25.45,2.21.59,2.87s.18,1,.18,1-.09-.33-.24-1-.36-1.61-.64-2.85c-.56-2.53-1.37-6.23-2.42-11-2.09-9.56-5.1-23.38-8.82-40.44q-1.38-6.41-2.91-13.41c-.48-2.3-1.18-4.74-.88-7.27A15,15,0,0,1,15,58a15.37,15.37,0,0,1,1.81-3.42,14.05,14.05,0,0,1,2.69-2.87,13.61,13.61,0,0,1,3.41-2.08,22.13,22.13,0,0,1,3.87-1.18l4-1,16.38-4.08,73-18.16,73-18.12L209.46,3l7.85-1.94c1.29-.32,2.55-.66,3.87-.89a14.66,14.66,0,0,1,11,2.8,14.55,14.55,0,0,1,4.54,5.75,11.41,11.41,0,0,1,.62,1.69c.18.57.32,1.14.46,1.71.28,1.13.56,2.26.83,3.37.55,2.22,1.08,4.39,1.61,6.51l9.9,40.19c1.16,4.74,2,8.42,2.67,10.93.29,1.25.52,2.2.67,2.85S253.68,76.94,253.68,76.94Z"/><polygon class="cls-6" points="141.87 24.16 131.98 31.69 132.46 46.07 123.41 38.88 118.41 43.16 99.41 19.7 141.87 24.16"/><path class="cls-7" d="M128.27,34.75c0,.44,4.19,11.32,4.19,11.32l-9.05-7.19Z"/><path class="cls-8" d="M128.27,34.75c0,.44,4.19,11.32,4.19,11.32l-9.05-7.19Z"/><polygon class="cls-7" points="99.41 19.7 128.26 34.75 132.46 46.07 131.98 31.69 99.41 19.7"/><polygon class="cls-6" points="99.41 19.7 128.26 34.75 132.46 46.07 131.98 31.69 99.41 19.7"/><path class="cls-9" d="M153.83,44.19a7.79,7.79,0,0,1-2.61-.41A7.31,7.31,0,0,1,148.7,43a5.88,5.88,0,0,1,2.65.26A5.57,5.57,0,0,1,153.83,44.19Z"/><path class="cls-9" d="M163.51,48.34a7.62,7.62,0,0,1-2.44-1A7.63,7.63,0,0,1,158.8,46a5.69,5.69,0,0,1,2.51.86C162.62,47.5,163.59,48.21,163.51,48.34Z"/><path class="cls-9" d="M171.9,54.7c-.11.11-1-.64-2.12-1.58s-2-1.74-1.87-1.87a5.8,5.8,0,0,1,2.23,1.45C171.25,53.66,172,54.6,171.9,54.7Z"/><path class="cls-9" d="M178.3,63.05c-.14.07-.8-.9-1.6-2.1a8.14,8.14,0,0,1-1.3-2.3c.11-.09.95.77,1.76,2A5.68,5.68,0,0,1,178.3,63.05Z"/><path class="cls-9" d="M181.93,72.92a8,8,0,0,1-.88-2.49,7.56,7.56,0,0,1-.55-2.59,5.56,5.56,0,0,1,1.07,2.44A5.46,5.46,0,0,1,181.93,72.92Z"/><path class="cls-9" d="M182.47,83.42a8.24,8.24,0,0,1-.11-2.64,7.54,7.54,0,0,1,.24-2.63,5.67,5.67,0,0,1,.31,2.64A5.71,5.71,0,0,1,182.47,83.42Z"/><path class="cls-9" d="M179.74,93.56a8.14,8.14,0,0,1,.74-2.53,8.4,8.4,0,0,1,1-2.43,5.29,5.29,0,0,1-.53,2.61A5.43,5.43,0,0,1,179.74,93.56Z"/><path class="cls-9" d="M173.63,102.1c-.1-.12.68-1,1.63-2.08s1.71-2,1.84-1.89a5.47,5.47,0,0,1-1.43,2.25C174.7,101.49,173.73,102.21,173.63,102.1Z"/><path class="cls-9" d="M164.81,107.78a8.26,8.26,0,0,1,2.26-1.36,8.08,8.08,0,0,1,2.41-1.08,5.53,5.53,0,0,1-2.16,1.57A5.45,5.45,0,0,1,164.81,107.78Z"/><path class="cls-9" d="M154.55,110a8,8,0,0,1,2.59-.46,8.23,8.23,0,0,1,2.64-.17,5.42,5.42,0,0,1-2.57.71A5.36,5.36,0,0,1,154.55,110Z"/><path class="cls-9" d="M144.25,108a9,9,0,0,1,2.56.65,9,9,0,0,1,2.48.88,5.19,5.19,0,0,1-2.64-.36A5.09,5.09,0,0,1,144.25,108Z"/><path class="cls-9" d="M137,100.8c.15,0,.61,1,1.43,2.18s1.61,2,1.5,2.15-1.09-.6-1.95-1.83A4.09,4.09,0,0,1,137,100.8Z"/><path class="cls-9" d="M141.39,92.61c0,.16-1.09.51-2.23,1.32s-1.75,1.82-1.89,1.74.3-1.28,1.57-2.18A3.66,3.66,0,0,1,141.39,92.61Z"/><path class="cls-9" d="M150.43,96.36c-.14.08-.78-.9-1.82-1.86s-2.1-1.44-2-1.59A3.65,3.65,0,0,1,149,94.1,3.88,3.88,0,0,1,150.43,96.36Z"/><path class="cls-9" d="M150.77,106.57a12.67,12.67,0,0,1,.49-2.57,12.85,12.85,0,0,1,.49-2.58,6.52,6.52,0,0,1-1,5.15Z"/><path class="cls-9" d="M143.92,114.42c-.09-.13.82-.88,1.91-1.81s2-1.73,2.07-1.63-.58,1.08-1.71,2S144,114.55,143.92,114.42Z"/><path class="cls-9" d="M134.57,119.28a6.64,6.64,0,0,1,2.28-1.35,6.44,6.44,0,0,1,2.52-.85,6.8,6.8,0,0,1-2.29,1.35A6.52,6.52,0,0,1,134.57,119.28Z"/><path class="cls-9" d="M125.17,124.06c-.08-.13.87-.84,2.13-1.6a6,6,0,0,1,2.46-1c.08.15-.94.76-2.19,1.48A6.39,6.39,0,0,1,125.17,124.06Z"/><path class="cls-9" d="M117.2,130.94c-.11-.1.58-1.08,1.63-2.11s2-1.7,2.14-1.59-.72,1-1.75,2S117.32,131,117.2,130.94Z"/><path class="cls-9" d="M111.16,139.56a5.82,5.82,0,0,1,1.08-2.43c.77-1.25,1.56-2.15,1.69-2.06a7.85,7.85,0,0,1-1.22,2.35C112,138.65,111.3,139.63,111.16,139.56Z"/><path class="cls-9" d="M107.32,149.36a5.61,5.61,0,0,1,.48-2.61,5.69,5.69,0,0,1,1.15-2.4,7.62,7.62,0,0,1-.63,2.57A7.61,7.61,0,0,1,107.32,149.36Z"/><path class="cls-9" d="M105.94,159.8a9.8,9.8,0,0,1,.36-5.26,7.4,7.4,0,0,1,0,2.64A7.57,7.57,0,0,1,105.94,159.8Z"/><path class="cls-9" d="M107.32,170.23a6.43,6.43,0,0,1-.83-2.52,5.17,5.17,0,0,1-.21-2.65,8.84,8.84,0,0,1,.75,2.54A6.46,6.46,0,0,1,107.32,170.23Z"/><path class="cls-9" d="M111.39,179.93a5.74,5.74,0,0,1-1.49-2.2,5.58,5.58,0,0,1-.85-2.52,7.62,7.62,0,0,1,1.34,2.28A7.28,7.28,0,0,1,111.39,179.93Z"/><path class="cls-9" d="M117.71,188.36c-.1.1-1-.66-2-1.78a5.92,5.92,0,0,1-1.44-2.24c.13-.1.92.78,1.86,1.88S117.82,188.25,117.71,188.36Z"/><path class="cls-9" d="M125.83,195.06a5.72,5.72,0,0,1-2.34-1.27c-1.18-.86-2-1.72-1.92-1.84a7.66,7.66,0,0,1,2.25,1.4C125,194.2,125.91,194.93,125.83,195.06Z"/><path class="cls-9" d="M135.33,199.6a5.59,5.59,0,0,1-2.58-.65,5.45,5.45,0,0,1-2.31-1.32,8,8,0,0,1,2.51.81A8.36,8.36,0,0,1,135.33,199.6Z"/><rect class="cls-7" x="120.61" y="172.8" width="11.51" height="7.16" transform="translate(61.36 -30.63) rotate(18.18)"/><rect class="cls-6" x="120.61" y="172.8" width="11.51" height="7.16" transform="translate(61.36 -30.63) rotate(18.18)"/><path class="cls-7" d="M133,174.78a45.37,45.37,0,0,1-6.34,2.6l-.19.07-.12-.16-.19-.24a46.13,46.13,0,0,1-4.09-5.87,47.07,47.07,0,0,1,4.53,5.54l.18.24-.31-.09A42.57,42.57,0,0,1,133,174.78Z"/><path class="cls-8" d="M133,174.78a45.37,45.37,0,0,1-6.34,2.6l-.19.07-.12-.16-.19-.24a46.13,46.13,0,0,1-4.09-5.87,47.07,47.07,0,0,1,4.53,5.54l.18.24-.31-.09A42.57,42.57,0,0,1,133,174.78Z"/><path class="cls-7" d="M125.17,175.35a8.22,8.22,0,0,1-2.57,1.57,8.79,8.79,0,0,1-2.82,1.07,8.5,8.5,0,0,1,2.58-1.57A8.87,8.87,0,0,1,125.17,175.35Z"/><path class="cls-8" d="M125.17,175.35a8.22,8.22,0,0,1-2.57,1.57,8.79,8.79,0,0,1-2.82,1.07,8.5,8.5,0,0,1,2.58-1.57A8.87,8.87,0,0,1,125.17,175.35Z"/><path class="cls-7" d="M130.91,181.64a8.24,8.24,0,0,1-1.4-2.53c-.66-1.49-1.1-2.77-.9-2.75a8.36,8.36,0,0,1,1.41,2.53A7.78,7.78,0,0,1,130.91,181.64Z"/><path class="cls-8" d="M130.91,181.64a8.24,8.24,0,0,1-1.4-2.53c-.66-1.49-1.1-2.77-.9-2.75a8.36,8.36,0,0,1,1.41,2.53A7.78,7.78,0,0,1,130.91,181.64Z"/><path class="cls-10" d="M151,196.49a4.39,4.39,0,1,1,.94-6.14A4.39,4.39,0,0,1,151,196.49Z"/><path class="cls-4" d="M151.13,192.15a20.07,20.07,0,0,1-2.95,1.82l-.7.39-.13.07-.07-.12a14.19,14.19,0,0,1-1.2-2.37,13.19,13.19,0,0,1,1.45,2.23l-.19-.06.7-.4A19.86,19.86,0,0,1,151.13,192.15Z"/><rect class="cls-7" x="142.85" y="175.18" width="15.51" height="9.65" transform="translate(63.7 -38.01) rotate(18.18)"/><rect class="cls-6" x="142.85" y="175.18" width="15.51" height="9.65" transform="translate(63.7 -38.01) rotate(18.18)"/><path class="cls-7" d="M159.48,177.84a4.22,4.22,0,0,1-.66.3l-1.84.72c-1.55.59-3.71,1.4-6.12,2.28l-.1,0-.07-.09-.24-.32c-1.61-2.12-3-4.05-4.09-5.46l-1.21-1.67a4.4,4.4,0,0,1-.41-.64,3.2,3.2,0,0,1,.5.57l1.29,1.62c1.07,1.37,2.54,3.28,4.15,5.4l.24.33-.16,0c2.41-.88,4.58-1.66,6.16-2.2l1.86-.63A3,3,0,0,1,159.48,177.84Z"/><path class="cls-8" d="M159.48,177.84a4.22,4.22,0,0,1-.66.3l-1.84.72c-1.55.59-3.71,1.4-6.12,2.28l-.1,0-.07-.09-.24-.32c-1.61-2.12-3-4.05-4.09-5.46l-1.21-1.67a4.4,4.4,0,0,1-.41-.64,3.2,3.2,0,0,1,.5.57l1.29,1.62c1.07,1.37,2.54,3.28,4.15,5.4l.24.33-.16,0c2.41-.88,4.58-1.66,6.16-2.2l1.86-.63A3,3,0,0,1,159.48,177.84Z"/><path class="cls-7" d="M149,178.62a30.14,30.14,0,0,1-3.57,1.9,29,29,0,0,1-3.7,1.65,28.38,28.38,0,0,1,3.57-1.91A28.07,28.07,0,0,1,149,178.62Z"/><path class="cls-8" d="M149,178.62a30.14,30.14,0,0,1-3.57,1.9,29,29,0,0,1-3.7,1.65,28.38,28.38,0,0,1,3.57-1.91A28.07,28.07,0,0,1,149,178.62Z"/><path class="cls-8" d="M156.73,187.09a26.4,26.4,0,0,1-1.68-3.5,28.28,28.28,0,0,1-1.42-3.62,50.9,50.9,0,0,1,3.1,7.12Z"/><path class="cls-10" d="M41.13,63.07A20.88,20.88,0,1,1,26,37.69,20.89,20.89,0,0,1,41.13,63.07Z"/><path class="cls-4" d="M28.63,46.61c.37.15-2,7.14-5.3,15.62-.49,1.23-.95,2.41-1.41,3.57l-.25.63L21,66.19c-6.77-2.61-11.72-4.76-11.6-5.07s5.26,1.31,12.08,3.78l-.88.4c.44-1.16.9-2.35,1.37-3.58C25.3,53.24,28.27,46.47,28.63,46.61Z"/></g></g></svg>