<svg xmlns="http://www.w3.org/2000/svg" width="98" height="95" viewBox="0 0 98 95">
  <g id="email" transform="translate(-442 -764)">
    <path id="newshape" d="M138.851,112.617l-3.973.894a57.886,57.886,0,0,0-8.162,2.254c-7.853,2.693-13.988,5.668-18.134,8.8a31.739,31.739,0,0,0-3.351,2.921,13.262,13.262,0,0,0-2.27,2.46,48.944,48.944,0,0,0-7.227,14.052,23.835,23.835,0,0,0-1.205,6.237c-.227,2.325-.449,4.032-.643,4.969a22.028,22.028,0,0,0-.141,2.655c-.038,1.479-.087,2.411-.141,2.688a22.114,22.114,0,0,0,.011,5.641c.1,1.208.151,2.243.184,3.989a18.222,18.222,0,0,0,.595,5.311,38.743,38.743,0,0,0,3.573,8.736c1.74,3.349,1.994,3.848,2.384,4.677.227.477.47,1.008.546,1.176a22.991,22.991,0,0,0,2.411,3.755A24.2,24.2,0,0,0,105.961,197c3.5,3.506,8.226,5.956,15.648,8.091a31.345,31.345,0,0,0,6.432,1.143c.865.1,1.994.276,2.513.379a12.708,12.708,0,0,0,2.432.271c.816.043,1.643.1,1.838.13.454.065,4.854.135,7.7.119a50.663,50.663,0,0,0,12.053-1.116c.33-.076,1.222-.249,1.984-.379a16.72,16.72,0,0,0,3.524-.894,39.4,39.4,0,0,0,9.464-4.455,38.552,38.552,0,0,0,10.372-10.963,29.108,29.108,0,0,0,2.281-3.956c.481-.954,1.195-2.281,1.589-2.953A65.009,65.009,0,0,0,190.82,165.3a6.953,6.953,0,0,0,.276-2.195,13.124,13.124,0,0,1,.249-2.574,9.242,9.242,0,0,0,.092-1.68,16.694,16.694,0,0,0-.427-3.929c-.13-.656-.3-1.62-.378-2.141a12.427,12.427,0,0,0-.692-2.791,60.653,60.653,0,0,0-13.415-22.023,59.9,59.9,0,0,0-6.729-5.907,10.674,10.674,0,0,1-1.465-1.349,23.862,23.862,0,0,0-6.908-5.1,32.805,32.805,0,0,0-12.815-3.338c-.616-.054-1.973-.1-3.27-.108l-2.216-.022-2.135.238Z" transform="translate(348.563 651.86)" fill="#fff"/>
    <g id="download_-_2021-11-29T155258.031" data-name="download - 2021-11-29T155258.031" transform="translate(457.982 778.762)">
      <path id="Path_5876" data-name="Path 5876" d="M55.48,10.25h0c-8.58.277-45.2.486-48.333.5a5.632,5.632,0,0,0-4.816,2.365,8.126,8.126,0,0,0-.863,4.232L1.024,45.523c-.043,2.756.094,5.823,1.915,7.878a.494.494,0,0,0,.693.668c1.981,1.591,4.724,1.693,7.241,1.693L53.6,55.628c7.47-.023,9.436-2.317,9.85-9.1L64.9,22.5C65.414,14.148,63.611,9.984,55.48,10.25Zm-48.329,1.5c3.137-.012,39.771-.222,48.361-.5h0c1.912-.063,3.882-.114,5.475.944-1.416,1.471-2.859,2.924-4.312,4.369l-.624-.624.011-.01a.25.25,0,1,0-.354-.354l-.011.011-.927-.927a.25.25,0,1,0-.354.353l.927.927-1.632,1.632-.933-.933.883-.883a.25.25,0,0,0-.353-.354l-.911.911a.22.22,0,0,0-.3.3l-1.506,1.506a.25.25,0,1,0,.354.354l1.478-1.479,1.887,1.887q-1.189,1.156-2.4,2.3c-.01-.016-.007-.037-.021-.051l-.946-.947a.22.22,0,0,0-.3-.3l-.66-.66a.25.25,0,0,0-.354.354l.632.632-2.479,2.479-.89-.89a.25.25,0,0,0-.353.354l.89.89-.154.154a.25.25,0,1,0,.354.354l.154-.154.568.568a.25.25,0,1,0,.354-.353l-.568-.568,2.479-2.479.919.919c.012.011.029.008.042.017-4.276,4.045-8.666,7.976-13.163,11.728a.379.379,0,0,0-.257.212,22.455,22.455,0,0,1-2.174,1.623,5.342,5.342,0,0,0-.618-.668.2.2,0,0,0,.277-.032l2.1-2.1.527.527a.25.25,0,1,0,.353-.354l-.527-.527,3.214-3.214.633.633a.25.25,0,0,0,.354-.354l-.633-.633,2.147-2.147.973.973a.25.25,0,0,0,.354-.354l-.973-.973,1.516-1.516a.25.25,0,0,0-.354-.354l-1.516,1.516-1.331-1.331a.25.25,0,0,0-.354.353l1.331,1.331-2.147,2.147-1.4-1.4a.25.25,0,0,0-.354.353l1.4,1.4-3.214,3.214-1.632-1.632,3.865-3.865a.25.25,0,0,0-.354-.354l-3.865,3.865-.632-.632a.25.25,0,0,0-.354.354l.632.632-2.258,2.258L31.045,30.06,33.4,27.706a.25.25,0,1,0-.354-.354l-2.353,2.354-.044-.044a.25.25,0,0,0-.354.354l.044.044L28.594,31.8l-1.552-1.552a.25.25,0,0,0-.354.354l1.552,1.552-1.734,1.735c-.41-.311-.812-.628-1.2-.945a178.54,178.54,0,0,1-21-20.41A5.477,5.477,0,0,1,7.151,11.748Zm47.523,6.784-.608-.608L55.7,16.292l.626.626C55.779,17.461,55.225,18,54.674,18.532ZM26.909,34.2l1.685-1.685L30.7,34.623l-.265.265a.25.25,0,1,0,.354.354l.265-.265,1.34,1.34A9.093,9.093,0,0,1,26.909,34.2Zm2.038-2.039,1.743-1.743L32.8,32.526l-1.743,1.743Zm4.027,4.11a.243.243,0,0,0-.059-.142l-1.5-1.5,1.743-1.743,2.43,2.43A7.185,7.185,0,0,1,32.974,36.268Zm2.288-1.987-1.755-1.755,2.258-2.258L37.4,31.9l-2.1,2.1A.242.242,0,0,0,35.262,34.281ZM2.024,45.538,2.467,17.36c.024-1.508.06-3.072,1.067-4.186A179.564,179.564,0,0,0,24.673,33.719c.585.482,1.2.967,1.84,1.423-8.187,5.37-15.1,11.315-22.825,17.6C2.1,50.96,1.981,48.22,2.024,45.538Zm8.844,9.224c-2.34,0-4.75-.111-6.435-1.336,7.864-6.4,14.785-12.349,22.98-17.682a9.038,9.038,0,0,0,4.777,1.593c2.486,0,4.492-1.4,6.423-2.978,5.136,4.182,10.134,8.6,14.947,13.178l-2.118,2.118-.672-.672a.25.25,0,1,0-.354.353l.672.672L48.546,52.55l-1.384-1.384,1.186-1.186a.25.25,0,0,0-.354-.353l-1.227,1.227a.239.239,0,0,0-.213.058.236.236,0,0,0-.058.213l-1.541,1.541-.209-.209a.25.25,0,0,0-.354.354l.209.209-1.345,1.345-1.521-1.521a.246.246,0,0,0-.334-.008l1.421-1.421a.25.25,0,0,0-.354-.354l-3.073,3.072-.672-.672a.25.25,0,1,0-.354.354l.672.672-.187.187-1.738.005c-.012-.025-.011-.055-.032-.076l-.309-.31,2.045-2.044a.25.25,0,1,0-.354-.354l-2.045,2.044-.17-.171a.25.25,0,0,0-.354.354l.17.171-.39.39Zm47.424-5.117a.251.251,0,0,0,.354,0l.441-.441.689.689L58.6,51.064c-.642-.64-1.283-1.281-1.933-1.915l1.18-1.18.882.882-.441.441A.25.25,0,0,0,58.292,49.645Zm-.4,2.127-.9.9-1.925-1.924.886-.886C56.613,50.491,57.254,51.132,57.9,51.772ZM55.684,53.9l-1.88-1.88.92-.92,1.924,1.924-.939.938C55.7,53.939,55.7,53.914,55.684,53.9ZM57,53.374l.1.1a.25.25,0,0,0,.354-.354l-.1-.1.9-.9c.458.459.929.909,1.384,1.371a8.512,8.512,0,0,1-3.808,1.054Zm-2.278-2.985-.866-.866a.25.25,0,1,0-.354.354l.866.866-.92.92L51.8,50.009l2.129-2.129c.565.539,1.124,1.082,1.683,1.626ZM39.816,54.553l-.066-.066,1.624-1.624a.246.246,0,0,0,.008.334l1.464,1.464-2.982.009A.232.232,0,0,0,39.816,54.553Zm6.831-.1a.25.25,0,0,0-.065-.158L45.31,53.02l1.5-1.5L48.194,52.9Zm1.9-1.192,1.382,1.382-2.773.009Zm-2.305,1.393-2.57.008,1.285-1.285,1.272,1.272S46.237,54.648,46.241,54.651Zm-9.783.031h-.069l.034-.035Zm17.132-.054-3.2.01a.238.238,0,0,0-.031-.279L48.9,52.9l2.542-2.542L53.1,52.016l-2.14,2.14a.25.25,0,1,0,.354.354l2.14-2.14,1.88,1.88c.017.017.042.015.062.026l-.035.035a.237.237,0,0,0-.033.273C54.75,54.614,54.169,54.626,53.59,54.628ZM63.9,22.436l-.888,14.626-.742-.742a.25.25,0,1,0-.354.354l.981.981-.673.673a.25.25,0,0,0,.354.353l.357-.357-.078,1.285-.356-.356a.25.25,0,0,0-.354.353l.363.363a.235.235,0,0,0-.13.054l-1.469,1.469c-.007.007,0,.017-.01.024a.236.236,0,0,0-.222.055.25.25,0,0,0,0,.354l1.235,1.235a.25.25,0,0,0,.354-.354l-.982-.982,1.447-1.447a.242.242,0,0,0,.054-.13l.026.026h0l-.376,6.195c-.143,2.353-.37,4.853-2.006,6.413-.486-.494-.99-.976-1.481-1.467l1.169-1.169.944.944a.25.25,0,0,0,.354-.354l-.944-.944,1.29-1.29a.25.25,0,0,0-.354-.354l-1.29,1.29-.689-.689,1.96-1.96a.25.25,0,1,0-.354-.354l-1.96,1.96-.882-.882.574-.574a.25.25,0,0,0-.354-.354l-.574.574-.21-.209a.25.25,0,1,0-.353.354l.209.209L56.311,48.8C50.9,43.529,45.23,38.469,39.387,33.7c5.41-4.528,10.675-9.3,15.752-14.24.026-.012.056-.011.077-.032s.017-.047.029-.07c2.208-2.15,4.387-4.323,6.514-6.533C64.351,15.369,64.093,19.342,63.9,22.436Z"/>
      <path id="Path_5877" data-name="Path 5877" d="M15.335,19.375l.843-.843,1.034,1.034L16.2,20.573a.25.25,0,0,0,.354.354l1.007-1.007,2.907,2.907a.25.25,0,0,0,.353-.354l-2.907-2.907,2.013-2.013.463.463L18.98,19.431a.25.25,0,0,0,.354.354l1.415-1.415,1.442,1.442L20.613,21.39a.25.25,0,1,0,.353.354l1.578-1.578,1.067,1.067a.25.25,0,0,0,.354-.354L22.9,19.812,24.013,18.7l1.294,1.294a.25.25,0,0,0,.354-.354l-1.294-1.294,1.048-1.048a.25.25,0,1,0-.354-.354l-1.048,1.048-1.442-1.442.007-.007a.25.25,0,1,0-.354-.354l-.007.007-.463-.463.494-.494a.25.25,0,0,0-.353-.354l-.517.517a.224.224,0,0,0-.308.308l-1.138,1.138-1.006-1.006a.25.25,0,0,0-.354.353L19.578,17.2l-2.013,2.013-1.034-1.034,1.319-1.319A.25.25,0,1,0,17.5,16.5l-1.319,1.319-.517-.517a.25.25,0,0,0-.354.354l.517.517-.843.843a.251.251,0,0,0,.355.355Zm8.325-1.033-1.115,1.115L21.1,18.015,22.219,16.9ZM21.4,16.083l.463.463-1.116,1.115-.463-.463Z"/>
      <path id="Path_5878" data-name="Path 5878" d="M60.19,44.581a.25.25,0,0,0-.354.354l.35.35a.238.238,0,0,0,.035.268c.109.109.179.073.268.035l.738.739a.25.25,0,0,0,.354-.354l-.713-.714L62.2,43.931a.25.25,0,1,0-.354-.354L60.514,44.9Z"/>
      <path id="Path_5879" data-name="Path 5879" d="M4.341,34.97H5.635v1.585H4.727a.25.25,0,0,0,0,.5h.908v1.431H4.8a.25.25,0,0,0,0,.5h.831v1.758a.25.25,0,0,0,.5,0V38.986h.88a.25.25,0,0,0,0-.5h-.88V37.055h.788a.25.25,0,0,0,0-.5H6.135V34.97h.61a.25.25,0,0,0,0-.5h-.61v-1.6a.25.25,0,0,0-.5,0v1.6H4.341a.25.25,0,0,0,0,.5Z"/>
      <path id="Path_5880" data-name="Path 5880" d="M21.71,41.242l-2,2-.595-.6a.25.25,0,1,0-.354.353l.595.6-1.23,1.23-.48-.48a.25.25,0,0,0-.354.354l.48.48-1.963,1.963-.866-.866a.25.25,0,0,0-.354.354l.866.866-2.178,2.178a.25.25,0,1,0,.354.354l2.178-2.178,1.206,1.206a.25.25,0,0,0,.354-.354l-1.2-1.207,1.963-1.963.762.762a.25.25,0,0,0,.354-.354l-.762-.762,1.229-1.23.561.562a.25.25,0,0,0,.354-.354L20.06,43.6l2-2a.25.25,0,1,0-.354-.354Z"/>
    </g>
  </g>
</svg>
