<svg xmlns="http://www.w3.org/2000/svg" width="40" height="40" viewBox="0 0 40 40">
  <g id="facebook" transform="translate(-1259 -6167)">
    <path id="Path_5869" data-name="Path 5869" d="M5,0H35a5,5,0,0,1,5,5V35a5,5,0,0,1-5,5H5a5,5,0,0,1-5-5V5A5,5,0,0,1,5,0Z" transform="translate(1259 6167)" fill="#fff"/>
    <path id="Path_5868" data-name="Path 5868" d="M122.127,71.952h-2.668a3.965,3.965,0,0,0-3.96,3.96v3h-2.485a1.125,1.125,0,1,0,0,2.251H115.5V91.585a1.125,1.125,0,1,0,2.251,0V81.164H121.6a1.125,1.125,0,0,0,0-2.251H117.75v-3a1.711,1.711,0,0,1,1.709-1.709h2.668a1.125,1.125,0,0,0,0-2.251Z" transform="translate(1161.112 6105.048)" fill="#0B6623"/>
  </g>
</svg>
