<svg xmlns="http://www.w3.org/2000/svg" width="58.435" height="56.273" viewBox="0 0 58.435 56.273">
  <g id="release-roadmap" transform="translate(-3.783 -4.863)">
    <g id="Group_23" data-name="Group 23">
      <path id="Path_150" data-name="Path 150" d="M50.849,43.176a.5.5,0,0,0,.065-.394c-.295-1.172-.6-2.275-.929-3.363,6.508-.833,9.331-4.117,5.388-9.927-6.458-9.49-7.491-11.5-10.1-12.908-2.524-1.37-5.276-1.077-7.919-.508A35.557,35.557,0,0,0,19.6,5.688c.011-.225-.221-.389-.49-.12a27.83,27.83,0,0,0-13.8.336.5.5,0,0,0-.334.33c-3.11,9.93-.356,22.878,10.447,32.83a7.647,7.647,0,0,0,1.633,8.14c1.318,1.338,3.22,2.187,4.708,3.185q3.81,2.55,7.629,5.12c1.617,1.09,3.461,2.207,5.383,2.207,3.1,0,4.954-2.847,5.236-5.755,1.386.393,2.651.73,3.831,1.019a.5.5,0,0,0,.54-.215c.983-1.524,2.131-3.2,3.242-4.813C48.73,46.351,49.867,44.695,50.849,43.176Zm-2.515-5.137-.622-.622.437-.437c.128.382.256.766.379,1.154-.016.01-.036.007-.05.021l-.078.079A.24.24,0,0,0,48.334,38.039Zm1.246.067c-.144-.457-.433-1.315-.538-1.614.09.033.156.063.258-.04l.663-.663.906,1.027Zm1.62-.913.7.8a13.711,13.711,0,0,1-1.913.414Zm-3.348-3.961.257-.257.784.784a.239.239,0,0,0,.128.053l-.683.683C48.18,34.069,48.016,33.65,47.852,33.232Zm-.2-.511c-.012-.029-.113-.3-.125-.325l.225.225Zm4.919,5.063,1.247-1.247.347.347a.228.228,0,0,0,.321.014A7.573,7.573,0,0,1,52.574,37.784Zm1.953-.912a.248.248,0,0,0-.005-.342l-.347-.347.783-.783.586.586A4.62,4.62,0,0,1,54.527,36.872ZM44.791,17.464c2.352,1.267,3.315,3.13,9.753,12.591,1.166,1.717,2.365,3.742,1.293,5.518l-.526-.526.224-.224a.25.25,0,1,0-.354-.354l-.224.224-.622-.622a.25.25,0,1,0-.354.354l.622.622-.783.783-.652-.653a.25.25,0,0,0-.354.354l.652.653-1.324,1.324-.59-.668.705-.705a.25.25,0,0,0-.354-.354l-.682.683-.906-1.027L51.449,34.3a.25.25,0,0,0-.354-.354l-1.112,1.112-.429-.486a.25.25,0,0,0-.375.331l.45.51-.685.685c-.013.012-.009.031-.019.045-.09-.262-.174-.534-.266-.794-.047-.132-.1-.259-.144-.39.142-.045,1.726-1.663,1.831-1.768a.25.25,0,0,0-.354-.354l-.692.693a.243.243,0,0,0-.053-.128l-.785-.785.568-.568.688.688a.25.25,0,0,0,.354-.354l-.688-.688.326-.326a.25.25,0,0,0-.354-.354l-.326.326-.9-.9a.25.25,0,1,0-.354.354l.9.9-.568.568-.775-.775a.236.236,0,0,0-.215-.057,53.186,53.186,0,0,0-8.978-14.5C40.311,16.522,42.631,16.291,44.791,17.464ZM17.733,6.951,17.4,6.617l.3-.3q.282.049.564.105Zm-.688-.688-.082-.082.143.022Zm-2.2-.317-.431.431L13.93,5.9C14.233,5.912,14.536,5.923,14.84,5.946Zm-1.6-.084a.244.244,0,0,0,.041.1l.769.769L12.942,7.844A.25.25,0,0,0,13.3,8.2l1.113-1.113.564.564a.25.25,0,0,0,.354-.354l-.564-.564L15.49,6c.245.024.491.057.736.088a.235.235,0,0,0,.041.1l.425.425L15.578,7.73a.25.25,0,0,0,.354.354l1.113-1.113.446.446a.25.25,0,0,0,.354,0s0-.011.006-.015.016.01.025.01a.249.249,0,0,0,.177-.073l.712-.712L19.134,7a.25.25,0,0,0,.354,0,.241.241,0,0,0,.018-.31c.2.047.4.1.6.15L5.427,20.207q-.135-.66-.241-1.322L6.241,17.83l.454.454a.25.25,0,0,0,.354-.354l-.454-.454L7.968,16.1a.25.25,0,1,0-.354-.354L6.241,17.122l-.879-.878,1.117-1.117a.194.194,0,0,0,.225-.053.235.235,0,0,0,.053-.225l1.467-1.467a.25.25,0,0,0-.354-.354L6.441,14.457l-.85-.85L7.768,11.43a.25.25,0,0,0-.354-.354l-.778.778a.244.244,0,0,0-.016-.314l-.914-.914L8.2,8.136a.25.25,0,0,0-.354-.354l-.735.738A.246.246,0,0,0,7.1,8.182l-.706-.706L7.474,6.4c.061-.013.12-.031.181-.043a.244.244,0,0,0,.071.183l1.74,1.74a.25.25,0,0,0,.354,0,.242.242,0,0,0,.067-.191.241.241,0,0,0,.141-.059L11.084,6.97l.648.648a.25.25,0,0,0,.354-.354l-.648-.648.738-.738C12.532,5.871,12.887,5.855,13.245,5.862Zm-7.57,1.6.013.012L5.666,7.5Zm-.216.856c.15-.013.466-.374.582-.49l.706.706a.239.239,0,0,0,.338.007L5.353,10.275l-.223-.223C5.221,9.468,5.329,8.89,5.459,8.32Zm-.5,3.055.393-.393.914.914a.225.225,0,0,0,.314.016L5.238,13.255l-.391-.391Q4.883,12.114,4.96,11.375Zm-.075,2.233-.066.066c0-.044,0-.088,0-.132ZM4.906,16.5l.982.981-.788.788C5.018,17.674,4.952,17.084,4.906,16.5Zm-.035-.742s-.011,0-.015-.006q-.036-.682-.041-1.361l.424-.424.85.85-1.08,1.08Zm5.319-9.76a.242.242,0,0,0,.058.141l.482.482L9.675,7.672c-.021.021-.019.05-.031.074l-.613-.614,1.138-1.137Zm.574-.05c.231-.017.461-.042.693-.053l-.373.373Zm-2.087.836-.51-.51c.4-.073.809-.146,1.218-.2ZM6.541,6.622l-.5.5-.216-.215c.012-.039.02-.08.032-.119C6.083,6.724,6.314,6.68,6.541,6.622Zm-.857,14.7L21.241,7.148C34.807,11.2,43.3,22.89,47.975,36.448l-.616.616-.192-.192a.25.25,0,1,0-.354.354l.192.192-.315.315a.25.25,0,0,0,.354.354l.315-.315.622.622a.249.249,0,0,0,.177.073c.007,0,.012-.007.018-.008l-.871.871a.25.25,0,1,0,.354.354L48.7,38.646c.052.169.112.328.163.5.176.572.345,1.148.51,1.733-.027.012-.059.011-.081.034l-.548.548-1.574-1.574a.25.25,0,1,0-.354.354l.907.907a.242.242,0,0,0-.135.056l-1.24,1.24-.1-.1a.25.25,0,1,0-.354.354l.1.1-1.328,1.328a.25.25,0,0,0,.354.354l1.328-1.328,1.029,1.029-1.766,1.765L44.28,44.615a.25.25,0,1,0-.354.354L45.254,46.3l-.714.714a.25.25,0,1,0,.354.354l.714-.714.644.644c-.015.01-.035.007-.049.02l-1.332,1.332-1.12-1.121.635-.635a.25.25,0,0,0-.354-.354l-.635.635-.837-.837a.25.25,0,0,0-.354.354l.837.837-1.551,1.551-.844-.844.921-.921a.25.25,0,0,0-.354-.354l-.921.921-.745-.745a.25.25,0,1,0-.354.354l.745.745-1.029,1.028-1.028-1.028,1.061-1.061a.25.25,0,1,0-.354-.354l-1.061,1.061-.069-.069a.25.25,0,1,0-.354.354l.069.069-1.236,1.236a.247.247,0,0,0-.06.144C22.585,45.032,16.352,38.569,16.352,38.569A34.366,34.366,0,0,1,5.684,21.326ZM42.241,51.533c-.624-.166-1.28-.347-1.961-.539l1.214-1.214,1.12,1.12-.345.345A.238.238,0,0,0,42.241,51.533Zm-3.806-1.091.478-.478.421.42a.25.25,0,0,0,.354-.354l-.421-.42L40.3,48.582l.844.844c-.1.1-1.318,1.31-1.4,1.416C39.46,50.764,38.714,50.528,38.435,50.442Zm-2.088-.676,1.184-1.184,1.028,1.028-.665.665C37.371,50.109,36.857,49.938,36.347,49.766Zm5.5-.34L43.4,47.875,44.518,49l-1.551,1.55Zm-7.865,6.89.372.372a4.925,4.925,0,0,1-.672-.117c.026-.012.056-.011.077-.032Zm-.576-.131a.242.242,0,0,0-.018.309,8.532,8.532,0,0,1-1.56-.665l.834-.834.967.967Zm1.532.527a.238.238,0,0,0-.06-.208l-.542-.542.844-.844.677.677a.233.233,0,0,0,.258.258l.289.289A3.566,3.566,0,0,1,34.938,56.712Zm.6-1.948,1.059-1.059.629.63-1.059,1.059Zm1.292,1.31c-.007-.01,0-.023-.013-.032l-.295-.295,1.059-1.059.323.323A4.354,4.354,0,0,1,36.825,56.074Zm1.353-1.49-.25-.25.2-.2a.25.25,0,0,0-.354-.354l-.2.2-.629-.63.178-.178a.25.25,0,1,0-.354-.354L36.591,53l-.007-.007a.25.25,0,0,0-.354.354l.007.007L35.18,54.41l-.376-.376a.25.25,0,1,0-.354.354l.376.376-.844.844-.967-.967,1.452-1.452a.25.25,0,1,0-.354-.354l-1.452,1.452-.253-.253a.25.25,0,1,0-.354.354l.253.253-.937.937c-.477-.279-.948-.587-1.412-.9q-3.812-2.565-7.631-5.12c-1.475-.991-3.352-1.836-4.553-3.056a6.754,6.754,0,0,1-1.557-6.718c6.459,5.712,14.539,9.424,22.836,11.9a7.06,7.06,0,0,1-.22,1.283l-1.388-1.388a.25.25,0,0,0-.354.354l1.578,1.578A6.131,6.131,0,0,1,38.178,54.584Zm4.4-2.965c.015-.01.035-.007.049-.02l.345-.345.53.53a.235.235,0,0,0,.333.008c-.028.043-.06.089-.087.131C43.368,51.83,42.966,51.722,42.573,51.619Zm1.3.106a.241.241,0,0,0-.024-.295l-.53-.53,3.236-3.236a.242.242,0,0,0,.018-.309c.022-.012.049-.009.067-.028a.25.25,0,0,0,0-.354l-.68-.68,1.765-1.765.18.18a.25.25,0,1,0,.354-.354l-.227-.227a.244.244,0,0,0-.067-.192.24.24,0,0,0-.192-.067L46.7,42.792l1.24-1.24A.242.242,0,0,0,48,41.417l.392.393-.775.775a.25.25,0,0,0,.354.354l.775-.775.427.427a.25.25,0,1,0,.354-.354L49.1,41.81l.416-.416c.128.468.256.936.38,1.422-.947,1.458-2.033,3.039-3.084,4.57C45.81,48.836,44.79,50.326,43.875,51.725Z" fill="#000c1e"/>
    </g>
    <g id="Group_24" data-name="Group 24">
      <path id="Path_151" data-name="Path 151" d="M24.665,29.757a4.39,4.39,0,0,0,4.747-5.624,4.159,4.159,0,0,0-7.547-1.117,4.442,4.442,0,0,0-.6,3.879A4.332,4.332,0,0,0,24.665,29.757Zm-2.279-2.771.2.2-.053.053C22.485,27.159,22.43,27.075,22.386,26.986Zm.772-3.957.58.58a.235.235,0,0,0-.251.042l-.36.36-.435-.435A3.807,3.807,0,0,1,23.158,23.029Zm-.712,1.008.328.328-.468.468a.25.25,0,1,0,.354.354l.468-.468.407.407a.25.25,0,0,0,.354-.354l-.407-.407.36-.36a.233.233,0,0,0,.042-.251c.14.14.288.228.435.081a.25.25,0,0,0,0-.354l-.769-.769a3.278,3.278,0,0,1,.684-.39l.63.63-.345.345a.25.25,0,1,0,.354.354l.345-.345.408.408a.25.25,0,0,0,.354-.354l-.408-.408.315-.315a.25.25,0,0,0-.354-.354l-.315.315-.448-.448a3.087,3.087,0,0,1,.5-.089,3.147,3.147,0,0,1,3.177,2.346,3.389,3.389,0,0,1-3.641,4.358,3.267,3.267,0,0,1-1.974-1.115l.143-.143a.191.191,0,0,0,.234-.05.236.236,0,0,0,.05-.234l1.131-1.131a.25.25,0,1,0-.354-.354l-1.1,1.095-.845-.845A3.415,3.415,0,0,1,22.446,24.037Z" fill="#000c1e"/>
    </g>
    <g id="Group_25" data-name="Group 25">
      <path id="Path_152" data-name="Path 152" d="M24.038,33.9c8.083,1.165,12.909-9.064,7.064-14.76-6.37-6.2-16.341,1.269-13.7,9.172A8.461,8.461,0,0,0,24.038,33.9ZM30.4,19.853c5.143,5.008.913,14.1-6.221,13.053a7.438,7.438,0,0,1-5.83-4.914C16.049,21.1,24.749,14.348,30.4,19.853Z" fill="#000c1e"/>
    </g>
    <g id="Group_26" data-name="Group 26">
      <path id="Path_153" data-name="Path 153" d="M60.782,48.87a16.721,16.721,0,0,0-9.04-3.47.508.508,0,0,0-.534.464.5.5,0,0,0,.464.534,15.7,15.7,0,0,1,8.494,3.26c1.589,1.24,1.447,2.618-.718,2.017l-4.441-1.237a.5.5,0,0,0-.557.214.5.5,0,0,0,.045.6l4.87,5.612c2.347,2.7.462,3.56-.757,3.2-1-.3-1.448-.85-7.265-6.016a.5.5,0,0,0-.809.223c-.538,1.7,1.132,3.09,1.43,4.3s-.833,2.254-2.214.121a29.575,29.575,0,0,1-2.4-4.521.5.5,0,0,0-.92.39,30.65,30.65,0,0,0,2.485,4.675c2.053,3.161,4.576,1.33,4.024-.906-.282-1.144-1.035-1.756-1.382-2.756,5.153,4.576,5.571,5.1,6.772,5.45,2.195.646,4.792-1.366,1.8-4.813L56.34,51.846l2.84.791C62.305,53.52,63.324,50.85,60.782,48.87Z" fill="#000c1e"/>
    </g>
    <g id="Group_27" data-name="Group 27">
      <path id="Path_154" data-name="Path 154" d="M23.8,10.781a13.3,13.3,0,0,1,2.1.643l-.75.75a.25.25,0,1,0,.354.354l.9-.9a17.029,17.029,0,0,1,2.569,1.409l-.387.387a.25.25,0,1,0,.354.354l.458-.458q.827.576,1.644,1.267l-.368.368a.25.25,0,1,0,.354.354l.385-.385q.453.4.888.817l-.421.421a.25.25,0,1,0,.354.354l.434-.434c.224.221.436.454.654.68l-.467.467a.25.25,0,0,0,.354.354l.46-.46q.729.777,1.428,1.576l-.664.665a.25.25,0,1,0,.354.354l.643-.643c.38.441.753.882,1.125,1.322l-.4.405a.25.25,0,1,0,.354.354l.376-.376.44.523-.66.66a.25.25,0,0,0,.354.354l.63-.63.78.926-.511.511a.25.25,0,0,0,.354.354L38.744,23l1.264,1.5a.25.25,0,1,0,.382-.323L39.1,22.644l.294-.294A.25.25,0,0,0,39.039,22l-.264.264-.78-.926.118-.118a.25.25,0,1,0-.354-.354l-.088.088-.44-.522.34-.34a.25.25,0,1,0-.354-.354l-.311.311c-.372-.44-.745-.881-1.126-1.322l.617-.617a.25.25,0,1,0-.354-.354l-.6.595q-.7-.8-1.428-1.575l.38-.38a.25.25,0,0,0-.354-.354l-.376.372c-.218-.227-.43-.459-.654-.68l.535-.535a.25.25,0,0,0-.354-.354l-.547.547q-.438-.42-.893-.821a.247.247,0,0,0-.36-.339l0,.005c-.544-.462-1.092-.882-1.642-1.269l.517-.517a.25.25,0,1,0-.354-.354l-.583.583a17.743,17.743,0,0,0-2.55-1.428l.617-.617a.25.25,0,1,0-.354-.354l-.764.764a14.051,14.051,0,0,0-2.379-.748.249.249,0,0,0-.3.192A.251.251,0,0,0,23.8,10.781Z" fill="#000c1e"/>
    </g>
    <g id="Group_28" data-name="Group 28">
      <path id="Path_155" data-name="Path 155" d="M31.675,44.463c-.825-.336-1.631-.706-2.427-1.1L29.619,43a.25.25,0,0,0-.354-.354l-.494.494c-.437-.222-.868-.454-1.3-.692l.754-.755a.25.25,0,1,0-.354-.354l-.853.854c-.627-.36-1.242-.742-1.847-1.138L26,40.226a.25.25,0,1,0-.354-.354l-.9.9c-.553-.371-1.1-.753-1.632-1.153l1.675-1.674a.25.25,0,0,0-.354-.354l-1.718,1.717c-.744-.574-1.471-1.171-2.174-1.8a.251.251,0,0,0-.334.374c.7.624,1.417,1.215,2.152,1.784l-.725.725a.25.25,0,0,0,.354.354l.767-.767c.532.4,1.077.785,1.628,1.158l-1.352,1.351a.25.25,0,1,0,.354.354l1.425-1.425c.6.4,1.218.779,1.844,1.141l-.828.828a.25.25,0,0,0,.354.354l.922-.923c.426.239.856.472,1.292.695L27.327,44.58a.25.25,0,0,0,.354.354l1.193-1.193c.855.424,1.724.823,2.613,1.185a.25.25,0,1,0,.188-.463Z" fill="#000c1e"/>
    </g>
  </g>
</svg>
