<svg xmlns="http://www.w3.org/2000/svg" width="98" height="95" viewBox="0 0 98 95">
  <g id="gold-icon" transform="translate(-1382 -630)">
    <path id="newshape" d="M138.851,112.617l-3.973.894a57.886,57.886,0,0,0-8.162,2.254c-7.853,2.693-13.988,5.668-18.134,8.8a31.739,31.739,0,0,0-3.351,2.921,13.262,13.262,0,0,0-2.27,2.46,48.944,48.944,0,0,0-7.227,14.052,23.835,23.835,0,0,0-1.205,6.237c-.227,2.325-.449,4.032-.643,4.969a22.028,22.028,0,0,0-.141,2.655c-.038,1.479-.087,2.411-.141,2.688a22.114,22.114,0,0,0,.011,5.641c.1,1.208.151,2.243.184,3.989a18.222,18.222,0,0,0,.595,5.311,38.743,38.743,0,0,0,3.573,8.736c1.74,3.349,1.994,3.848,2.384,4.677.227.477.47,1.008.546,1.176a22.991,22.991,0,0,0,2.411,3.755A24.2,24.2,0,0,0,105.961,197c3.5,3.506,8.226,5.956,15.648,8.091a31.345,31.345,0,0,0,6.432,1.143c.865.1,1.994.276,2.513.379a12.708,12.708,0,0,0,2.432.271c.816.043,1.643.1,1.838.13.454.065,4.854.135,7.7.119a50.663,50.663,0,0,0,12.053-1.116c.33-.076,1.222-.249,1.984-.379a16.72,16.72,0,0,0,3.524-.894,39.4,39.4,0,0,0,9.464-4.455,38.552,38.552,0,0,0,10.372-10.963,29.108,29.108,0,0,0,2.281-3.956c.481-.954,1.195-2.281,1.589-2.953A65.009,65.009,0,0,0,190.82,165.3a6.953,6.953,0,0,0,.276-2.195,13.124,13.124,0,0,1,.249-2.574,9.242,9.242,0,0,0,.092-1.68,16.694,16.694,0,0,0-.427-3.929c-.13-.656-.3-1.62-.378-2.141a12.427,12.427,0,0,0-.692-2.791,60.653,60.653,0,0,0-13.415-22.023,59.9,59.9,0,0,0-6.729-5.907,10.674,10.674,0,0,1-1.465-1.349,23.862,23.862,0,0,0-6.908-5.1,32.805,32.805,0,0,0-12.815-3.338c-.616-.054-1.973-.1-3.27-.108l-2.216-.022-2.135.238Z" transform="translate(1288.563 517.86)" fill="#fff"/>
    <g id="Group_2979" data-name="Group 2979" transform="translate(2.243 1)">
      <path id="Path_5883" data-name="Path 5883" d="M34.109,43.151c-1.653,5.019-3.306,10.022-4.953,14.937a.964.964,0,0,0,1.4,1.139c4.428-2.573,9.014-5.5,13.642-8.713A112.106,112.106,0,0,0,58.5,58.336a.963.963,0,0,0,1.31-1.18L54.942,42.592c4.622-3.6,9.3-7.5,13.917-11.585a.963.963,0,0,0-.633-1.682c-5.964-.035-11.981.058-17.669.156L45.475,14.289a.963.963,0,0,0-1.824,0c-1.7,5.065-3.4,10.22-5.1,15.395-5.132.085-10.58.154-15.9.127a.961.961,0,0,0-.727,1.6A105.4,105.4,0,0,0,34.109,43.151ZM31.864,56.059c.05.019.094.06.148.062-.069.042-.142.09-.214.133C31.819,56.188,31.843,56.123,31.864,56.059Zm4.678-4.253.908.91c-.627.408-1.241.772-1.865,1.166l-.56-.56Zm6.414-2.792c-.471.327-.937.627-1.407.949l-.271-.271,1.178-1.178Zm-2.219,1.5c-.287.194-.573.389-.858.579l.72-.72Zm-5.987,3.9c-.72.45-1.445.918-2.157,1.351L34.348,54Zm18.822-1.88-2.161-2.161,1.643-1.643.46.46-.885.885a.481.481,0,0,0,.679.681l.885-.885.337.337a.481.481,0,0,0,.681,0,.473.473,0,0,0,.137-.331l1.083,3.239-.125.125L55.17,52.093a.481.481,0,1,0-.681.679l1.137,1.139-.6.6q-2.549-1.3-5.034-2.729l.737-.737,2.159,2.161a.482.482,0,0,0,.683-.679Zm1.742-2.756a.452.452,0,0,0-.1-.252l-.335-.337L55.058,49Zm.62,5.2.371-.371.4.4a.4.4,0,0,0,.394.119l.175.521C56.826,55.422,56.382,55.189,55.934,54.966Zm-.718-15.072-1.259-1.259,1.382-1.382,1.414,1.412C56.239,39.079,55.728,39.49,55.216,39.895Zm6.466-6.277.545.543c-.55.464-1.1.939-1.651,1.4l-.323-.323,1.3-1.3A.46.46,0,0,0,61.682,33.617ZM39.261,31.6a.966.966,0,0,0,.9-.662c1.468-4.463,2.937-8.914,4.4-13.307L48.956,30.76a.992.992,0,0,0,.929.658c5.071-.09,10.422-.177,15.762-.177h.027c-.9.785-1.807,1.528-2.711,2.3l-1.63-1.628a.482.482,0,0,0-.681.681l.537.537a.484.484,0,0,0-.321.133l-1.3,1.3-.835-.837a.482.482,0,1,0-.681.681l.835.837-.714.714a.482.482,0,0,0,.681.681l.714-.714.267.267c-.777.643-1.553,1.253-2.33,1.88l-1.489-1.489,1.853-1.853a.482.482,0,1,0-.681-.681L55.337,35.9l-.279-.279a.481.481,0,0,0-.679.681l.279.279-1.382,1.382-.893-.893a.482.482,0,1,0-.681.681l.893.893-.787.787a.482.482,0,0,0,.681.681l.787-.787L54.459,40.5c-.412.323-.826.67-1.237.987a.965.965,0,0,0-.323,1.066l.727,2.173-.908-.908a.482.482,0,0,0-.681.681l2.034,2.034a.453.453,0,0,0,.183.077l.46,1.374-.521.521L52.379,46.7a.482.482,0,0,0-.681.681l.674.674-1.643,1.643-.883-.883a.482.482,0,1,0-.681.681l.883.883-.883.883c-.012.012-.008.027-.017.04-1.5-.883-2.994-1.792-4.451-2.744a.947.947,0,0,0-.893-.042l-1.73-1.73a.482.482,0,0,0-.681.681l.377.377-1.178,1.178-.377-.377a.482.482,0,0,0-.681.681l.377.377-2.065,2.065-.629-.629.389-.389a.481.481,0,0,0-.679-.681l-.625.625c-.048.023-.1.019-.144.06s-.037.1-.06.144l-1.753,1.755-.21-.21a.482.482,0,0,0-.681.681l.21.21L32.32,54.672q1.908-5.73,3.82-11.538a.964.964,0,0,0-.308-1.049A104.308,104.308,0,0,1,24.8,31.751C29.731,31.8,34.614,31.676,39.261,31.6Z" transform="translate(1384.74 641.365)" fill="#000c1e"/>
      <path id="Subtraction_2" data-name="Subtraction 2" d="M-13923.577,34.963a.748.748,0,0,1-.6-.316.723.723,0,0,1-.095-.659c1.256-3.753,2.544-7.655,3.68-11.1l.106-.321a80.732,80.732,0,0,1-9.32-8.978.726.726,0,0,1-.145-.738.8.8,0,0,1,.7-.485c.6,0,1.228,0,1.862,0,3.755,0,7.473-.055,10.293-.1,1.308-3.968,2.59-7.854,3.9-11.771a.729.729,0,0,1,.7-.5.725.725,0,0,1,.7.5l3.885,11.617c2.52-.045,5.458-.093,8.436-.114l-.486,1.473c-2.838.024-5.623.07-8.464.12a.75.75,0,0,1-.709-.5l-3.36-10.041c-1.2,3.592-2.4,7.243-3.366,10.177a.73.73,0,0,1-.686.5l-1.973.037c-2.339.045-4.757.092-7.192.092-.65,0-1.286,0-1.89-.01a79.52,79.52,0,0,0,8.43,7.9.744.744,0,0,1,.237.8c-1.07,3.243-2.026,6.128-2.923,8.82l1.028-1.024-.161-.161a.365.365,0,0,1-.107-.26.365.365,0,0,1,.107-.26.366.366,0,0,1,.261-.108.366.366,0,0,1,.261.108l.16.161,1.339-1.342a.162.162,0,0,0,.014-.042v-.005a.131.131,0,0,1,.031-.061.134.134,0,0,1,.064-.032.185.185,0,0,0,.046-.017l.477-.475a.376.376,0,0,1,.263-.108.364.364,0,0,1,.259.108.369.369,0,0,1,0,.521l-.3.3.482.479,1.577-1.577-.287-.29a.371.371,0,0,1,0-.521.366.366,0,0,1,.261-.108.366.366,0,0,1,.261.108l.286.29.9-.9-.287-.287a.368.368,0,0,1-.109-.264.358.358,0,0,1,.109-.257.364.364,0,0,1,.259-.107.36.36,0,0,1,.259.108l1.325,1.321a.839.839,0,0,1,.327-.07.644.644,0,0,1,.354.1c.9.59,1.892,1.2,3.118,1.933,1.1.977,2.229,1.947,3.37,2.884l-.024.075-.07.213c-.031.1-.062.193-.095.29-2.288-1.2-4.536-2.51-6.684-3.9-3.548,2.461-7.057,4.7-10.429,6.663A.722.722,0,0,1-13923.577,34.963Zm3.269-4.1h0l-1.343,1.342c.405-.246.822-.51,1.225-.766l.01-.006.416-.263-.308-.308Zm1.678-1.678h0l-1.16,1.157.426.43c.2-.128.4-.252.6-.373l.006,0,.032-.02c.258-.159.524-.323.788-.495l-.692-.7Zm3.1-1.1h0l-.55.552.654-.444-.1-.108Zm1.419-1.419h0l-.9.9.21.206c.142-.1.282-.19.423-.284l.088-.059c.188-.125.375-.25.566-.38l-.385-.385Zm44.575,7.58a.726.726,0,0,1-.3-.067,86.44,86.44,0,0,1-10.946-5.982c-1.442,1-2.876,1.963-4.259,2.861l-.034-.1c1.663-1.3,3.357-2.65,5.037-4.024.875.564,1.843,1.158,3.046,1.867a.054.054,0,0,0,0-.015.027.027,0,0,1,.009-.017l.675-.678-.675-.675a.358.358,0,0,1-.109-.257.368.368,0,0,1,.109-.264.364.364,0,0,1,.259-.108.376.376,0,0,1,.263.108l.675.675,1.255-1.255-.514-.514a.365.365,0,0,1-.107-.26.365.365,0,0,1,.107-.26.363.363,0,0,1,.26-.108.366.366,0,0,1,.261.108l1.388,1.388.4-.4-.353-1.052-.042-.013a.2.2,0,0,1-.1-.046l-1.556-1.556a.367.367,0,0,1,0-.521.363.363,0,0,1,.26-.108.366.366,0,0,1,.261.108l.7.7-.556-1.661a.747.747,0,0,1-.03-.127c.99-.855,2-1.735,3-2.618a.934.934,0,0,0,.291-.96l.269.268.306-.246.262-.21.018-.014c.391-.313.795-.637,1.194-.968l-.2-.2-.545.545a.376.376,0,0,1-.263.107.364.364,0,0,1-.259-.107.371.371,0,0,1,0-.521l.546-.545-.64-.64,0-.005-.013-.014,0-.007a.086.086,0,0,1-.011-.013.37.37,0,0,1-.107.283l-1.416,1.419.174.174a1,1,0,0,0-.227-.027l-1.131-.005.142-.142-.214-.213a.369.369,0,0,1,0-.521.366.366,0,0,1,.26-.108.372.372,0,0,1,.262.108l.213.213,1.416-1.416a.362.362,0,0,1,.261-.11.362.362,0,0,1,.261.11l.013.011a.138.138,0,0,1,.021.024.367.367,0,0,1,.105-.283.363.363,0,0,1,.26-.108.366.366,0,0,1,.261.108l.64.64.989-.993a.375.375,0,0,1,.249-.1l-.413-.409a.367.367,0,0,1,0-.521.368.368,0,0,1,.262-.11.361.361,0,0,1,.26.11l1.248,1.245q.259-.221.52-.438l.246-.208,0,0c.428-.359.87-.73,1.3-1.106h-.021c-3.964,0-7.964.063-12.055.133a.75.75,0,0,1-.709-.5l-3.36-10.041c-1,3.008-2.1,6.337-3.366,10.177a.73.73,0,0,1-.686.5l-2.065.038h-.021c-1.356.026-2.758.053-4.165.07l-.5-1.488c2.181-.019,4.359-.052,6.2-.082,1.434-4.363,2.71-8.214,3.9-11.771a.724.724,0,0,1,.7-.5.725.725,0,0,1,.7.5l3.885,11.617c3.447-.061,7.456-.125,11.405-.125.717,0,1.425,0,2.106.006a.721.721,0,0,1,.684.477.72.72,0,0,1-.2.809c-3.536,3.129-7.118,6.109-10.646,8.855l3.727,11.138a.718.718,0,0,1-.1.655A.748.748,0,0,1-13869.535,34.247Zm-1.983-2.93h0l-.286.287.3.15.051.026c.224.113.454.23.684.338l-.137-.4a.741.741,0,0,1-.083.005.278.278,0,0,1-.218-.1l-.308-.311Zm-4.265-2.713h0l-.563.563c1.228.709,2.523,1.411,3.85,2.087l.458-.458-.871-.871a.369.369,0,0,1,0-.521.376.376,0,0,1,.263-.108.364.364,0,0,1,.259.108l.87.874.095-.1-.829-2.475a.352.352,0,0,1-.1.252.371.371,0,0,1-.262.11.361.361,0,0,1-.26-.11l-.259-.259-.678.678a.356.356,0,0,1-.257.108.366.366,0,0,1-.261-.108.361.361,0,0,1-.109-.26.361.361,0,0,1,.109-.26l.675-.678-.354-.35-1.255,1.255,1.653,1.654a.365.365,0,0,1,.107.26.365.365,0,0,1-.107.26.372.372,0,0,1-.262.108.376.376,0,0,1-.263-.108l-1.649-1.654Zm3.311-1.563h0l-.14.136.255.259a.273.273,0,0,1,.028.031l-.144-.427Zm5.065-11.764h0a.353.353,0,0,1-.1.245l-.992.993.244.248c.211-.177.43-.361.633-.535l.027-.023c.2-.169.4-.343.605-.512l-.416-.416Zm-39.737,2.854h0a.36.36,0,0,1,.106-.213.359.359,0,0,1,.259-.11.371.371,0,0,1,.263.11l.2.2-.764.009h-.068Zm1.8-.023,0,0,.563-.564-.214-.213a.369.369,0,0,1,0-.521.364.364,0,0,1,.259-.108.364.364,0,0,1,.259.108l.217.213,1.416-1.416a.362.362,0,0,1,.261-.11.358.358,0,0,1,.26.11l.011.011.006.006.013.015a.368.368,0,0,1,.111-.281.363.363,0,0,1,.26-.108.366.366,0,0,1,.261.108l.64.64.335-.336-.228.692q-.073.221-.146.443l-.138.419-.373.37a.364.364,0,0,1-.259.107.364.364,0,0,1-.259-.107.361.361,0,0,1-.109-.26.361.361,0,0,1,.109-.26l.542-.545-.636-.64a.173.173,0,0,1-.032-.038.366.366,0,0,1-.108.283l-1.415,1.419.534.534-.94.014h-.083l-.032-.032-.033.033-.46.007-.59.008Zm5.077-3.717v0a.369.369,0,0,1,.072-.416.359.359,0,0,1,.089-.067c-.025.078-.054.16-.081.246l-.04.12-.038.116Z" transform="translate(15324.758 653)" fill="#000c1e"/>
    </g>
  </g>
</svg>
