<svg id="hamburger" xmlns="http://www.w3.org/2000/svg" width="36.093" height="23" viewBox="0 0 36.093 23">
  <path id="Path_78922" data-name="Path 78922" d="M1978.818,779.976h16.316a1.575,1.575,0,0,1,1.508.985,1.844,1.844,0,0,1-.123,1.86,1.559,1.559,0,0,1-1.3.76c-.049,0-.1,0-.148,0H1962.5a1.689,1.689,0,0,1-1.732-1.565,1.744,1.744,0,0,1,1.59-2.038c.9-.013,1.809,0,2.714,0Z" transform="translate(-1960.744 -770.28)" fill="#070707"/>
  <path id="Path_78923" data-name="Path 78923" d="M1976.651,821.2h-14.194a1.648,1.648,0,0,1-1.6-1.125,1.924,1.924,0,0,1,.4-1.985,1.636,1.636,0,0,1,1.239-.5q4.736.006,9.472,0,9.428,0,18.856,0a1.689,1.689,0,0,1,1.684,1.407,1.862,1.862,0,0,1-.89,2.019,1.642,1.642,0,0,1-.8.178Q1983.734,821.2,1976.651,821.2Z" transform="translate(-1960.733 -798.199)" fill="#070707"/>
  <path id="Path_78924" data-name="Path 78924" d="M1972.017,742.384q4.779,0,9.558,0a1.639,1.639,0,0,1,1.564,1.185,1.91,1.91,0,0,1-.464,1.967,1.575,1.575,0,0,1-1.136.45q-9.558,0-19.116,0a1.8,1.8,0,0,1,.007-3.6Q1967.223,742.381,1972.017,742.384Z" transform="translate(-1960.729 -742.383)" fill="#070707"/>
</svg>
