<svg id="hand-up" xmlns="http://www.w3.org/2000/svg" width="16.295" height="18.79" viewBox="0 0 16.295 18.79">
  <g id="Group_140" data-name="Group 140" transform="translate(0)">
    <g id="Group_139" data-name="Group 139">
      <path id="Path_572" data-name="Path 572" d="M478.045,122.452c.41-2.11,1.517-2.494,2.091-1.871.7.761-.408,3.882-.733,6.08-.306,2.065-.412,3.832-.412,3.832l-2.544-1.176S477.562,124.936,478.045,122.452Z" transform="translate(-468.106 -119.222)" fill="#ffd14b"/>
      <path id="Path_573" data-name="Path 573" d="M504.651,123.1s.123-1.986.211-4.067-.036-5.748.678-6.1,1.493.208,1.488,2c-.007,2.233.026,7.461.026,7.461Z" transform="translate(-498.903 -112.835)" fill="#ffd14b"/>
      <path id="Path_574" data-name="Path 574" d="M520.949,117.954c.648-.465,1.507-.034,1.789,1.733.351,2.205,1.221,7.361,1.221,7.361l-2.345,1.077s-.111-1.971-.356-4.04S520.3,118.418,520.949,117.954Z" transform="translate(-518.139 -117.06)" fill="#ffd14b"/>
      <path id="Path_575" data-name="Path 575" d="M535.717,135.207c.555-.477,1.376-.152,1.775,1.441.5,1.988,1.71,6.632,1.71,6.632l-2.058,1.174s-.26-1.793-.651-3.665S535.162,135.684,535.717,135.207Z" transform="translate(-535.546 -131.779)" fill="#ffd14b"/>
      <path id="Path_576" data-name="Path 576" d="M485.858,168.717a2.944,2.944,0,0,1,1.674-1.031c.056-.4.442-.672,1.1-.8a1.6,1.6,0,0,1,1.152.228c.485.412.6-1.064,1.3-1.093.41-.017.888.547,1.215,1.02a1.652,1.652,0,0,0,.012.178c.04.264.109.247.252.3.206.08.282-.154.4-.264a1.108,1.108,0,0,1,.559-.255c.542-.069,1.445.432,1.563,2.58a8.745,8.745,0,0,1-1.85,6.26,4.284,4.284,0,0,1-3.945,1.13,3.983,3.983,0,0,1-3.367-3.542C485.75,172.38,485.224,169.564,485.858,168.717Z" transform="translate(-484.179 -158.283)" fill="#ffd14b"/>
      <path id="Path_577" data-name="Path 577" d="M449.321,174.751a1.67,1.67,0,0,1,.171-.242c.508-.6,1.339-.652,1.99-1.017,1.028-.577,1.545-2,2.439-2.725.748-.61,3.02-1,3.259.345.042.234-.267.383-.428.48-2.446,1.476-3.587,4.462-5.307,6.63-.459.578-1.743,1.649-2.328,1.528-.875-.181-.1-2.352-.114-3.007A3.83,3.83,0,0,1,449.321,174.751Z" transform="translate(-440.89 -161.856)" fill="#ffd14b"/>
    </g>
  </g>
  <g id="Group_142" data-name="Group 142" transform="translate(0)">
    <g id="Group_141" data-name="Group 141">
      <path id="Path_578" data-name="Path 578" d="M448.871,116.263c.555-.477,1.376-.152,1.775,1.441.281,1.122.79,3.091,1.18,4.593a2.262,2.262,0,0,1,.227-.058l0-.005c-.057-.687-.135-1.522-.237-2.373-.246-2.069-.956-5.668-.308-6.132s1.507-.034,1.789,1.733c.247,1.554.753,4.574,1.029,6.221a.208.208,0,0,0,.2.048c.041-.742.09-1.707.132-2.693.089-2.081-.036-5.748.678-6.1s1.493.208,1.488,2,.015,5.478.023,6.892c.041.208.11.2.243.253a.182.182,0,0,0,.164-.008c.349-1.4,1.033-4.2,1.383-6.005.41-2.11,1.517-2.494,2.091-1.871.7.761-.408,3.882-.733,6.08-.245,1.652-.362,3.113-.4,3.631.007.076.012.153.017.234,0,.036,0,.072,0,.107.822-.662,1.32-1.853,2.114-2.5.748-.61,3.02-1,3.259.345.042.234-.267.383-.428.48-2.445,1.476-3.587,4.463-5.307,6.63a6.045,6.045,0,0,1-1.633,1.349,4.347,4.347,0,0,1-3.8.98,3.983,3.983,0,0,1-3.367-3.542,16.93,16.93,0,0,1-.356-3.75c-.112-.665-.266-1.52-.449-2.392C449.255,119.973,448.316,116.74,448.871,116.263Zm4.862,3.755c-.136-.967-.36-1.916-.517-2.879-.066-.4-.116-.823-.182-1.24a3.033,3.033,0,0,0-.457-1.661c-.381-.491-.875-.224-.8.368.124,1,.348,1.979.54,2.964a17.663,17.663,0,0,0,.567,2.951c.066.173.452,1.172.8.85C453.976,121.095,453.782,120.362,453.733,120.018Zm2.891-.245c-.056-1.39-.025-2.784-.054-4.174a9.959,9.959,0,0,0-.062-1.282c-.011-.483-.128-1-.587-1.093-.509-.1-.525.868-.53,1.143-.016.738-.018,1.472-.044,2.21a23.56,23.56,0,0,0,.03,3.31,4.03,4.03,0,0,0,.312,1.322c.153.312.471.545.754.206C456.768,121.027,456.642,120.236,456.624,119.774Zm3.077,1.089c.069-.549.171-1.1.259-1.644.135-.834.349-1.645.518-2.469a4.153,4.153,0,0,0,.224-1.23c0-.3-.009-.856-.31-1.035-.008-.005-.016-.007-.025-.012a.07.07,0,0,0-.034-.016.516.516,0,0,0-.588.2,2.386,2.386,0,0,0-.424,1.149c-.092.487-.209.959-.336,1.438-.238.9-.468,1.793-.681,2.7-.146.615-.62,2.342.347,2.565.548.127.831-.237.934-.74C459.646,121.465,459.662,121.164,459.7,120.863Zm-8.578,5.221q.024.174.047.347c.084,1.919.405,4.014,2.4,4.689a3.825,3.825,0,0,0,3.177-.229,10.932,10.932,0,0,0,1.64-1.453q.216-.211.418-.433a21.272,21.272,0,0,0,2.786-3.67,9.62,9.62,0,0,1,2.019-2.276c.106-.078.23-.166.35-.264a1.707,1.707,0,0,0,.368-.246c.171-.156.433-.476.248-.715-.364-.47-1.4-.252-1.838-.035a6.8,6.8,0,0,0-2.211,2.311,10.6,10.6,0,0,1-3.031,2.566l-.186.117c-.45.233-.9.461-1.331.717a4.1,4.1,0,0,0-1.533,1.341,3.034,3.034,0,0,1,.831-1.684,15.648,15.648,0,0,1,2.3-1.669,1.73,1.73,0,0,0,.936-1.659,1.628,1.628,0,0,0-1.223-1.274,7.4,7.4,0,0,0-3.008-.192,6.7,6.7,0,0,0-2.4.637C450.927,123.534,451.052,125.575,451.122,126.084Zm-.99-5.692a8.173,8.173,0,0,0,.495,1.379c.076.16.229.49.438.52.65.092.238-.925.172-1.179-.248-.96-.506-1.918-.755-2.878-.017-.065-.034-.133-.051-.2a8.81,8.81,0,0,0-.26-1.051.743.743,0,0,0-.454-.559.383.383,0,0,0-.406.115c-.245.363.04.981.169,1.338C449.777,118.69,449.907,119.554,450.132,120.391Z" transform="translate(-448.7 -112.835)" fill="#ffd14b"/>
    </g>
  </g>
  <g id="Group_143" data-name="Group 143" transform="translate(0 0.001)" opacity="0.4" style="mix-blend-mode: multiply;isolation: isolate">
    <path id="Path_579" data-name="Path 579" d="M477.021,116.268a.775.775,0,0,1,.483-.2c-.508.148-.43.924-.323,1.314.278,1.011.565,2.022.824,3.038.135.529.265,1.062.382,1.6a4.14,4.14,0,0,0,.252,1.081.074.074,0,0,0,.114.015,4.01,4.01,0,0,1,1.216-.839l.007.029a2.257,2.257,0,0,1,.227-.058v-.005c-.057-.687-.135-1.522-.237-2.373-.246-2.069-.956-5.668-.308-6.132a.8.8,0,0,1,1.053.05.732.732,0,0,0-.755.006c-.549.345-.328,1.345-.229,1.848.184.944.317,1.9.423,2.859.069.625.091,1.254.162,1.878a2.38,2.38,0,0,0,.368,1.226c.369.457.965.21,1.471.236a.508.508,0,0,0,.4-.106.178.178,0,0,0,.122.005c.041-.742.09-1.707.132-2.693.089-2.081-.036-5.748.678-6.1a.794.794,0,0,1,.879.07.6.6,0,0,0-.708.078,1.835,1.835,0,0,0-.374,1.286c-.025.784-.073,1.568-.1,2.353-.028.939-.061,1.877-.088,2.815a9.992,9.992,0,0,0,.04,1.38.962.962,0,0,0,.262.651,2.834,2.834,0,0,0,1.328.452.508.508,0,0,0,.324-.047c.042.059.1.069.188.1a.182.182,0,0,0,.164-.008c.349-1.4,1.033-4.2,1.383-6.005.41-2.11,1.517-2.494,2.091-1.871a.789.789,0,0,1,.169.338.733.733,0,0,0-.517-.437c-.977-.154-1.155,1.35-1.334,1.98-.436,1.535-.747,3.1-1.126,4.644-.09.369-.2.737-.267,1.111a.567.567,0,0,0,.1.458,2.577,2.577,0,0,0,.451.389c-.132-.054-.265-.1-.393-.153a6.876,6.876,0,0,0-2.4-.437,12.978,12.978,0,0,0-2.559.266,3.74,3.74,0,0,0-.586.152c-1.731.477-1.714,2.679-1.615,4.153a10.066,10.066,0,0,0,.54,3.086,2.96,2.96,0,0,0,.335.61,4.664,4.664,0,0,1-1.079-2.368,16.934,16.934,0,0,1-.356-3.75c-.112-.665-.266-1.52-.449-2.392C477.405,119.978,476.466,116.744,477.021,116.268Z" transform="translate(-476.85 -112.84)" fill="#f9b38f"/>
    <path id="Path_580" data-name="Path 580" d="M451.763,174.782a3.9,3.9,0,0,0,1.471-1.63,9.309,9.309,0,0,0,.454-1.556c-.061.608-.1,1.081-.116,1.332.007.076.012.153.017.234,0,.036,0,.072,0,.107.822-.662,1.32-1.853,2.114-2.5.743-.606,2.994-1,3.254.323a.792.792,0,0,0-.132-.249,1.629,1.629,0,0,0-1.3-.485c-1.488.044-2.5,1.544-3.3,2.622a8.118,8.118,0,0,1-1.934,2.081c-.809.526-1.753.8-2.547,1.35a4.879,4.879,0,0,0-.986.864C449.327,176.118,450.724,175.473,451.763,174.782Z" transform="translate(-442.676 -161.859)" fill="#f9b38f"/>
    <path id="Path_581" data-name="Path 581" d="M502.018,207.5l-.1.065-.186.117c-.45.233-.9.461-1.331.717a7.353,7.353,0,0,0-.857.579,5.12,5.12,0,0,1,1.145-.839C501.118,207.9,501.576,207.716,502.018,207.5Z" transform="translate(-493.123 -193.725)" fill="#f9b38f"/>
  </g>
  <path id="Path_582" data-name="Path 582" d="M454.594,186.74a12.348,12.348,0,0,0,3.906-4.131c.264-.406.515-.817.809-1.2.141-.185.246-.4.381-.584.153-.214.342-.406.5-.616a6.23,6.23,0,0,1,.957-.987,4.5,4.5,0,0,1,1.036-.734c.005,0,.019.01.013.014a7.038,7.038,0,0,0-1.027.891,8.064,8.064,0,0,0-.937,1.027c-.595.783-1.145,1.583-1.683,2.41a11.533,11.533,0,0,1-3.934,3.936C454.606,186.766,454.584,186.746,454.594,186.74Z" transform="translate(-446.76 -168.931)" fill="#fbd4b8" opacity="0.8" style="mix-blend-mode: screen;isolation: isolate"/>
  <path id="Path_583" data-name="Path 583" d="M479.566,130.9c.084-.536.19-1.068.31-1.6.116-.507.206-1.021.3-1.531a6.434,6.434,0,0,0,.179-1.532c0-.006.015,0,.016.009a9.113,9.113,0,0,1-.364,3c-.107.527-.225,1.051-.334,1.577-.053.254-.113.507-.16.762a5.205,5.205,0,0,1-.14.67c0,.008-.021-.006-.02-.013C479.461,131.8,479.5,131.342,479.566,130.9Z" transform="translate(-468.576 -124.286)" fill="#fbd4b8" opacity="0.8" style="mix-blend-mode: screen;isolation: isolate"/>
  <path id="Path_584" data-name="Path 584" d="M507.474,116.988a8.826,8.826,0,0,1,.305,2.681c.012,1.04,0,2.088-.065,3.126,0,.01-.027-.007-.027-.017,0-.964,0-1.927-.013-2.891a14.569,14.569,0,0,0-.22-2.909C507.451,116.968,507.472,116.982,507.474,116.988Z" transform="translate(-500.039 -116.372)" fill="#fbd4b8" opacity="0.8" style="mix-blend-mode: screen;isolation: isolate"/>
  <path id="Path_585" data-name="Path 585" d="M529.315,124.241a7.978,7.978,0,0,1,.413,1.807c.121.7.207,1.4.3,2.108,0,.015-.027,0-.029-.013-.115-.67-.247-1.337-.364-2.006a12.89,12.89,0,0,0-.341-1.9C529.295,124.226,529.313,124.237,529.315,124.241Z" transform="translate(-525.465 -122.573)" fill="#fbd4b8" opacity="0.8" style="mix-blend-mode: screen;isolation: isolate"/>
  <path id="Path_586" data-name="Path 586" d="M547.93,138.238a5.188,5.188,0,0,1,.846,2.319c0,.016-.028,0-.03-.014-.111-.4-.235-.775-.377-1.161a4.675,4.675,0,0,0-.452-1.142C547.91,138.228,547.926,138.233,547.93,138.238Z" transform="translate(-546.921 -134.537)" fill="#fbd4b8" opacity="0.8" style="mix-blend-mode: screen;isolation: isolate"/>
  <path id="Path_587" data-name="Path 587" d="M508.48,179.649a9.788,9.788,0,0,1,3.874-.328s.016.012.009.012a21.167,21.167,0,0,0-3.839.363C508.507,179.7,508.458,179.657,508.48,179.649Z" transform="translate(-504.77 -169.603)" fill="#fbd4b8" opacity="0.8" style="mix-blend-mode: screen;isolation: isolate"/>
  <path id="Path_588" data-name="Path 588" d="M523.323,219.741a3.519,3.519,0,0,0,2.62,2.668A4.333,4.333,0,0,1,523.323,219.741Z" transform="translate(-520.508 -204.183)" fill="#fbd4b8" opacity="0.8" style="mix-blend-mode: screen;isolation: isolate"/>
</svg>
