<svg xmlns="http://www.w3.org/2000/svg" width="132" height="15" viewBox="0 0 132 15">
  <path id="heading-clip-2" d="M1.791,8.433l9.428-.61,8.643-.61L28.28,6.5c1.235-.1,2.525-.305,3.816-.305l5.612-.2H40.8l5.781.2,8.643.61L72.9,8.127l8.7.814,8.643.712c5.444.407,10.888.712,16.275,1.323l4.49.509L116,12.2l4.321.712,1.8.305,2.076.509,2.918.61,3.7,1.221.337.1c.584.05,1.114-.618,1.291-1.628a4.514,4.514,0,0,0-.112-1.933c-.112-.407-.449-1.017-.73-1.119l-2.357-.814-2.357-.712q-3.836-.933-7.689-1.628a3.553,3.553,0,0,0,.561-2.442,4.169,4.169,0,0,0-.561-1.526l-.617-.509a11.046,11.046,0,0,0-1.459-.407L116,2.634l-2.133-.2-4.209-.407-8.7-.509-8.643-.305-4.546-.2H74.075L65.208.8c-5.444-.1-11-.2-16.5-.1H40.515C37.6.7,34.678.7,31.76.9l-5.781.1-3.311.1-5.275.407-3.48.305c-4.153.509-8.25,1.017-12.347,1.73a1.162,1.162,0,0,0-.617.61A2.981,2.981,0,0,0,.5,5.788c0,1.323.561,2.543,1.291,2.543" transform="translate(-0.5 -0.659)" fill="#cdeb8b" fill-rule="evenodd"/>
</svg>
