<svg xmlns="http://www.w3.org/2000/svg" width="40" height="40" viewBox="0 0 40 40">
  <g id="insta" transform="translate(-200 -6058)">
    <rect id="Rectangle_17476" data-name="Rectangle 17476" width="40" height="40" rx="5" transform="translate(200 6058)" fill="#fff"/>
    <g id="Group_49051" data-name="Group 49051" transform="translate(-197.611 646.899)">
      <path id="Path_333" data-name="Path 333" d="M74.449,80.5h-8.79a6.055,6.055,0,0,1-6.048-6.049V65.664a6.055,6.055,0,0,1,6.048-6.049h8.79A6.055,6.055,0,0,1,80.5,65.664v8.789A6.055,6.055,0,0,1,74.449,80.5Zm-8.79-19.606a4.774,4.774,0,0,0-4.769,4.769v8.789a4.775,4.775,0,0,0,4.769,4.769h8.79a4.774,4.774,0,0,0,4.769-4.769V65.664a4.775,4.775,0,0,0-4.769-4.769h-8.79Z" transform="translate(348 5361.485)" fill="#356aa0"/>
      <g id="Group_51" data-name="Group 51" transform="translate(413.072 5424.77)">
        <path id="Path_335" data-name="Path 335" d="M167.484,172.478a4.982,4.982,0,1,1,4.982-4.982A4.988,4.988,0,0,1,167.484,172.478Zm0-8.685a3.7,3.7,0,1,0,3.7,3.7A3.707,3.707,0,0,0,167.484,163.793Z" transform="translate(-162.502 -160.722)" fill="#356aa0"/>
        <path id="Path_336" data-name="Path 336" d="M346.218,129.812a1.059,1.059,0,1,1-1.059-1.059A1.059,1.059,0,0,1,346.218,129.812Z" transform="translate(-334.461 -128.753)" fill="#356aa0"/>
      </g>
    </g>
  </g>
</svg>
