<svg xmlns="http://www.w3.org/2000/svg" width="98.031" height="94.782" viewBox="0 0 98.031 94.782">
  <g id="integrate-process" transform="translate(-1423 -1560)">
    <path id="newshape" d="M138.865,112.616l-3.974.892a58.022,58.022,0,0,0-8.164,2.249c-7.856,2.687-13.993,5.655-18.14,8.775a31.726,31.726,0,0,0-3.352,2.914,13.244,13.244,0,0,0-2.271,2.455,48.785,48.785,0,0,0-7.229,14.02,23.726,23.726,0,0,0-1.206,6.223c-.227,2.319-.449,4.023-.643,4.958a21.918,21.918,0,0,0-.141,2.649c-.038,1.476-.087,2.406-.141,2.682a22.007,22.007,0,0,0,.011,5.628c.1,1.206.151,2.238.184,3.979a18.135,18.135,0,0,0,.595,5.3,38.6,38.6,0,0,0,3.574,8.716c1.741,3.341,2,3.839,2.384,4.666.227.476.47,1.006.546,1.173a22.93,22.93,0,0,0,2.411,3.747,24.163,24.163,0,0,0,2.655,3.168c3.5,3.5,8.229,5.942,15.652,8.072a31.429,31.429,0,0,0,6.434,1.141c.865.1,2,.276,2.514.378a12.743,12.743,0,0,0,2.433.27c.816.043,1.644.1,1.838.13.454.065,4.855.135,7.7.119a50.807,50.807,0,0,0,12.057-1.114c.33-.076,1.222-.249,1.984-.378a16.762,16.762,0,0,0,3.525-.892,39.461,39.461,0,0,0,9.467-4.444,38.507,38.507,0,0,0,10.376-10.938,29.023,29.023,0,0,0,2.282-3.947c.481-.952,1.195-2.276,1.59-2.947a64.765,64.765,0,0,0,7.029-17.085,6.92,6.92,0,0,0,.276-2.19,13.06,13.06,0,0,1,.249-2.568,9.2,9.2,0,0,0,.092-1.676,16.614,16.614,0,0,0-.427-3.92c-.13-.654-.3-1.617-.378-2.136a12.372,12.372,0,0,0-.692-2.784,60.48,60.48,0,0,0-13.419-21.973,59.871,59.871,0,0,0-6.731-5.893,10.667,10.667,0,0,1-1.465-1.346,23.865,23.865,0,0,0-6.91-5.088,32.883,32.883,0,0,0-12.819-3.331c-.616-.054-1.973-.1-3.271-.108l-2.217-.022-2.136.238Z" transform="translate(1329.563 1447.86)" fill="#f6e4eb"/>
    <g id="download_29_" data-name="download (29)" transform="translate(1438.995 1574.851)">
      <path id="Path_669" data-name="Path 669" d="M61.46,55.733c1.1-6.481-3.1-5.925-5.069-5.861l-.013-4.306c9.036-.46,7.974-9.048.6-9.443-.213-.01-.425-.031-.638-.051-.024-3.782-.228-5.783-5.167-6.1-5.622-.363-12-.733-17-.816v-5.2c6-.03,12.005-.939,14.9-2.235,9.771-4.377,7.159-17.327-6.439-19.288-4.187-.6-8.351-.12-14.492.33-7.048.517-9.425.691-11.932,2.042a9.469,9.469,0,0,0-4.33,11.4c2.024,5.23,7.326,5.579,11.509,6.664a41.143,41.143,0,0,0,9.789,1.082v5.19a121.391,121.391,0,0,0-13.766.577c-4.024.427-8.8,1.527-9.738,6.123-8.016-.47-9.935,8.993.066,9.747l.2,4.336c-3.836.131-6.054.661-5.386,5.817-5.241.709-4.331,8.054.5,8.054,4.976,0,5.84-7.518.5-8.071-.525-3.871.361-4.829,4.7-4.959.063.028.131-.1.2-.1s.185.114.229.091c4.2-.112,5.92.076,5.086,4.975a4.017,4.017,0,0,0-2.624,6.589,4.254,4.254,0,0,0,3.188,1.44c4.935,0,5.643-7.438.449-8.03,1.057-6.6-3.015-5.907-5.854-5.833l-.2-4.262c10.518.126,9.432-9.1,1.851-9.51-.6-.029-1.021-.087-2.021-.2.673-3.064,3.534-4.636,8.952-5.212a120.543,120.543,0,0,1,13.66-.571V35.9a10.762,10.762,0,0,0-3.53.068c-5.957,1.4-6.232,9.336,3.53,9.614v4.329c-3.447.111-6.18.55-5.51,5.8-6.38.549-3.964,10.165,1.836,7.733a4.024,4.024,0,0,0-.928-7.713c-.586-4.31.774-4.727,4.357-4.828a.492.492,0,0,0,.689-.017c3.479-.071,6.112-.732,5.172,4.822a4.015,4.015,0,0,0-2.833,6.6,4.206,4.206,0,0,0,4.726,1.136,4.026,4.026,0,0,0-.886-7.71c1.075-6.673-3.132-5.9-5.746-5.853-.028,0,.123,0,.123,0v-4.3c9.711-.263,8.145-9.088,1.038-9.468a4.9,4.9,0,0,1-1.038-.106V30.149c5,.083,11.331.452,16.937.814,4.031.262,4.307,1.439,4.335,5-10.471-1.273-11.075,9.695-.065,9.695l.013,4.28c-4.265.133-6.883.308-6.176,5.8a4.008,4.008,0,0,0-3.535,4.692,4.106,4.106,0,0,0,8.12-1.148,3.922,3.922,0,0,0-3.579-3.559c-.572-4.208.609-4.833,5.441-4.98.07.037.146-.086.231-.086h0c.094,0,.177.115.252.07,2.91-.09,5.164-.163,4.291,4.982-5.1.579-4.664,8.041.51,8.041a3.945,3.945,0,0,0,1.537-.3A4.018,4.018,0,0,0,61.46,55.733ZM5.07,61.068l.814.814c-.32.321-.808.674-.415.87a2.993,2.993,0,0,1-.324.034c.466-.222-.3-.758-.666-1.126Zm-.127,1.719a2.912,2.912,0,0,1-1.253-.339l.434-.434A8.968,8.968,0,0,0,4.943,62.787Zm.831-.089.463-.463.217.217A2.183,2.183,0,0,1,5.774,62.7Zm1.118-.516-.3-.3.653-.653.3.3A3.233,3.233,0,0,1,6.892,62.182Zm1.126-3.543a3.055,3.055,0,0,1,.132.535l-.331-.331C7.895,58.765,7.944,58.718,8.018,58.639Zm-.179-.42c-.144,0-.257.152-.375.27-.19-.19-.356-.408-.559-.205s.015.369.206.559l-.587.587a.25.25,0,0,0,.177.427c.161,0,.644-.541.764-.661a4.242,4.242,0,0,0,.727.659A3.185,3.185,0,0,1,7.818,61.1L7.6,60.875l.2-.2a.25.25,0,0,0-.354-.354l-.2.2c-.282-.282-.7-.87-.962-.608s.326.68.608.962l-.653.653-.814-.813.759-.759a.25.25,0,0,0-.354-.354l-1.7,1.7c-.231-.231-.457-.549-.68-.326s.1.45.326.68l-.51.51a3.024,3.024,0,0,1,1.852-5.481A3.113,3.113,0,0,1,7.839,58.219Zm8.65,2.848.814.813c-.259.259-.725.579-.491.832-.054.008-.109.01-.163.016a.245.245,0,0,0-.011-.328l-.741-.741Zm-.207,1.686A3.319,3.319,0,0,1,15.06,62.5l.482-.482Zm1.019-.164.355-.355.137.137A1.321,1.321,0,0,1,17.3,62.589Zm1.783-1.646-.068-.068.168-.168C19.154,60.787,19.12,60.865,19.084,60.943Zm-.256.451a3.238,3.238,0,0,1-.617.688l-.2-.2.653-.652Zm.454-2.507-.045-.045.03-.03C19.274,58.836,19.276,58.863,19.282,58.887Zm-.217-.58-.182.182c-.19-.19-.356-.408-.559-.205s.015.369.2.559l-.588.588a.25.25,0,0,0,.177.427c.161,0,.645-.541.765-.661l.5.5a2.989,2.989,0,0,1-.113.762.235.235,0,0,0-.407-.13l-.2.2c-.282-.282-.7-.87-.962-.608s.326.68.608.962l-.653.652-.814-.813.759-.758a.25.25,0,0,0-.354-.354c-.029.029-.965.965-.936.935l-.769.769-.327-.327a.25.25,0,0,0-.354.354l.326.327-.588.588a2.979,2.979,0,0,1-.477-4.7A3.174,3.174,0,0,1,19.065,58.307ZM10.388,44.622a.383.383,0,0,0-.322-.01,10.944,10.944,0,0,1-3.454-.694l.9-.9a10.628,10.628,0,0,0,1.42,1.316.23.23,0,0,0,.229-.3l.933-.933.718.718a.25.25,0,0,0,.354-.354l-.718-.718.7-.7,1.035,1.035-.99.99a.25.25,0,0,0,.354.354l.99-.99.98.981A14.411,14.411,0,0,1,10.388,44.622ZM8.762,41.768l.98.98-.9.9-.98-.979ZM14.1,44.291,12.893,43.08l1.4-1.4.979.98L14.14,43.793a.25.25,0,0,0,.354.354l1.129-1.129.414.414A4.851,4.851,0,0,1,14.1,44.291Zm2.317-1.182-.445-.445,1.089-1.089c.188.077.264,0,.31-.143A3.113,3.113,0,0,1,16.421,43.109ZM17.4,40.63c-.139.01-.243.149-.358.264l-.591-.591.669-.67A2.283,2.283,0,0,1,17.4,40.63Zm0,.617c0,.023,0,.047-.007.07a.2.2,0,0,0-.019-.045Zm-.53-2.066-.768.768-.435-.434a.25.25,0,0,0-.354.354l.435.434c-.229.229-.546.454-.323.677s.447-.094.677-.323l.591.591-1.064,1.063-.979-.98c.278-.278.84-.676.581-.934s-.67.317-.95.6a.23.23,0,0,0-.322.322L12.54,42.727l-1.035-1.035.357-.356a.25.25,0,0,0-.354-.354l-.357.356c-.213-.213-.407-.481-.621-.268s.055.408.268.621l-.7.7-.98-.98.526-.526a.25.25,0,0,0-.354-.354L7.512,42.309c-.267-.266-.62-.77-.872-.518s.252.6.518.871l-1.03,1.03a3.374,3.374,0,0,1-2.163-3.353c.069-1.419,1.453-3.532,4.985-3.532a17.176,17.176,0,0,1,1.974.16C12.727,37.187,15.422,37.038,16.863,39.181ZM26.627,62.5l.486-.486a8.791,8.791,0,0,0,.816.772A2.769,2.769,0,0,1,26.627,62.5Zm1.433-1.432.814.814c-.288.288-.771.614-.457.853-.071.013-.143.014-.214.023a.245.245,0,0,0,.006-.356l-.741-.741Zm.787,1.547.38-.379.153.154A1.538,1.538,0,0,1,28.847,62.614ZM29.8,62.1l-.222-.222.653-.653.194.194A3.19,3.19,0,0,1,29.8,62.1Zm1.111-3.157-.1-.1.07-.07C30.9,58.826,30.9,58.89,30.913,58.946Zm-.239-.664a2.306,2.306,0,0,0-.219.206c-.19-.19-.356-.408-.559-.205a.25.25,0,0,0,0,.354l.2.205c-.278.278-.848.682-.588.942a.251.251,0,0,0,.354,0l.588-.588L31,59.74a3.127,3.127,0,0,1-.313,1.235l-.1-.1c.194-.194.4-.353.2-.551a.25.25,0,0,0-.354,0l-.2.2c-.282-.282-.7-.87-.962-.608s.326.68.608.962l-.653.653-.814-.814.758-.758a.25.25,0,0,0-.354-.354l-1.7,1.7c-.231-.231-.457-.549-.68-.326s.1.45.326.68l-.582.582a2.994,2.994,0,0,1-.435-4.691A3.178,3.178,0,0,1,30.674,58.282Zm7.359,4.267.536-.536.73.73A2.86,2.86,0,0,1,38.033,62.549Zm1.482-1.482.814.814c-.247.247-.669.545-.506.795-.046.011-.092.023-.139.031a.24.24,0,0,0-.02-.306l-.741-.741Zm.968,1.366.2-.2.059.059A2.877,2.877,0,0,1,40.483,62.433Zm1.242-1.167a3.3,3.3,0,0,1-.588.718l-.1-.1.653-.653Zm.213-2.805-.028.028c-.19-.19-.356-.408-.559-.205s.015.369.205.559l-.588.588a.25.25,0,0,0,.177.427c.161,0,.645-.541.765-.661l.276.276a2.893,2.893,0,0,1-.065.8c-.192-.05-.273.087-.432.247l-.608-.608a.25.25,0,0,0-.354.354l.608.608-.653.653-.814-.814.758-.758a.25.25,0,0,0-.354-.354l-1.7,1.7-.326-.326a.25.25,0,0,0-.354.354l.326.326-.669.669a3.015,3.015,0,0,1,1.562-5.64A3.065,3.065,0,0,1,41.938,58.461ZM27.241,22.6c.088-.042.154-.071.141-.226.091-.08,1.714-1.707,1.808-1.8l.98.98-.74.74a.25.25,0,1,0,.354.354l.74-.74c.118.118.577.634.738.634a.251.251,0,0,0,.177-.427l-.561-.561,1.4-1.4,1.564,1.563c-.219.219-.513.431-.295.649a.251.251,0,0,0,.354,0l.295-.3c.438.438.672-.035.463-.244l-.11-.11,1.785-1.785,1.452,1.452-.851.851a.25.25,0,1,0,.354.354l.851-.851c.115.115.538.595.7.595a.251.251,0,0,0,.177-.427l-.522-.522L40.775,19.1l1.785,1.785-.684.684a.25.25,0,0,0,.354.354l.684-.684.855.855a60.4,60.4,0,0,1-10.3.864.48.48,0,0,0-.412,0A50.3,50.3,0,0,1,27.241,22.6Zm-1.994-.565-.7-.7.591-.591,1.826,1.826c-.582-.077-1.14-.165-1.678-.263A.235.235,0,0,0,25.247,22.035Zm-.552.154c-.284-.058-.557-.12-.826-.185l.321-.321Zm20.169-3.608-1.952,1.952-1.785-1.785,2.012-2.012A15.462,15.462,0,0,0,44.864,18.581Zm2.637-2.03,1.2,1.2-1.98,1.98-1.146-1.146A22.49,22.49,0,0,0,47.5,16.551Zm-1.137,3.53-1.49,1.49a.244.244,0,0,0-.017.313c-.173.037-.352.071-.531.107-.062-.127-.957-1-1.061-1.1l1.952-1.952ZM12.8,15.843A8.443,8.443,0,0,1,16.675,5.685c2.719-1.465,5.448-1.446,15.488-2.221a46.912,46.912,0,0,1,10.271-.041c7.351,1.06,10.63,5.279,11.267,8.71l-.733.733-2.073-2.073a.25.25,0,1,0-.354.354l1.3,1.3c-.147.035-1.853,1.782-1.96,1.889l-.212-.212a.25.25,0,0,0-.354.354l.212.212c-.263.263-.738.6-.49.843s.58-.227.843-.49L51.335,16.5c-.275.275-.831.668-.573.927s.649-.3.927-.573c.119.119.306.353.456.353a.251.251,0,0,0,.177-.427l-.279-.279,1.1-1.1a.25.25,0,0,0-.354-.354l-1.1,1.1-1.452-1.452c.107-.107,1.853-1.814,1.888-1.96l.5.5a.23.23,0,0,0,.322.322c.153.153.295.293.47.117s.046-.308-.1-.455l.469-.469c.487,4.815-3.339,7.85-8.4,9.014l1.33-1.33.607.607a.251.251,0,0,0,.354,0,.25.25,0,0,0,0-.354l-.607-.607,1.98-1.98,1.065,1.065a.25.25,0,0,0,.354-.354L49.4,17.747l.835-.835a.25.25,0,0,0-.354-.354l-.835.835-1.49-1.49a.25.25,0,0,0-.354,0c-.1.1-.113.241.04.393a22.49,22.49,0,0,0-2.03,1.93A15.3,15.3,0,0,0,43.37,16.5l.139-.139a.25.25,0,1,0-.354-.354l-2.384,2.384-.657-.657a.25.25,0,1,0-.354.354l.657.657-2.285,2.285L36.68,19.579l2.286-2.286a.25.25,0,0,0-.354-.354l-2.286,2.286c-.194-.194-.362-.416-.566-.212s.018.372.212.566l-1.785,1.785L32.623,19.8l1.988-1.988a.25.25,0,0,0-.354-.354L30.519,21.2l-.98-.98,1.242-1.242a.25.25,0,0,0-.354-.354l-1.242,1.242L29,19.679a.25.25,0,0,0-.354.354l.184.184-1.758,1.758-1.591-1.591,1.471-1.471a.25.25,0,1,0-.354-.354l-1.487,1.487a.23.23,0,0,0-.322.322l-.607.607-.906-.907a.25.25,0,0,0-.354.354l.906.907-.539.539C18.932,20.751,14.531,20.305,12.8,15.843ZM28.657,43.78l.762-.763a10.629,10.629,0,0,0,1.42,1.316.249.249,0,0,0,.177-.073.235.235,0,0,0,.053-.226L32,43.1c.126.126.734.791.9.791a.251.251,0,0,0,.177-.427l-.718-.718.7-.7,1.035,1.035-.99.99a.25.25,0,0,0,.354.354l.99-.99,1.005,1.005A13.37,13.37,0,0,1,28.657,43.78Zm2.012-2.013.98.98-.9.9-.98-.979Zm5.529-.083.979.98-1.129,1.129a.25.25,0,0,0,.177.427,8.981,8.981,0,0,0,1.306-1.2,4,4,0,0,0,.609.556,7.2,7.2,0,0,1-2.09.756L34.8,43.082Zm2.273,1.685c.008-.176-.462-.58-.586-.705l1.089-1.089c.251.1.38-.111.3-.3.2-.2.427-.373.223-.577s-.358,0-.551.2l-.591-.591.961-.961A2.876,2.876,0,0,1,38.471,43.369Zm.558-4.445L38,39.95l-.434-.435a.25.25,0,0,0-.354.354l.434.435c-.229.229-.546.454-.323.677s.447-.094.677-.323l.591.591-1.063,1.063-.979-.98c.278-.278.84-.676.581-.934s-.67.317-.95.6a.23.23,0,0,0-.322.322L34.45,42.728l-1.035-1.035c.236-.236.585-.481.357-.71s-.474.12-.71.356c-.213-.213-.407-.481-.621-.268s.055.408.268.621l-.7.7-.98-.98.525-.525a.25.25,0,0,0-.354-.354L29.42,42.31c-.267-.266-.619-.77-.871-.518a.25.25,0,0,0,0,.354l.518.518-.86.86c-3.584-2.348-1.675-6.732,2.933-6.732,1.238,0,2.478.274,3.764.332A5.256,5.256,0,0,1,39.029,38.924Zm9.183,23.431.342-.342.691.691A3.26,3.26,0,0,1,48.212,62.355Zm1.441.392a.249.249,0,0,0,0-.346l-.741-.742.592-.592.814.813c-.307.306-.8.655-.428.866C49.844,62.748,49.689,62.748,49.653,62.747Zm.53-.029.484-.484.28.28A2.548,2.548,0,0,1,50.183,62.718Zm1.219-.457-.381-.381.653-.652c.112.112.3.332.436.37A3.137,3.137,0,0,1,51.4,62.261Zm1.769-2.88V59.4l-.739-.555.1-.2a.255.255,0,0,0-.046-.354c-.2-.2-.384.007-.585.2l-.211-.205a.252.252,0,0,0-.358.354l.205.205c-.278.278-.848.682-.589.942a.25.25,0,0,0,.353,0l.588-.588c.214.214.661.784.911.633a3.213,3.213,0,0,1-.442,1.4,3.857,3.857,0,0,0-.337-.357c.194-.194.4-.353.2-.551s-.357,0-.551.2l-.608-.608a.25.25,0,0,0-.354.354l.608.608-.653.652-.814-.813.759-.758a.25.25,0,0,0-.354-.354l-.935.935h0l-.769.768c-.231-.231-.457-.549-.68-.326s.1.449.326.68l-.425.425a2.945,2.945,0,0,1-.439-.41,3.011,3.011,0,0,1,.213-4.123,3.619,3.619,0,0,1,2.361-.862C51.317,56.689,52.171,57.613,53.171,59.381Zm5.075-17.7.979.98L58.1,43.793a.25.25,0,1,0,.354.354l1.129-1.129a6.636,6.636,0,0,0,.567.538,6.776,6.776,0,0,1-2.05.772l-1.247-1.247Zm2.258,1.63c-.029-.147-.462-.54-.572-.65l1.089-1.089a.221.221,0,0,0,.3-.3c.2-.2.426-.373.223-.576s-.357,0-.551.2L60.4,40.3l.955-.955A2.836,2.836,0,0,1,60.5,43.314Zm-7.326-6.522a17.278,17.278,0,0,1,2.14.178c.024,0,.548.061.524.061,2.976,0,4.378.856,5.225,1.9l-1.016,1.016c-.252-.251-.547-.676-.788-.434s.183.537.435.788l-.323.323a.25.25,0,0,0,.177.427c.154,0,.381-.277.5-.4l.591.591L59.579,42.31l-.979-.98.581-.581a.25.25,0,0,0-.354-.354l-.6.6a.23.23,0,0,0-.322.322L56.5,42.725,55.462,41.69c.236-.236.585-.481.357-.71s-.474.12-.71.356l-.268-.268a.25.25,0,0,0-.354.354l.268.268-.7.7-.98-.98c.269-.269.778-.627.526-.879a.25.25,0,0,0-.354,0L51.47,42.308l-.518-.518a.25.25,0,0,0-.354.354l.518.518-.864.864C46.6,41.114,48.63,36.792,53.178,36.792ZM52.8,43.643l-.979-.979.9-.9.98.98Zm-2.1.145.771-.771a10.573,10.573,0,0,0,1.42,1.316.23.23,0,0,0,.229-.3l.933-.933.718.718a.25.25,0,0,0,.354-.354l-.718-.718.7-.7,1.035,1.035-.99.99a.25.25,0,0,0,.177.427c.161,0,1.041-.938,1.167-1.063L57.5,44.439C55.941,44.682,52.625,44.771,50.7,43.788ZM63.741,60.856l-.817-.817.542-.542a6.65,6.65,0,0,0,.509.485A3.1,3.1,0,0,1,63.741,60.856Zm-.888,1.205-.159-.16.693-.693c.032.032.041.044.14.066A3.3,3.3,0,0,1,62.853,62.061Zm-1.074.57a2.944,2.944,0,0,1-.454.092.24.24,0,0,0-.022-.3l-.743-.743.6-.6.824.824C61.7,62.186,61.33,62.517,61.779,62.631Zm-.849.125a3.307,3.307,0,0,1-1.2-.244l.479-.479Zm.586-2.032a4.01,4.01,0,0,0,.657-.729l.86.86-.693.693Zm2.3-1.58.1-.1c.018.087.04.17.051.262ZM58.739,57.55a3.15,3.15,0,0,1,2.177-.862,3.059,3.059,0,0,1,2.865,1.856.766.766,0,0,0-.313.246l-.608-.608a.25.25,0,1,0-.353.354l.608.608-.542.542-.4-.4a.25.25,0,0,0-.354.354l.071.071a4.072,4.072,0,0,0-.732.659.247.247,0,0,0-.349.349l-.6.6L59.78,60.9a.25.25,0,1,0-.354.354l.427.427-.593.593A2.977,2.977,0,0,1,58.739,57.55Zm3.305,5,.3-.3.1.1A1.622,1.622,0,0,1,62.044,62.55Z" fill="#232221"/>
    </g>
  </g>
</svg>
