<svg xmlns="http://www.w3.org/2000/svg" width="40" height="40" viewBox="0 0 40 40">
  <g id="linkedin" transform="translate(-1439 -6167)">
    <rect id="Rectangle_69" data-name="Rectangle 69" width="40" height="40" rx="5" transform="translate(1439 6167)" fill="#fff"/>
    <g id="linkedin-svgrepo-com" transform="translate(1448 6176.508)">
      <g id="Group_54" data-name="Group 54" transform="translate(0 0.492)">
        <path id="Path_338" data-name="Path 338" d="M2.474.492A2.335,2.335,0,0,0,0,2.842,2.309,2.309,0,0,0,2.424,5.19a2.537,2.537,0,0,0,1.815-.683,2.3,2.3,0,0,0,.683-1.676A2.328,2.328,0,0,0,2.474.492ZM3.6,3.85a1.644,1.644,0,0,1-1.176.423A1.407,1.407,0,0,1,.918,2.842,1.418,1.418,0,0,1,2.474,1.41,1.414,1.414,0,0,1,4.005,2.842,1.39,1.39,0,0,1,3.6,3.85Z" transform="translate(0 -0.492)" fill="#0B6623"/>
        <path id="Path_339" data-name="Path 339" d="M.959,27.582H5.082V12.422H.959ZM1.877,13.34H4.165V26.664H1.877Z" transform="translate(-0.519 -6.949)" fill="#0B6623"/>
        <path id="Path_340" data-name="Path 340" d="M23.555,12.422A5.358,5.358,0,0,0,19.794,13.7l-.129-1.281H15V27.581h4.569V19.614A4.683,4.683,0,0,1,19.8,18.37c.552-1.189,1.3-1.189,2.424-1.189a2.572,2.572,0,0,1,2.4,2.659v7.741H29.2V19.017C29.2,14.486,26.275,12.422,23.555,12.422Zm4.73,14.242H25.533V19.841a3.5,3.5,0,0,0-3.314-3.577c-1.152,0-2.458,0-3.257,1.72a5.3,5.3,0,0,0-.312,1.63v7.05H15.918V13.34h2.918l.187,1.855h.752l.134-.217c.306-.493,1.274-1.639,3.646-1.639,2.278,0,4.73,1.776,4.73,5.677Z" transform="translate(-8.119 -6.949)" fill="#0B6623"/>
      </g>
    </g>
  </g>
</svg>
