<svg xmlns="http://www.w3.org/2000/svg" width="185.952" height="177.865" viewBox="0 0 185.952 177.865">
  <g id="logout" transform="translate(-715.035 -299.434)">
    <g id="Group_1" data-name="Group 1" transform="translate(715 295)">
      <path id="Path_2" data-name="Path 2" d="M715.091,387.967c.856-1.824.691-3.832,1-5.75,3.941-24.123,15.7-43.576,35.238-58.152,16.236-12.11,34.675-17.743,54.94-17.394a88.617,88.617,0,0,1,80.38,56.07c1.32,3.409-.033,6.843-3.208,8.147-3.237,1.329-6.646-.18-8.082-3.738a76.281,76.281,0,0,0-20.691-29.365,74.022,74.022,0,0,0-42.3-18.489c-32.742-3.215-62.15,12.925-77.1,42.12-14.255,27.84-9.217,63.376,12.327,86.174,16.942,17.927,37.884,26.574,62.406,24.449,30.235-2.62,51.717-18.445,64.513-45.991.356-.765.65-1.558,1-2.328a6.05,6.05,0,1,1,11.135,4.72A86.958,86.958,0,0,1,872.985,451.8c-14.21,17.284-32.362,28.051-54.442,31.49-28.5,4.44-53.693-3.193-75-22.674-14.8-13.533-23.693-30.468-27.245-50.212-.43-2.393-.331-4.872-1.2-7.188Z" transform="translate(-715.056 -302.222)" fill="#020202"/>
      <path id="Path_3" data-name="Path 3" d="M884.429,483.936c5.181,5.151,9.977,9.916,14.768,14.685,2.273,2.263,4.551,4.521,6.8,6.806,2.783,2.827,2.962,6.49.475,9.035-2.5,2.561-6.164,2.431-9.019-.415q-14.657-14.611-29.275-29.261c-.856-.855-1.76-1.661-2.605-2.526a6.11,6.11,0,0,1-.042-8.777q15.975-15.987,32-31.92c2.766-2.75,6.4-2.862,8.888-.378,2.513,2.509,2.392,6.245-.38,9.033q-10.3,10.363-20.658,20.675c-.17.169-.324.353-.557.608a3.207,3.207,0,0,0,2.069.249q49.469.02,98.939.006a9.344,9.344,0,0,1,3.394.436,6.124,6.124,0,0,1,3.87,6.162,5.973,5.973,0,0,1-4.674,5.35,12.973,12.973,0,0,1-2.7.223q-49.379.016-98.757.009Z" transform="translate(-807.134 -384.477)" fill="#040404"/>
    </g>
  </g>
</svg>
