<svg xmlns="http://www.w3.org/2000/svg" width="135.583" height="147.833" viewBox="0 0 135.583 147.833">
  <g id="Group_2925" data-name="Group 2925" transform="translate(-443 -35.167)">
    <text id="Cloud" transform="translate(490 181)" fill="#4d4d4d" font-size="16" font-family="HoboStd, Hobo Std"><tspan x="0" y="0">Cloud</tspan></text>
    <g id="Group_2924" data-name="Group 2924" transform="translate(1818.818 -142.197)">
      <path id="Path_5828" data-name="Path 5828" d="M-1360.13,934.806l-6.522,13.291-6.585-13.291h-.263l-2.319,16.2h1.564l1.591-11.672,5.8,11.672h.414l5.727-11.584,1.6,11.584h1.587l-2.331-16.2Z" transform="translate(0 -654.107)" fill="#b2c100"/>
      <path id="Path_5829" data-name="Path 5829" d="M-1224.452,968.933a6.2,6.2,0,0,1-1.854-1.266,1.713,1.713,0,0,1-.441-1.112,1.53,1.53,0,0,1,.536-1.156,1.826,1.826,0,0,1,1.286-.5,3.563,3.563,0,0,1,2.418,1.2l.991-1.024a4.881,4.881,0,0,0-3.331-1.619,3.247,3.247,0,0,0-2.355.9,3.026,3.026,0,0,0-.932,2.268,3.113,3.113,0,0,0,.585,1.861,6.224,6.224,0,0,0,2.207,1.652,6.926,6.926,0,0,1,1.942,1.277,1.792,1.792,0,0,1,.43,1.178,1.837,1.837,0,0,1-.651,1.4,2.257,2.257,0,0,1-1.578.595,3.37,3.37,0,0,1-2.505-1.332l-.969,1.1a4.3,4.3,0,0,0,1.561,1.244,4.53,4.53,0,0,0,1.98.451,3.539,3.539,0,0,0,2.592-1.024,3.38,3.38,0,0,0,1.037-2.5,3.13,3.13,0,0,0-.607-1.883,6.921,6.921,0,0,0-2.339-1.718" transform="translate(-127.07 -678.852)" fill="#b2c100"/>
      <path id="Path_5830" data-name="Path 5830" d="M-1160.259,929.56a1.21,1.21,0,0,0-.888.374,1.233,1.233,0,0,0-.373.9,1.22,1.22,0,0,0,.373.892,1.21,1.21,0,0,0,.888.375,1.222,1.222,0,0,0,.9-.375,1.22,1.22,0,0,0,.373-.892,1.233,1.233,0,0,0-.373-.9,1.222,1.222,0,0,0-.9-.374" transform="translate(-185.063 -649.577)" fill="#b2c100"/>
      <rect id="Rectangle_41" data-name="Rectangle 41" width="1.542" height="11.981" transform="translate(-1346.087 284.917)" fill="#b2c100"/>
      <path id="Path_5831" data-name="Path 5831" d="M-1114.681,964.143a4.248,4.248,0,0,0-2.384-.683,5.032,5.032,0,0,0-2.445.611,6.445,6.445,0,0,0-2.048,1.844v-2.147h-1.542v11.981h1.542v-4.394a15.915,15.915,0,0,1,.22-3.259,4.333,4.333,0,0,1,1.459-2.291,3.8,3.8,0,0,1,2.506-.925,3.1,3.1,0,0,1,1.982.6,3.034,3.034,0,0,1,1.028,1.789,14.075,14.075,0,0,1,.172,2.764v5.715h1.542v-6.166a9.729,9.729,0,0,0-.5-3.6,4.069,4.069,0,0,0-1.536-1.839" transform="translate(-218.242 -678.852)" fill="#b2c100"/>
      <path id="Path_5832" data-name="Path 5832" d="M-1015.86,965.849a6.916,6.916,0,0,0-2.243-1.833,5.739,5.739,0,0,0-2.508-.556,6.106,6.106,0,0,0-3.081.837,6.07,6.07,0,0,0-2.287,2.274,6.112,6.112,0,0,0-.827,3.1,6.033,6.033,0,0,0,.794,3.05,5.827,5.827,0,0,0,2.249,2.208,6.228,6.228,0,0,0,3.109.82,6.208,6.208,0,0,0,2.668-.589,5.837,5.837,0,0,0,2.127-1.69v.617a6.579,6.579,0,0,1-.463,2.87,3.6,3.6,0,0,1-1.549,1.476,5.539,5.539,0,0,1-2.663.587,5.675,5.675,0,0,1-2.679-.573,4.421,4.421,0,0,1-1.764-1.762h-1.674a6.968,6.968,0,0,0,1.42,2.148,5.547,5.547,0,0,0,2,1.171,8.243,8.243,0,0,0,2.769.436,6.915,6.915,0,0,0,3.6-.892,4.8,4.8,0,0,0,2.1-2.544,11.28,11.28,0,0,0,.44-3.689v-9.547h-1.542Zm-1.217,7.169a4.655,4.655,0,0,1-3.419,1.277,4.7,4.7,0,0,1-3.425-1.288,4.36,4.36,0,0,1-1.321-3.259,4.79,4.79,0,0,1,.639-2.417,4.591,4.591,0,0,1,1.762-1.751,4.874,4.874,0,0,1,2.434-.633,4.687,4.687,0,0,1,2.345.617,4.334,4.334,0,0,1,1.685,1.679,4.864,4.864,0,0,1,.595,2.417,4.51,4.51,0,0,1-1.294,3.359" transform="translate(-301.398 -678.852)" fill="#b2c100"/>
      <path id="Path_5833" data-name="Path 5833" d="M-915.126,929.56a1.21,1.21,0,0,0-.888.374,1.233,1.233,0,0,0-.373.9,1.22,1.22,0,0,0,.373.892,1.21,1.21,0,0,0,.888.375,1.222,1.222,0,0,0,.9-.375,1.22,1.22,0,0,0,.373-.892,1.233,1.233,0,0,0-.373-.9,1.222,1.222,0,0,0-.9-.374" transform="translate(-396.753 -649.577)" fill="#b2c100"/>
      <rect id="Rectangle_42" data-name="Rectangle 42" width="1.542" height="11.981" transform="translate(-1312.645 284.917)" fill="#b2c100"/>
      <path id="Path_5834" data-name="Path 5834" d="M-865.5,935.3a10.763,10.763,0,0,0-3.826-.49h-3.27V951h3.083v-6.86a13.827,13.827,0,0,0,3.248-.253,4.6,4.6,0,0,0,2.406-1.564,4.411,4.411,0,0,0,.886-2.819,4.9,4.9,0,0,0-.677-2.626,3.892,3.892,0,0,0-1.85-1.586m-.716,5.129a1.429,1.429,0,0,1-.71.547,5.293,5.293,0,0,1-1.608.166h-.98v-3.326h.87a4.142,4.142,0,0,1,1.96.32,1.475,1.475,0,0,1,.727,1.37,1.6,1.6,0,0,1-.259.923" transform="translate(-434.567 -654.107)" fill="#519d21"/>
      <path id="Path_5835" data-name="Path 5835" d="M-783.256,934.806-789.5,951h3.2l1.318-3.336h6.61L-777.1,951h3.2l-6.23-16.2Zm-.591,9.855,2.173-5.561,2.16,5.561Z" transform="translate(-506.327 -654.107)" fill="#519d21"/>
      <path id="Path_5836" data-name="Path 5836" d="M-654.963,934.8a6.678,6.678,0,0,1,4.951,2.326l2.156-2.056a9.233,9.233,0,0,0-3.2-2.408,9.2,9.2,0,0,0-3.859-.847,8.847,8.847,0,0,0-4.4,1.146,8.145,8.145,0,0,0-3.138,3.028,8.4,8.4,0,0,0-1.1,4.306,8.291,8.291,0,0,0,2.406,6.139,8.39,8.39,0,0,0,6.183,2.395,9.263,9.263,0,0,0,3.645-.677,11.48,11.48,0,0,0,3.392-2.429l-2.09-2.181a8.791,8.791,0,0,1-2.443,1.824,5.892,5.892,0,0,1-2.453.5,5.783,5.783,0,0,1-2.861-.716,5.047,5.047,0,0,1-1.991-1.973,5.785,5.785,0,0,1-.7-2.877,5.313,5.313,0,0,1,1.59-3.913,5.32,5.32,0,0,1,3.911-1.587" transform="translate(-615.099 -651.527)" fill="#519d21"/>
      <path id="Path_5837" data-name="Path 5837" d="M-517.376,934.806h-3.7l-4.4,5.584v-5.584h-3.116V951h3.116v-7.2l4.994,7.2h3.656l-6.207-8.969Z" transform="translate(-731.643 -654.107)" fill="#519d21"/>
      <path id="Path_5838" data-name="Path 5838" d="M-448.6,901.715h1.545v3.444h.831v-3.444h1.552v-.671H-448.6Z" transform="translate(-800.718 -624.952)" fill="#100e0b"/>
      <path id="Path_5839" data-name="Path 5839" d="M-412.666,901.045l-1.15,2.782c-.059.143-.109.267-.151.373q-.055-.14-.128-.325l-1.137-2.831h-1.11v4.115h.808v-2.895l1.181,2.895h.7l1.188-2.849v2.849h.808v-4.115Z" transform="translate(-828.579 -624.952)" fill="#100e0b"/>
      <path id="Path_5840" data-name="Path 5840" d="M-973.012,233.832c-.1,0-.171.053-.153.137a.43.43,0,0,0,.305.371c.065.015.19-.023.166-.1a.709.709,0,0,0-.319-.408" transform="translate(-347.719 -48.764)" fill="#161615"/>
      <path id="Path_5841" data-name="Path 5841" d="M-1236.766,296.874c-5.726-3.238-11.963-5.1-18.3-6.652a66.5,66.5,0,0,0-7.635-1.536,1.764,1.764,0,0,1-1.75-1.567c-.782-3.869-1.665-7.719-2.553-11.565-.926-4.008-1.927-8-2.853-12.008-1.594-6.9-3.147-13.816-4.732-20.721-1.049-4.57-2.132-9.133-3.183-13.7-.469-2.037-.883-4.086-1.351-6.124-.141-.616.027-.758.641-.681a47.27,47.27,0,0,1,7.325,1.535,98.811,98.811,0,0,1,15.335,5.768c.914.44,1.857.821,2.787,1.229l.092-.22c-.187-.129-.38-.25-.559-.388a91.128,91.128,0,0,0-17.666-11.05,50.1,50.1,0,0,0-13.016-4.172c-1.127-.18-1.2-.128-.932,1q1.978,8.318,3.99,16.628,1.016,4.229,2.024,8.459c.91,3.839,1.8,7.682,2.718,11.52.7,2.951,1.445,5.893,2.145,8.844.9,3.774,1.756,7.557,2.649,11.332.738,3.121,1.5,6.235,2.254,9.353.765,3.179,1.537,6.357,2.281,9.542a.808.808,0,0,0,.963.743,51.1,51.1,0,0,1,8.471.743,88.909,88.909,0,0,1,14.041,2.847,46.741,46.741,0,0,1,10.474,4.284c.694.4,1.379.817,2.068,1.226a19.024,19.024,0,0,0-5.723-4.662" transform="translate(-78.213 -32.448)" fill="#519c21"/>
      <path id="Path_5842" data-name="Path 5842" d="M-816.752,215.017a50.1,50.1,0,0,0-13.017,4.172,91.135,91.135,0,0,0-17.666,11.05c-.179.139-.372.259-.558.389l.092.22c.93-.408,1.873-.789,2.787-1.229a98.823,98.823,0,0,1,15.335-5.768,47.3,47.3,0,0,1,7.325-1.535c.613-.077.782.065.64.681-.468,2.037-.882,4.086-1.351,6.123-1.051,4.57-2.134,9.133-3.183,13.7-1.585,6.905-3.138,13.818-4.732,20.721-.926,4.008-1.927,8-2.853,12.008-.889,3.847-1.771,7.7-2.553,11.565a1.763,1.763,0,0,1-1.75,1.567,66.53,66.53,0,0,0-7.635,1.536c-6.34,1.55-12.576,3.414-18.3,6.652a19.019,19.019,0,0,0-5.723,4.662c.689-.409,1.373-.827,2.068-1.226a46.738,46.738,0,0,1,10.474-4.284,88.908,88.908,0,0,1,14.041-2.847,51.11,51.11,0,0,1,8.471-.743.808.808,0,0,0,.962-.743c.745-3.184,1.516-6.362,2.282-9.542.75-3.118,1.515-6.232,2.254-9.353.893-3.775,1.754-7.557,2.649-11.332.7-2.952,1.441-5.893,2.145-8.844.915-3.838,1.808-7.681,2.718-11.52q1-4.232,2.024-8.459,2-8.314,3.99-16.628c.268-1.125.2-1.177-.932-1" transform="translate(-436.9 -32.448)" fill="#519c21"/>
      <path id="Path_5843" data-name="Path 5843" d="M-925.33,427.252a2.5,2.5,0,0,0,1.1-2.086,2.217,2.217,0,0,0-.779-1.769q-1.6-1.488-3.242-2.928c-.887-.775-1.836-1.479-2.7-2.276a3.18,3.18,0,0,0-4.134.207c-1.788,1.616-3.605,3.2-5.4,4.806a2.4,2.4,0,0,0,.04,3.9c.378.33.719.7,1.092,1.039,1.642,1.48,3.1,3.154,4.814,4.557a2.753,2.753,0,0,0,3.807-.309c1.839-1.674,3.514-3.521,5.405-5.143" transform="translate(-375.092 -207.397)" fill="#ffc200"/>
      <path id="Path_5844" data-name="Path 5844" d="M-842.786,518.331c.131.849.784,1.333,1.283,1.906,1.584,1.818,3.385,3.433,4.967,5.258a2.015,2.015,0,0,0,1.718.767,2.04,2.04,0,0,0,1.71-.682c1.8-1.992,3.612-3.977,5.36-6.016a2.691,2.691,0,0,0,.087-3.6,79.72,79.72,0,0,0-5.469-6.219,2.172,2.172,0,0,0-3.341.107c-1.885,1.952-3.746,3.926-5.611,5.9a2.892,2.892,0,0,0-.7,2.587" transform="translate(-460.268 -286.398)" fill="#e4d400"/>
      <path id="Path_5845" data-name="Path 5845" d="M-863.247,371.27q3.049,2.7,6.115,5.375a3.253,3.253,0,0,0,1.953.716,3,3,0,0,0,1.882-.864c1.356-1.311,2.8-2.521,4.228-3.748a1.761,1.761,0,0,0,.207-2.865,6.226,6.226,0,0,0-.643-.635c-1.688-1.464-3.374-2.93-5.16-4.278a2.933,2.933,0,0,0-3.815-.121c-1.577,1.12-3.124,2.282-4.678,3.433a1.823,1.823,0,0,0-.8,1.62,1.9,1.9,0,0,0,.711,1.367" transform="translate(-442.028 -161.348)" fill="#f17900"/>
      <path id="Path_5846" data-name="Path 5846" d="M-769.657,451.841c1.738,1.948,3.487,3.884,5.176,5.876a1.791,1.791,0,0,0,2.97-.045,60.786,60.786,0,0,0,3.691-5.042,2.526,2.526,0,0,0,.4-1.449,3.322,3.322,0,0,0-.687-1.935c-.55-.686-1.085-1.383-1.654-2.053-1.072-1.263-2.122-2.548-3.26-3.75-.952-1.006-1.915-.918-2.835.116q-1.853,2.082-3.706,4.163a2.8,2.8,0,0,0-.095,4.12" transform="translate(-522.724 -229.165)" fill="#b0c000"/>
      <path id="Path_5847" data-name="Path 5847" d="M-765.343,601.563a1.68,1.68,0,0,0,2.78.1,55.919,55.919,0,0,0,5.082-6.062,2.61,2.61,0,0,0,.216-2.994,49.347,49.347,0,0,0-3.707-5.133,1.853,1.853,0,0,0-3.142,0c-1.737,1.987-3.456,3.989-5.2,5.973a2.669,2.669,0,0,0-.659,1.87,2.308,2.308,0,0,0,.593,1.658c1.355,1.52,2.686,3.061,4.034,4.586" transform="translate(-523.194 -353.409)" fill="#b0c000"/>
      <path id="Path_5848" data-name="Path 5848" d="M-993.9,369.544a1.823,1.823,0,0,0-.8-1.62c-1.555-1.151-3.1-2.313-4.678-3.433a2.933,2.933,0,0,0-3.815.121c-1.786,1.348-3.472,2.813-5.16,4.278a6.223,6.223,0,0,0-.643.635,1.76,1.76,0,0,0,.207,2.865c1.43,1.227,2.872,2.438,4.228,3.748a2.994,2.994,0,0,0,1.882.864,3.254,3.254,0,0,0,1.952-.716q3.072-2.67,6.115-5.375a1.9,1.9,0,0,0,.711-1.367" transform="translate(-316.226 -161.038)" fill="#f17900"/>
      <path id="Path_5849" data-name="Path 5849" d="M-1053.473,343.74c.908.544,1.717,1.222,2.564,1.847a1.558,1.558,0,0,0,1.186.393,3.3,3.3,0,0,0,2.527-1.134c1.64-1.521,3.418-2.872,5.142-4.291,1.118-.921,1.188-2.04-.221-2.6-.7-.277-1.378-.608-2.047-.943a3.114,3.114,0,0,0-3.629.486c-1.738,1.4-3.466,2.816-5.093,4.348a5.232,5.232,0,0,0-.636.741.714.714,0,0,0,.209,1.155" transform="translate(-278.012 -137.539)" fill="#d80c12"/>
      <path id="Path_5850" data-name="Path 5850" d="M-713.69,665.817c.664.913.947.944,1.77.142a60,60,0,0,0,4.766-5.531,2.645,2.645,0,0,0,.665-2.522,17.83,17.83,0,0,0-1.44-3.227,1.139,1.139,0,0,0-1.92-.352,5.527,5.527,0,0,0-.677.7q-2.225,2.654-4.438,5.318a3.259,3.259,0,0,0-.823,2.128,1.554,1.554,0,0,0,.358.974q.878,1.176,1.738,2.365" transform="translate(-569.984 -411.562)" fill="#519c21"/>
      <path id="Path_5851" data-name="Path 5851" d="M-710.246,401.157a15.93,15.93,0,0,0-1.9-2.042c-.732-.6-1.04-.55-1.583.219-.479.677-.958,1.355-1.455,2.019a2.453,2.453,0,0,0,.108,3.463c1.072,1.267,2.146,2.532,3.211,3.8.565.675,1.089,1.385,1.676,2.04a1.259,1.259,0,0,0,2.276-.277c.3-.582.593-1.167.852-1.766a6.826,6.826,0,0,0,.621-1.936,4.229,4.229,0,0,0-.925-2.036c-.949-1.173-1.9-2.341-2.883-3.489" transform="translate(-569.934 -191.143)" fill="#519c21"/>
      <path id="Path_5852" data-name="Path 5852" d="M-1023.176,526.078a2.015,2.015,0,0,0,1.718-.767c1.582-1.825,3.383-3.44,4.967-5.258.5-.573,1.153-1.056,1.283-1.906a2.891,2.891,0,0,0-.7-2.587c-1.865-1.97-3.726-3.945-5.611-5.9a2.172,2.172,0,0,0-3.341-.107,79.725,79.725,0,0,0-5.469,6.219,2.691,2.691,0,0,0,.087,3.6c1.747,2.039,3.558,4.025,5.359,6.017a2.041,2.041,0,0,0,1.71.681" transform="translate(-297.792 -286.24)" fill="#e4d400"/>
      <path id="Path_5853" data-name="Path 5853" d="M-1082.6,449.061a3.322,3.322,0,0,0-.687,1.935,2.525,2.525,0,0,0,.4,1.449,60.773,60.773,0,0,0,3.691,5.042,1.791,1.791,0,0,0,2.97.045c1.689-1.992,3.439-3.927,5.176-5.876a2.8,2.8,0,0,0-.094-4.12l-3.706-4.163c-.92-1.034-1.883-1.122-2.835-.116-1.138,1.2-2.188,2.487-3.26,3.75-.569.67-1.1,1.367-1.654,2.053" transform="translate(-252.621 -229.007)" fill="#b0c000"/>
      <path id="Path_5854" data-name="Path 5854" d="M-1075.271,601.38c1.348-1.526,2.679-3.066,4.034-4.586a2.308,2.308,0,0,0,.593-1.658,2.669,2.669,0,0,0-.659-1.871c-1.74-1.984-3.459-3.986-5.2-5.973a1.853,1.853,0,0,0-3.142,0,49.355,49.355,0,0,0-3.707,5.133,2.61,2.61,0,0,0,.216,2.994,55.907,55.907,0,0,0,5.082,6.062,1.68,1.68,0,0,0,2.78-.1" transform="translate(-252.245 -353.251)" fill="#b0c000"/>
      <path id="Path_5855" data-name="Path 5855" d="M-1110.209,660.246a59.952,59.952,0,0,0,4.766,5.531c.823.8,1.106.771,1.77-.142q.863-1.187,1.738-2.365a1.553,1.553,0,0,0,.358-.974,3.259,3.259,0,0,0-.823-2.128q-2.213-2.664-4.438-5.318a5.5,5.5,0,0,0-.677-.7,1.139,1.139,0,0,0-1.92.353,17.813,17.813,0,0,0-1.439,3.227,2.645,2.645,0,0,0,.665,2.522" transform="translate(-228.706 -411.405)" fill="#519c21"/>
      <path id="Path_5856" data-name="Path 5856" d="M-1103.637,399.151c-.543-.768-.851-.823-1.583-.219a15.925,15.925,0,0,0-1.9,2.042c-.979,1.148-1.934,2.316-2.883,3.489a4.225,4.225,0,0,0-.925,2.036,6.829,6.829,0,0,0,.621,1.936c.26.6.555,1.184.852,1.766a1.259,1.259,0,0,0,2.276.277c.587-.655,1.111-1.365,1.676-2.04q1.6-1.909,3.212-3.8a2.453,2.453,0,0,0,.108-3.463c-.5-.664-.976-1.342-1.455-2.02" transform="translate(-228.753 -190.986)" fill="#519c21"/>
      <path id="Path_5857" data-name="Path 5857" d="M-785.4,342.206c-1.229-1.157-2.515-2.246-3.82-3.314q.425,1.286.853,2.571c.141.422.282.845.432,1.264.114.317.117.321-.207.321h-2.34c-.789,0-1.579-.007-2.368,0-.238,0-.272-.06-.2-.278q.808-2.413,1.6-4.831a.255.255,0,0,1,.289-.2c.174,0,.348.005.522.006a3.071,3.071,0,0,0-3.482-.373c-.669.335-1.351.666-2.047.943-1.41.561-1.34,1.68-.221,2.6,1.723,1.419,3.5,2.771,5.142,4.291a3.3,3.3,0,0,0,2.526,1.133,1.557,1.557,0,0,0,1.186-.392c.847-.625,1.656-1.3,2.563-1.847a.714.714,0,0,0,.209-1.155,5.269,5.269,0,0,0-.636-.741" transform="translate(-499.659 -137.852)" fill="#d80c12"/>
      <path id="Path_5858" data-name="Path 5858" d="M-1023.73,192.275c.224.1.223.024.222-.153,0-.827.009-1.654-.008-2.481a.462.462,0,0,1,.287-.474c.211-.11.419-.223.63-.337h0a27.983,27.983,0,0,1,4.2-1.7c.285-.085.573-.163.861-.239a30.26,30.26,0,0,1,3.955-.767,31.618,31.618,0,0,1,4.28-.249,30.851,30.851,0,0,1,4.85.429c.952.162,1.893.364,2.824.612.777.207,1.541.458,2.3.736a22.146,22.146,0,0,1,3.36,1.555.4.4,0,0,1,.221.4c-.013.846,0,1.691-.007,2.537,0,.177.023.24.214.137.252-.135.522-.235.784-.35q1.637-.716,3.274-1.433c.853-.375,1.705-.753,2.6-1.15-.107-.075-.17-.127-.24-.168q-2.1-1.224-4.209-2.445c-1.562-.911-3.119-1.829-4.68-2.74q-3.107-1.812-6.218-3.616c-1.586-.923-3.188-1.821-4.745-2.789a1.08,1.08,0,0,0-1.325.012c-1.647,1-3.326,1.948-4.991,2.918q-2.247,1.31-4.491,2.626-2.365,1.381-4.731,2.761t-4.758,2.77c-.362.211-.72.428-1.118.665.639.285,1.226.551,1.817.81,1.616.708,3.235,1.409,4.846,2.127" transform="translate(-298.301)" fill="#b0c000"/>
      <path id="Path_5859" data-name="Path 5859" d="M-954.324,259.472q.921-.013,1.842.065a29.889,29.889,0,0,1,3.878.564,23.929,23.929,0,0,1,4.707,1.555c.445.2.875.435,1.3.677.207.119.235.042.235-.141,0-.622,0-1.245,0-1.868,0-1.5,0-2.992,0-4.488a.412.412,0,0,0-.24-.415,20.279,20.279,0,0,0-4.42-1.831,24.963,24.963,0,0,0-3.72-.792,25.894,25.894,0,0,0-3.584-.224,25.9,25.9,0,0,0-3.584.224,24.961,24.961,0,0,0-3.72.792,20.278,20.278,0,0,0-4.42,1.831.412.412,0,0,0-.24.415c.007,1.5,0,2.992,0,4.488,0,.623,0,1.245,0,1.868,0,.184.027.26.234.141.424-.242.854-.477,1.3-.677a23.936,23.936,0,0,1,4.707-1.555,29.9,29.9,0,0,1,3.878-.564q.92-.078,1.842-.065" transform="translate(-353.66 -64.949)" fill="#b0c000"/>
      <path id="Path_5860" data-name="Path 5860" d="M-752.86,288.738a.379.379,0,0,0,.379-.379v-6.043l-1.772.771v5.273a.379.379,0,0,0,.379.379Z" transform="translate(-536.768 -90.633)" fill="#b0c000"/>
    </g>
  </g>
</svg>
