<svg xmlns="http://www.w3.org/2000/svg" width="98.031" height="94.782" viewBox="0 0 98.031 94.782">
  <g id="make-payment-process" transform="translate(-1082 -1560)">
    <path id="newshape" d="M138.865,112.616l-3.974.892a58.022,58.022,0,0,0-8.164,2.249c-7.856,2.687-13.993,5.655-18.14,8.775a31.726,31.726,0,0,0-3.352,2.914,13.244,13.244,0,0,0-2.271,2.455,48.785,48.785,0,0,0-7.229,14.02,23.726,23.726,0,0,0-1.206,6.223c-.227,2.319-.449,4.023-.643,4.958a21.918,21.918,0,0,0-.141,2.649c-.038,1.476-.087,2.406-.141,2.682a22.007,22.007,0,0,0,.011,5.628c.1,1.206.151,2.238.184,3.979a18.135,18.135,0,0,0,.595,5.3,38.6,38.6,0,0,0,3.574,8.716c1.741,3.341,2,3.839,2.384,4.666.227.476.47,1.006.546,1.173a22.93,22.93,0,0,0,2.411,3.747,24.163,24.163,0,0,0,2.655,3.168c3.5,3.5,8.229,5.942,15.652,8.072a31.429,31.429,0,0,0,6.434,1.141c.865.1,2,.276,2.514.378a12.743,12.743,0,0,0,2.433.27c.816.043,1.644.1,1.838.13.454.065,4.855.135,7.7.119a50.807,50.807,0,0,0,12.057-1.114c.33-.076,1.222-.249,1.984-.378a16.762,16.762,0,0,0,3.525-.892,39.461,39.461,0,0,0,9.467-4.444,38.507,38.507,0,0,0,10.376-10.938,29.023,29.023,0,0,0,2.282-3.947c.481-.952,1.195-2.276,1.59-2.947a64.765,64.765,0,0,0,7.029-17.085,6.92,6.92,0,0,0,.276-2.19,13.06,13.06,0,0,1,.249-2.568,9.2,9.2,0,0,0,.092-1.676,16.614,16.614,0,0,0-.427-3.92c-.13-.654-.3-1.617-.378-2.136a12.372,12.372,0,0,0-.692-2.784,60.48,60.48,0,0,0-13.419-21.973,59.871,59.871,0,0,0-6.731-5.893,10.667,10.667,0,0,1-1.465-1.346,23.865,23.865,0,0,0-6.91-5.088,32.883,32.883,0,0,0-12.819-3.331c-.616-.054-1.973-.1-3.271-.108l-2.217-.022-2.136.238Z" transform="translate(988.563 1447.86)" fill="#fdecdc"/>
    <g id="download_28_" data-name="download (28)" transform="translate(1097.953 1574.449)">
      <g id="Group_67" data-name="Group 67">
        <path id="Path_663" data-name="Path 663" d="M19.878,42.888a.5.5,0,0,0,.149-.73c-7.186-9.694.045-22.008,9.457-24.444a.5.5,0,0,0,.374-.452c1.676-25.959.025.026.769-15.268C30.73.081,10.572,3.869,3.105,23.123c-6.79,17.5,5.307,32.188,6.347,30.6a28.412,28.412,0,0,1,3.07-3.3C18.557,43.887,18.862,43.482,19.878,42.888Zm-.967-.57a32.02,32.02,0,0,0-4,4.047l-.1-.1.659-.659a.25.25,0,0,0-.354-.354l-.659.659L13.4,44.856l1-1,1.163,1.163a.25.25,0,0,0,.354-.354L14.754,43.5l1.11-1.11.884.884a.25.25,0,1,0,.354-.354l-2.42-2.42.93-.93,1.171,1.171a.25.25,0,0,0,.354-.354l-1.171-1.171.464-.464a.25.25,0,0,0-.354-.354l-.464.464-1-1,1.038-1.038c.126.126.8.858.961.858.031,0,.055-.024.084-.035A15.733,15.733,0,0,0,18.911,42.318Zm-6.219,2.538c-.281.281-.861.693-.6.954s.673-.319.954-.6L14.1,46.266l-1.056,1.056L11.5,45.778l1.056-1.056Zm1.709-1.71-1.183-1.183,1.11-1.11,1.183,1.183Zm2.067-12.82a2.937,2.937,0,0,0-.3.278l-1.237-1.237.893-.893.889.889C16.629,29.684,16.537,30,16.468,30.326Zm-.187,1.094a15.5,15.5,0,0,0-.152,1.852l-.96-.96,1-1Zm-.145,2.718a14.769,14.769,0,0,0,.383,2.849l-.566-.566a.238.238,0,0,0-.256-.256l-.78-.779C15.015,35.286,16.061,34.256,16.136,34.138Zm2.68-9.53-1.224-1.224L18.775,22.2l1.012,1.012Q19.271,23.888,18.816,24.608Zm-.673.035.4.4q-.405.682-.75,1.4l-.711-.711C17.186,25.634,18.072,24.765,18.143,24.643ZM25.5,17.917a.229.229,0,0,0,.323-.012L27.2,16.527l.652.652a16.448,16.448,0,0,0-2.133.958Zm3.387-1.075c-.174.049-.345.111-.518.166-.078-.109-.711-.732-.815-.835l1.11-1.11c.156.156.218.131.333.068C28.977,15.4,28.9,16.566,28.882,16.842Zm.712-11.024L29.5,5.727l.1-.1C29.6,5.692,29.6,5.761,29.594,5.818ZM29.46,7.926l-.265-.266.3-.3Q29.479,7.641,29.46,7.926Zm-.149,2.308-.387-.387.441-.441Zm-.041.637q-.048.735-.095,1.468l-1.223-1.222a.237.237,0,0,0-.258-.04l.876-.876C28.674,10.305,29.152,10.8,29.27,10.871Zm-.122,1.878q-.054.84-.109,1.681a.225.225,0,0,0-.377-.072l-.913-.914.912-.912C28.841,12.712,28.929,12.874,29.148,12.749Zm-.135,1.959c.007-.007,0-.017.01-.024,0,.011,0,.022,0,.033Zm-.706,0-1.11,1.11L26.176,14.8a.2.2,0,0,0,.259-.039L27.4,13.8Zm1.3-12.176c-.021.811-.006,1.568,0,2.382l-.457.458c-.241-.241-.49-.6-.719-.365s.125.478.366.719L28.5,6.02a.25.25,0,0,0,.177.427c.152,0,.349-.246.469-.366a3.205,3.205,0,0,0,.407.376l-.036.563c-.214-.272-.434.044-.678.287l-.275-.275a.25.25,0,0,0-.354.354l.275.275c-.27.27-.781.629-.528.882s.611-.258.882-.528l.576.576-.006.1c-.122.069-.742.707-.841.806-.273-.273-.646-.8-.9-.546s.273.627.546.9L27.166,10.9a.25.25,0,0,0,.177.427.273.273,0,0,0,.217-.114.237.237,0,0,0,.04.258l.709.709-.911.912c-.223-.223-.442-.533-.665-.311s.088.442.311.665l-.962.962a.235.235,0,0,0-.039.258c-.21-.21-.4-.471-.612-.258a.25.25,0,0,0,0,.354l1.414,1.414-1.378,1.378a.243.243,0,0,0-.012.323l-.525-.525,1.077-1.077a.25.25,0,1,0-.354-.354L24.576,17l-1.363-1.363a.24.24,0,0,0-.381.288l-1.725,1.725c-.237-.237-.5-.619-.737-.384a.25.25,0,0,0,0,.354l.384.384-1.128,1.128L19.5,19a.25.25,0,0,0-.354.354l.131.131-.528.528a.25.25,0,0,0,0,.354.251.251,0,0,0,.354,0l.528-.528,1.388,1.388a.25.25,0,0,0,.354-.354l0,0c.13-.057,1.093-1.045,1.2-1.15a.229.229,0,0,0,.261-.261l1.752-1.752.685.685A18.535,18.535,0,0,0,20.1,22.821l-.969-.969.935-.935a.25.25,0,1,0-.354-.354l-.935.935-.438-.438a.25.25,0,0,0-.354.354l.438.438-1.377,1.377a.25.25,0,0,0,0,.354.241.241,0,0,0,.146.06,5.457,5.457,0,0,0,.634.683c-.121.07-.991.958-1.091,1.057-.314-.314-.669.038-.354.354l-.854.854a.25.25,0,1,0,.354.354l.854-.854.842.842a10.532,10.532,0,0,0-.7,1.886l-.7-.7.836-.836a.25.25,0,0,0-.354-.354l-.836.836-.42-.42a.25.25,0,0,0-.354.354l.42.42-1,1a.242.242,0,0,0-.018.311.236.236,0,0,0,.054.224l1.305,1.305-1,1-.13-.13a.25.25,0,0,0-.354.354l.13.13-.818.817a.25.25,0,0,0,0,.354.247.247,0,0,0,.177.073A.251.251,0,0,0,14,33.488l.818-.817,1.1,1.1a11.24,11.24,0,0,0-1.355,1.264l-.6-.6a.25.25,0,0,0-.354.354l.6.6-.564.564a.25.25,0,0,0,0,.354.251.251,0,0,0,.354,0l.564-.564.731.731-1.038,1.038-.582-.582a.25.25,0,1,0-.354.354l.582.582-.51.51a.25.25,0,0,0,0,.354.251.251,0,0,0,.354,0l.51-.51,1,1-.93.93-.944-.944a.25.25,0,1,0-.354.354l.944.944-1.243,1.243c-.1.056-.021-.034-.088.089l-.443.435a.25.25,0,0,0,.177.427c.154,0,.369-.266.488-.385L14.048,43.5l-1,1-1-1a.25.25,0,0,0-.354.354l.51.51-1.056,1.056a.25.25,0,1,0-.354.353L8.621,47.95a.25.25,0,0,0,.354.354l.748-.748a4.337,4.337,0,0,0,.71.789l-.948.948-.763-.763a.25.25,0,1,0-.354.354l.763.763-.821.819-.637-.636a.25.25,0,0,0-.354.354l.636.637-.238.238C-7.12,31.34,9.156,5.095,29.607,2.533ZM22.515,19.055,21.459,18l1.7-1.706,1.056,1.056Zm-1.458,1.5-1.08-1.08L21.1,18.352l1.056,1.056C22.056,19.514,21.115,20.43,21.057,20.56ZM9,52.647c-.337-.392-.65-.794-.963-1.2l.277-.277a7.7,7.7,0,0,0,1.1,1.009C9.268,52.337,9.122,52.485,9,52.647Zm.666-.757a8.951,8.951,0,0,0-1-1.07L9.484,50c.12.12.91.972,1.08.967Q10.111,51.405,9.662,51.89ZM10.8,50.729c.008-.177-.828-.946-.966-1.084l.948-.948,1.024,1.024C11.506,50.051,11.136,50.411,10.8,50.729Zm1.346-1.375-1.01-1.01c.28-.28.862-.693.6-.955s-.674.321-.955.6A4.272,4.272,0,0,0,10,47.28l1.15-1.149,1.545,1.544-.854.853a.25.25,0,0,0,.354.354l.854-.854a.223.223,0,0,0,.311.018Zm1.27-1.377a.241.241,0,0,0-.021-.3l1.056-1.056.114.114C14.207,47.126,13.819,47.545,13.42,47.977Z" fill="#232221"/>
      </g>
      <g id="Group_68" data-name="Group 68">
        <path id="Path_664" data-name="Path 664" d="M36.2,17.62C42.11,18.942,46.887,24,48.368,30.5c.177.788,1.132.423,15.634.2a.5.5,0,0,0,.485-.582C62.036,15.242,50.8,3.524,37.164,1.619a.5.5,0,0,0-.567.541,92.638,92.638,0,0,1-.782,14.909A.5.5,0,0,0,36.2,17.62Zm13.18,12.273.75-.75.771.771C50.343,29.923,50.091,29.9,49.381,29.893ZM52.8,26.474a7.776,7.776,0,0,0,.761.81l-1.194,1.194-.785-.785Zm2.575-.3.679.679-1.108,1.108-.678-.678Zm-.783,2.14c-.28.28-.858.689-.6.95s.671-.317.95-.6c.117.117.559.616.72.616a.251.251,0,0,0,.177-.427l-.543-.543,1.108-1.108.764.764-1.542,1.542a.242.242,0,0,0-.015.317l-2.1.036a.237.237,0,0,0-.032-.276l-.76-.76,1.194-1.194Zm3.557-2.848.764.764L57.526,27.62l-.764-.764Zm.294,4.317-2.417.04,1.5-1.5L58.7,29.5A1.5,1.5,0,0,0,58.443,29.785Zm-.564-1.812,1.387-1.388,1.173,1.172-1.388,1.388Zm-5.866.859-.743.743-.785-.785.743-.743ZM51.651,29.9l.716-.716.691.691Zm8.021-.135-.267-.267,1.388-1.388.7.7c-.255.255-.69.557-.447.8s.565-.212.824-.471a.223.223,0,0,0,.306-.306l.848-.848c.133.571.272,1.139.378,1.721Zm2.5-3.033a.242.242,0,0,0,.156-.418l-.836-.836a4.213,4.213,0,0,0,.644-.71c.3.9.556,1.811.785,2.739-.182-.011-.931.807-1.073.949l-.7-.7Zm-.424-3.018-.88-.88.4-.4C61.436,22.858,61.589,23.288,61.746,23.715ZM37.634,2.7c10.284,1.673,19.081,9.135,23.433,19.273a3.588,3.588,0,0,0-.555.507c-.255-.255-.557-.69-.8-.447s.192.545.447.8l-.49.49a.25.25,0,0,0,.177.427c.161,0,.552-.448.666-.563l1.157,1.157a.228.228,0,0,0,.32.014c.018.052.04.1.058.153a.243.243,0,0,0-.315.016l-.6.6-.984-.984a.25.25,0,0,0-.354.354l.984.984-.382.382a.25.25,0,0,0,.177.427c.154,0,.439-.336.559-.455l.614.614-.958.958-1.173-1.172c.277-.277.832-.67.574-.928s-.651.3-.928.574l-1.006-1.006a.243.243,0,0,0-.416.2c-.108.092-1.328,1.317-1.437,1.426l-.941-.941a.238.238,0,0,0-.4.244c-.118.075-1.055,1.027-1.154,1.126a7.884,7.884,0,0,0-.81-.761l.148-.148a.25.25,0,0,0-.354-.354L51.224,27.34a.251.251,0,1,0-.354.354l-.743.743-.64-.64a.25.25,0,0,0-.354.354l.64.64-.654.654c-1.73-6.311-6.439-11.2-12.263-12.693A100.456,100.456,0,0,0,37.634,2.7Z" fill="#232221"/>
      </g>
      <g id="Group_69" data-name="Group 69">
        <path id="Path_665" data-name="Path 665" d="M64.434,36.205c-1.078.042-14.948.41-15.338.414-.243,0-.451.007-.492.246-1.839,10.516-16.712,14.473-25.041,8.589-.13-.092-.3-.032-.449.019a.564.564,0,0,0-.316.368c-.816,2.651-5.988,9.525-9.443,11.344a.515.515,0,0,0-.069.857c19,14.414,51.107,3.3,51.669-21.326A.5.5,0,0,0,64.434,36.205ZM23.52,46.632c8.666,5.625,23.714,1.7,25.991-9.191,2.127-.054,11.8-.221,14.426-.3-.031.739-.1,1.507-.187,2.225l-.986-.964a.25.25,0,0,0-.354.011c-.262.262.306.666.578.939l-.858.86a.228.228,0,0,0-.264.265l-.348.348a.25.25,0,0,0,.354.354l.3-.3a13.28,13.28,0,0,0,1.13,1.075,24.517,24.517,0,0,1-1.6,4.777c-.005-.152-.327-.426-.445-.544.277-.277-.076-.631-.354-.354l-.752-.752a.317.317,0,0,0-.62,0l-2.956,2.957a.25.25,0,0,0,0,.354.251.251,0,0,0,.354,0l1.348-1.348c-.189.262.307.611.558.862l-.75.75a.25.25,0,0,0,0,.354.251.251,0,0,0,.354,0l.75-.75.888.888a.247.247,0,0,0,.177.073.25.25,0,0,0,.177-.427l-.888-.889,1.362-1.362c.236.236.46.6.711.383a24.32,24.32,0,0,1-2.229,3.844l-.256-.256.305-.305a.25.25,0,0,0-.354-.354l-.305.305-1.505-1.505A.25.25,0,1,0,56.92,49L58.425,50.5,57.3,51.626l-.642-.642.821-.821a.25.25,0,0,0-.354-.354l-.821.821-.338-.338a.25.25,0,0,0-.354.354l.338.338-1.6,1.6-.921-.921a.25.25,0,0,0-.354.354l.921.921L52.977,53.96l-1.333-1.333a.25.25,0,0,0-.354.354l.51.51-1.568,1.568-.578-.578a.25.25,0,0,0-.354.354l.578.578-1.946,1.945-1.093-1.093a.25.25,0,0,0-.354.354l1.093,1.093-.882.882-.916-.916.4-.4a.25.25,0,0,0-.354-.354l-.4.4-.51-.51a.25.25,0,0,0-.354.354l.51.51L43.4,59.349l-1.4-1.4.67-.67a.25.25,0,1,0-.354-.354l-2.695,2.695c-.259-.259-.582-.722-.829-.475s.216.57.475.829l-1.156,1.156L36.69,59.7l1.622-1.622a.25.25,0,0,0-.354-.354l-1.622,1.622c-.214-.214-.409-.483-.623-.269s.055.409.269.623l-1.534,1.534L33.39,60.176a.238.238,0,0,0-.2-.063l1.151-1.151a.25.25,0,1,0-.354-.354l-2.66,2.66-.681-.681a.25.25,0,0,0-.354.354l.681.681-1.26,1.259-1.4-1.4,2.178-2.178a.25.25,0,1,0-.354-.354L27.961,61.13c-.32-.32-.678.029-.354.354l-.779.779-.916-.916,1.856-1.856a.25.25,0,0,0-.354-.354l-1.856,1.856c-.32-.32-.678.029-.354.353l-.964.964c-.076-.021-.151-.046-.227-.067a.235.235,0,0,0-.049-.236l-.867-.866,2.058-2.058a.25.25,0,0,0-.354-.354l-2.058,2.058-.813-.813.951-.951a.25.25,0,0,0-.354-.354L20.58,60.616,19.424,59.46l1.382-1.382a.25.25,0,0,0-.354-.354L19.07,59.106l-.235-.235a.25.25,0,0,0-.354.354l.235.235-.518.517c-.384-.2-.763-.409-1.139-.625l.157-.157c.116.116.477.532.636.532a.251.251,0,0,0,.177-.427l-.459-.459L19.3,57.108a.25.25,0,1,0-.354-.354l-1.733,1.733-.372-.372a.25.25,0,0,0-.354.354l.372.372-.246.246c-.728-.435-1.442-.981-2.133-1.478C17.884,55.4,22.255,49.59,23.52,46.632Zm39.9-5.222-.893-.893.813-.814.319.318C63.593,40.49,63.515,40.953,63.422,41.41Zm-3.58,4.059.71.71L59.19,47.541,58.646,47a.242.242,0,0,0-.318-.014Zm-1.748,6.948-.438-.438,1.122-1.122c.006.006.3.3.307.306Q58.612,51.8,58.094,52.417Zm-5.528,4.972-1.155-1.155,1.568-1.568c.1.1,1.286,1.294,1.4,1.38C53.8,56.511,53.192,56.957,52.566,57.389ZM50.588,55.41l1.568-1.568.47.47L51.058,55.88Zm.116.824-1.945,1.945-.47-.47,1.946-1.945Zm3.554-1c.009,0,.016.011.026.011a.249.249,0,0,0,.177-.073l.887-.887c.117.117.393.439.543.449q-.561.522-1.157,1.021A3.5,3.5,0,0,0,54.258,55.238Zm-.151-.416a.239.239,0,0,0-.063.2l-.712-.712,1.019-1.019.642.642Zm.6-1.882,1.6-1.6.642.642-1.6,1.6ZM44.664,60.627c-.076-.109-.8-.824-.9-.927l1.671-1.671.916.916Zm-4.313,2.026a35.078,35.078,0,0,1-7.255.8.2.2,0,0,0,.08-.284c.129-.06,1.168-1.123,1.273-1.228a11.406,11.406,0,0,0,1.473,1.369.251.251,0,0,0,.177-.427l-1.3-1.3,1.534-1.534,1.431,1.431-1.23,1.23a.25.25,0,0,0,.354.354l1.23-1.23.541.541a.251.251,0,0,0,.354,0,.25.25,0,0,0,0-.354l-.541-.541,1.156-1.156,1.4,1.4-.646.646A.234.234,0,0,0,40.351,62.653Zm-10.186.68-.1-.1,1.259-1.259c.1.1,1.387,1.4,1.507,1.48C31.94,63.452,31.05,63.406,30.165,63.333Zm-5.355-.882.75-.751.916.916-.175.175C25.8,62.69,25.3,62.575,24.81,62.451Zm2.374.166.779-.779L29.4,63.271c-.639-.067-1.274-.157-1.9-.26C27.473,62.869,27.3,62.73,27.184,62.617Zm5.853-2.088,1.058,1.058c-.1.1-1.131,1.118-1.213,1.237l-1.2-1.2,1.294-1.294A.242.242,0,0,0,33.037,60.529Zm8.343.842-1.4-1.4L41.654,58.3l1.4,1.4Zm-20.615-.228.815-.815.813.813-.445.445C21.551,61.445,21.155,61.3,20.765,61.143Zm1.982.352.53.53c-.27-.082-.54-.163-.807-.252Zm-4.068-1.286.4-.4,1.067,1.068A14.456,14.456,0,0,1,18.679,60.209Zm22.255,2.315L43.4,60.053c.1.1.816.826.927.9l-.109.109a.25.25,0,0,0,0,.354.251.251,0,0,0,.354,0L46.7,59.3l.722.722a.251.251,0,0,0,.354,0,.25.25,0,0,0,0-.354l-.722-.722.882-.882.47.47-.27.27a.25.25,0,0,0,0,.354.251.251,0,0,0,.354,0l.27-.27c.217.217.429.51.646.293a.25.25,0,0,0,0-.354l-.293-.293,1.945-1.945,1.087,1.088A33.854,33.854,0,0,1,40.934,62.524Zm15.22-8.034c0-.154-.335-.436-.453-.555l1.6-1.6.464.464C57.256,53.377,56.724,53.945,56.154,54.49Z" fill="#232221"/>
      </g>
      <g id="Group_70" data-name="Group 70">
        <path id="Path_666" data-name="Path 666" d="M60.706,44.057l.475-.475c.126.126.874.931,1.035.931a.251.251,0,0,0,.177-.427l-.858-.857.893-.893a.25.25,0,1,0-.354-.354l-.986.986c-.126.033-.135.041-.167.167l-.568.568a.25.25,0,1,0,.353.354Z" fill="#232221"/>
      </g>
      <g id="Group_71" data-name="Group 71">
        <path id="Path_667" data-name="Path 667" d="M46.081,8.924l-.74,1.251a.25.25,0,1,0,.43.255l.75-1.269a18.082,18.082,0,0,1,2.12,1.392,6.893,6.893,0,0,1-.751,1.041.25.25,0,0,0,.375.331,7.366,7.366,0,0,0,.774-1.055,18.149,18.149,0,0,1,1.646,1.5l-.64.839a.25.25,0,0,0,.4.3l.592-.777a17.8,17.8,0,0,1,1.4,1.736l-.957,1.063a.25.25,0,0,0,.372.335l.875-.973a17.119,17.119,0,0,1,1.092,1.887,7.72,7.72,0,0,1-1.032,1,.25.25,0,0,0,.155.446c.211,0,.976-.794,1.118-.95.122.269.242.539.349.815a.251.251,0,0,0,.467-.182c-.142-.366-.3-.725-.468-1.08.157-.2.325-.386.465-.6a.25.25,0,0,0-.418-.273c-.089.135-.2.252-.3.381a17.342,17.342,0,0,0-1.087-1.832c.235-.261.619-.56.37-.784s-.442.119-.659.359a18.457,18.457,0,0,0-1.439-1.759c.247-.324.8-.844.5-1.068s-.615.394-.853.707a18.948,18.948,0,0,0-1.722-1.556c.112-.215.236-.423.327-.65a.251.251,0,0,0-.465-.187c-.073.181-.174.345-.261.518a18.818,18.818,0,0,0-2.1-1.367l.634-1.073a.25.25,0,0,0-.43-.254l-.644,1.09a17.819,17.819,0,0,0-2.459-1.076l.437-.813a.25.25,0,0,0-.441-.236l-.482.9a16.3,16.3,0,0,0-1.6-.426.25.25,0,0,0-.1.489c.492.1.976.237,1.457.385-.27.5-.87,1.358-.311,1.358a.252.252,0,0,0,.221-.132l.577-1.073A17.351,17.351,0,0,1,46.081,8.924Z" fill="#232221"/>
      </g>
      <g id="Group_72" data-name="Group 72">
        <path id="Path_668" data-name="Path 668" d="M30.177,54.144a20.017,20.017,0,0,0,2.9.261l.237,1.422a.249.249,0,1,0,.492-.082l-.221-1.323a20.07,20.07,0,0,0,2.736-.2,3.328,3.328,0,0,0,.706.8.25.25,0,0,0,.309-.393,2.789,2.789,0,0,1-.48-.5,20.326,20.326,0,0,0,3.042-.752c.154.3.288.732.583.581.279-.145.044-.458-.107-.748a20.29,20.29,0,0,0,2.649-1.179c.193.45.456.9.993.9a1.134,1.134,0,0,0,.2-.018.249.249,0,0,0,.2-.29.254.254,0,0,0-.29-.2c-.3.052-.458-.159-.657-.626a20.228,20.228,0,0,0,3.005-2.078c.118.2.322.679.537.679a.25.25,0,0,0,.217-.375l-.363-.628a20.279,20.279,0,0,0,1.531-1.5c.118.222.267.628.483.628a.25.25,0,0,0,.221-.367l-.344-.65a20.289,20.289,0,0,0,1.45-1.881c.117.135.241.33.4.33a.25.25,0,0,0,.188-.414l-.3-.339q.365-.564.7-1.156a.25.25,0,0,0-.438-.243c-.191.343-.4.67-.608,1l-.34-.391a.25.25,0,0,0-.377.328l.437.5a19.818,19.818,0,0,1-1.37,1.783c-.176-.331-.364-.91-.677-.743a.25.25,0,0,0-.1.338l.432.815A19.547,19.547,0,0,1,46.6,48.945c-.192-.332-.417-.934-.724-.752s.139.741.339,1.086a19.741,19.741,0,0,1-2.945,2.058,1.491,1.491,0,0,0-.805-.932.25.25,0,0,0-.16.474c.236.08.388.372.522.692a19.78,19.78,0,0,1-2.692,1.193l-.653-1.259a.25.25,0,0,0-.443.23l.62,1.194a19.7,19.7,0,0,1-3.1.751,3.132,3.132,0,0,1-.314-1.2.3.3,0,0,0-.264-.292c-.461,0-.118,1.115.071,1.535A19.561,19.561,0,0,1,33.5,53.9l-.224-1.338a.25.25,0,0,0-.492.087l.209,1.252a19.6,19.6,0,0,1-2.73-.254.25.25,0,0,0-.082.493Z" fill="#232221"/>
      </g>
    </g>
  </g>
</svg>
