<svg xmlns="http://www.w3.org/2000/svg" width="49.398" height="61.484" viewBox="0 0 49.398 61.484">
  <g id="notification-icon2" transform="translate(-2828.374 -798.577)">
    <path id="Path_78920" data-name="Path 78920" d="M2853.065,848.126c-6.711,0-13.423-.084-20.132.031-4.152.071-5.144-3.468-4.263-6.024a6.292,6.292,0,0,1,2.244-3.032c.6-.449,1.2-.892,1.8-1.338a7.037,7.037,0,0,0,2.94-5.628c.169-4.2.06-8.4.066-12.6a13.656,13.656,0,0,1,5.383-11.1,19.231,19.231,0,0,1,5.813-3.152,5.411,5.411,0,0,1,.621-.188,1.588,1.588,0,0,0,1.291-1.681c.016-.338.015-.676.024-1.014a3.533,3.533,0,0,1,2.641-3.553,4.806,4.806,0,0,1,4.351.59,2.86,2.86,0,0,1,1.4,2.556c-.136,1.949.607,2.906,2.548,3.554a15.409,15.409,0,0,1,9.242,7.732,12.611,12.611,0,0,1,1.385,5.707c.018,3.838.013,7.676.006,11.515a16.518,16.518,0,0,0,.19,2.668,6.932,6.932,0,0,0,2.852,4.612c.64.473,1.3.924,1.914,1.426a5.694,5.694,0,0,1,2.332,5.446,3.763,3.763,0,0,1-4.077,3.474q-7.134.014-14.267,0Z" fill="#464646"/>
    <path id="Path_78921" data-name="Path 78921" d="M2853.066,852c2.627,0,5.255.015,7.882-.012.528-.005.714.1.66.67a7.828,7.828,0,0,1-4.484,6.388c-4.867,2.627-11.162-.087-12.412-5.323-.412-1.723-.412-1.723,1.34-1.723Z" fill="#464646"/>
  </g>
</svg>
