<svg xmlns="http://www.w3.org/2000/svg" width="78.209" height="85.315" viewBox="0 0 78.209 85.315">
  <g id="notification" transform="translate(-2536.324 -1038.427)">
    <path id="Path_78917" data-name="Path 78917" d="M2570,1123.742c-1.137-.466-2.361-.642-3.5-1.139a13.387,13.387,0,0,1-7.629-9.525h.82c8.129,0,16.259.015,24.389-.022.878-.005.861.269.646.928-1.765,5.425-5.4,8.687-11.067,9.609-.06.01-.108.1-.161.149Z" fill="#fff"/>
    <path id="Path_78918" data-name="Path 78918" d="M2571.89,1109.537q-14.247,0-28.493,0a7.718,7.718,0,0,1-4.062-1.012,6.072,6.072,0,0,1-.885-9.861,25.146,25.146,0,0,0,6.661-9.024,23.834,23.834,0,0,0,1.9-9.391c0-3.332-.025-6.665.008-10a24.847,24.847,0,0,1,17.344-23.547,25.706,25.706,0,0,1,9.115-1.129c.7.031.758.188.5.8a23.714,23.714,0,0,0,.218,20.147c4.023,8.5,10.851,13.294,20.211,14.429.221.026.444.039.662.078.569.1,1.341-.217,1.667.18.307.373.17,1.108.235,1.683a23.338,23.338,0,0,0,7.941,15.36c2.377,2.11,3.113,4.649,2.13,7.216a6.616,6.616,0,0,1-6.4,4.06c-7.47.017-14.941.006-22.411.006Z" fill="#fff"/>
    <path id="Path_78919" data-name="Path 78919" d="M2614.533,1056.216a17.765,17.765,0,1,1-17.762-17.789A17.725,17.725,0,0,1,2614.533,1056.216Z" fill="#cdeb8b"/>
  </g>
</svg>
