<svg xmlns="http://www.w3.org/2000/svg" width="79.617" height="25.229" viewBox="0 0 79.617 25.229">
  <path id="paytm" d="M275.535,154.13c-.886-.012-1.084-.216-1.085-1.113q-.009-6.941-.008-13.884c0-1.015.006-1.015-.971-1.016-1.992,0-1.992,0-1.992-2,0-.7.009-1.4,0-2.094s.265-1.054,1-1.068a4.821,4.821,0,0,0,4.26-2.387,3.666,3.666,0,0,1,1.523-1.5c.788-.363,1.268-.077,1.281.776.013.879.016,1.757,0,2.636-.008.363.107.51.486.489.322-.018.644-.013.97-.008.169,0,.337,0,.506,0a.762.762,0,0,1,.87.849c.008,1.137.012,2.275.005,3.412a.788.788,0,0,1-.913.894h-.156c-1.74.028-1.74.028-1.74,1.8v6.05q0,3.529,0,7.058c0,.925-.176,1.1-1.085,1.1q-.806.007-1.612.008Q276.2,154.139,275.535,154.13Zm-16.88-.062c-.961,0-1.177-.226-1.18-1.194s.019-1.967,0-2.95c-.018-.725.32-1.046,1.023-1.047,1.554,0,3.108-.023,4.662-.022.6,0,1.145-.114,1.144-.836s-.551-.825-1.148-.834c-.277,0-.555,0-.832,0a9.827,9.827,0,0,1-2.569-.193,4.823,4.823,0,0,1-3.814-4.535c-.1-2.87-.044-5.741-.047-8.611a.8.8,0,0,1,.923-.892c.5,0,1.009,0,1.513,0,.557,0,1.113,0,1.672,0,.828.008,1.064.24,1.068,1.064.009,2.2,0,4.4.007,6.6,0,1.16.2,1.366,1.331,1.373,1.835.011,1.875-.029,1.875-1.846,0-2.018,0-4.036,0-6.054,0-.949.191-1.128,1.144-1.136q1.4-.011,2.8,0c1.042,0,1.23.187,1.23,1.211q0,3.726,0,7.451c0,2.329.013,4.657,0,6.985-.024,3.371-2.129,5.448-5.51,5.464q-1.32.005-2.641.005t-2.641,0Zm37.765-.017c-.855,0-1.709,0-2.564,0-.966,0-1.2-.248-1.2-1.275q-.009-6.561-.013-13.118c0-1.153-.449-1.667-1.442-1.7-1.177-.032-1.693.477-1.693,1.688q0,6.561,0,13.118c0,1.054-.152,1.2-1.217,1.211h-1.23c-.574,0-1.148,0-1.722.005-.67.006-1-.275-1-.976q.009-9.549-.005-19.1c0-.686.316-1.017.971-1.026.581-.009,1.161-.007,1.742-.005.507,0,1.014,0,1.523,0,.685-.008.914.435,1,1.073a5.6,5.6,0,0,1,5.418-.856,4.5,4.5,0,0,1,1.52.909c.312.277.508.275.847.012,2.318-1.8,5.872-1.023,7.753.667a4.987,4.987,0,0,1,1.073,2.452,40.69,40.69,0,0,1,0,4.445v11.649c0,.234-.46.535-.46.766-.325,0-3.289-.012-3.616-.015-.879-.008-1.089-.217-1.093-1.113q-.014-6.638-.018-13.273c0-1.176-.463-1.651-1.56-1.646s-1.565.493-1.566,1.649q0,6.522,0,13.041c0,1.207-.191,1.414-1.384,1.414Zm-69.169-.059c-.728.021-.613-.718-.613-1.063V132.954c2.136,0,5.214,0,7.354.006,3.124.016,5,1.837,5.054,4.937.029,1.862.059,3.729-.054,5.585a4.459,4.459,0,0,1-4.481,4.276c-1.06.04-2.124.04-3.184.006-.488-.014-.612.147-.6.615.024,1.5.008,3,0,4.5,0,.934-.248,1.163-1.217,1.168h-.013C229.184,154.045,227.524,153.993,227.252,153.993Zm3.474-15.267c.042.538.009,1.081.008,1.624,0,.566.016,1.134,0,1.7-.014.371.055.579.5.551.327-.022.656-.018.985-.013.24,0,.479.006.718,0a.848.848,0,0,0,.917-.923c.015-.849.008-1.7,0-2.552a.879.879,0,0,0-.957-.971c-.22-.008-.44,0-.66,0-.3,0-.592.008-.887-.012q-.059,0-.117,0c-.377,0-.539.152-.506.6ZM245.5,153.955c-3.3-.022-5.141-1.858-5.17-5.145-.013-1.369-.029-2.742.016-4.11a4.927,4.927,0,0,1,5.088-4.869c.749-.019,1.5-.023,2.251,0,.673.02,1.026-.271,1.051-.942s-.308-1.006-1.063-1.015c-.736-.009-1.474-.007-2.211,0-.609,0-1.217,0-1.826,0-1.012-.006-1.22-.224-1.224-1.238,0-.9,0-1.809,0-2.715,0-.547.219-.945.793-.934.721.013,1.443,0,2.168-.022a24.681,24.681,0,0,1,4.5.166,4.478,4.478,0,0,1,4.069,4.456c.016.179.042.36.043.541v6.671h.009c0,2.249.013,4.5,0,6.747-.013,1.667-.767,2.407-2.431,2.412q-1.719.006-3.437.008-1.309,0-2.62-.008Zm.133-8.686a1.3,1.3,0,0,0-.05.534c0,.466,0,.931,0,1.4,0,2.167.048,2.206,2.221,2.105a.888.888,0,0,0,.974-1.026c-.008-.438,0-.879,0-1.318s0-.879,0-1.318c.009-.592-.281-1.008-.858-.963a3.6,3.6,0,0,1-.662-.036,4.761,4.761,0,0,0-.527-.04,1.1,1.1,0,0,0-1.095.664Z" transform="translate(-226.632 -128.91)" fill="#fff"/>
</svg>
