<svg xmlns="http://www.w3.org/2000/svg" width="50.001" height="41.576" viewBox="0 0 50.001 41.576">
  <g id="pharma-companies" transform="translate(-45 -665)">
    <rect id="Rectangle_7637" data-name="Rectangle 7637" width="30.227" height="33.536" transform="translate(49.199 671.938)" fill="#c3d9ff"/>
    <rect id="Rectangle_7638" data-name="Rectangle 7638" width="18.583" height="16.374" transform="translate(49.199 681.409)" fill="#cdeb8b"/>
    <path id="Path_77391" data-name="Path 77391" d="M75.175,257.344h-7.04a1.156,1.156,0,1,1,0-2.313h7.04a1.156,1.156,0,0,1,0,2.313Z" transform="translate(-15.438 430.663)" fill="#4096ee"/>
    <path id="Path_77392" data-name="Path 77392" d="M175.743,257.344a1.138,1.138,0,0,1-.225-.023,1.167,1.167,0,0,1-.216-.066,1.146,1.146,0,0,1-.2-.106,1.122,1.122,0,0,1-.319-.319,1.14,1.14,0,0,1-.106-.2,1.172,1.172,0,0,1-.066-.216,1.116,1.116,0,0,1,0-.452,1.2,1.2,0,0,1,.066-.216,1.18,1.18,0,0,1,.106-.2,1.112,1.112,0,0,1,.143-.176,1.182,1.182,0,0,1,.176-.145,1.139,1.139,0,0,1,.2-.106,1.171,1.171,0,0,1,.216-.066,1.144,1.144,0,0,1,.452,0,1.223,1.223,0,0,1,.216.066,1.158,1.158,0,0,1,.626.626,1.2,1.2,0,0,1,.066.216,1.174,1.174,0,0,1,0,.452,1.167,1.167,0,0,1-.066.216,1.147,1.147,0,0,1-.106.2,1.182,1.182,0,0,1-.145.176,1.105,1.105,0,0,1-.176.143,1.172,1.172,0,0,1-.2.106,1.224,1.224,0,0,1-.216.066A1.153,1.153,0,0,1,175.743,257.344Z" transform="translate(-112.537 430.663)" fill="#4096ee"/>
    <path id="Path_77393" data-name="Path 77393" d="M110.7,313.592h-7.04a1.156,1.156,0,0,1,0-2.313h7.04a1.156,1.156,0,0,1,0,2.313Z" transform="translate(-47.494 379.908)" fill="#4096ee"/>
    <path id="Path_77394" data-name="Path 77394" d="M68.137,313.592a1.159,1.159,0,0,1-.227-.023,1.222,1.222,0,0,1-.216-.066,1.181,1.181,0,0,1-.2-.106,1.111,1.111,0,0,1-.176-.143,1.164,1.164,0,0,1-.317-.592,1.232,1.232,0,0,1-.022-.225,1.245,1.245,0,0,1,.022-.227,1.194,1.194,0,0,1,.066-.216,1.158,1.158,0,0,1,.626-.626,1.225,1.225,0,0,1,.216-.066,1.144,1.144,0,0,1,.452,0,1.168,1.168,0,0,1,.216.066,1.146,1.146,0,0,1,.2.106,1.186,1.186,0,0,1,.176.145,1.163,1.163,0,0,1,.339.818,1.139,1.139,0,0,1-.023.225,1.167,1.167,0,0,1-.066.216,1.187,1.187,0,0,1-.106.2,1.122,1.122,0,0,1-.319.319,1.141,1.141,0,0,1-.2.106,1.17,1.17,0,0,1-.216.066A1.131,1.131,0,0,1,68.137,313.592Z" transform="translate(-15.44 379.908)" fill="#4096ee"/>
    <rect id="Rectangle_7639" data-name="Rectangle 7639" width="36.312" height="9.251" transform="translate(46.156 666.156)" fill="#c3d9ff"/>
    <path id="Path_77395" data-name="Path 77395" d="M259.6,372.819h0a4.323,4.323,0,0,1,4.323-4.323h7.22a4.323,4.323,0,0,1,4.323,4.323h0a4.323,4.323,0,0,1-4.323,4.323h-7.22A4.323,4.323,0,0,1,259.6,372.819Z" transform="translate(-189.244 328.278)" fill="#c3d9ff"/>
    <path id="Path_77396" data-name="Path 77396" d="M348.187,275.541h0a4.323,4.323,0,0,0,1.582,5.905l6.252,3.61a4.323,4.323,0,0,0,5.905-1.582h0a4.323,4.323,0,0,0-1.582-5.905l-6.252-3.61A4.323,4.323,0,0,0,348.187,275.541Z" transform="translate(-268.661 414.107)" fill="#cdeb8b"/>
    <path id="Path_77397" data-name="Path 77397" d="M47.262,68.8l-6.252-3.61a5.443,5.443,0,0,0-4.158-.547,5.518,5.518,0,0,0-1.27.516V54.7h1.886a1.156,1.156,0,0,0,1.156-1.156V44.287a1.156,1.156,0,0,0-1.156-1.156H1.156A1.156,1.156,0,0,0,0,44.287v9.251A1.156,1.156,0,0,0,1.156,54.7H3.043V83.606a1.057,1.057,0,0,0,1.1,1.1l32.754,0a5.47,5.47,0,0,0,5.438-6.137,5.422,5.422,0,0,0,2.181.461,5.51,5.51,0,0,0,1.427-.189A5.479,5.479,0,0,0,47.262,68.8ZM36.312,52.382H30.125V45.444h6.187Zm-25.5,0V45.444h7.343v6.939Zm9.656-6.938h7.343v6.939H20.469Zm-18.156,0H8.5v6.939H2.313ZM5.356,60.7H21.625V74.758H5.356Zm0,16.374H22.782a1.156,1.156,0,0,0,1.156-1.156V59.541a1.156,1.156,0,0,0-1.156-1.156H5.356V54.7H33.269V67.7a5.48,5.48,0,0,0,0,4.469v1.579H29.674a5.475,5.475,0,0,0-4.428,8.7H5.356Zm31.538,5.323h-7.22a3.166,3.166,0,1,1,0-6.333h7.22a3.166,3.166,0,1,1,0,6.333Zm10.371-7.262a3.166,3.166,0,0,1-4.325,1.159l-6.252-3.61A3.166,3.166,0,1,1,39.853,67.2l6.252,3.61A3.17,3.17,0,0,1,47.265,75.133Z" transform="translate(45 621.869)" fill="#4096ee"/>
  </g>
</svg>
