<svg xmlns="http://www.w3.org/2000/svg" width="98" height="95" viewBox="0 0 98 95">
  <g id="phone" transform="translate(-1382 -764)">
    <path id="newshape" d="M138.851,112.617l-3.973.894a57.886,57.886,0,0,0-8.162,2.254c-7.853,2.693-13.988,5.668-18.134,8.8a31.739,31.739,0,0,0-3.351,2.921,13.262,13.262,0,0,0-2.27,2.46,48.944,48.944,0,0,0-7.227,14.052,23.835,23.835,0,0,0-1.205,6.237c-.227,2.325-.449,4.032-.643,4.969a22.028,22.028,0,0,0-.141,2.655c-.038,1.479-.087,2.411-.141,2.688a22.114,22.114,0,0,0,.011,5.641c.1,1.208.151,2.243.184,3.989a18.222,18.222,0,0,0,.595,5.311,38.743,38.743,0,0,0,3.573,8.736c1.74,3.349,1.994,3.848,2.384,4.677.227.477.47,1.008.546,1.176a22.991,22.991,0,0,0,2.411,3.755A24.2,24.2,0,0,0,105.961,197c3.5,3.506,8.226,5.956,15.648,8.091a31.345,31.345,0,0,0,6.432,1.143c.865.1,1.994.276,2.513.379a12.708,12.708,0,0,0,2.432.271c.816.043,1.643.1,1.838.13.454.065,4.854.135,7.7.119a50.663,50.663,0,0,0,12.053-1.116c.33-.076,1.222-.249,1.984-.379a16.72,16.72,0,0,0,3.524-.894,39.4,39.4,0,0,0,9.464-4.455,38.552,38.552,0,0,0,10.372-10.963,29.108,29.108,0,0,0,2.281-3.956c.481-.954,1.195-2.281,1.589-2.953A65.009,65.009,0,0,0,190.82,165.3a6.953,6.953,0,0,0,.276-2.195,13.124,13.124,0,0,1,.249-2.574,9.242,9.242,0,0,0,.092-1.68,16.694,16.694,0,0,0-.427-3.929c-.13-.656-.3-1.62-.378-2.141a12.427,12.427,0,0,0-.692-2.791,60.653,60.653,0,0,0-13.415-22.023,59.9,59.9,0,0,0-6.729-5.907,10.674,10.674,0,0,1-1.465-1.349,23.862,23.862,0,0,0-6.908-5.1,32.805,32.805,0,0,0-12.815-3.338c-.616-.054-1.973-.1-3.27-.108l-2.216-.022-2.135.238Z" transform="translate(1288.563 651.86)" fill="#fff"/>
    <g id="download_-_2021-11-29T155258.030" data-name="download - 2021-11-29T155258.030" transform="translate(1397.626 778.025)">
      <path id="Path_5870" data-name="Path 5870" d="M29.46,11.9c-.445-2.652-1.286-8.957-6.242-10.574C14.162-1.636,4.747,14.792,8.049,30.4,9.32,36.4,12.188,42.571,16.817,49.252,31.241,70.07,47.236,66.568,50.943,59.684c2.6-4.831.109-11.759-5.576-14.451-3.414-1.615-7.038-1.483-11.038.54-1.279.648-5.345,3.2-9.158-1.62C23,41.416,20.283,33.277,20.344,29.489,20.535,17.847,31.853,26.164,29.46,11.9Zm-4.447,9.057A7.1,7.1,0,0,0,22.8,22.1c-.123-.283-.235-.57-.353-.855a19.659,19.659,0,0,0,1.554-1.483l.558.558a.25.25,0,1,0,.354-.354l-.558-.558,1.31-1.31.559.559-.9.9a.25.25,0,0,0,.354.354l.9-.9c.1.1.592.6.7.69A6.9,6.9,0,0,1,25.013,20.955Zm2.6-1.61-.684-.684,1.441-1.441a.25.25,0,0,0-.354-.354l-1.441,1.441-.559-.559,1.2-1.2.262.262a.25.25,0,1,0,.354-.354l-1.925-1.925,1.755-1.755a.239.239,0,0,0,.054-.129l.535.535a.25.25,0,0,0,.354,0c.015-.015.013-.038.023-.056C28.947,15.456,28.923,17.819,27.617,19.345Zm.968-6.544-1.33-1.33.949-.949c.1.515.183,1.03.269,1.541C28.515,12.307,28.549,12.554,28.585,12.8ZM22.907,2.274c3.175,1.037,4.528,4.452,5.183,7.7-.024.012-.052.01-.073.03L26.9,11.118l-.038-.038a.25.25,0,0,0-.353.354l.214.214h0l.72.719a.246.246,0,0,0-.129.053L25.56,14.175l-.2-.2a.25.25,0,0,0-.354.354l.2.2-.521.521a.25.25,0,1,0,.353.354l.521-.521,1.31,1.31-1.2,1.2L24.072,15.8a.25.25,0,0,0-.354.354l1.594,1.594L24,19.06l-1-1a.25.25,0,1,0-.354.354l1,1L22.262,20.8A51.615,51.615,0,0,1,18.57,2.5,6.158,6.158,0,0,1,22.907,2.274ZM35.369,63.268l.152-.152.063.063a.25.25,0,0,0,.354-.354l-.063-.063.959-.959,1.152,1.152-.094.094a.25.25,0,0,0,.354.354l.093-.094.259.258a.25.25,0,0,0,.354-.354l-.259-.258,1.422-1.422,1.422,1.422-.016.016a.25.25,0,1,0,.354.354l.02-.021a.239.239,0,0,0,.339-.006.247.247,0,0,0,.006-.339l1.195-1.195.859.859a.25.25,0,1,0,.354-.354l-.859-.859L45.4,59.795l1.654,1.654-.132.132a.25.25,0,0,0,.354.354l.132-.132.136.136C44.091,64.339,39.444,64.38,35.369,63.268Zm6.291-3.279,1.422,1.422L41.891,62.6,40.469,61.18Zm6.8,1.223c-.162.148-.332.29-.508.427l-.189-.189.48-.48ZM47.412,61.1l-1.654-1.654.587-.587L47.911,60.6ZM50.9,54.315l-1.359-1.359.347-.347a.25.25,0,1,0-.354-.354l-.347.347-.75-.75a.25.25,0,1,0-.354.354l.75.75-.982.981a.25.25,0,0,0,.353.354l.982-.981,1.638,1.638a.235.235,0,0,0,.126.052,8.078,8.078,0,0,1-.89,4.209,7.32,7.32,0,0,1-.9,1.279l-.2-.227.992-.992a.25.25,0,0,0-.354-.354l-.973.973-1.566-1.743,1.278-1.278a.25.25,0,1,0-.353-.354l-1.259,1.259L37.6,47.628a.247.247,0,0,0,.169-.424l-.271-.271L38.733,45.7l.819.819a.25.25,0,0,0,.354-.354l-.819-.819.145-.145a10.9,10.9,0,0,1,1.376-.068l.334.334-.352.352a.25.25,0,0,0,.354.354l.352-.352.242.242a.25.25,0,0,0,.353-.353l-.242-.242.233-.232a10.506,10.506,0,0,1,3.055.9A10.669,10.669,0,0,1,50.9,54.315ZM33.486,47.286l.017.017-1.314,1.314-.691-.691A8.777,8.777,0,0,0,33.486,47.286Zm4.875-1.957.022.022-1.232,1.232-.7-.7A10.26,10.26,0,0,1,38.361,45.329ZM19.344,29.473c-.066,4.037,2.741,12.4,5.042,15.3A7.836,7.836,0,0,0,30.869,48l.965.965-.515.515a.25.25,0,0,0,.354.354l.515-.515.8.8a.25.25,0,1,0,.354-.354l-.8-.8,1.314-1.314,1.17,1.17a.25.25,0,1,0,.354-.354L34.21,47.3l.7-.7.293-.146,1.02,1.135a.235.235,0,0,0,.058.214.249.249,0,0,0,.177.073c.006,0,.011-.007.017-.007l9.535,10.612-.606.606-.827-.827a.25.25,0,0,0-.354.354l.827.827-1.616,1.616-1.422-1.422,1.351-1.351a.25.25,0,0,0-.354-.354l-1.435,1.435a.235.235,0,0,0-.132.055.247.247,0,0,0-.055.132l-1.274,1.274-.788-.788a.25.25,0,0,0-.354.354l.788.788L38.338,62.6l-1.152-1.152,1.563-1.563a.25.25,0,0,0-.354-.354L35.519,62.41l-.9-.9a.25.25,0,1,0-.354.354l.9.9-.356.356c-7.443-2.251-12.764-8.071-17.173-14.435-4.552-6.57-7.369-12.619-8.611-18.493C7.062,20.9,10,7.24,17.586,2.978A52.524,52.524,0,0,0,22,22.775,9.762,9.762,0,0,0,19.344,29.473Z"/>
      <path id="Path_5871" data-name="Path 5871" d="M34.609,25.67a.5.5,0,0,0,.375.6,6.92,6.92,0,0,1,5,8.935.5.5,0,0,0,.947.319,7.92,7.92,0,0,0-5.723-10.229A.5.5,0,0,0,34.609,25.67Z"/>
      <path id="Path_5872" data-name="Path 5872" d="M49.279,37.726a.5.5,0,0,0,.571-.417A19,19,0,0,0,36.287,16.148a.5.5,0,1,0-.272.962A17.992,17.992,0,0,1,48.862,37.155.5.5,0,0,0,49.279,37.726Z"/>
      <path id="Path_5873" data-name="Path 5873" d="M57.63,39.6a.5.5,0,0,0,.49-.4A27.675,27.675,0,0,0,38.344,7.311a.5.5,0,1,0-.266.964A26.672,26.672,0,0,1,57.138,39.01.5.5,0,0,0,57.63,39.6Z"/>
      <path id="Path_5874" data-name="Path 5874" d="M48.989,56.74l-.132.132a.25.25,0,1,0,.354.354l.132-.132.713.713a.25.25,0,0,0,.354-.354L49.7,56.74l1.153-1.153a.25.25,0,1,0-.354-.354l-1.153,1.153-2.062-2.063a.25.25,0,0,0-.354.354Z"/>
      <path id="Path_5875" data-name="Path 5875" d="M13.318,34.468l.16-.049a.25.25,0,0,0-.146-.479L13.145,34a31.682,31.682,0,0,1-.958-3.26l.988-.153a.25.25,0,0,0-.076-.494l-1.026.159a32,32,0,0,1-.579-3.56l1.031.034h.008a.25.25,0,0,0,.008-.5l-1.093-.036a31.77,31.77,0,0,1-.106-4l.786.338a.25.25,0,0,0,.2-.459l-.957-.411a31.3,31.3,0,0,1,.384-3.52l1.315.469a.25.25,0,1,0,.168-.47l-1.389-.5c.157-.842.341-1.679.569-2.506A.25.25,0,0,0,11.932,15c-.224.815-.406,1.64-.562,2.469l-.559-.2a.25.25,0,1,0-.168.47l.629.225a31.8,31.8,0,0,0-.394,3.48l-.831-.357a.25.25,0,0,0-.2.459l1,.43a32.242,32.242,0,0,0,.093,4.193l-.828-.027a.254.254,0,0,0-.258.242.251.251,0,0,0,.242.258l.89.029a32.467,32.467,0,0,0,.587,3.654l-.729.113a.25.25,0,0,0,.038.5.256.256,0,0,0,.039,0l.767-.119a32.111,32.111,0,0,0,.975,3.329l-1.064.324a.25.25,0,0,0,.145.479l1.09-.332a31.148,31.148,0,0,0,1.762,3.91.25.25,0,1,0,.441-.237A30.626,30.626,0,0,1,13.318,34.468Z"/>
    </g>
  </g>
</svg>
