<svg xmlns="http://www.w3.org/2000/svg" width="502" height="502" viewBox="0 0 502 502">
  <g id="placeholder-img2" transform="translate(-1188 -276)">
    <rect id="O6RAK90" width="502" height="502" transform="translate(1188 276)" fill="#eff6ff"/>
    <g id="Group_44644" data-name="Group 44644" transform="translate(1371.983 459.983)">
      <path id="Path_77601" data-name="Path 77601" d="M759.42,684.671a23.817,23.817,0,1,0,23.815,23.814A23.817,23.817,0,0,0,759.42,684.671Z" transform="translate(-692.688 -684.671)" fill="#4096ee"/>
      <path id="Path_77602" data-name="Path 77602" d="M757.536,725.659A19.054,19.054,0,1,1,776.591,706.6,19.057,19.057,0,0,1,757.536,725.659Z" transform="translate(-690.804 -682.786)" fill="#cdeb8b"/>
      <path id="Path_77603" data-name="Path 77603" d="M819.323,710.586a23.834,23.834,0,0,0-23.834,23.838V753.5H757.356V734.424a23.833,23.833,0,1,0-23.834,23.84H752.59v19.075a23.832,23.832,0,1,0,47.664,0V758.264h19.069a23.839,23.839,0,0,0,0-47.678Z" transform="translate(-709.69 -667.714)" fill="#4096ee"/>
      <path id="Path_77604" data-name="Path 77604" d="M731.621,751.57a19.053,19.053,0,1,1,19.054-19.053V751.57Z" transform="translate(-707.805 -665.785)" fill="#cdeb8b"/>
      <path id="Path_77605" data-name="Path 77605" d="M776.591,758.433a19.054,19.054,0,0,1-38.108,0V739.377h38.108Z" transform="translate(-690.804 -648.784)" fill="#cdeb8b"/>
      <path id="Path_77606" data-name="Path 77606" d="M783.452,751.57H764.4V732.517a19.055,19.055,0,1,1,19.057,19.053Z" transform="translate(-673.802 -665.785)" fill="#cdeb8b"/>
    </g>
  </g>
</svg>
