<svg xmlns="http://www.w3.org/2000/svg" xmlns:xlink="http://www.w3.org/1999/xlink" width="210" height="65" viewBox="0 0 210 65">
  <defs>
    <clipPath id="clip-path">
      <path id="Path_64407" data-name="Path 64407" d="M9.774,67.576V53.456a1.516,1.516,0,0,1,1.389-1.492,2.371,2.371,0,0,1,1.275.357L38.33,66.476a1.144,1.144,0,0,1,0,2.2L12.437,82.833a2.372,2.372,0,0,1-1.275.356A1.514,1.514,0,0,1,9.774,81.7Z" transform="translate(959.226 292.084)" fill="#56d9f7" clip-rule="evenodd"/>
    </clipPath>
  </defs>
  <g id="play-store-btn" transform="translate(-950 -328)">
    <g id="Group_39463" data-name="Group 39463" transform="translate(0 10)">
      <rect id="Rectangle_5820" data-name="Rectangle 5820" width="210" height="65" rx="5" transform="translate(950 318)" fill="#232221"/>
      <g id="Group_39462" data-name="Group 39462" transform="translate(12724 7861)">
        <text id="Download_on_the" data-name="Download on the" transform="translate(-11707 -7517)" fill="#fff" font-size="15" font-family="LibreFranklin-Medium, Libre Franklin" font-weight="500" opacity="0.6"><tspan x="0" y="0">Download on the</tspan></text>
        <text id="Play_Store" data-name="Play Store" transform="translate(-11707 -7495)" fill="#fff" font-size="19" font-family="LibreFranklin-Bold, Libre Franklin" font-weight="700"><tspan x="0" y="0">Play Store</tspan></text>
      </g>
    </g>
    <g id="Mask_Group_2" data-name="Mask Group 2" transform="translate(6)" clip-path="url(#clip-path)">
      <g id="Group_39465" data-name="Group 39465">
        <g id="Group_39464" data-name="Group 39464" transform="translate(959.226 292.084)">
          <path id="Path_64402" data-name="Path 64402" d="M9.774,67.576V53.456a1.516,1.516,0,0,1,1.389-1.492,2.371,2.371,0,0,1,1.275.357L38.33,66.476a1.144,1.144,0,0,1,0,2.2L12.437,82.833a2.372,2.372,0,0,1-1.275.356A1.514,1.514,0,0,1,9.774,81.7Z" transform="translate(0 0)" fill="#56d9f7" fill-rule="evenodd"/>
          <path id="Path_64403" data-name="Path 64403" d="M26.3,67.668,10.627,51.992a1.057,1.057,0,0,1,.244-.028,2.371,2.371,0,0,1,1.275.357L31.223,62.748Z" transform="translate(0.291 0)" fill="#80e881" fill-rule="evenodd"/>
          <path id="Path_64404" data-name="Path 64404" d="M27.112,69.724l-4.8-4.8L27.231,60l6.816,3.727a1.144,1.144,0,0,1,0,2.2Z" transform="translate(4.284 2.746)" fill="#f4910d" fill-rule="evenodd"/>
          <path id="Path_64405" data-name="Path 64405" d="M10.746,79.185l.015-.013,15.5-15.5,4.8,4.8L12.105,78.834a2.372,2.372,0,0,1-1.275.356Q10.788,79.189,10.746,79.185Z" transform="translate(0.332 3.999)" fill="#f2657c" fill-rule="evenodd"/>
        </g>
        <path id="Path_64406" data-name="Path 64406" d="M-.03.533,17,0V19H0Z" transform="translate(983 350)" fill="#29284e" opacity="0.253" style="mix-blend-mode: color-burn;isolation: isolate"/>
      </g>
    </g>
  </g>
</svg>
