<svg xmlns="http://www.w3.org/2000/svg" width="98.031" height="94.782" viewBox="0 0 98.031 94.782">
  <g id="register-process" transform="translate(-400 -1560)">
    <path id="newshape" d="M138.865,112.616l-3.974.892a58.022,58.022,0,0,0-8.164,2.249c-7.856,2.687-13.993,5.655-18.14,8.775a31.726,31.726,0,0,0-3.352,2.914,13.244,13.244,0,0,0-2.271,2.455,48.785,48.785,0,0,0-7.229,14.02,23.726,23.726,0,0,0-1.206,6.223c-.227,2.319-.449,4.023-.643,4.958a21.918,21.918,0,0,0-.141,2.649c-.038,1.476-.087,2.406-.141,2.682a22.007,22.007,0,0,0,.011,5.628c.1,1.206.151,2.238.184,3.979a18.135,18.135,0,0,0,.595,5.3,38.6,38.6,0,0,0,3.574,8.716c1.741,3.341,2,3.839,2.384,4.666.227.476.47,1.006.546,1.173a22.93,22.93,0,0,0,2.411,3.747,24.163,24.163,0,0,0,2.655,3.168c3.5,3.5,8.229,5.942,15.652,8.072a31.429,31.429,0,0,0,6.434,1.141c.865.1,2,.276,2.514.378a12.743,12.743,0,0,0,2.433.27c.816.043,1.644.1,1.838.13.454.065,4.855.135,7.7.119a50.807,50.807,0,0,0,12.057-1.114c.33-.076,1.222-.249,1.984-.378a16.762,16.762,0,0,0,3.525-.892,39.461,39.461,0,0,0,9.467-4.444,38.507,38.507,0,0,0,10.376-10.938,29.023,29.023,0,0,0,2.282-3.947c.481-.952,1.195-2.276,1.59-2.947a64.765,64.765,0,0,0,7.029-17.085,6.92,6.92,0,0,0,.276-2.19,13.06,13.06,0,0,1,.249-2.568,9.2,9.2,0,0,0,.092-1.676,16.614,16.614,0,0,0-.427-3.92c-.13-.654-.3-1.617-.378-2.136a12.372,12.372,0,0,0-.692-2.784,60.48,60.48,0,0,0-13.419-21.973,59.871,59.871,0,0,0-6.731-5.893,10.667,10.667,0,0,1-1.465-1.346,23.865,23.865,0,0,0-6.91-5.088,32.883,32.883,0,0,0-12.819-3.331c-.616-.054-1.973-.1-3.271-.108l-2.217-.022-2.136.238Z" transform="translate(306.563 1447.86)" fill="#eaefeb"/>
    <g id="download_26_" data-name="download (26)" transform="translate(415.997 1574.319)">
      <path id="Path_648" data-name="Path 648" d="M65,38.879l-.41-29.348C64.514,5.4,63.3,3.686,58.2,3.686c0,0-45.278-.011-50.409,0-5.112,0-6.309,1.733-6.381,5.847L1,38.88c-.07,5.826,1.436,8.552,9.132,8.719,1.185.034,4.792.056,9.256.057.027.6-.067,8.867-.073,9.474a6.871,6.871,0,0,0-2.706.343,2.372,2.372,0,0,0,.088,4.574c1.739.638.848-.007,22.693-.353,10.992-.176,11.324-.035,12.366-.506,2.085-.966,2.052-4.07-2.073-4.07h-3.01l.085-9.453C59.969,47.631,65.112,48.574,65,38.879Zm-21.73,9.465-.57-.57.1-.1h1.141Zm-1.759-.087c-.019.019-.017.047-.029.07l-.653-.653h1.063l.1.1Zm-10.922-.421-.161-.161h.322Zm-2.462-.164h.928l-.464.464Zm-1.664.747-.362-.362.013-.013a.25.25,0,0,0,0-.354c-.014-.014-.035-.011-.051-.021l1.149,0Zm-5.792,1.1a.25.25,0,0,0,.353,0l.484-.483.726.726a.244.244,0,0,0-.325.012l-.892.892-.6-.6c-.008-.008-.019-.005-.028-.011,0-.377.022-1.779.012-2.124l.748.748-.484.483A.25.25,0,0,0,20.667,49.515Zm.233,5.669-.556-.556.01-1.017c.02-.011.045-.009.063-.026l.03-.03,1.041,1.04Zm-.562.145.209.209-.213.213Zm.025-2.566.012-1.205c.011.022.009.049.028.067a.251.251,0,0,0,.354,0l.257-.257.457.457-1.022,1.023Zm.04-1.491c-.017.017-.014.042-.025.062l.006-.6.277.277Zm.436-3.612,1.343,0c-.008.006-.019,0-.026.011l-.652.652Zm3.32.007-.585.585-.588-.588Zm1.648,0c-.017.01-.037.007-.052.021l-.013.013-.034-.034Zm7.124.007-.178.178-.178-.178Zm6.521,0-.387.387-.386-.386ZM63.862,29.3a.246.246,0,0,0-.063-.153l-.42-.42.469-.469ZM7.8,4.687c4.553-.01,45.523,0,50.408,0,4.568,0,5.32,1.333,5.381,4.86l.252,18.015-.813.813-.386-.386a.25.25,0,0,0-.354.354l.386.386-.044.044a.25.25,0,0,0,.353.354l.044-.044.421.42a.251.251,0,0,0,.354,0,.241.241,0,0,0,.064-.154l.034,2.413-.844-.844.374-.374a.25.25,0,0,0-.354-.353l-.374.374-.153-.153a.25.25,0,0,0-.354.354l.153.153-.111.111a.25.25,0,0,0,.354.354l.111-.111,1.055,1.055a.243.243,0,0,0,.151.063l.077,5.489h-2.74l1.146-1.146,1.061,1.061a.25.25,0,1,0,.354-.354L62.742,36.38l.641-.641a.25.25,0,0,0-.354-.354l-.641.641-1.02-1.02.112-.112a.25.25,0,0,0-.353-.354l-.112.112-.7-.7a.25.25,0,0,0-.353.354l.7.7-1.02,1.02-.676-.676.364-.364a.25.25,0,1,0-.354-.354L58.612,35l-.29-.29a.25.25,0,1,0-.354.354l.29.29-.995.995-1.069-1.069L57,34.467a.25.25,0,0,0-.354-.354l-2.6,2.6-.78-.779c-.008-.008-.019-.005-.028-.011l.335-.335a.25.25,0,0,0-.354-.354l-1.8,1.8-.853-.853a.239.239,0,0,0-.132-.055l.514-.514a.25.25,0,1,0-.354-.354l-1.824,1.824-.48-.48.143-.144a.25.25,0,0,0-.354-.354l-.977.977L46.5,36.47a.25.25,0,0,0-.354.354l.608.608-.314.314a.242.242,0,0,0-.054.13H2.019l.4-28.327C2.475,6.059,3.184,4.687,7.8,4.687ZM47.655,37.624l-.191-.191.48-.48.48.48-.363.363c-.022.022-.021.054-.033.081H47.7A.235.235,0,0,0,47.655,37.624Zm-.454.253H47.02l.09-.09Zm1.577-.09.091.091h-.182ZM49.4,37.7l-.265-.264L50.164,36.4a.232.232,0,0,0,.055.132l.853.852L51,37.453a.25.25,0,0,0,0,.354.244.244,0,0,0,.172.071H49.468A.243.243,0,0,0,49.4,37.7Zm1.961.108.068-.068.14.14h-.38A.249.249,0,0,0,51.357,37.806Zm.736-.107-.314-.314L52.9,36.259c.006.008,0,.02.012.028l.779.779-.485.486a.243.243,0,0,0-.011.326H52.167A.253.253,0,0,0,52.093,37.7Zm1.957-.28.458.458h-.917Zm1.152.458c-.005-.007,0-.016-.009-.022l-.79-.789,1.436-1.436L56.908,36.7l-.8.8a.25.25,0,0,0,0,.354c.014.014.035.011.052.021H55.2Zm1.256-.021.8-.8.826.826H56.406C56.422,37.867,56.443,37.87,56.458,37.856Zm1.834-.482-.676-.676.995-.995.676.676Zm.341.366,1.007-1.007,1.049,1.049c.017.017.042.014.061.025a.236.236,0,0,0,.029.07H58.687A.238.238,0,0,0,58.633,37.74Zm2.381-.342-1.02-1.019,1.02-1.02,1.02,1.02Zm-59.009,1.5v-.016H64v.015c.105,8.839-3.22,7.766-22.386,7.782h-.683c-.079-.187-.234-.24-.474,0l-5.627,0c-5.213,0-10.548-.006-14.949-.02h0c-1.8,0-7.9-.006-9.714-.058C3.072,46.446,1.941,44.23,2.005,38.893ZM51.345,60.28c-.845.382-1.47.247-11.966.415-6.56.1-13.342.211-20.014.6a5.837,5.837,0,0,1-2.319-.182c-1.43-.525-1.588-2.077-.052-2.711a5.77,5.77,0,0,1,2.164-.267h.656l29.873-.012C52.612,58.119,52.545,59.725,51.345,60.28ZM20.32,57.13l.007-.665.577-.576a.243.243,0,0,0,.344,0,.247.247,0,0,0,0-.343l1.174-1.173a.25.25,0,0,0-.354-.354l-.228.228L20.8,53.2l1.022-1.023.114.114a.25.25,0,1,0,.354-.354l-.114-.114.045-.046a.25.25,0,1,0-.354-.354l-.045.045-.456-.457.892-.892a.244.244,0,0,0,.012-.325l.366.366a.25.25,0,0,0,.354-.354L21.86,48.675l.652-.652a.225.225,0,0,0,.039-.093l.672.672-.142.142a.25.25,0,0,0,.354.354l.142-.142.485.485a.25.25,0,1,0,.353-.354L23.93,48.6l.748-.749a.242.242,0,0,0,.068-.189H25l.389.389-.5.5a.25.25,0,0,0,.354.354l.5-.5.389.389a.235.235,0,0,0,.037.264.227.227,0,0,0,.32.014.2.2,0,0,0,.217-.057.236.236,0,0,0,.062-.2l.9-.9.573.573a.249.249,0,0,0,0,.343.242.242,0,0,0,.343,0l.139.139a.25.25,0,1,0,.354-.354l-.136-.136c.095-.1.7-.7.788-.8l.5.5-.37.37a.25.25,0,0,0,.354.354l.383-.383a.221.221,0,0,0,.307-.019.24.24,0,0,0,.019-.307c.177-.177.394-.321.336-.528h.606l.532.532-.427.427a.25.25,0,0,0,.353.354l.427-.427.9.9a.25.25,0,1,0,.354-.354l-.9-.9.532-.531h.98l.344.343-.577.577a.25.25,0,0,0,.354.354l.577-.577,1.108,1.107a.25.25,0,0,0,.354-.354l-1.108-1.107.082-.082a.234.234,0,0,0,.038-.261h1.1l-.581.581a.25.25,0,0,0,.354.354l.935-.935h.417a7.978,7.978,0,0,0,.7.739l-.408.408a.25.25,0,0,0,.354.354l.408-.408.441.441a.25.25,0,0,0,.353-.354l-.441-.441.721-.721,1.049,1.049a.251.251,0,0,0,.354,0,.232.232,0,0,0,.042-.1.2.2,0,0,0,.277-.032l.482-.483.621.621a.247.247,0,0,0,.153.064c.006.007,0,.017.01.023a.251.251,0,0,0,.354,0l.966-.965a.238.238,0,0,0,.063-.2h.938l-.738.738a.25.25,0,1,0,.353.354l.695-.695-.081,9.052C21.439,57.13,27.527,57.127,20.32,57.13Z" fill="#232221"/>
      <path id="Path_649" data-name="Path 649" d="M16.634,23.466c4.786,0-7.157-.916,28.737-.177,3.662.077,5.751.217,7.695-.566,4.191-1.693,4.224-6.527.078-8.274-1.875-.791-3.892-.7-7.1-.735a.489.489,0,0,0-.534-.006l-24.446-.251c-2.073-.023-6.431-.185-8.326,2.979A4.63,4.63,0,0,0,16.634,23.466Zm-2.772-2.338a3.723,3.723,0,0,1-.67-1.464c.126.126.957,1.015,1.118,1.015h0Zm38.895-5.757c3.366,1.418,3.251,5.087-.064,6.425-1.674.675-3.64.57-6.362.514l-.006-7.593C49.115,14.746,51.087,14.666,52.757,15.371ZM38.209,15.8a.234.234,0,0,0-.046.11l-1.02-1.019.266-.266,1.463.015c-.007.006-.018,0-.025.01a.25.25,0,0,0,0,.354l.079.079Zm.992-1.149c-.005-.005-.012,0-.017-.007l.18,0-.084.084Zm-5.523-.064-.175.175-.178-.178ZM22.3,15.495l-.961-.961a.231.231,0,0,0,.008-.074l1.968.02Zm-1.749-1.041.119.119-1.291,1.291a.25.25,0,0,0,.353.354l1.291-1.291.923.923-.015.015a.25.25,0,0,0,.353.354l.046-.046c.025.008.046.029.071.029a.249.249,0,0,0,.177-.073.237.237,0,0,0,.044-.248L23.706,14.8l1.353,1.353a.241.241,0,0,0,.066.193.25.25,0,0,0,.353,0l1.214-1.215a.25.25,0,0,0-.354-.354l-.974.975L24.1,14.489l2.38.025,1.771,1.771a.25.25,0,0,0,.354-.354L27.2,14.52l2.769.028.183.183-1.387,1.388a.25.25,0,0,0,.353.354L30.5,15.085l.593.593a.25.25,0,0,0,.353-.354l-.633-.633a.225.225,0,0,0-.024-.134l1.817.019.539.539-.94.94a.25.25,0,1,0,.353.354l.94-.94.577.577a.25.25,0,0,0,.354-.354l-.577-.577.386-.386a.242.242,0,0,0,.056-.135l1.9.02c.012.024.01.053.03.073l.206.206-.905.907a.25.25,0,0,0,.354.354l.908-.908,1.238,1.238a.251.251,0,0,0,.354,0,.236.236,0,0,0,.035-.269.246.246,0,0,0,.146-.06l.717-.717,1.382,1.383a.25.25,0,0,0,.354-.354l-1.382-1.383.43-.43,5.223.054.042,7.583c-11.739-.245-25.381-.473-26.962-.072-1.9.479-3.188.257-4.177-.71l2.185-2.186a.25.25,0,0,0,0-.354.236.236,0,0,0-.227-.053.231.231,0,0,0-.045-.108l-1.3-1.3L16.111,16.2l.6.6-.461.461a.25.25,0,1,0,.354.354l.461-.461.122.122a.25.25,0,0,0,.354-.354l-.122-.122.955-.955.476.477a.25.25,0,0,0,.354-.353l-.476-.477.079-.079a.25.25,0,0,0-.354-.353l-.079.079-.556-.557A18.374,18.374,0,0,1,20.554,14.454Zm-3.332.241.8.8-.955.955-.6-.6.3-.3a.25.25,0,1,0-.353-.354l-.3.3-.35-.35A5.96,5.96,0,0,1,17.222,14.695Zm-1.932.685.469.469-1.306,1.306-.587-.587A4.618,4.618,0,0,1,15.29,15.38Zm-1.712,1.606.522.522-.717.717a.25.25,0,1,0,.354.354l.717-.717,1.3,1.3c.015.015.038.013.056.023L14.56,20.43A12.658,12.658,0,0,0,13.1,18.867,3.654,3.654,0,0,1,13.578,16.986Z" fill="#232221"/>
      <path id="Path_650" data-name="Path 650" d="M47.124,18.406a2.556,2.556,0,0,0,1.64,1.88,2.4,2.4,0,0,0,2.051-.256l1.114,1.113a.5.5,0,0,0,.707-.707l-1.125-1.124a2.348,2.348,0,0,0,.3-1.392,2.243,2.243,0,0,0-.891-1.634,2.787,2.787,0,0,0-3.424.358A2.084,2.084,0,0,0,47.124,18.406Zm3.211-1.312a1.246,1.246,0,0,1,.482.913,1.3,1.3,0,0,1-.323,1.007,1.387,1.387,0,0,1-1.408.324A1.558,1.558,0,0,1,48.1,18.2C47.828,16.891,49.513,16.5,50.335,17.094Z" fill="#232221"/>
      <path id="Path_651" data-name="Path 651" d="M34.472,44.5a2.67,2.67,0,0,0,.9-3.023c-.9-2.356-4.061-1.833-4.775.314A2.5,2.5,0,0,0,34.472,44.5Zm-.034-2.668a1.563,1.563,0,0,1-2.354,1.85C29.985,42.168,33.566,39.543,34.438,41.828Z" fill="#232221"/>
      <path id="Path_652" data-name="Path 652" d="M62.111,33.849l-.024.023a.25.25,0,0,0,.354.354l.024-.024,1.041,1.04a.25.25,0,1,0,.354-.354l-1.041-1.04.913-.913a.25.25,0,0,0-.354-.354l-.913.913-.432-.431a.25.25,0,0,0-.354.354Z" fill="#232221"/>
    </g>
  </g>
</svg>
