<svg xmlns="http://www.w3.org/2000/svg" width="98.178" height="23.819" viewBox="0 0 98.178 23.819">
  <path id="rupay" d="M636.789,66.28l-4.848,4.476,5.595-20.7,2.424,4.662,1.305-4.476L646.3,60.5,635.485,70.759ZM617.305,70.6h0c.009-.065.242-1.594,1.128-1.88.023,0,2.3-.059,2.607-1.517a1.689,1.689,0,0,0,.026-.176c.151-1.637-.371-13.979-.376-14.1h4.325L625.2,61.2l4.889-8.274h4.136l-9.214,15.795L623.7,70.414l-6.392.188Zm-12.411-3.573a2.929,2.929,0,0,1-1.924-1.506c-.516-1.113-.248-2.631.8-4.511a3.023,3.023,0,0,1,1.272-1.108,14.965,14.965,0,0,1,6.065-1.523,3.587,3.587,0,0,0,2.442-.957,1.637,1.637,0,0,0,.191-1.487,2.829,2.829,0,0,0-1.669-.516,4.248,4.248,0,0,0-2.656,1.08h-4.138v0a6.2,6.2,0,0,1,1.262-1.78,6.6,6.6,0,0,1,1.8-1.281,7.284,7.284,0,0,1,2.768-.695,18.684,18.684,0,0,1,1.889-.092,11.93,11.93,0,0,1,3.163.359,2.706,2.706,0,0,1,2.091,1.615c0,.008.293.77-.376,3.385-.016.066-1.622,6.553-1.88,8.274l-3.949.187c0-.008-.352-.838-.937-.937a17.49,17.49,0,0,1-5.815,1.517c-.134,0-.265-.009-.39-.018Zm3.008-5.077c-.377.854-.441,1.483-.19,1.868a1.2,1.2,0,0,0,1.036.433,2.518,2.518,0,0,0,.469-.045,3.89,3.89,0,0,0,2.842-1.4,3.316,3.316,0,0,0,.547-2.363,10.209,10.209,0,0,0-4.7,1.5Zm-36.667,3.573a9.123,9.123,0,0,1,0-3.382l2.257-8.652a.65.65,0,0,1,.563-.564h3.573c.358.006.564.067.613.182a.2.2,0,0,1-.049.194,41.281,41.281,0,0,0-2.069,7.71c0,.055-.008.112-.011.17a2.2,2.2,0,0,0,.4,1.64,1.026,1.026,0,0,0,.762.308,1.279,1.279,0,0,0,.357-.049,2.71,2.71,0,0,0,2.217-1.425,5.346,5.346,0,0,0,.6-1.4l1.5-4.889a5.1,5.1,0,0,1,1.128-2.444h3.386c.293.021.469.1.527.241.091.215-.14.5-.15.511l-3.387,12.6-4.136.187.188-.752c.218-.75-.184-.937-.188-.941a11.77,11.77,0,0,0-1.88,1.128,6.311,6.311,0,0,1-3.385,1.128,3.893,3.893,0,0,1-2.82-1.5Zm-13.728.937h-4.889L557.7,48.034l10.906.187a5.672,5.672,0,0,1,1.622.636,3.146,3.146,0,0,1,1.049.978,2.343,2.343,0,0,1,.338,1.582,6.73,6.73,0,0,1-.4,2.351,6.594,6.594,0,0,1-1.161,2.039,7.039,7.039,0,0,1-2.387,1.816,1.308,1.308,0,0,0,0,.564c.063.04,1.548,1.005,1.5,2.068l-.752,6.2h-4.7s-.355-.033-.376-.564l.752-4.511a1.589,1.589,0,0,0-1.316-1.316l-2.821-.188c-.008,0-.751.2-1.128,1.692l-1.316,4.889h0Zm3.949-14.294-.937,3.573c0,.005.015.553,1.316.564h.01c.109,0,.229,0,.351,0,.985,0,4.209-.109,4.335-1.51V52.926a.328.328,0,0,0-.111-.222c-.211-.227-.889-.607-3.057-.607h0c-.559,0-1.2.026-1.9.077Zm29.711,14.109h-4.889l4.889-18.24,10.343.187a4.381,4.381,0,0,1,2.033.805,3.734,3.734,0,0,1,1.064,1.268,4.25,4.25,0,0,1,.476,1.687,7.482,7.482,0,0,1-.707,3.477A9.553,9.553,0,0,1,602.619,58,11.787,11.787,0,0,1,600,60.071c-1.274.506-5.283.562-5.453.564a3.987,3.987,0,0,0-1.88.376l-1.5,5.265h0Zm3.95-14.1c-1.079,3.632-1.044,4.227-.979,4.315a.03.03,0,0,0,.024.014.029.029,0,0,0,.015,0h2.677c2.241,0,2.585-1.117,2.588-1.128a2.382,2.382,0,0,0,.552-1.8,2,2,0,0,0-.74-1.21,10.491,10.491,0,0,0-2.708-.209C595.824,52.154,595.179,52.171,595.117,52.174ZM646.3,49.19a2.25,2.25,0,1,1,2.25,2.25A2.25,2.25,0,0,1,646.3,49.19Zm.4,0a1.851,1.851,0,1,0,1.851-1.851A1.851,1.851,0,0,0,646.7,49.19Zm1.9.715h-.161v-1.25h.242l.359,1.054.357-1.054h.24V49.9h-.161V48.85l-.356,1.054h-.168l-.36-1.054V49.9h0Zm-.926,0h-.17V48.8h-.421v-.149h1.013V48.8h-.421v1.1h0Z" transform="translate(-552.618 -46.94)" fill="#fff"/>
</svg>
