<svg xmlns="http://www.w3.org/2000/svg" width="26" height="26" viewBox="0 0 26 26">
  <g id="send-icon" transform="translate(0.001 -0.299)">
    <g id="Group_49052" data-name="Group 49052" transform="translate(-0.001 0.299)">
      <path id="Path_79425" data-name="Path 79425" d="M25.612.582s0-.005-.006-.008-.013-.006-.019-.012a1,1,0,0,0-.193-.118c-.022-.011-.038-.029-.061-.039l-.008,0c-.024-.01-.043-.027-.067-.036a1.068,1.068,0,0,0-.281-.053C24.948.312,24.919.3,24.89.3a1.078,1.078,0,0,0-.375.064L.712,9.029a1.083,1.083,0,0,0-.259,1.9l7.2,5.146L8.666,23.2a1.082,1.082,0,0,0,1.937.5l2.553-3.407,6.7,5.75a1.083,1.083,0,0,0,.705.261,1.1,1.1,0,0,0,.361-.062,1.086,1.086,0,0,0,.7-.826L25.982,1.6A1.081,1.081,0,0,0,25.612.582ZM12.178,17.974l-.078.113L10.439,20.3,9.81,15.9,19.2,7.748Z" transform="translate(0.001 -0.299)" fill="#356aa0"/>
    </g>
  </g>
</svg>
