<svg xmlns="http://www.w3.org/2000/svg" width="98" height="95" viewBox="0 0 98 95">
  <g id="silver-icon" transform="translate(-912 -630)">
    <path id="newshape" d="M138.851,112.617l-3.973.894a57.886,57.886,0,0,0-8.162,2.254c-7.853,2.693-13.988,5.668-18.134,8.8a31.739,31.739,0,0,0-3.351,2.921,13.262,13.262,0,0,0-2.27,2.46,48.944,48.944,0,0,0-7.227,14.052,23.835,23.835,0,0,0-1.205,6.237c-.227,2.325-.449,4.032-.643,4.969a22.028,22.028,0,0,0-.141,2.655c-.038,1.479-.087,2.411-.141,2.688a22.114,22.114,0,0,0,.011,5.641c.1,1.208.151,2.243.184,3.989a18.222,18.222,0,0,0,.595,5.311,38.743,38.743,0,0,0,3.573,8.736c1.74,3.349,1.994,3.848,2.384,4.677.227.477.47,1.008.546,1.176a22.991,22.991,0,0,0,2.411,3.755A24.2,24.2,0,0,0,105.961,197c3.5,3.506,8.226,5.956,15.648,8.091a31.345,31.345,0,0,0,6.432,1.143c.865.1,1.994.276,2.513.379a12.708,12.708,0,0,0,2.432.271c.816.043,1.643.1,1.838.13.454.065,4.854.135,7.7.119a50.663,50.663,0,0,0,12.053-1.116c.33-.076,1.222-.249,1.984-.379a16.72,16.72,0,0,0,3.524-.894,39.4,39.4,0,0,0,9.464-4.455,38.552,38.552,0,0,0,10.372-10.963,29.108,29.108,0,0,0,2.281-3.956c.481-.954,1.195-2.281,1.589-2.953A65.009,65.009,0,0,0,190.82,165.3a6.953,6.953,0,0,0,.276-2.195,13.124,13.124,0,0,1,.249-2.574,9.242,9.242,0,0,0,.092-1.68,16.694,16.694,0,0,0-.427-3.929c-.13-.656-.3-1.62-.378-2.141a12.427,12.427,0,0,0-.692-2.791,60.653,60.653,0,0,0-13.415-22.023,59.9,59.9,0,0,0-6.729-5.907,10.674,10.674,0,0,1-1.465-1.349,23.862,23.862,0,0,0-6.908-5.1,32.805,32.805,0,0,0-12.815-3.338c-.616-.054-1.973-.1-3.27-.108l-2.216-.022-2.135.238Z" transform="translate(818.563 517.86)" fill="#fff"/>
    <g id="Group_2980" data-name="Group 2980" transform="translate(-1.658)">
      <path id="Path_5883" data-name="Path 5883" d="M34.109,43.151c-1.653,5.019-3.306,10.022-4.953,14.937a.964.964,0,0,0,1.4,1.139c4.428-2.573,9.014-5.5,13.642-8.713A112.106,112.106,0,0,0,58.5,58.336a.963.963,0,0,0,1.31-1.18L54.942,42.592c4.622-3.6,9.3-7.5,13.917-11.585a.963.963,0,0,0-.633-1.682c-5.964-.035-11.981.058-17.669.156L45.475,14.289a.963.963,0,0,0-1.824,0c-1.7,5.065-3.4,10.22-5.1,15.395-5.132.085-10.58.154-15.9.127a.961.961,0,0,0-.727,1.6A105.4,105.4,0,0,0,34.109,43.151ZM31.864,56.059c.05.019.094.06.148.062-.069.042-.142.09-.214.133C31.819,56.188,31.843,56.123,31.864,56.059Zm4.678-4.253.908.91c-.627.408-1.241.772-1.865,1.166l-.56-.56Zm6.414-2.792c-.471.327-.937.627-1.407.949l-.271-.271,1.178-1.178Zm-2.219,1.5c-.287.194-.573.389-.858.579l.72-.72Zm-5.987,3.9c-.72.45-1.445.918-2.157,1.351L34.348,54Zm18.822-1.88-2.161-2.161,1.643-1.643.46.46-.885.885a.481.481,0,0,0,.679.681l.885-.885.337.337a.481.481,0,0,0,.681,0,.473.473,0,0,0,.137-.331l1.083,3.239-.125.125L55.17,52.093a.481.481,0,1,0-.681.679l1.137,1.139-.6.6q-2.549-1.3-5.034-2.729l.737-.737,2.159,2.161a.482.482,0,0,0,.683-.679Zm1.742-2.756a.452.452,0,0,0-.1-.252l-.335-.337L55.058,49Zm.62,5.2.371-.371.4.4a.4.4,0,0,0,.394.119l.175.521C56.826,55.422,56.382,55.189,55.934,54.966Zm-.718-15.072-1.259-1.259,1.382-1.382,1.414,1.412C56.239,39.079,55.728,39.49,55.216,39.895Zm6.466-6.277.545.543c-.55.464-1.1.939-1.651,1.4l-.323-.323,1.3-1.3A.46.46,0,0,0,61.682,33.617ZM39.261,31.6a.966.966,0,0,0,.9-.662c1.468-4.463,2.937-8.914,4.4-13.307L48.956,30.76a.992.992,0,0,0,.929.658c5.071-.09,10.422-.177,15.762-.177h.027c-.9.785-1.807,1.528-2.711,2.3l-1.63-1.628a.482.482,0,0,0-.681.681l.537.537a.484.484,0,0,0-.321.133l-1.3,1.3-.835-.837a.482.482,0,1,0-.681.681l.835.837-.714.714a.482.482,0,0,0,.681.681l.714-.714.267.267c-.777.643-1.553,1.253-2.33,1.88l-1.489-1.489,1.853-1.853a.482.482,0,1,0-.681-.681L55.337,35.9l-.279-.279a.481.481,0,0,0-.679.681l.279.279-1.382,1.382-.893-.893a.482.482,0,1,0-.681.681l.893.893-.787.787a.482.482,0,0,0,.681.681l.787-.787L54.459,40.5c-.412.323-.826.67-1.237.987a.965.965,0,0,0-.323,1.066l.727,2.173-.908-.908a.482.482,0,0,0-.681.681l2.034,2.034a.453.453,0,0,0,.183.077l.46,1.374-.521.521L52.379,46.7a.482.482,0,0,0-.681.681l.674.674-1.643,1.643-.883-.883a.482.482,0,1,0-.681.681l.883.883-.883.883c-.012.012-.008.027-.017.04-1.5-.883-2.994-1.792-4.451-2.744a.947.947,0,0,0-.893-.042l-1.73-1.73a.482.482,0,0,0-.681.681l.377.377-1.178,1.178-.377-.377a.482.482,0,0,0-.681.681l.377.377-2.065,2.065-.629-.629.389-.389a.481.481,0,0,0-.679-.681l-.625.625c-.048.023-.1.019-.144.06s-.037.1-.06.144l-1.753,1.755-.21-.21a.482.482,0,0,0-.681.681l.21.21L32.32,54.672q1.908-5.73,3.82-11.538a.964.964,0,0,0-.308-1.049A104.308,104.308,0,0,1,24.8,31.751C29.731,31.8,34.614,31.676,39.261,31.6Z" transform="translate(912.983 642.364)" fill="#000c1e"/>
      <path id="Subtraction_2" data-name="Subtraction 2" d="M-13869.534,34.248a.728.728,0,0,1-.3-.068,86.232,86.232,0,0,1-10.944-5.98c-1.432.994-2.865,1.956-4.258,2.861l-.035-.1c1.646-1.283,3.342-2.636,5.038-4.023.9.581,1.9,1.19,3.045,1.864a.035.035,0,0,0,0-.012.023.023,0,0,1,.01-.016l.674-.678-.674-.674a.36.36,0,0,1-.11-.26.36.36,0,0,1,.11-.26.356.356,0,0,1,.258-.11.368.368,0,0,1,.262.11l.675.674,1.258-1.258-.518-.513a.365.365,0,0,1-.107-.26.365.365,0,0,1,.107-.26.368.368,0,0,1,.262-.11.372.372,0,0,1,.263.11l1.383,1.387.4-.4-.354-1.051-.041-.012a.2.2,0,0,1-.1-.047l-1.555-1.554a.361.361,0,0,1-.109-.26.361.361,0,0,1,.109-.26.367.367,0,0,1,.261-.107.363.363,0,0,1,.26.107l.692.7-.556-1.663a.678.678,0,0,1-.029-.124c.994-.858,2-1.738,3-2.618a.938.938,0,0,0,.293-.957l.266.266.253-.2.281-.225.059-.047c.39-.312.793-.635,1.188-.964l-.2-.2-.549.545a.36.36,0,0,1-.259.107.372.372,0,0,1-.262-.107.37.37,0,0,1,0-.52l.545-.545-.636-.643a.3.3,0,0,1-.033-.039.365.365,0,0,1-.106.287l-1.418,1.418.174.174a1.009,1.009,0,0,0-.227-.028l-1.131,0,.143-.142-.213-.213a.365.365,0,0,1-.107-.26.365.365,0,0,1,.107-.26.358.358,0,0,1,.26-.11.362.362,0,0,1,.261.11l.213.213,1.418-1.418a.364.364,0,0,1,.259-.107.372.372,0,0,1,.262.107.394.394,0,0,1,.034.039.373.373,0,0,1,.105-.287.367.367,0,0,1,.261-.107.363.363,0,0,1,.26.107l.64.643.992-.992a.352.352,0,0,1,.244-.1l-.412-.412a.365.365,0,0,1-.107-.26.365.365,0,0,1,.107-.26.372.372,0,0,1,.262-.107.372.372,0,0,1,.262.107l1.244,1.244c.258-.219.521-.439.775-.651l.009-.007c.424-.354.862-.721,1.291-1.095h-.021c-4.145,0-8.226.067-12.051.136a.764.764,0,0,1-.713-.5l-3.356-10.043c-1.173,3.5-2.354,7.09-3.368,10.175a.747.747,0,0,1-.687.507l-2.146.039h-.01c-1.334.025-2.714.051-4.1.067l-.5-1.487c1.8-.016,3.767-.042,6.2-.083,1.415-4.313,2.691-8.163,3.9-11.772a.723.723,0,0,1,.7-.5.725.725,0,0,1,.7.5l3.888,11.618c3.445-.061,7.453-.125,11.4-.125.718,0,1.427,0,2.106.006a.722.722,0,0,1,.685.479.719.719,0,0,1-.2.807c-3.494,3.1-7.074,6.076-10.641,8.859l3.724,11.136a.719.719,0,0,1-.1.655A.747.747,0,0,1-13869.534,34.248Zm-1.985-2.929h0l-.282.283.255.129.132.068c.217.111.429.219.64.321l-.133-.4a.737.737,0,0,1-.079.005.289.289,0,0,1-.225-.1l-.308-.307Zm-4.262-2.714h0l-.565.562c1.266.729,2.562,1.431,3.85,2.085l.457-.458-.869-.87a.367.367,0,0,1,0-.52.363.363,0,0,1,.26-.107.367.367,0,0,1,.261.107l.869.873.1-.1-.827-2.477a.373.373,0,0,1-.105.255.372.372,0,0,1-.262.107.372.372,0,0,1-.262-.107l-.255-.258-.678.678a.364.364,0,0,1-.259.107.372.372,0,0,1-.262-.107.365.365,0,0,1-.107-.26.365.365,0,0,1,.107-.26l.678-.678-.354-.353-1.254,1.258,1.652,1.652a.373.373,0,0,1,0,.52.367.367,0,0,1-.261.107.363.363,0,0,1-.26-.107l-1.649-1.652Zm3.309-1.565h0l-.14.14.255.259a.224.224,0,0,1,.028.036l-.144-.434Zm5.064-11.761h0a.355.355,0,0,1-.1.245l-.992.992.248.248.51-.432.12-.1c.21-.179.421-.358.631-.535l-.416-.416Z" transform="translate(14853 654)" fill="#000c1e"/>
    </g>
  </g>
</svg>
