<svg xmlns="http://www.w3.org/2000/svg" width="271.677" height="267.542" viewBox="0 0 271.677 267.542">
  <g id="smile-emoji" transform="translate(-51.661 -52.252)">
    <g id="Group_30" data-name="Group 30" transform="translate(51.661 52.252)">
      <path id="Path_91" data-name="Path 91" d="M79.745,96.605c-16.232,21.184-22.613,48.912-25.962,75.963-2.81,22.7-3.739,46.271,3.022,68.017,9.987,32.131,36.272,56.768,66.137,68.766s62.941,12.508,94.5,7.292c56.073-9.264,102.672-62.024,105.722-122.4C327.648,105.5,244.872,43.288,166.336,53.311,133.838,57.46,100.368,69.688,79.745,96.605Z" transform="translate(-51.661 -52.252)" fill="#ffda36"/>
      <path id="Path_92" data-name="Path 92" d="M198.62,89.22C188.149,65.911,151.7,56.562,129.651,60.027c-3.448.543-2.105,5.512.753,5.891,12.975,1.722,24.456,4.156,36.3,10.282,9.7,5.016,16.741,13.9,26.212,19.06C196.774,97.363,200.416,93.214,198.62,89.22Z" transform="translate(15.016 -46.04)" fill="#ffe175"/>
      <path id="Path_93" data-name="Path 93" d="M171.618,81.68c-2.793-.327-4.072,3.82-2.222,5.683,3.82,3.846,8.115,6.77,11.535,11.116,3.643,4.629,5.632,10.331,9.291,15.006,2.342,2.99,6.368.3,6.588-2.89C197.712,97.485,183.476,83.071,171.618,81.68Z" transform="translate(50.954 -26.43)" fill="#ffe175"/>
      <path id="Path_94" data-name="Path 94" d="M217.441,299.466c37.138-6.136,70.1-31.36,89.03-65.23-24.807,17.954-53.892,29.128-83.868,30.612-47.725,2.364-96.638-21.053-124.009-62.526C73.841,164.813,68.719,113.3,86.345,71.816a90.492,90.492,0,0,0-6.6,7.612c-16.232,21.184-22.613,48.912-25.962,75.963-2.81,22.7-3.739,46.271,3.022,68.017,9.987,32.131,36.272,56.768,66.137,68.766S185.883,304.682,217.441,299.466Z" transform="translate(-51.661 -35.074)" fill="#ffc52b"/>
    </g>
    <path id="Path_95" data-name="Path 95" d="M105.714,97.331c-15.608-1.286-28.9,11.695-31.061,26.805-.344,2.4,2.147,4.135,4.117,2.4,7.884-6.962,11.719-17.821,23.772-18.675,11.766-.838,15.967,12.414,21.78,19.721,2.473,3.11,8.526.627,8.059-3.337C130.891,111.58,118.89,98.417,105.714,97.331Z" transform="translate(20.16 39.504)" fill="#a24818"/>
    <path id="Path_96" data-name="Path 96" d="M166.016,97.331c15.608-1.286,28.9,11.695,31.061,26.805.344,2.4-2.147,4.135-4.117,2.4-7.884-6.962-11.719-17.821-23.772-18.675-11.766-.838-15.969,12.414-21.78,19.721-2.473,3.11-8.526.627-8.061-3.337C140.839,111.58,152.84,98.417,166.016,97.331Z" transform="translate(76.97 39.504)" fill="#a24818"/>
    <path id="Path_97" data-name="Path 97" d="M81.711,140.622c-2.96,16.271,17.077,61.085,77.5,61.742s80.79-57.8,80.132-63.713S83.024,133.4,81.711,140.622Z" transform="translate(26.138 72.358)" fill="#f26f59"/>
    <path id="Path_98" data-name="Path 98" d="M81.709,140.622c-1.042,5.724.843,14.989,6.25,24.612,20.219-9.522,43.894-13.032,66.5-15.1,11.3-1.033,22.734-1.84,33.976-.261,14.159,1.989,27.3,7.743,39.39,15.462,8.4-12.632,11.8-24.221,11.524-26.685C238.69,132.74,83.021,133.4,81.709,140.622Z" transform="translate(26.141 72.358)" fill="#ef5345"/>
  </g>
</svg>
