<svg id="step-arrow" xmlns="http://www.w3.org/2000/svg" width="644.822" height="200.5" viewBox="0 0 644.822 200.5">
  <g id="Design-Discovery-6">
    <path id="img-arrow-left-right" d="M135.511,803.013V803l-1-.045v.037l-4.011-.084L134.811,812l4.687-8.9ZM775.322,611.5h-1q0,1-.01,1.992l1,.011Q775.323,612.507,775.322,611.5Zm-.041,4.016-1-.02q-.021,1-.052,1.993l1,.032C775.25,616.855,775.267,616.188,775.281,615.516Zm-.126,4-1-.043q-.042,1-.1,1.988l1,.054Q775.114,620.52,775.155,619.516Zm-.217,4.006-1-.066q-.064,1-.142,1.986l1,.079Q774.872,624.525,774.938,623.522Zm-.314,4.009-.995-.091q-.092,1-.194,1.986l.994.1Q774.533,628.535,774.624,627.531Zm-.416,3.992-.993-.117q-.117,1-.247,1.979l.992.131Q774.09,632.524,774.208,631.523Zm-.526,3.983-.989-.145q-.145.991-.3,1.971l.987.16Q773.537,636.5,773.682,635.506Zm-.641,3.965-.985-.174c-.116.656-.237,1.306-.363,1.955l.982.189Q772.864,640.463,773.041,639.471Zm-.765,3.941-.978-.205q-.208.978-.428,1.945l.975.223Q772.067,644.4,772.276,643.412Zm-.9,3.932-.97-.241q-.242.97-.495,1.926l.966.258C771.049,648.645,771.215,648,771.376,647.344Zm-1.038,3.891-.961-.276q-.276.965-.568,1.912l.956.293Q770.061,652.207,770.338,651.235Zm-1.174,3.818-.95-.313q-.312.951-.641,1.885l.942.332Q768.848,656.014,769.164,655.053Zm-1.336,3.794-.936-.353q-.351.936-.719,1.854l.928.372Q767.473,659.793,767.828,658.847Zm-1.5,3.741-.92-.393q-.391.921-.8,1.822l.91.413Q765.932,663.518,766.328,662.588Zm-1.669,3.672-.9-.436q-.434.9-.885,1.778l.889.457Q764.22,667.168,764.659,666.26Zm-1.841,3.586-.878-.479q-.478.876-.973,1.733l.866.5Q762.334,670.732,762.818,669.846Zm-2.022,3.495-.852-.523c-.348.567-.7,1.125-1.06,1.68l.838.545Q760.268,674.2,760.8,673.341Zm-2.2,3.387-.823-.566q-.566.817-1.148,1.619l.807.589Q758.022,677.56,758.593,676.728Zm-2.38,3.262-.791-.611q-.609.786-1.238,1.555l.774.633Q755.6,680.79,756.213,679.99Zm-2.567,3.136-.756-.655q-.651.751-1.32,1.482l.736.676Q752.987,683.888,753.646,683.126Zm-2.675,2.919-.718-.7q-.692.713-1.4,1.407l.7.716Q750.271,686.77,750.971,686.045Zm-2.887,2.816-.678-.734q-.729.67-1.479,1.325l.657.754Q747.345,689.545,748.084,688.861Zm-3.042,2.651-.635-.774q-.767.632-1.553,1.242l.614.79Q744.265,692.15,745.042,691.512Zm-3.181,2.472-.592-.806q-.8.585-1.616,1.152l.569.822Q741.052,694.579,741.861,693.984Zm-3.317,2.3-.548-.837q-.828.542-1.675,1.065l.524.85C737.418,697.009,737.984,696.648,738.544,696.283Zm-3.435,2.119-.5-.864q-.855.5-1.729.978l.481.876Q734.243,698.906,735.109,698.4Zm-3.537,1.941-.459-.888q-.881.454-1.777.891l.437.9Q730.682,700.8,731.572,700.343Zm-3.627,1.764-.416-.91q-.9.412-1.817.806l.4.919Q727.034,702.523,727.945,702.107Zm-3.709,1.594-.374-.928c-.613.249-1.23.489-1.853.725l.353.936Q723.307,704.076,724.236,703.7Zm-3.775,1.428-.334-.941q-.933.328-1.883.644l.315.949Q719.517,705.463,720.461,705.129Zm-3.824,1.268-.3-.956c-.631.2-1.267.385-1.908.571l.277.961Q715.681,706.691,716.637,706.4Zm-3.875,1.117-.259-.965q-.957.255-1.929.5l.242.97Q711.8,707.771,712.762,707.514Zm-3.908.972-.224-.974q-.966.222-1.946.43l.208.978Q707.881,708.712,708.854,708.486Zm-3.943.838-.191-.981q-.972.189-1.958.366l.175.984Q703.932,709.514,704.911,709.324Zm-3.961.708-.161-.987q-.978.159-1.968.306l.146.989Q699.965,710.193,700.95,710.032Zm-3.993.589-.131-.99c-.655.086-1.314.17-1.978.248l.118.993Q695.968,710.754,696.957,710.621Zm-4,.475-.1-.994q-.987.1-1.985.2l.092.995C691.634,711.23,692.3,711.166,692.961,711.1Zm-4.005.367-.078-1q-.989.078-1.989.144l.066,1Q687.962,711.543,688.956,711.463Zm-4.017.267-.055-1q-.99.055-1.992.1l.043,1Q683.943,711.785,684.939,711.73Zm-3.836.168-.033-1q-.991.035-1.994.055l.022,1Q680.106,711.932,681.1,711.9Zm-4.011.088-.012-1q-.993.011-1.995.013v1Q676.094,712,677.092,711.986ZM673.08,712v-1h-2v1Zm-4.012,0v-1h-2v1Zm-3.987,0v-1h-1.993v1Zm-3.988,0v-1H659.1v1Zm-4.017,0v-1h-2.008v1Zm-3.992,0v-1h-2v1Zm-3.994,0v-1H647.1v1Zm-4.022,0v-1h-1.989v1Zm-4,0v-1h-2.006v1Zm-3.977,0v-1h-2v1Zm-4.005,0v-1H631.1v1Zm-4.01,0v-1h-2v1Zm-3.988,0v-1H623.1v1Zm-4.018,0v-1h-2.008v1Zm-4,0v-1h-2v1Zm-4,0v-1H611.06v1Zm-3.986,0v-1h-2v1Zm-3.992,0v-1h-2.008v1Zm-4,0v-1h-2v1Zm-4.008,0v-1h-2.006v1Zm-3.992,0v-1H591.1v1Zm-4,0v-1h-2v1Zm-4.012,0v-1h-2.007v1Zm-4,0v-1h-1.994v1Zm-4.01,0v-1h-2v1Zm-4,0v-1h-2v1Zm-3.988,0v-1h-2.009v1Zm-4,0v-1h-1.995v1Zm-3.994,0v-1h-2v1Zm-4.01,0v-1h-2v1Zm-4,0v-1h-2v1Zm-4,0v-1h-2.005v1Zm-3.992,0v-1h-2.007v1Zm-4.011,0v-1h-2.008v1Zm-3.985,0v-1h-2.008v1Zm-4.007,0v-1h-2.008v1Zm-4.006,0v-1h-2.007v1Zm-4.006,0v-1h-2v1Zm-3.983,0v-1h-2v1Zm-4.009,0v-1h-2v1Zm-3.988,0v-1h-2v1Zm-4.017,0v-1h-2v1Zm-4,0v-1h-2.007v1Zm-4,0v-1h-2v1Zm-3.986,0v-1h-2v1Zm-3.995,0v-1h-2.006v1Zm-4,0v-1h-2v1Zm-4.014,0v-1H483.08v1Zm-4,0v-1h-2v1Zm-3.987,0v-1h-2.006v1Zm-4,0v-1h-2v1Zm-4.014,0v-1h-2v1Zm-4,0v-1h-2v1Zm-3.993,0v-1H459.07v1Zm-3.985,0v-1h-2v1Zm-4,0v-1h-1.995v1Zm-4.02,0v-1h-2.005v1Zm-3.987,0v-1h-2v1Zm-4.006,0v-1h-2v1Zm-4,0v-1H435.08v1Zm-3.995,0v-1h-2v1Zm-3.99,0v-1h-2.005v1Zm-4.013,0v-1h-2v1Zm-4.008,0v-1h-2v1Zm-3.979,0v-1h-2v1Zm-4,0v-1h-2v1Zm-4,0v-1h-2v1Zm-4,0v-1h-2v1Zm-4.022,0v-1h-2v1Zm-3.992,0v-1h-2v1Zm-3.991,0v-1h-2v1Zm-4.018,0v-1h-2v1Zm-3.988,0v-1h-2v1Zm-4.015,0v-1h-2v1Zm-3.986,0v-1h-2v1Zm-4.014,0v-1h-2v1Zm-3.984,0v-1h-2v1Zm-4.013,0v-1h-2v1Zm-3.983,0v-1h-2v1Zm-4.011,0v-1h-2v1Zm-3.981,0v-1h-2v1Zm-4.01,0v-1h-2v1Zm-4.009,0v-1h-2v1Zm-4.009,0v-1h-2v1Zm-3.977,0v-1h-2v1Zm-4.007,0v-1h-2v1Zm-4.006,0v-1h-2v1Zm-4,0v-1h-2v1Zm-4,0v-1h-2v1Zm-4,0v-1h-2v1Zm-4,0v-1h-2v1Zm-4,0v-1h-2v1Zm-3.995,0v-1h-2v1Zm-3.994,0v-1h-2v1Zm-3.99,0v-1h-2v1Zm-4.02,0v-1h-2v1Zm-3.985,0v-1h-2v1Zm-4.014,0v-1h-2v1Zm-3.977,0v-1h-2v1Zm-4.007,0v-1h-2v1Zm-4,0v-1h-2v1Zm-4,0v-1h-2v1Zm-3.993,0v-1h-2v1Zm-4.023,0v-1h-2v1Zm-3.982,0v-1h-2v1Zm-4.012,0v-1h-2v1Zm-4.006,0v-1h-2v1Zm-4,0v-1h-2v1Zm-3.992,0v-1h-2v1Zm-3.985,0v-1h-2v1Zm-4.011.008-.009-1q-1.007.009-2,.027l.019,1Q232.084,712.017,233.084,712.008Zm-3.988.076-.03-1q-1.01.03-2.007.071l.041,1Q228.093,712.116,229.1,712.084Zm-3.993.165-.052-1q-1.007.052-2,.117l.064,1Q224.1,712.3,225.1,712.249Zm-3.98.257-.077-1q-1.007.077-2,.166l.089,1Q220.122,712.582,221.123,712.506Zm-3.976.355-.1-.994q-1,.1-1.995.217l.115.994Q216.15,712.964,217.147,712.861Zm-3.963.46-.129-.991q-1,.129-1.986.273l.143.989Q212.192,713.451,213.184,713.321Zm-3.933.57-.158-.988q-1,.16-1.979.331l.173.986Q208.262,714.047,209.251,713.891Zm-3.93.689-.188-.981q-.993.191-1.969.393l.2.98Q204.337,714.769,205.321,714.58Zm-3.907.817-.221-.975q-.984.222-1.956.461l.237.97Q200.439,715.617,201.414,715.4Zm-3.877.949-.255-.967q-.977.259-1.939.531l.273.963Q196.569,716.6,197.537,716.346Zm-3.839,1.092-.292-.958q-.966.3-1.918.606l.311.951Q192.741,717.729,193.7,717.438Zm-3.759,1.226-.33-.943q-.954.333-1.891.682l.348.937Q188.994,718.993,189.939,718.664Zm-3.733,1.393-.369-.93q-.939.373-1.86.764l.391.919Q185.277,720.426,186.206,720.057Zm-3.672,1.556-.411-.912q-.921.416-1.824.848l.432.9Q181.624,722.024,182.534,721.613Zm-3.588,1.72-.454-.892q-.9.459-1.78.936l.475.879Q178.057,723.785,178.946,723.333Zm-3.5,1.9-.5-.867q-.876.5-1.733,1.025l.519.854Q174.578,725.725,175.442,725.228Zm-3.406,2.074-.542-.841q-.849.547-1.678,1.115l.565.824C170.927,728.028,171.477,727.662,172.036,727.3Zm-3.295,2.253-.587-.809q-.817.593-1.615,1.2l.609.794Q167.936,730.14,168.741,729.555Zm-3.165,2.429-.631-.776q-.781.636-1.544,1.292l.652.758Q164.8,732.61,165.576,731.984Zm-2.964,2.547-.673-.74q-.746.678-1.472,1.377l.693.721Q161.876,735.2,162.612,734.531Zm-2.863,2.753-.714-.7q-.707.719-1.392,1.457l.733.68Q159.053,737.992,159.749,737.284Zm-2.71,2.918-.752-.659q-.663.756-1.307,1.532l.77.638Q156.385,740.948,157.039,740.2Zm-2.54,3.065-.788-.617q-.619.792-1.22,1.6l.8.594Q153.887,744.048,154.5,743.267Zm-2.368,3.2-.821-.572q-.573.822-1.13,1.667l.835.549Q151.564,747.282,152.131,746.469Zm-2.191,3.324-.848-.527q-.531.851-1.041,1.722l.863.506Q149.418,750.633,149.94,749.793Zm-2.012,3.433-.875-.484q-.486.876-.952,1.772l.887.463Q147.45,754.092,147.928,753.226Zm-1.841,3.536-.9-.441q-.441.9-.864,1.817l.908.419Q145.652,757.65,146.087,756.762Zm-1.671,3.625-.918-.4q-.4.919-.779,1.855l.926.377Q144.021,761.294,144.416,760.387Zm-1.5,3.691-.935-.355q-.357.934-.7,1.886l.942.336Q142.56,765,142.914,764.078Zm-1.344,3.76-.948-.317q-.318.946-.618,1.913l.954.3Q141.257,768.777,141.57,767.838Zm-1.189,3.809-.96-.28q-.281.961-.544,1.936l.966.262Q140.1,772.6,140.381,771.647Zm-1.043,3.853-.97-.244q-.243.969-.473,1.952l.975.227Q139.1,776.46,139.338,775.5Zm-.907,3.9-.977-.211q-.21.978-.405,1.967l.98.2Q138.224,780.364,138.431,779.4Zm-.773,3.916-.983-.179q-.18.983-.342,1.977l.986.164Q137.483,784.287,137.658,783.313Zm-.65,3.945-.99-.149q-.147.988-.282,1.989l.991.132Q136.861,788.237,137.008,787.258Zm-.534,3.959-.993-.12q-.118.99-.226,1.993l.994.106Q136.355,792.2,136.474,791.217Zm-.424,3.974-1-.092q-.092.993-.172,2l1,.08Q135.956,796.179,136.05,795.191Zm-.323,4-1-.068q-.069.995-.125,2l1,.056Q135.659,800.179,135.727,799.189Z" transform="translate(-130.5 -611.5)" fill="#7e8485"/>
  </g>
</svg>
