<svg xmlns="http://www.w3.org/2000/svg" width="359.305" height="408.818" viewBox="0 0 359.305 408.818">
  <g id="trash" transform="translate(-780.531 -335.715)">
    <g id="Group_1" data-name="Group 1">
      <path id="Path_2" data-name="Path 2" d="M855.636,744.533c-2.115-2-5.084-1.832-7.564-2.982-14.111-6.55-20.634-17.986-21.861-33.044Q820.7,640.938,815.12,573.375q-4.175-51.074-8.281-102.153c-.366-4.5-.879-9-1.176-13.507-.113-1.715-.752-2.221-2.426-2.16-3.32.122-6.649.085-9.973.025-7.557-.135-12.532-4.972-12.631-12.446-.1-7.712-.168-15.43.007-23.14.473-20.966,15.887-36.085,37.022-36.213,20.614-.126,41.23-.028,61.844-.028,8.853,0,8.874,0,8.848-8.711-.02-6.571.715-12.972,3.781-18.926,6.774-13.157,17.751-19.958,32.339-20.158q35.7-.488,71.418-.02c20.628.257,35.651,15.627,36.139,36.278.087,3.7-1.311,8.833.574,10.749,2.405,2.444,7.513.736,11.447.752,19.417.079,38.836-.049,58.253.063,15.259.088,26.758,6.657,33.829,20.413a35.9,35.9,0,0,1,3.631,16.167c.107,7.446.08,14.9.012,22.343-.072,7.991-4.953,12.763-13.009,12.891-3.842.061-8.781-1.259-11.221.631-2.519,1.952-1.218,7.2-1.536,11q-3.532,42.322-6.992,84.652-3.815,46.1-7.651,92.2c-1.734,21.064-3.555,42.123-5.07,63.2-1.1,15.336-7.158,27.334-21.621,34a93.252,93.252,0,0,1-9.512,3.247ZM829.572,455.77c1.589,19.72,3.127,39.2,4.736,58.673q4.2,50.872,8.466,101.74c2.518,30.6,4.928,61.217,7.463,91.819.7,8.489,5.306,12.577,13.851,12.579q96.16.016,192.32,0c8.37,0,13-4.006,13.715-12.279,2.007-23.309,3.86-46.633,5.758-69.952q3.348-41.139,6.678-82.281c2.745-33.372,5.54-66.74,8.329-100.3Zm130.475-24.126h147.182c8.618,0,8.618,0,8.616-8.545,0-11.283-4.086-15.4-15.292-15.4h-280.8c-1.064,0-2.129-.027-3.191.017A12,12,0,0,0,804.583,419.6c-.1,2.523.193,5.076-.083,7.572-.385,3.484.616,4.577,4.377,4.566Q884.462,431.523,960.047,431.644Zm-.291-47.891c12.352,0,24.7.048,37.054-.029,3.672-.023,8.858,1.623,10.616-.658,1.879-2.437.711-7.335.622-11.153-.16-6.869-4.976-12-11.747-12.036q-36.057-.191-72.115-.008c-6.788.033-11.608,5.124-11.849,11.955-.1,2.918.167,5.859-.084,8.76-.232,2.674.733,3.249,3.278,3.228C930.272,383.691,945.014,383.753,959.756,383.753Z" fill="#010101"/>
      <path id="Path_6" data-name="Path 6" d="M876.389,575.689c0-27.783-.041-55.566.025-83.349.021-9.189,8.073-15.1,16.148-11.965,4.619,1.792,7.149,5.327,7.7,10.231a35.985,35.985,0,0,1,.072,3.985q0,81.554-.01,163.108a26.491,26.491,0,0,1-.323,5.55,11.914,11.914,0,0,1-23.565-2.617c-.128-11.7-.044-23.4-.045-35.094Q876.387,600.614,876.389,575.689Z" fill="#010101"/>
      <path id="Path_7" data-name="Path 7" d="M948.226,576.093c0-27.915-.041-55.831.024-83.747.022-9.19,8.068-15.1,16.144-11.973,4.62,1.791,7.15,5.324,7.7,10.228a35.725,35.725,0,0,1,.073,3.984q0,81.553-.01,163.108a26.622,26.622,0,0,1-.321,5.55,11.915,11.915,0,0,1-23.567-2.6c-.128-11.564-.044-23.13-.045-34.7Q948.224,601.017,948.226,576.093Z" fill="#010101"/>
      <path id="Path_8" data-name="Path 8" d="M1020.063,576.153q0-41.076.01-82.152a18.27,18.27,0,0,1,.57-5.911,11.91,11.91,0,0,1,23.258,2.054,33.228,33.228,0,0,1,.1,3.983q.008,81.953-.007,163.9a24.919,24.919,0,0,1-.3,5.155,11.918,11.918,0,0,1-23.587-2.49c-.137-9.835-.045-19.674-.046-29.511Q1020.061,603.67,1020.063,576.153Z" fill="#010101"/>
    </g>
  </g>
</svg>
