<svg xmlns="http://www.w3.org/2000/svg" width="45.1" height="45.1" viewBox="0 0 45.1 45.1">
  <g id="trial-clinic" transform="translate(1398.3 -543.45)">
    <path id="Path_77356" data-name="Path 77356" d="M8.17,152.042v30.93h8.486L29.71,172.557l13.054,10.415H51.25v-30.93l-11.977-.277L29.71,162.41l-9.875-10.645Z" transform="translate(-1405.46 404.923)" fill="#c3d9ff"/>
    <path id="Path_77360" data-name="Path 77360" d="M138.486,80.818h4.154l6.06-1.894,6.06,1.894h4.154V37.579H138.486Z" transform="translate(-1524.45 506.698)" fill="#c3d9ff"/>
    <path id="Path_77361" data-name="Path 77361" d="M198.4,60.955h-4.036V56.919h-4.047v4.036h-4.036V65h4.036v4.036h4.047V65H198.4Z" transform="translate(-1568.091 491.778)" fill="#cdeb8b"/>
    <path id="Path_77362" data-name="Path 77362" d="M186.281,333.427v14.881h6.06l1.894-7.441-1.894-7.441Z" transform="translate(-1568.091 239.302)" fill="#cdeb8b"/>
    <rect id="Rectangle_7632" data-name="Rectangle 7632" width="6.06" height="14.881" transform="translate(-1375.75 572.73)" fill="#cdeb8b"/>
    <path id="Path_77363" data-name="Path 77363" d="M190.94,51.831h-3.326V48.505a.71.71,0,0,0-.71-.71h-4.047a.71.71,0,0,0-.71.71v3.326h-3.326a.71.71,0,0,0-.71.71v4.047a.71.71,0,0,0,.71.71h3.326v3.326a.71.71,0,0,0,.71.71H186.9a.71.71,0,0,0,.71-.71V57.3h3.326a.71.71,0,0,0,.71-.71V52.541A.71.71,0,0,0,190.94,51.831Zm-.71,4.047H186.9a.71.71,0,0,0-.71.71v3.326h-2.627V56.588a.71.71,0,0,0-.71-.71h-3.326V53.251h3.326a.71.71,0,0,0,.71-.71V49.215h2.627v3.326a.71.71,0,0,0,.71.71h3.326Z" transform="translate(-1560.631 500.109)" fill="#4096ee"/>
    <path id="Path_77364" data-name="Path 77364" d="M431.213,402.081a.71.71,0,0,0,.71-.71v-3.214a.71.71,0,1,0-1.42,0v3.214A.71.71,0,0,0,431.213,402.081Z" transform="translate(-1791.086 180.848)" fill="#4096ee" stroke="#4096ee" stroke-width="0.6"/>
    <path id="Path_77365" data-name="Path 77365" d="M431.213,303.868a.71.71,0,0,0,.71-.71v-3.214a.71.71,0,1,0-1.42,0v3.214A.71.71,0,0,0,431.213,303.868Z" transform="translate(-1791.086 270.525)" fill="#4096ee" stroke="#4096ee" stroke-width="0.6"/>
    <path id="Path_77366" data-name="Path 77366" d="M431.213,205.653a.71.71,0,0,0,.71-.71v-3.214a.71.71,0,1,0-1.42,0v3.214A.71.71,0,0,0,431.213,205.653Z" transform="translate(-1791.086 360.203)" fill="#4096ee" stroke="#4096ee" stroke-width="0.6"/>
    <path id="Path_77367" data-name="Path 77367" d="M65.868,397.446a.71.71,0,0,0-.71.71v3.214a.71.71,0,1,0,1.42,0v-3.214A.71.71,0,0,0,65.868,397.446Z" transform="translate(-1457.495 180.848)" fill="#4096ee" stroke="#4096ee" stroke-width="0.6"/>
    <path id="Path_77368" data-name="Path 77368" d="M65.868,299.231a.71.71,0,0,0-.71.71v3.214a.71.71,0,0,0,1.42,0v-3.214A.71.71,0,0,0,65.868,299.231Z" transform="translate(-1457.495 270.526)" fill="#4096ee" stroke="#4096ee" stroke-width="0.6"/>
    <path id="Path_77369" data-name="Path 77369" d="M65.868,201.018a.71.71,0,0,0-.71.71v3.214a.71.71,0,0,0,1.42,0v-3.214A.71.71,0,0,0,65.868,201.018Z" transform="translate(-1457.495 360.203)" fill="#4096ee" stroke="#4096ee" stroke-width="0.6"/>
    <path id="Path_77370" data-name="Path 77370" d="M43.79,12.149H33.174V1.42h.237a.71.71,0,0,0,0-1.42H11.09a.71.71,0,0,0,0,1.42h.237V12.149H.71a.71.71,0,0,0-.71.71V43.79a.71.71,0,0,0,.71.71H43.79a.71.71,0,0,0,.71-.71V12.86A.71.71,0,0,0,43.79,12.149ZM1.42,13.57h9.906V43.08H1.42ZM27.6,29.619V43.08H22.96V29.619ZM21.54,43.08H16.9V29.619H21.54Zm21.54,0H33.174V18.54a.71.71,0,0,0-1.42,0V43.08H29.02V28.908a.71.71,0,0,0-.71-.71H16.19a.71.71,0,0,0-.71.71V43.08H12.747V1.42H31.754V15.7a.71.71,0,0,0,1.42,0V13.57H43.08Z" transform="translate(-1398 543.75)" fill="#4096ee" stroke="#4096ee" stroke-width="0.6"/>
  </g>
</svg>
