<svg xmlns="http://www.w3.org/2000/svg" width="40" height="40" viewBox="0 0 40 40">
  <g id="twitter" transform="translate(-1379 -6167)">
    <rect id="Rectangle_68" data-name="Rectangle 68" width="40" height="40" rx="5" transform="translate(1379 6167)" fill="#fff"/>
    <g id="twitter-svgrepo-com" transform="translate(1387 6133.126)">
      <g id="Group_53" data-name="Group 53" transform="translate(0 43.874)">
        <path id="Path_337" data-name="Path 337" d="M23.784,46.2a.49.49,0,0,0-.571.015,2.463,2.463,0,0,1-.756.329,2.756,2.756,0,0,0,.863-1.823.49.49,0,0,0-.777-.365,4.775,4.775,0,0,1-2.662.926,5.049,5.049,0,0,0-3.5-1.4,5.164,5.164,0,0,0-5.124,5.191,5.322,5.322,0,0,0,.045.692c-4.823-.082-8.737-4.7-8.778-4.747a.485.485,0,0,0-.419-.174.49.49,0,0,0-.382.243,5.159,5.159,0,0,0,.3,5.687c-.086-.051-.157-.1-.2-.134a.49.49,0,0,0-.782.385,4.982,4.982,0,0,0,2.047,4.335.49.49,0,0,0-.4.628,4.885,4.885,0,0,0,3.58,3.449C3.957,61.171.613,60.6.576,60.6a.49.49,0,0,0-.384.871A12.388,12.388,0,0,0,7.717,63.76a14.553,14.553,0,0,0,2.855-.262c10.716-2.54,11.056-12.331,11.034-14,2.01-1.872,2.327-2.59,2.376-2.769A.49.49,0,0,0,23.784,46.2Zm-3.006,2.735a.49.49,0,0,0-.157.394A14.337,14.337,0,0,1,19.6,54.962c-1.58,3.951-4.7,6.5-9.249,7.582A14.038,14.038,0,0,1,2.4,61.667a7.4,7.4,0,0,0,5.31-2.241.518.518,0,0,0,.08-.543.507.507,0,0,0-.448-.305h0a3.942,3.942,0,0,1-3.428-2.171,3.052,3.052,0,0,0,1.365-.2.486.486,0,0,0-.1-.918,4.081,4.081,0,0,1-3.1-3.407,2.651,2.651,0,0,0,1.383.22.49.49,0,0,0,.248-.854c-.112-.1-2.547-2.263-1.432-5.061,1.32,1.375,5.084,4.8,9.648,4.537a.49.49,0,0,0,.447-.608,4.318,4.318,0,0,1-.13-1.051,4.183,4.183,0,0,1,4.144-4.212,4.083,4.083,0,0,1,2.952,1.256.49.49,0,0,0,.343.149,5.727,5.727,0,0,0,2.04-.358,7.609,7.609,0,0,1-1.094,1.024.49.49,0,0,0,.342.873,10.27,10.27,0,0,0,1.141-.164C21.78,47.977,21.351,48.4,20.778,48.931Z" transform="translate(0 -43.874)" fill="#0B6623"/>
      </g>
    </g>
  </g>
</svg>
