<svg xmlns="http://www.w3.org/2000/svg" width="72.896" height="26.267" viewBox="0 0 72.896 26.267">
  <path id="upi" d="M152.406,73.543a1.518,1.518,0,0,1-.22-1.227A2.191,2.191,0,0,1,152.91,71a1.979,1.979,0,0,1,1.335-.5,1.82,1.82,0,0,1,.777.14l-.075.425a1.433,1.433,0,0,0-.771-.2,1.472,1.472,0,0,0-1.02.391,1.778,1.778,0,0,0-.549,1.047,1.243,1.243,0,0,0,.166.991.968.968,0,0,0,.828.369,1.9,1.9,0,0,0,.928-.228l-.068.387a2.221,2.221,0,0,1-.975.2,1.269,1.269,0,0,1-1.081-.467ZM130.285,74c-.077-.009-.156-.022-.234-.038a1.8,1.8,0,0,1-.223-.062.6.6,0,0,1-.162-.082l.083-.469a.709.709,0,0,0,.171.128,1.277,1.277,0,0,0,.22.1,1.645,1.645,0,0,0,.24.059,1.331,1.331,0,0,0,.229.022,1.029,1.029,0,0,0,.574-.136.568.568,0,0,0,.25-.392.427.427,0,0,0-.018-.24.534.534,0,0,0-.135-.186,1.3,1.3,0,0,0-.224-.161q-.132-.077-.286-.162c-.1-.057-.208-.121-.3-.183a1.113,1.113,0,0,1-.234-.2.675.675,0,0,1-.135-.253.741.741,0,0,1-.007-.331.916.916,0,0,1,.176-.4,1.137,1.137,0,0,1,.319-.284,1.465,1.465,0,0,1,.41-.166,1.852,1.852,0,0,1,.443-.055,1.514,1.514,0,0,1,.712.121l-.079.449a1.161,1.161,0,0,0-.736-.209,1.36,1.36,0,0,0-.266.027.874.874,0,0,0-.248.089.67.67,0,0,0-.194.159.5.5,0,0,0-.105.234.455.455,0,0,0,.008.226.432.432,0,0,0,.114.176,1.108,1.108,0,0,0,.2.152q.124.074.286.161a3.576,3.576,0,0,1,.313.19,1.238,1.238,0,0,1,.248.221.769.769,0,0,1,.148.268.7.7,0,0,1,.013.337,1,1,0,0,1-.176.426,1.048,1.048,0,0,1-.316.284,1.387,1.387,0,0,1-.414.158,2.218,2.218,0,0,1-.469.049A1.89,1.89,0,0,1,130.285,74ZM89.323,72.632l.367-2.081h.4l-.362,2.055q-.185,1.046.7,1.046.852,0,1.03-1.011l.368-2.091h.4l-.357,2.027a1.482,1.482,0,0,1-1.547,1.433Q89.08,74.011,89.323,72.632Zm65.856,1.322.6-3.4h1.728l-.064.361h-1.329l-.2,1.132h1.23l-.063.359h-1.23l-.21,1.191h1.406l-.063.361Zm-3.984,0L151,73h-1.443l-.508.954h-.444l1.906-3.4h.414l.709,3.4Zm-.654-2.762-.785,1.45h1.179l-.278-1.45a1.286,1.286,0,0,1-.012-.228h-.009a1.506,1.506,0,0,1-.1.228ZM146.9,73.953l.6-3.4h1.726l-.064.361H147.83l-.207,1.178h1.23l-.063.359h-1.23l-.266,1.507Zm-.991,0L145.5,73a1.653,1.653,0,0,0-.112-.227.66.66,0,0,0-.124-.153.42.42,0,0,0-.151-.087.644.644,0,0,0-.2-.027h-.327l-.255,1.447h-.4l.6-3.4h1.015a1.361,1.361,0,0,1,.4.056.743.743,0,0,1,.3.17.621.621,0,0,1,.167.284.9.9,0,0,1,.008.4,1.079,1.079,0,0,1-.309.591,1.2,1.2,0,0,1-.272.2,1.465,1.465,0,0,1-.335.127v.009a.567.567,0,0,1,.133.087.607.607,0,0,1,.1.117,1.252,1.252,0,0,1,.086.151c.028.059.059.121.09.2l.458,1.023Zm-1.248-1.808h.541a.889.889,0,0,0,.284-.045.805.805,0,0,0,.243-.129.751.751,0,0,0,.181-.207.787.787,0,0,0,.1-.274.459.459,0,0,0-.1-.426.653.653,0,0,0-.484-.153h-.546Zm-3.222,1.808.6-3.4h1.728l-.064.361h-1.331l-.2,1.132h1.23l-.063.359H142.1l-.21,1.191H143.3l-.063.361Zm-1.964,0,.537-3.042h-.981l.064-.361h2.361l-.064.361h-.982l-.537,3.042Zm-2.061,0-1.274-2.713a.942.942,0,0,1-.071-.213h-.014a3.525,3.525,0,0,1-.063.469l-.433,2.46h-.4l.6-3.4h.517l1.233,2.67c.052.111.084.187.1.228h.009a3.577,3.577,0,0,1,.064-.5l.423-2.4h.4l-.6,3.4Zm-3.6,0,.6-3.4h.4l-.6,3.4Zm-5.975,0,.536-3.042h-.98l.064-.361h2.361l-.064.361h-.982l-.537,3.042Zm-2.061,0L124.5,71.241a.918.918,0,0,1-.071-.213h-.014a3.525,3.525,0,0,1-.063.469l-.434,2.46h-.4l.6-3.4h.518l1.233,2.67c.052.111.084.187.1.228h.009a3.575,3.575,0,0,1,.064-.5l.423-2.4h.4l-.6,3.4Zm-4.762,0,.6-3.4h1.728l-.064.361H121.95l-.2,1.132h1.23l-.063.359h-1.23l-.21,1.191h1.406l-.063.361Zm-1.34,0,.4-2.285q.047-.271.151-.662h-.009a2.61,2.61,0,0,1-.161.33l-1.624,2.615h-.195l-.7-2.6A1.839,1.839,0,0,1,117.5,71h-.009q-.018.2-.1.667l-.4,2.278H116.6l.6-3.4h.527l.626,2.373a2.65,2.65,0,0,1,.084.41h.014q.152-.28.238-.418l1.482-2.364h.5l-.6,3.4Zm-5.118,0,.22-1.248-.714-2.155h.453l.491,1.537c.006.019.022.088.046.209h.007a1.522,1.522,0,0,1,.127-.209l1.069-1.537h.422l-1.5,2.145-.221,1.257Zm-1.311,0L113.054,73h-1.442l-.508.954h-.444l1.906-3.4h.41l.71,3.4Zm-.655-2.762-.784,1.45h1.179l-.278-1.45a1.289,1.289,0,0,1-.012-.228h-.009a1.445,1.445,0,0,1-.1.228Zm-3.934,2.762.6-3.4h.937a1.061,1.061,0,0,1,.8.266.82.82,0,0,1,.168.75,1.265,1.265,0,0,1-.473.793,1.487,1.487,0,0,1-.955.308h-.448l-.227,1.289Zm.689-1.647h.418a1.077,1.077,0,0,0,.663-.189.82.82,0,0,0,.311-.533q.117-.674-.678-.674h-.469Zm-5.525,1.647.6-3.4h.937q1.8,0,1.507,1.658a2.036,2.036,0,0,1-.723,1.266,2.172,2.172,0,0,1-1.422.478Zm.462-.361h.508a1.683,1.683,0,0,0,1.1-.358,1.627,1.627,0,0,0,.551-1.016q.231-1.308-1.16-1.308h-.532Zm-2.97.361.6-3.4h1.728l-.063.361h-1.329l-.2,1.132h1.23l-.063.359h-1.23l-.21,1.191h1.4l-.064.361Zm-1.342,0,.6-3.4h.4l-.605,3.4Zm-2.422,0,.6-3.4h1.728l-.063.361H98.484l-.208,1.177h1.23l-.063.359h-1.23l-.266,1.507Zm-1.342,0,.6-3.4h.4l-.6,3.4Zm-1.429,0L93.5,71.24a.917.917,0,0,1-.071-.213h-.014a3.528,3.528,0,0,1-.063.469l-.434,2.46h-.4l.6-3.4h.518l1.233,2.67c.052.111.084.187.1.228h0a3.58,3.58,0,0,1,.064-.5l.423-2.4h.4l-.6,3.4Zm58.5-11.018-4.539,4.19,5.237-19.377,2.269,4.364,1.222-4.189,4.713,9.6-10.125,9.6Zm-37.359,4.19,3.142-11.173,19.2-.351,1.047-4.015H120.277l.873-3.666h21.473a1.422,1.422,0,0,1,1.047,1.746L141.4,57.872s-.7,1.538-1.92,1.571H121.848l-2.093,7.681Zm-24.266,0a1.528,1.528,0,0,1-.873-1.746l4.713-17.457h3.841L95.139,63.284l15.362.176,4.19-15.537h4.015l-4.364,15.711-.873,2.618s-.187.864-1.746.873Zm50.1-.176,5.063-19.028h4.015l-5.416,19.03Z" transform="translate(-89.283 -47.747)" fill="#fff"/>
</svg>
