<svg xmlns="http://www.w3.org/2000/svg" width="1836.505" height="176.722" viewBox="0 0 1836.505 176.722">
  <g id="Group_2946" data-name="Group 2946" transform="translate(-71.827 -13)">
    <g id="Group_103" data-name="Group 103" transform="translate(698.134 122.009)" opacity="0.7">
      <g id="Group_1" data-name="Group 1" transform="translate(0.399 0.124)">
        <path id="Path_1" data-name="Path 1" d="M53.937,26.1s.209.723-.475.4H52.8l-.647.418-.342-.323.171-.532a14.561,14.561,0,0,1,1.16-2.453,19.386,19.386,0,0,1,4.051-4.83,32.79,32.79,0,0,1,9.7-5.629,50.414,50.414,0,0,1,4.735-1.75A121.758,121.758,0,0,1,83.831,8.316s1.141-.228,3.157-.494a30.541,30.541,0,0,1,8.614,0A19.35,19.35,0,0,1,106.707,13.3c1.673,1.692,2.586,4.222,3.917,5a2.487,2.487,0,0,0,2.339-.057c.932-.38,2.073-1.008,3.214-1.464a28.9,28.9,0,0,1,14.281-1.635,38.028,38.028,0,0,1,12.3,3.9,57.33,57.33,0,0,1,12,8.462l-1.5-1.293c-.97-.8-2.377-1.94-4.164-3.214a44.406,44.406,0,0,0-14.624-7.036,30.292,30.292,0,0,0-16.849.323c-2.358.723-4.222,1.978-5.344,2.225a2.028,2.028,0,0,1-1.845-.285,1.9,1.9,0,0,0,1.122.418,3.917,3.917,0,0,0,1.654-.4c.761-.342,1.616-.742,2.548-1.179a28.6,28.6,0,0,1,15.593-1.616A39.8,39.8,0,0,1,146.376,21.4a50.083,50.083,0,0,1,7.017,5.344s-.494-.418-1.407-1.179c-.913-.723-2.244-1.75-3.917-2.91a43.24,43.24,0,0,0-13.654-6.37,29.969,29.969,0,0,0-15.8.114,31.289,31.289,0,0,0-5.325,2.244,3.529,3.529,0,0,1-2.51.342,2.308,2.308,0,0,0,1.35.114c.932-.1,2.244-.894,4.013-1.635A27.883,27.883,0,0,1,130,15.789a37.2,37.2,0,0,1,13.958,4.83,48.807,48.807,0,0,1,7.188,5.058S149.7,24.5,147.973,23.3a40.5,40.5,0,0,0-4.659-2.871c1.008.57,2,1.2,2.948,1.826a43.726,43.726,0,0,0-4.868-2.7c-.97-.475-1.959-.932-2.967-1.331a41.564,41.564,0,0,1,4.032,1.9,30.61,30.61,0,0,1,4.126,2.624s.856.513.057-.057c-.418-.266-1.217-.8-2.833-1.711a38.818,38.818,0,0,0-7.759-3.328s-.551-.19-1.635-.494a31.983,31.983,0,0,0-4.887-.894,28.2,28.2,0,0,0-7.987.228,22.672,22.672,0,0,0-4.906,1.407c-.837.323-1.673.742-2.548,1.179a5.366,5.366,0,0,1-2.891.666,4,4,0,0,1-2.586-1.711c-.666-.856-1.2-1.845-1.883-2.738a14.655,14.655,0,0,0-5.42-4.336c-4.412-2.168-9.926-2.434-15.46-1.426-2.8.494-5.61,1.217-8.538,1.978a82.259,82.259,0,0,0-8.8,2.776,37.016,37.016,0,0,0-8.443,4.45A18.244,18.244,0,0,0,53.937,26.1Z" transform="translate(-51.807 -7.512)" fill="#6e321d"/>
      </g>
      <g id="Group_2" data-name="Group 2" transform="translate(0 0.002)">
        <path id="Path_2" data-name="Path 2" d="M157.517,29.52A65.706,65.706,0,0,0,146.279,20.7a44.234,44.234,0,0,0-7.321-3.575l-.171-.057a33.389,33.389,0,0,0-10.326-2.187c-.551-.019-1.122-.038-1.692-.038a27.8,27.8,0,0,0-7.15.894,25.3,25.3,0,0,0-4.583,1.673,7.99,7.99,0,0,1-3.062,1.122,1.665,1.665,0,0,1-.456-.057c-.875-.209-1.711-1.445-2.472-2.7a15.99,15.99,0,0,0-3.138-3.67,18.843,18.843,0,0,0-7.435-3.765,24.9,24.9,0,0,0-5.724-.818c-1.35-.038-2.13.019-2.149.019a73.733,73.733,0,0,0-14.376,2.757c-.589.152-1.16.3-1.768.456a53.039,53.039,0,0,0-13.426,5.477,21.856,21.856,0,0,0-7.569,7.264,16.731,16.731,0,0,0-1.293,2.7l-.38.989h0l.38-.989a16.731,16.731,0,0,1,1.293-2.7,21.921,21.921,0,0,1,7.549-7.264,53.509,53.509,0,0,1,13.445-5.477l1.768-.456A72.349,72.349,0,0,1,90.6,7.537c.019,0,.8-.057,2.149-.019a24.882,24.882,0,0,1,5.724.8,19.126,19.126,0,0,1,7.435,3.784,15.538,15.538,0,0,1,3.138,3.67c.78,1.255,1.6,2.491,2.472,2.681a1.151,1.151,0,0,0,.456.076,8.322,8.322,0,0,0,3.062-1.122,25.3,25.3,0,0,1,4.583-1.673,28.273,28.273,0,0,1,8.843-.856,33.241,33.241,0,0,1,10.326,2.187l.171.057a42.467,42.467,0,0,1,7.321,3.575A65.706,65.706,0,0,1,157.517,29.52Z" transform="translate(-51.786 -7.505)" fill="#c0a69d"/>
      </g>
      <g id="Group_3" data-name="Group 3">
        <path id="Path_3" data-name="Path 3" d="M51.786,27.183s.133-.38.4-1.065A15.958,15.958,0,0,1,53.555,23.3a22.547,22.547,0,0,1,7.283-7.055c6.58-4.165,15.289-6.123,21.051-7.435l.475-.114s1.807-.437,4.6-.818a29.817,29.817,0,0,1,10.782.247,18.206,18.206,0,0,1,10.117,5.952,19.28,19.28,0,0,1,1.483,2.13,11.64,11.64,0,0,0,.913,1.312,2.552,2.552,0,0,0,1.35.97h0a2.486,2.486,0,0,1-1.35-.97,11.64,11.64,0,0,1-.913-1.312,19.28,19.28,0,0,0-1.483-2.13A18.292,18.292,0,0,0,97.749,8.148a29.454,29.454,0,0,0-10.782-.266c-2.8.4-4.583.818-4.6.818l-.475.114c-5.762,1.312-14.471,3.29-21.032,7.435a22.619,22.619,0,0,0-7.3,7.055,14.816,14.816,0,0,0-1.35,2.814Z" transform="translate(-51.786 -7.505)" fill="#6e321d"/>
      </g>
      <g id="Group_4" data-name="Group 4" transform="translate(60.415 7.994)">
        <path id="Path_4" data-name="Path 4" d="M94,17.442a54.71,54.71,0,0,0-8.139-5.287A36.893,36.893,0,0,0,72.42,8.067a27.834,27.834,0,0,0-12.608,1.6,23.155,23.155,0,0,0-2.4,1.065c-.494.209-.894.418-1.217.551a4.019,4.019,0,0,1-1.236.285h0a3.8,3.8,0,0,0,1.236-.3c.323-.114.723-.323,1.217-.551.647-.3,1.464-.7,2.4-1.046a27.834,27.834,0,0,1,12.608-1.6,36.893,36.893,0,0,1,13.445,4.089A53.706,53.706,0,0,1,94,17.442Z" transform="translate(-54.963 -7.926)" fill="#6e321d"/>
      </g>
      <g id="Group_5" data-name="Group 5" transform="translate(53.588 6.157)">
        <path id="Path_5" data-name="Path 5" d="M92.732,15.283l-.114-.057a35.926,35.926,0,0,0-7.15-3.1A30.979,30.979,0,0,0,71.357,11a24.3,24.3,0,0,0-6.96,2.244,7.414,7.414,0,0,1-3.157,1.008h-.19a3.842,3.842,0,0,1-2.7-1.54c-.589-.742-1.027-1.445-1.426-2.054a10.551,10.551,0,0,0-1.16-1.616A8.947,8.947,0,0,0,54.6,7.829h.019a9.794,9.794,0,0,1,1.141,1.217,11.953,11.953,0,0,1,1.179,1.616,21.166,21.166,0,0,0,1.407,2.054,3.83,3.83,0,0,0,2.7,1.521l.19.019a7.254,7.254,0,0,0,3.138-1.008,25.259,25.259,0,0,1,6.979-2.263,31.257,31.257,0,0,1,14.11,1.141,36.871,36.871,0,0,1,7.169,3.1Z" transform="translate(-54.604 -7.829)" fill="#c0a69d"/>
      </g>
    </g>
    <g id="Group_104" data-name="Group 104" transform="translate(1310.667 111)" opacity="0.7">
      <path id="Path_6" data-name="Path 6" d="M59.009,12.2s-.114.609-.494-.038l-.476-.418-.646-.152-.133-.437s.228-.19,1.978-1.293a26.4,26.4,0,0,1,4.2-1.826A25.948,25.948,0,0,1,71.617,6.8a9.679,9.679,0,0,1,.989.019,22.4,22.4,0,0,1,2.757.209,26.609,26.609,0,0,1,12.323,4.906c.494.38,1.046.78,1.616,1.255q.8.77,1.711,1.654c.57.609,1.141,1.312,1.75,2.035a3.859,3.859,0,0,1,.4.57l.228.342.1.152,1.027-1.16c.723-.8,1.483-1.616,2.3-2.415a25.218,25.218,0,0,1,5.7-4.3A14.869,14.869,0,0,1,109.726,8.3a11.266,11.266,0,0,1,6.884,2.377,10.973,10.973,0,0,1,3.4,5.648,29.925,29.925,0,0,1,.818,5.172,45.046,45.046,0,0,0,.761,5.534,34.483,34.483,0,0,1-.78-5.039,35,35,0,0,0-.8-5.458,10.982,10.982,0,0,0-3.442-5.819,10.73,10.73,0,0,0-6.466-2.358,14.712,14.712,0,0,0-6.028,1.027A19.039,19.039,0,0,0,98.412,13s.38-.323,1.1-.894a18.683,18.683,0,0,1,3.233-2.035,13.734,13.734,0,0,1,11.657-.59,9.485,9.485,0,0,1,4.621,4.7,18,18,0,0,1,1.369,5.591c.323,3.347.551,5.7.646,6.294,0,0-.323-1.845-.589-4.773a32.31,32.31,0,0,0-.856-5.058,10.248,10.248,0,0,0-3.214-5.249,10.3,10.3,0,0,0-5.9-2.244,13.577,13.577,0,0,0-5.61.78,16.229,16.229,0,0,0-5.629,3.442,9.023,9.023,0,0,1,.989-.761,19.87,19.87,0,0,1,2.872-1.75,13.392,13.392,0,0,1,10.174-.837,8.9,8.9,0,0,1,4.526,3.518,13.074,13.074,0,0,1,1.75,4.906c.456,3.138.513,5.553.609,6.409l-.266-2.89a26.255,26.255,0,0,0-.59-3.955,22.709,22.709,0,0,1,.342,2.51,23.946,23.946,0,0,0-.8-3.993A11.846,11.846,0,0,0,118,13.931s.19.361.418.913a16.367,16.367,0,0,1,.647,2.149,18.954,18.954,0,0,1,.4,3.537s.114.723.057.019c-.038-.361-.1-1.084-.3-2.4a17.163,17.163,0,0,0-.666-2.415,9.081,9.081,0,0,0-1.75-3.1,1.987,1.987,0,0,0-.323-.361,6.118,6.118,0,0,0-1.046-.951,9.528,9.528,0,0,0-5.077-1.788,13.619,13.619,0,0,0-8.386,2.244,24.726,24.726,0,0,0-4.317,3.5c-.7.7-1.407,1.445-2.092,2.244-.723.837-1.464,1.692-2.206,2.586-.4-.609-.837-1.217-1.255-1.826a13.516,13.516,0,0,0-1.331-1.635,11.612,11.612,0,0,0-1.521-1.54,13.686,13.686,0,0,0-1.692-1.426,25.124,25.124,0,0,0-8.386-4.165C72.929,7.674,65.171,8.074,59.009,12.2Z" transform="translate(-57.26 -6.795)" fill="#6e321d"/>
    </g>
    <g id="Group_105" data-name="Group 105" transform="translate(1844 13)" opacity="0.7">
      <path id="Path_6-2" data-name="Path 6" d="M59.009,12.2s-.114.609-.494-.038l-.476-.418-.646-.152-.133-.437s.228-.19,1.978-1.293a26.4,26.4,0,0,1,4.2-1.826A25.948,25.948,0,0,1,71.617,6.8a9.679,9.679,0,0,1,.989.019,22.4,22.4,0,0,1,2.757.209,26.609,26.609,0,0,1,12.323,4.906c.494.38,1.046.78,1.616,1.255q.8.77,1.711,1.654c.57.609,1.141,1.312,1.75,2.035a3.859,3.859,0,0,1,.4.57l.228.342.1.152,1.027-1.16c.723-.8,1.483-1.616,2.3-2.415a25.218,25.218,0,0,1,5.7-4.3A14.869,14.869,0,0,1,109.726,8.3a11.266,11.266,0,0,1,6.884,2.377,10.973,10.973,0,0,1,3.4,5.648,29.925,29.925,0,0,1,.818,5.172,45.046,45.046,0,0,0,.761,5.534,34.483,34.483,0,0,1-.78-5.039,35,35,0,0,0-.8-5.458,10.982,10.982,0,0,0-3.442-5.819,10.73,10.73,0,0,0-6.466-2.358,14.712,14.712,0,0,0-6.028,1.027A19.039,19.039,0,0,0,98.412,13s.38-.323,1.1-.894a18.683,18.683,0,0,1,3.233-2.035,13.734,13.734,0,0,1,11.657-.59,9.485,9.485,0,0,1,4.621,4.7,18,18,0,0,1,1.369,5.591c.323,3.347.551,5.7.646,6.294,0,0-.323-1.845-.589-4.773a32.31,32.31,0,0,0-.856-5.058,10.248,10.248,0,0,0-3.214-5.249,10.3,10.3,0,0,0-5.9-2.244,13.577,13.577,0,0,0-5.61.78,16.229,16.229,0,0,0-5.629,3.442,9.023,9.023,0,0,1,.989-.761,19.87,19.87,0,0,1,2.872-1.75,13.392,13.392,0,0,1,10.174-.837,8.9,8.9,0,0,1,4.526,3.518,13.074,13.074,0,0,1,1.75,4.906c.456,3.138.513,5.553.609,6.409l-.266-2.89a26.255,26.255,0,0,0-.59-3.955,22.709,22.709,0,0,1,.342,2.51,23.946,23.946,0,0,0-.8-3.993A11.846,11.846,0,0,0,118,13.931s.19.361.418.913a16.367,16.367,0,0,1,.647,2.149,18.954,18.954,0,0,1,.4,3.537s.114.723.057.019c-.038-.361-.1-1.084-.3-2.4a17.163,17.163,0,0,0-.666-2.415,9.081,9.081,0,0,0-1.75-3.1,1.987,1.987,0,0,0-.323-.361,6.118,6.118,0,0,0-1.046-.951,9.528,9.528,0,0,0-5.077-1.788,13.619,13.619,0,0,0-8.386,2.244,24.726,24.726,0,0,0-4.317,3.5c-.7.7-1.407,1.445-2.092,2.244-.723.837-1.464,1.692-2.206,2.586-.4-.609-.837-1.217-1.255-1.826a13.516,13.516,0,0,0-1.331-1.635,11.612,11.612,0,0,0-1.521-1.54,13.686,13.686,0,0,0-1.692-1.426,25.124,25.124,0,0,0-8.386-4.165C72.929,7.674,65.171,8.074,59.009,12.2Z" transform="translate(-57.26 -6.795)" fill="#6e321d"/>
    </g>
    <g id="Group_1-2" data-name="Group 1" transform="translate(71.827 150.289)">
      <path id="Path_1-2" data-name="Path 1" d="M6.068,37.846a.7.7,0,0,1,.043.079.477.477,0,0,1,.047.167.154.154,0,0,1-.07.149.467.467,0,0,1-.308.026l-.534.153-.421.475-.35-.174.013-.455c0-.1.006-.21.02-.344s.034-.288.063-.465.065-.379.111-.606.1-.482.164-.767.169-.586.28-.925.243-.708.407-1.1.358-.819.594-1.267a16.109,16.109,0,0,1,.843-1.415c.323-.489.692-1,1.115-1.532s.9-1.079,1.43-1.641,1.124-1.136,1.779-1.717,1.373-1.17,2.161-1.761c0,0,.076-.063.223-.181s.368-.29.656-.507.645-.48,1.067-.78.909-.636,1.457-1,1.163-.743,1.825-1.151,1.375-.837,2.139-1.282,1.576-.906,2.436-1.376,1.765-.951,2.715-1.434l.16-.08c.106-.052.263-.129.469-.226s.461-.216.761-.353.648-.291,1.038-.46.837-.349,1.324-.535,1.02-.377,1.6-.559,1.2-.356,1.871-.509S34.576,14,35.335,13.9a20.714,20.714,0,0,1,2.365-.157,17.845,17.845,0,0,1,2.556.159,15.306,15.306,0,0,1,2.64.6,13.73,13.73,0,0,1,2.617,1.156,8.784,8.784,0,0,1,1.221.83c.384.3.748.626,1.1.926a12.544,12.544,0,0,0,1.006.806,2.962,2.962,0,0,0,.95.47,1.687,1.687,0,0,0,.458.045,1.716,1.716,0,0,0,.454-.083,2.4,2.4,0,0,0,.465-.21,4.076,4.076,0,0,0,.489-.337c.166-.128.339-.272.518-.425s.364-.315.553-.481.384-.334.581-.5.4-.33.6-.486a21.552,21.552,0,0,1,2.582-1.691,23.878,23.878,0,0,1,2.766-1.316,25.965,25.965,0,0,1,2.87-.957,27.155,27.155,0,0,1,2.9-.616,28.7,28.7,0,0,1,2.865-.3c.942-.052,1.87-.058,2.775-.028s1.788.1,2.641.2,1.676.223,2.463.369c1.576.316,3.017.689,4.309,1.078s2.433.794,3.409,1.173,1.787.733,2.416,1.021,1.079.508,1.332.62l-1.484-.67c-.238-.1-.5-.213-.791-.333s-.6-.248-.942-.382-.7-.273-1.085-.417-.791-.29-1.219-.437c-.851-.293-1.789-.588-2.8-.862s-2.086-.529-3.217-.741a35.361,35.361,0,0,0-3.531-.482,29.955,29.955,0,0,0-3.739-.087,26.453,26.453,0,0,0-3.756.373,27.807,27.807,0,0,0-3.609.868,25.4,25.4,0,0,0-3.294,1.282,19.693,19.693,0,0,0-2.811,1.614,14.381,14.381,0,0,0-1.206.871c-.371.3-.712.592-1.025.867s-.6.529-.859.743a4.6,4.6,0,0,1-.706.5,2.324,2.324,0,0,1-.558.24,1.605,1.605,0,0,1-.443.059,1.522,1.522,0,0,1-.329-.041c-.091-.021-.163-.045-.216-.058a.312.312,0,0,1,.064.024,1.307,1.307,0,0,0,.192.056,1.581,1.581,0,0,0,.313.034,1.95,1.95,0,0,0,.426-.044,1.82,1.82,0,0,0,.261-.085,2.751,2.751,0,0,0,.294-.141q.155-.085.327-.2t.358-.267l.413-.345.436-.369.457-.39.478-.41a18.58,18.58,0,0,1,2.4-1.651,24.052,24.052,0,0,1,2.92-1.438,26.1,26.1,0,0,1,3.3-1.11,24.9,24.9,0,0,1,3.548-.668,27.33,27.33,0,0,1,3.613-.228,32.413,32.413,0,0,1,3.518.2c1.142.126,2.248.306,3.3.521s2.036.466,2.947.734,1.763.541,2.524.809,1.437.529,2.018.767,1.066.452,1.444.625.649.308.8.385l-.09-.04-.265-.116-.433-.189-.594-.258c-.222-.089-.469-.188-.74-.293s-.565-.218-.882-.336-.655-.241-1.014-.368-.739-.257-1.138-.389c-.792-.257-1.666-.515-2.606-.754s-1.945-.459-3-.641-2.155-.326-3.286-.411a29.506,29.506,0,0,0-3.468-.064,25.9,25.9,0,0,0-3.5.34,27.277,27.277,0,0,0-3.375.781A25.239,25.239,0,0,0,58.471,13.9a20.078,20.078,0,0,0-2.693,1.457c-.408.251-.794.515-1.156.782s-.7.538-1.017.8-.607.519-.875.758-.51.458-.728.65a4.557,4.557,0,0,1-.639.454,3.25,3.25,0,0,1-.547.256,2.453,2.453,0,0,1-.439.113,1.948,1.948,0,0,1-.315.024.622.622,0,0,0,.077.009,1.426,1.426,0,0,0,.22,0,2.125,2.125,0,0,0,.349-.062,3.322,3.322,0,0,0,1.04-.494c.2-.143.421-.318.654-.514s.483-.414.753-.646.56-.475.874-.723a18.507,18.507,0,0,1,2.121-1.445,23.569,23.569,0,0,1,2.572-1.3,25.243,25.243,0,0,1,2.918-1.058,23.975,23.975,0,0,1,3.158-.7,25.848,25.848,0,0,1,3.246-.336,30.578,30.578,0,0,1,3.205.038c1.049.066,2.071.182,3.048.334s1.908.341,2.775.553,1.679.437,2.418.664,1.405.454,1.991.667,1.09.412,1.5.583.735.312.955.41l-.247-.1c-.158-.064-.387-.155-.666-.264s-.611-.233-.976-.366-.762-.271-1.174-.407-.843-.281-1.267-.408-.841-.245-1.232-.349S77.621,13.074,77.3,13s-.589-.129-.792-.163q.35.081.7.171t.7.186q.346.1.689.2t.68.2q-.557-.161-1.119-.305t-1.125-.27q-.563-.126-1.127-.234t-1.126-.195q-.331-.057-.664-.109t-.668-.1q-.335-.047-.67-.086t-.672-.071s.114.011.314.033.486.056.828.1.742.1,1.171.177.885.157,1.341.257.919.209,1.353.322.841.227,1.2.334.663.2.894.285a3.25,3.25,0,0,1,.44.174l.113.028c.063.015.139.033.191.042s.08.01.047-.008a2.988,2.988,0,0,0-.318-.121l-.369-.108c-.15-.043-.328-.094-.541-.152s-.46-.123-.748-.2-.616-.152-.99-.239-.783-.169-1.248-.259-.982-.179-1.555-.26-1.2-.154-1.894-.209-1.444-.093-2.264-.1l-.09,0-.269-.007c-.119,0-.268,0-.445,0s-.384,0-.618,0-.5.016-.786.032-.609.038-.954.069-.717.072-1.115.124-.821.117-1.269.2-.923.169-1.417.284-1.011.251-1.545.413-1.087.351-1.656.57-1.153.468-1.75.753q-.448.213-.9.457t-.91.521q-.456.278-.911.592t-.906.668q-.225.168-.447.348t-.443.372q-.221.191-.444.39l-.449.4c-.153.129-.311.259-.476.384a5.831,5.831,0,0,1-.514.353,3.773,3.773,0,0,1-.562.281,2.912,2.912,0,0,1-.62.171,2.509,2.509,0,0,1-.658.016,2.987,2.987,0,0,1-.638-.141,3.821,3.821,0,0,1-.605-.266,4.856,4.856,0,0,1-.56-.358c-.182-.13-.359-.268-.534-.411s-.348-.291-.522-.439-.348-.3-.526-.444-.36-.289-.547-.426a10.813,10.813,0,0,0-1.171-.752,11.882,11.882,0,0,0-1.295-.619,12.691,12.691,0,0,0-1.4-.475,13.18,13.18,0,0,0-1.476-.319,15.407,15.407,0,0,0-3.106-.2,19.353,19.353,0,0,0-3.209.387,24.384,24.384,0,0,0-3.243.9,29.757,29.757,0,0,0-3.208,1.353q-.8.388-1.6.808t-1.594.865q-.8.445-1.6.91t-1.622.943q-.806.474-1.617.97t-1.619,1.02q-.808.524-1.611,1.078t-1.592,1.145q-.785.584-1.55,1.214t-1.491,1.309q-.727.679-1.408,1.407t-1.3,1.506a15.963,15.963,0,0,0-1.159,1.633,15.238,15.238,0,0,0-.935,1.755,14.344,14.344,0,0,0-.688,1.852A13.444,13.444,0,0,0,6.068,37.846Z" transform="translate(0 0)" fill="#6e321d"/>
    </g>
  </g>
</svg>
